<?xml version="1.0" standalone="no"?>
<!DOCTYPE svg PUBLIC "-//W3C//DTD SVG 1.1//EN" "http://www.w3.org/Graphics/SVG/1.1/DTD/svg11.dtd" >
<svg xmlns="http://www.w3.org/2000/svg" xmlns:xlink="http://www.w3.org/1999/xlink" version="1.1">
<metadata>
Created by FontForge 20150318 at Sun Oct 18 11:45:56 2015
 By uniteet7
Copyright 1990-1992 as an unpublished work by Bitstream Inc.  All rights reserved. Confidential. Copyright (c) ParaType, Inc., 2001. All rights reserved.
</metadata>
<defs>
<font id="CooperLightCBTBoldItalic_2" horiz-adv-x="588" >
  <font-face 
    font-family="CooperLightCBTBoldItalic_2"
    font-weight="300"
    font-style="italic"
    font-stretch="normal"
    units-per-em="1000"
    panose-1="0 0 4 0 0 0 0 0 0 0"
    ascent="734"
    descent="-266"
    x-height="519"
    cap-height="729"
    bbox="-113 -266 1214 1001"
    underline-thickness="50"
    underline-position="-50"
    slope="-13.44"
    unicode-range="U+0020-F6D4"
  />
<missing-glyph horiz-adv-x="294" 
 />
    <glyph glyph-name=".notdef" horiz-adv-x="294" 
 />
    <glyph glyph-name=".null" horiz-adv-x="0" 
 />
    <glyph glyph-name="nonmarkingreturn" horiz-adv-x="333" 
 />
    <glyph glyph-name="space" unicode=" " horiz-adv-x="294" 
 />
    <glyph glyph-name="space" unicode="&#xa0;" horiz-adv-x="294" 
 />
    <glyph glyph-name="exclam" unicode="!" horiz-adv-x="343" 
d="M34 81q0 41 27.5 68.5t67.5 27.5t67.5 -28t27.5 -68t-27.5 -67.5t-67.5 -27.5t-67.5 27.5t-27.5 67.5zM151 237q-51 0 -51 182q0 321 124 321q67 0 67 -106q0 -115 -64 -291q-21 -59 -37 -82.5t-39 -23.5z" />
    <glyph glyph-name="quotedbl" unicode="&#x22;" horiz-adv-x="350" 
d="M101 413h-21l-42 226q-2 12 -2 18q0 27 14.5 42.5t39.5 15.5t40 -15.5t15 -41.5q0 -7 -2 -19zM270 413h-22l-41 226q-2 12 -2 18q0 27 14.5 42.5t39.5 15.5t39.5 -15.5t14.5 -41.5q0 -13 -1 -19z" />
    <glyph glyph-name="numbersign" unicode="#" horiz-adv-x="769" 
d="M334 716h121l-68 -192h118l68 192h121l-68 -192h132l-42 -112h-130l-40 -114h135l-41 -112h-134l-69 -192h-121l69 192h-118l-69 -192h-121l69 192h-135l42 112h133l40 114h-139l42 112h137zM344 412l-41 -114h124l41 114h-124z" />
    <glyph glyph-name="dollar" unicode="$" 
d="M207 0q-92 14 -120 35t-28 77q0 60 9 86.5t34 26.5q16 0 24 -8t16 -32t14 -36q42 -81 107 -81q36 0 62.5 25.5t26.5 55.5q0 8 -2 16t-4.5 14.5t-9 14.5t-11 13.5t-15 14t-17 13.5t-20.5 14.5t-22 15t-25.5 17t-27.5 18.5q-92 61 -92 141q0 72 52.5 125t139.5 63l10 66
q3 19 7 23t19 4h41q17 0 17 -14q0 -4 -1 -10l-11 -69q75 -10 104.5 -28.5t29.5 -60.5q0 -52 -8 -73t-33 -21q-15 0 -23.5 9t-22.5 33q-23 39 -41.5 55.5t-49.5 16.5q-34 0 -56.5 -23t-22.5 -59q0 -13 5 -24.5t11 -20t21.5 -20.5t27 -20t36.5 -24.5t41 -27.5
q105 -72 105 -151q0 -77 -60 -134t-154 -58l-11 -76q-2 -21 -7 -27t-23 -6h-30q-14 0 -19.5 3t-5.5 14q0 3 1.5 10t1.5 10z" />
    <glyph glyph-name="percent" unicode="%" horiz-adv-x="826" 
d="M20 440q0 88 56.5 147t139.5 59q71 0 115.5 -45t44.5 -117q0 -83 -60 -145q-55 -57 -137 -57q-72 0 -115.5 43t-43.5 115zM204 580q-28 0 -48.5 -35.5t-20.5 -93.5q0 -103 59 -103q26 0 44.5 34t18.5 92q0 106 -53 106zM690 605q0 -7 -26.5 -38t-90.5 -107.5t-127 -160.5
q-142 -188 -193 -288q-17 -35 -27 -35q-8 0 -41 18q-36 20 -36 38q0 9 15 26q28 30 60 69.5t50.5 63t60 80t53.5 71.5q168 224 198 283q2 3 4.5 8.5t4 8t3.5 6t3.5 5.5t3.5 4t4 2.5t5 0.5q17 0 46.5 -20t29.5 -35zM451 144q0 88 56.5 147t139.5 59q71 0 114.5 -44.5
t43.5 -117.5q0 -86 -56.5 -144t-138.5 -58q-72 0 -115.5 43t-43.5 115zM635 284q-28 0 -48.5 -35.5t-20.5 -93.5q0 -103 59 -103q26 0 44.5 34t18.5 92q0 106 -53 106z" />
    <glyph glyph-name="ampersand" unicode="&#x26;" horiz-adv-x="940" 
d="M284 400q-56 -71 -56 -146q0 -77 48.5 -124.5t126.5 -47.5q70 0 115.5 37t45.5 89q0 33 -16.5 53t-43.5 20q-29 0 -52.5 -22t-23.5 -38q0 -3 -6.5 -7t-13.5 -4q-13 0 -22.5 12t-9.5 32q0 47 40 80.5t135 80.5q21 11 57 28.5t52.5 25.5t41.5 21.5t36.5 22t24 20t17 23
t4.5 23.5q0 38 -39 38q-10 0 -26 -5t-22 -5q-21 0 -21 24q0 33 37 61t90 28t83.5 -28t30.5 -76q0 -78 -61.5 -131.5t-198.5 -105.5q62 -38 62 -115q0 -110 -101 -192q-115 -93 -292 -93q-132 0 -210.5 65t-78.5 168q0 147 158 243q-33 39 -33 89q0 80 68.5 138t170.5 58
q63 0 102 -22t39 -52q0 -20 -12 -31.5t-33 -11.5q-11 0 -41 6.5t-48 6.5q-37 0 -62.5 -24.5t-25.5 -57.5q0 -42 35 -70q8 -6 19.5 -12t18 -9.5t6.5 -8.5q0 -17 -23 -44t-44 -27q-16 0 -48 17z" />
    <glyph glyph-name="quotesingle" unicode="'" horiz-adv-x="181" 
d="M101 413h-21l-42 226q-2 12 -2 18q0 26 15 42t40 16t39.5 -15.5t14.5 -41.5q0 -7 -2 -19z" />
    <glyph glyph-name="parenleft" unicode="(" horiz-adv-x="407" 
d="M298 -150q-79 0 -170 106q-94 110 -94 274q0 175 110 322q67 89 143.5 139t130.5 50q10 0 17 -5.5t7 -13.5q0 -11 -8 -17q-2 -2 -28 -19t-51 -41t-47 -58q-109 -165 -109 -427q0 -120 48 -197q13 -21 32.5 -39t31 -29t11.5 -21t-7 -17t-17 -7z" />
    <glyph glyph-name="parenright" unicode=")" horiz-adv-x="407" 
d="M82 740q80 0 171 -106q93 -108 93 -274q0 -175 -109 -321q-67 -89 -144 -139t-131 -50q-10 0 -17 5.5t-7 13.5q0 11 8 17q2 2 28 19t51 41t47 58q109 165 109 427q0 120 -48 197q-13 21 -32.5 39t-31 29t-11.5 21q0 23 24 23z" />
    <glyph glyph-name="asterisk" unicode="*" horiz-adv-x="500" 
d="M277 454q0 41 -17 41q-21 0 -27 -48q-3 -37 -5 -42q-6 -20 -22.5 -32t-37.5 -12q-27 0 -46.5 18.5t-19.5 45.5q0 55 68 66q56 9 56 34q0 14 -33 14q-12 0 -32.5 -5.5t-28.5 -5.5q-27 0 -46.5 18.5t-19.5 42.5q0 27 18.5 47t45.5 20q36 0 57 -35q2 -3 7 -12t7 -12t6 -9.5
t7 -9t7 -6t8 -5t8 -1.5q13 0 13 12q0 20 -17.5 50.5t-17.5 46.5q0 28 18 47t45 19q28 0 46 -18.5t18 -44.5q0 -24 -28.5 -56.5t-28.5 -49.5q0 -12 13 -12q18 0 40 23q3 3 12.5 14t15 15.5t16.5 9.5t24 5q26 0 45.5 -19t19.5 -44q0 -26 -20 -45.5t-48 -19.5q-13 0 -40.5 14
t-46.5 14q-18 0 -18 -13q0 -23 48 -41q54 -19 54 -66q0 -26 -19 -44.5t-46 -18.5q-26 0 -44.5 18t-18.5 44q0 8 2.5 24.5t2.5 23.5z" />
    <glyph glyph-name="plus" unicode="+" horiz-adv-x="833" 
d="M359 596h116v-241h234v-113h-234v-242h-116v242h-235v113h235v241z" />
    <glyph glyph-name="comma" unicode="," horiz-adv-x="294" 
d="M10 -187q0 6 6.5 15t20.5 26t24 32q39 56 39 85q0 16 -9 20q-39 17 -48 27q-13 15 -13 49q0 48 27.5 78t69.5 30q37 0 59.5 -27t22.5 -73q0 -75 -70 -177q-28 -41 -41.5 -59.5t-30 -33t-30.5 -14.5q-11 0 -19 7t-8 15z" />
    <glyph glyph-name="hyphen" unicode="-" horiz-adv-x="389" 
d="M159 201q-25 0 -55 -2.5t-35 -2.5q-34 0 -34 32q0 25 19 70q9 22 17.5 26.5t34.5 4.5q5 0 37 -0.5t60 -0.5t58.5 2.5t32.5 2.5q18 0 25.5 -7t7.5 -24q0 -39 -24 -82q-7 -13 -14.5 -17t-21.5 -4q-3 0 -14 0.5t-18 0.5q-1 0 -26.5 0.5t-49.5 0.5z" />
    <glyph glyph-name="hyphen" unicode="&#xad;" horiz-adv-x="389" 
d="M159 201q-25 0 -55 -2.5t-35 -2.5q-34 0 -34 32q0 25 19 70q9 22 17.5 26.5t34.5 4.5q5 0 37 -0.5t60 -0.5t58.5 2.5t32.5 2.5q18 0 25.5 -7t7.5 -24q0 -39 -24 -82q-7 -13 -14.5 -17t-21.5 -4q-3 0 -14 0.5t-18 0.5q-1 0 -26.5 0.5t-49.5 0.5z" />
    <glyph glyph-name="period" unicode="." horiz-adv-x="294" 
d="M27 81q0 41 27.5 68.5t67.5 27.5t67 -27.5t27 -68.5q0 -40 -27 -67.5t-67 -27.5t-67.5 27.5t-27.5 67.5z" />
    <glyph glyph-name="slash" unicode="/" horiz-adv-x="278" 
d="M186 719q6 23 57 23q27 0 27 -14q0 -6 -3 -18l-200 -782q-6 -20 -57 -20q-31 0 -31 13q0 2 1 5v2z" />
    <glyph glyph-name="zero" unicode="0" 
d="M19 269q0 126 61 225q45 72 111.5 112t139.5 40q109 0 173.5 -73.5t64.5 -197.5q0 -166 -107 -288q-89 -101 -208 -101q-104 0 -169.5 77t-65.5 206zM322 559q-52 0 -89.5 -90.5t-37.5 -237.5q0 -154 70 -154q51 0 89 90.5t38 239.5q0 72 -19 112t-51 40z" />
    <glyph glyph-name="one" unicode="1" 
d="M146 542q0 31 74 56q123 41 204 41q51 0 51 -30q0 -17 -22 -34q-3 -2 -10 -6t-10.5 -6.5t-8 -10.5t-7.5 -20q-18 -89 -30 -173q-27 -183 -27 -244q0 -20 4.5 -26.5t23.5 -11.5q4 -1 13.5 -4t12.5 -4t9.5 -3.5t9 -4.5t6 -5.5t4.5 -8t1 -9.5q0 -25 -40.5 -34.5t-133.5 -9.5
q-101 0 -144 8.5t-43 33.5q0 22 43 37q6 2 16 4.5t14 4t10 5t9.5 9.5t6.5 16q6 18 26 154q27 186 27 221q0 25 -29 29q-7 1 -18.5 1.5t-17 1.5t-12 3.5t-9.5 7t-3 12.5z" />
    <glyph glyph-name="two" unicode="2" 
d="M24 0q-21 0 -29.5 1t-14 6t-5.5 16q0 8 5 15.5t8 10t16 13.5l106 91q57 48 81.5 69.5t63 60t54 63t28.5 57.5t13 66q0 73 -65 73q-47 0 -106 -48q-6 -5 -20.5 -17t-20.5 -17t-16 -9.5t-20 -4.5q-35 0 -35 33q0 40 70 92q101 75 204 75q85 0 137.5 -46.5t52.5 -121.5
q0 -63 -41 -116.5t-131 -119.5l-165 -122h150q61 0 88 20q13 9 25.5 25.5t22 26t20.5 9.5q12 0 19.5 -9.5t7.5 -25.5q0 -42 -54 -147q-30 -57 -57 -57q-23 0 -36 38h-356z" />
    <glyph glyph-name="three" unicode="3" 
d="M372 329q138 -39 138 -158q0 -112 -98 -188q-107 -84 -255 -84q-87 0 -140 21.5t-53 51.5q0 17 13.5 29.5t31.5 12.5q11 0 60 -14t88 -14q77 0 126.5 43.5t49.5 107.5q0 52 -31 79.5t-91 27.5q-19 0 -41.5 -3.5t-25.5 -3.5q-24 0 -24 39q0 10 0.5 17t4 13t5.5 9t9.5 6.5
t11 4.5t16.5 5t19 6q66 21 102.5 60.5t36.5 82.5q0 33 -20.5 53t-56.5 20t-82.5 -21.5t-59.5 -21.5q-37 0 -37 31q0 36 68.5 70.5t161.5 34.5q90 0 142.5 -41.5t52.5 -110.5q0 -52 -32.5 -96t-89.5 -69z" />
    <glyph glyph-name="four" unicode="4" 
d="M330 -130q-20 0 -28 6t-8 22q0 4 2 16l17 126h-298q-20 0 -27 3.5t-7 14.5q0 5 1 12l5 32q6 44 74 127t228 254q93 100 122 123q49 40 98 40q22 0 31 -7.5t9 -25.5q0 -13 -2 -24l-63 -433h38q20 0 20 -21v-6l-9 -63q-2 -15 -9 -20.5t-23 -5.5h-32l-15 -124
q-3 -25 -12.5 -35.5t-32.5 -10.5h-79zM129 159h174q15 0 21 5.5t8 21.5l32 226q1 5 1 12q0 12 -8 12q-17 0 -173 -182l-47 -56q-20 -25 -20 -32t12 -7z" />
    <glyph glyph-name="five" unicode="5" 
d="M194 403q-3 -7 -3 -15q0 -5 16 -8l27 -6q142 -32 201.5 -75t59.5 -127q0 -103 -80 -180q-41 -40 -103 -63.5t-128 -23.5q-79 0 -126.5 19t-47.5 46q0 19 12 30t34 11q10 0 45 -8t61 -8q63 0 103.5 38t40.5 95q0 47 -32.5 71.5t-107.5 42.5q-76 19 -89 29q-11 10 -11 24
q0 5 9 35.5t37 100t66 147.5q17 35 31 44t48 10l73 1q43 1 81 3t62.5 4.5t42.5 5t28 4.5t11 2q14 0 14 -16q0 -38 -17.5 -75t-36.5 -46q-22 -10 -137 -12h-85q-35 0 -52 -12.5t-34 -55.5z" />
    <glyph glyph-name="six" unicode="6" 
d="M249 405q64 55 148 55q72 0 112 -47.5t40 -135.5q0 -128 -80.5 -210t-204.5 -82q-103 0 -164.5 61t-61.5 164q0 192 160 369q55 61 104.5 96t70.5 35q22 0 47.5 -15.5t25.5 -23.5q0 -7 -10 -17t-34 -31.5t-44 -44.5q-76 -85 -109 -173zM371 226q0 51 -17.5 78.5
t-48.5 27.5q-38 0 -64 -42.5t-26 -114.5q0 -48 19 -75t52 -27q38 0 61.5 40.5t23.5 112.5z" />
    <glyph glyph-name="seven" unicode="7" 
d="M121 -11l264 437q27 43 27 56q0 20 -50 20h-149q-55 0 -72 -24q-3 -4 -10 -15t-10.5 -15t-9 -10t-11.5 -8t-13 -2q-29 0 -29 31q0 18 12.5 59t36.5 84q26 47 52 47q2 0 11.5 -4.5t31.5 -8.5t53 -4h268q27 0 39.5 -1.5t20.5 -7.5t8 -20q0 -11 -51 -118l-253 -524
q-33 -67 -44 -77q-11 -11 -24 -11q-28 0 -71 19q-39 17 -45 25q-5 6 -5 16q0 18 23 56z" />
    <glyph glyph-name="eight" unicode="8" 
d="M188 360q-85 61 -85 139q0 82 70.5 137t182.5 55q95 0 149.5 -42.5t54.5 -114.5q0 -114 -144 -163q114 -71 114 -168q0 -92 -82 -154q-83 -63 -198 -63q-98 0 -159 50t-61 127q0 61 41 113t117 84zM231 323q-57 -76 -57 -141q0 -49 28 -79.5t72 -30.5q40 0 69 27.5
t29 66.5q0 41 -33.5 76.5t-107.5 80.5zM356 416q61 60 61 119q0 36 -20.5 57.5t-54.5 21.5q-35 0 -60.5 -24t-25.5 -57q0 -55 100 -117z" />
    <glyph glyph-name="nine" unicode="9" 
d="M336 225q-82 -57 -150 -57q-71 0 -114 50t-43 134q0 138 99 226q76 68 192 68q105 0 165.5 -63.5t60.5 -175.5q0 -95 -38.5 -180t-119.5 -176q-54 -60 -103 -95t-69 -35q-22 0 -47.5 16t-25.5 24q0 7 10.5 17t34 31.5t44.5 45.5q91 106 104 170zM213 401
q0 -50 17.5 -77.5t48.5 -27.5q38 0 64 42.5t26 113.5q0 47 -19 73.5t-52 26.5q-39 0 -62 -40t-23 -111z" />
    <glyph glyph-name="colon" unicode=":" horiz-adv-x="294" 
d="M11 81q0 41 27.5 68.5t67.5 27.5t67 -27.5t27 -68.5q0 -40 -27 -67.5t-67 -27.5t-67.5 27.5t-27.5 67.5zM58 423q0 41 27.5 68.5t67.5 27.5t67.5 -28t27.5 -68t-27.5 -67.5t-67.5 -27.5t-67.5 27.5t-27.5 67.5z" />
    <glyph glyph-name="semicolon" unicode=";" horiz-adv-x="294" 
d="M58 423q0 41 27.5 68.5t67.5 27.5t67.5 -28t27.5 -68t-27.5 -67.5t-67.5 -27.5t-67.5 27.5t-27.5 67.5zM-4 -187q0 6 6.5 15t20.5 26t24 32q39 56 39 85q0 17 -8 20q-3 1 -11 4.5t-10 4.5t-9 4t-8.5 5t-6.5 5.5t-6.5 6.5t-4.5 8t-3.5 10.5t-1.5 12.5t-1 15q0 47 28 77.5
t70 30.5q37 0 59 -27t22 -73q0 -75 -70 -177q-22 -33 -32 -46.5t-24 -31t-24 -23.5t-21 -6t-19.5 7t-8.5 15z" />
    <glyph glyph-name="less" unicode="&#x3c;" horiz-adv-x="833" 
d="M704 593v-124l-417 -171l417 -170v-124l-575 237v114z" />
    <glyph glyph-name="equal" unicode="=" horiz-adv-x="833" 
d="M124 464h585v-113h-585v113zM124 245h585v-112h-585v112z" />
    <glyph glyph-name="greater" unicode="&#x3e;" horiz-adv-x="833" 
d="M129 593l575 -238v-114l-575 -237v124l417 170l-417 171v124z" />
    <glyph glyph-name="question" unicode="?" horiz-adv-x="528" 
d="M226 231q-25 0 -36 11t-11 37q0 21 5 41.5t10 34.5t19.5 35.5t21 31t26.5 34.5t26 33q49 64 49 123q0 54 -53 54q-28 0 -50 -22q-9 -9 -14 -19.5t-9.5 -27.5t-6.5 -23q-23 -70 -85 -70q-24 0 -38.5 16t-14.5 44q0 71 69.5 124t174.5 53q84 0 133 -41.5t49 -110.5
q0 -71 -50 -121q-22 -22 -71 -58t-67 -57q-8 -9 -14 -21.5t-8 -21.5t-5 -24.5t-5 -23.5q-8 -31 -45 -31zM107 81q0 41 27.5 68.5t67.5 27.5t67.5 -28t27.5 -68t-27.5 -67.5t-67.5 -27.5t-67.5 27.5t-27.5 67.5z" />
    <glyph glyph-name="at" unicode="@" horiz-adv-x="1014" 
d="M842 15l40 -59q-154 -117 -350 -117q-209 0 -339 117.5t-130 291.5q0 95 35.5 183t99 156t158 109t204.5 41q168 0 280 -98t112 -262q0 -134 -81.5 -235t-196.5 -101q-53 0 -75.5 24.5t-25.5 53.5q-65 -74 -146 -74q-58 0 -98.5 44t-40.5 116q0 70 33 139t95.5 116.5
t137.5 47.5q30 0 55 -9.5t30 -9.5q21 0 32 12t23 12t22 -11.5t10 -32.5q0 -27 -31 -182q-20 -104 -20 -135q0 -25 24 -25q22 0 49.5 14t56 41.5t48 77t19.5 111.5q0 127 -80.5 206.5t-227.5 79.5q-92 0 -166 -34t-120 -91.5t-70.5 -131t-24.5 -155.5q0 -156 94 -241t260 -85
q175 0 305 96zM564 431q-55 0 -103 -73t-48 -153q0 -66 48 -66q38 0 72.5 42t53 97.5t18.5 101.5q0 51 -41 51z" />
    <glyph glyph-name="A" unicode="A" horiz-adv-x="778" 
d="M285 297h120q4 0 6.5 0.5t3.5 2.5t1.5 3.5t0.5 4.5v5t-1 5.5t-1 5.5l-9 56q-20 125 -38 125q-11 0 -26 -35l-66 -149q-4 -9 -4 -14q0 -10 13 -10zM462 114l-11 53q-5 26 -17 33t-48 7h-115q-37 0 -52 -11q-6 -4 -11 -10q-12 -14 -22 -38.5t-10 -39.5q0 -6 2 -9.5t6 -6
t13 -7.5l10 -5q1 -1 4.5 -2.5t5 -2.5t4 -3.5t4 -4.5t2.5 -6t1 -9q0 -57 -130 -57q-69 0 -98 8.5t-29 37.5q0 26 25 39q9 4 26.5 10.5t28.5 13.5q21 15 55 76q199 370 231 457q10 25 12 34q4 14 7 26l6 22q6 22 52 22q66 0 87 -32q16 -26 52 -192l31 -144q54 -249 76 -267
q3 -2 7 -4t9.5 -4t8.5 -3q38 -15 38 -44q0 -19 -15 -31.5t-44 -17.5t-49.5 -6t-51.5 -1q-94 0 -127 9t-33 38q0 5 1 9.5t3.5 8t3.5 6t6 5.5t6 4t7 4.5t7 3.5l14 8q14 8 11 23z" />
    <glyph glyph-name="B" unicode="B" horiz-adv-x="699" 
d="M258 323l-19 -149q-3 -21 -3 -38q0 -26 17.5 -38t68.5 -12q76 0 117 33.5t41 98.5q0 59 -35.5 84t-111.5 25q-39 0 -75 -4zM288 551l-16 -119q58 -4 66 -4q153 0 153 113q0 98 -118 98q-47 0 -62.5 -15.5t-22.5 -72.5zM94 633l-7 4q-29 18 -29 37q0 20 12.5 33t37 18.5
t45.5 7t52 1.5q15 0 44.5 -0.5t44.5 -0.5q20 0 61 0.5t61 0.5q243 0 243 -165q0 -68 -51.5 -119.5t-134.5 -63.5q76 -6 129.5 -53.5t53.5 -128.5q0 -93 -72 -151.5t-216 -58.5q-26 0 -77 2t-76 2q-19 0 -59 -1t-59 -1h-18q-24 0 -39 1t-33 5t-27 14t-9 25q0 26 20 39
q6 4 14.5 6.5t17.5 7.5q14 8 17 13q7 8 21 72t33 194t19 190q0 8 0.5 19t0.5 15q0 24 -20 36z" />
    <glyph glyph-name="C" unicode="C" horiz-adv-x="704" 
d="M593 548l-10 13q-2 3 -10.5 14t-11.5 14.5t-10.5 12.5t-12 12.5t-13 10.5t-15.5 9.5t-17 6t-21 5t-23 1.5q-92 0 -159 -85t-67 -239q0 -66 17 -114t44 -73t54 -36t55 -11q70 0 142 62q17 15 31 31q24 28 40 32q4 1 8 1q15 0 25 -11.5t10 -33.5q0 -37 -23 -79t-48 -42
q-2 0 -6.5 1t-6.5 1q-7 0 -15 -4.5t-21.5 -13.5t-27.5 -15q-81 -37 -164 -37q-60 0 -113.5 18.5t-98.5 55.5t-72 101t-27 148q0 192 127 316q65 62 143.5 91.5t153.5 29.5q64 0 111 -19q15 -6 27 -12q8 -5 13 -5q3 0 11 4t13 4q18 0 37 -31q35 -56 35 -101q0 -61 -53 -61
q-29 0 -51 28z" />
    <glyph glyph-name="D" unicode="D" horiz-adv-x="773" 
d="M555 411q0 27 -2.5 52t-13 60.5t-28.5 61.5t-52 44.5t-80 18.5q-41 0 -55.5 -13.5t-23.5 -50.5q-24 -94 -51 -327q-9 -76 -9 -116q0 -11 2 -19t9.5 -18.5t26 -16t47.5 -5.5q114 0 172 90.5t58 238.5zM289 734h104q181 0 266 -82q42 -41 66 -105.5t24 -139.5
q0 -88 -32.5 -169t-94.5 -140q-108 -105 -282 -105q-51 0 -81 2q-19 1 -43 2t-43 2t-41 1q-13 0 -39 -0.5t-39 -0.5q-18 0 -28.5 1t-25.5 4t-22 12t-7 23q0 32 27 47q13 7 22 10q18 4 24 17q11 23 23 110q6 40 15 102.5t13 89t8.5 64.5t6 64.5t1.5 53.5q0 14 -4 22t-7 9.5
t-12 6.5l-14 7q-19 10 -19 35q0 27 27 40q36 17 207 17z" />
    <glyph glyph-name="E" unicode="E" horiz-adv-x="662" 
d="M452 0h-382q-57 0 -77.5 9.5t-20.5 31.5q0 25 18 39q5 4 15.5 7.5t21.5 10.5q16 10 18 13q15 18 31 142q42 286 42 337q0 21 -2.5 27t-17.5 16l-9 6l-7 3.5t-7 4.5q-12 9 -12 31q0 51 93 51h353q29 0 55 7t30 7q14 0 22.5 -10.5t17.5 -31.5q23 -54 23 -96q0 -52 -42 -52
q-12 0 -22 6.5t-13.5 11t-13.5 19.5q-15 24 -31.5 35t-50.5 11h-106q-38 0 -52 -10t-22 -29q-11 -26 -19 -71.5t-8 -78.5q0 -12 4.5 -15.5t22.5 -3.5h62q30 0 43 6.5t24 30.5q3 7 7 19q11 33 12 34q10 23 34 23q22 0 27.5 -11.5t5.5 -38.5q0 -130 -35 -223q-8 -20 -17 -29.5
t-27 -9.5q-29 0 -32 33q-2 51 -9 61q-12 17 -40 17h-72q-10 0 -15.5 -2.5t-6.5 -4.5t-3 -8q-9 -27 -14.5 -84t-5.5 -91q0 -21 4 -31t24 -17t62 -7h58q49 0 73 11t49 38l5.5 5.5t3 5t3.5 7t7.5 14t13.5 23.5q19 34 47 34q33 0 33 -41q0 -70 -49 -167q-21 -39 -41 -39
q-2 0 -28 7q-28 7 -55 7z" />
    <glyph glyph-name="F" unicode="F" horiz-adv-x="634" 
d="M304 428h62h9q20 0 33.5 6.5t24.5 30.5q1 3 4 11t7 18q1 4 4 13t5 13t6 10t11 8.5t16 2.5q15 0 22.5 -7.5t9 -16t1.5 -22.5q0 -131 -35 -227q-7 -20 -16.5 -29.5t-26.5 -9.5q-30 0 -33 33q-2 51 -9 61q-12 17 -40 17h-72q-10 0 -15.5 -2.5t-6.5 -4.5t-3 -8q0 -2 -1 -4.5
t-2 -4.5q0 -4 -3 -26q-16 -116 -16 -150q0 -32 17 -41l12 -5q30 -13 36 -25q4 -9 4 -18q0 -19 -12.5 -31t-36.5 -17t-45.5 -6.5t-53.5 -1.5h-32q-90 0 -123.5 10.5t-33.5 37.5q0 23 18 37q6 5 26 13q20 7 29 18q11 17 31 142q42 296 42 338q0 14 -1 19.5t-5 11.5t-14 11
l-9 5q-20 12 -24 24q-2 7 -2 15q0 52 93 52h353q23 0 51 6l32 8q24 0 42 -42q23 -55 23 -94q0 -29 -13 -41.5t-30 -12.5q-25 0 -48 37q-16 25 -33 35.5t-49 10.5h-106q-38 0 -52 -10t-22 -29q-27 -67 -27 -151q0 -12 4 -15t23 -3z" />
    <glyph glyph-name="G" unicode="G" horiz-adv-x="796" 
d="M731 250l-12 -4q-1 0 -4 -1t-4 -1.5t-3.5 -1.5t-3.5 -1.5t-3 -2t-3 -3t-2.5 -4t-3 -5.5t-3 -6.5t-2.5 -7.5q-5 -14 -10.5 -40t-13 -43.5t-24.5 -39.5q-39 -50 -118 -79t-164 -29q-152 0 -241.5 88t-89.5 236q0 192 127 315q126 121 297 121q60 0 110 -19l28 -12
q8 -5 13 -5q3 0 11 4t13 4q17 0 37 -30q35 -53 35 -103q0 -60 -54 -60q-27 0 -50 28q-2 3 -19 25.5t-28 34.5q-37 39 -96 39q-93 0 -160 -85t-67 -239q0 -117 50.5 -175.5t126.5 -58.5q57 0 88 30.5t31 85.5q0 33 -21 39l-23 6q-2 1 -7.5 2t-7.5 1.5t-6.5 2t-6 3t-5 3.5
t-4.5 5t-3 6.5t-2.5 8t-0.5 10.5q0 16 8 27t20.5 17t37 9t49 4t65.5 1h18q25 0 40.5 -0.5t37 -4t33.5 -9.5t21 -17.5t9 -28.5q0 -27 -40 -40z" />
    <glyph glyph-name="H" unicode="H" horiz-adv-x="757" 
d="M253 91l8 -5q23 -15 23 -37q0 -20 -13.5 -31t-53 -17t-111.5 -6h-21q-27 0 -43 1t-34.5 5t-27.5 14t-9 26q0 26 20 39q16 8 30 14q15 8 19 13q9 11 21 72q27 131 40 236q12 96 12 179v3q0 24 -19 36l-7 4q-29 17 -29 37q0 21 14 35t41.5 19t46 6t49.5 1h18q72 0 109 -8.5
t37 -39.5q0 -7 -1 -12.5t-4.5 -10t-5.5 -8t-7.5 -7t-7 -5t-8.5 -4.5l-7 -4l-6 -4q-6 -3 -11 -6.5t-7 -5.5q-10 -11 -19 -67.5t-9 -89.5q0 -18 14.5 -23t71.5 -5h27h36q63 0 74 18q8 14 14 64.5t6 85.5v3q0 20 -16 27l-4 2q-28 14 -28 38q0 21 13.5 34.5t41 19t49 7t55.5 1.5
h13q71 0 105 -10t34 -39q0 -20 -12 -30.5t-31 -18.5t-27 -16q-12 -12 -28 -124q-44 -291 -44 -362q0 -14 1 -19.5t5 -10t13 -9.5l6 -3q17 -8 24.5 -16t7.5 -23q0 -21 -13.5 -34t-39.5 -18t-46.5 -6.5t-51.5 -1.5h-17q-65 0 -99 7.5t-41 16t-7 24.5q0 28 22 39l16 8q2 1 8 3
t10.5 5.5t7.5 9.5q10 22 19 74q17 89 17 123q0 20 -16 25.5t-62 5.5h-33h-20h-28q-60 0 -66 -17q-24 -70 -24 -196q0 -7 1 -12.5t3 -8.5t3.5 -4.5t4.5 -3t4 -2.5z" />
    <glyph glyph-name="I" unicode="I" horiz-adv-x="359" 
d="M94 633l-7 4q-29 16 -29 39q0 20 13 33t38.5 18t45.5 6.5t53 1.5h19h8q33 0 52 -1t43 -5.5t35 -15t11 -27.5q0 -25 -23 -41q-11 -8 -18 -10q-19 -7 -27 -20q-8 -16 -27 -137q-41 -266 -41 -359q0 -5 1 -9.5t1.5 -6.5t3 -4.5l3 -3t4 -2.5t4.5 -2l8 -5q23 -15 23 -37
q0 -19 -11.5 -30t-52 -17.5t-117.5 -6.5h-27q-31 0 -51.5 2t-39 13t-18.5 31q0 27 20 39q12 8 32 14q11 5 17 13q7 10 21 72q52 228 52 410q0 33 -19 44z" />
    <glyph glyph-name="J" unicode="J" horiz-adv-x="590" 
d="M322 632l-7 4q-30 17 -30 39q0 17 11 28.5t25.5 17.5t38.5 9.5t40.5 4t41.5 0.5h12q46 0 66 -1t43.5 -5t31.5 -14t8 -27q0 -24 -18 -36q-4 -3 -12 -7.5t-15 -8.5q-18 -11 -24 -22t-10 -45q-4 -31 -9.5 -71t-9.5 -70q-26 -221 -39 -268q-8 -28 -19 -50q-63 -129 -246 -129
q-110 0 -166 43t-56 109q0 51 32.5 83t82.5 32q43 0 64.5 -22.5t21.5 -54.5q0 -9 -2 -16t-6 -14t-5 -8q-11 -23 -11 -31q0 -35 50 -35q65 0 86 70q4 14 15 88q34 243 34 354v16q0 27 -19 37z" />
    <glyph glyph-name="K" unicode="K" horiz-adv-x="699" 
d="M253 270l-11 -116q-2 -28 -2 -33q0 -8 0.5 -12.5t2.5 -7.5t3.5 -4t5 -3t5.5 -3l8 -5q23 -15 23 -37q0 -18 -10 -28.5t-51.5 -18t-119.5 -7.5h-27q-31 0 -51.5 2t-39 13t-18.5 31q0 26 20 39q3 2 31 14q10 5 18 13q11 15 35 145q13 69 25.5 172t12.5 157v13q0 17 -3 24.5
t-16 14.5l-7 4q-29 17 -29 36q0 20 12 33t35 19t45 8t53 2q53 0 76.5 -1t50.5 -5.5t36.5 -15.5t9.5 -30q0 -17 -9 -26t-32 -21q-20 -11 -27 -22q-7 -12 -12 -47l-16 -107q-2 -10 -2 -23t5 -13q13 0 36 26l129 141q23 26 23 37q0 8 -15 21l-6 6q-7 6 -9 8.5t-4.5 8t-2.5 10.5
q0 11 8.5 21.5t41.5 21t86 10.5q79 0 111 -11t32 -39q0 -7 -2 -12.5t-3.5 -9.5t-6.5 -7.5t-7.5 -5.5t-9.5 -4.5t-9 -3t-10.5 -2.5t-9.5 -2q-35 -9 -60 -27t-64 -58l-112 -115q-16 -16 -16 -21q0 -1 8 -17l156 -240q42 -63 66 -74l18 -8q11 -5 16.5 -8.5t10.5 -11t5 -17.5
q0 -28 -31.5 -37t-86.5 -9q-70 0 -86 8q-23 10 -59 69l-133 214q-13 21 -21 21q-10 0 -13 -37z" />
    <glyph glyph-name="L" unicode="L" horiz-adv-x="597" 
d="M414 0h-344q-58 0 -78.5 10t-20.5 33q0 20 9.5 28.5t32.5 18.5q20 8 27 17q6 9 16 50q42 191 52 329q5 80 5 102q0 13 -0.5 19t-5 13.5t-13.5 12.5l-7 4q-29 16 -29 37q0 17 11 29.5t25 18.5t39 9t39 3.5t39 0.5h24q69 0 105 -9t36 -41q0 -23 -22 -39q-8 -5 -17.5 -9.5
t-15.5 -8t-10 -8.5q-7 -9 -15 -53q-14 -72 -34 -223t-20 -198q0 -29 17.5 -40t72.5 -11h32q16 0 26 1t26.5 6t30.5 18.5t25 34.5l17 32q1 1 4.5 8t4.5 8.5t4 7t4.5 6.5t5 5t6 5t6.5 3t8 2.5t9 0.5q35 0 35 -39q0 -33 -14.5 -82.5t-32.5 -86.5q-18 -39 -38 -39q-3 0 -6 1
t-8.5 3t-9.5 3q-25 7 -53 7z" />
    <glyph glyph-name="M" unicode="M" horiz-adv-x="896" 
d="M651 517l-219 -403q-2 -3 -8.5 -15.5t-9.5 -18t-10 -16t-12.5 -15.5t-13.5 -9t-16 -4q-7 0 -12.5 2.5t-9.5 8.5t-7 11.5t-5.5 14.5t-4 14.5t-3 15t-2.5 12.5l-99 429l-45 -254q-24 -134 -24 -168q0 -25 10 -31l14 -9q24 -15 24 -35q0 -18 -10 -29t-30.5 -15.5t-36 -5.5
t-40.5 -1h-6q-106 0 -106 43q0 22 18 33q5 4 16.5 9.5t15.5 8.5q17 11 28 41q12 34 45 216q36 195 36 242q0 37 -22 49l-9 5q-27 16 -27 33q0 24 38 39q50 18 137 18q53 0 69 -8q6 -3 10.5 -7.5t8 -10.5t6 -11t5 -14t3.5 -13t3.5 -13.5t2.5 -11.5l64 -277q3 -13 7.5 -23.5
t8.5 -16t6 -5.5q4 0 19.5 23t28.5 47l129 242q39 75 66 89q19 10 92 10q123 0 123 -50q0 -19 -23 -31q-1 -1 -2.5 -1.5t-4.5 -2.5q-1 0 -3.5 -2t-4 -2.5t-4 -3t-4.5 -5t-5 -6t-5.5 -8.5l-5.5 -11q-13 -29 -24 -120q-23 -181 -23 -303q0 -74 12 -89q3 -3 15 -11
q27 -17 27 -40q0 -33 -42.5 -42t-141.5 -9h-23q-66 0 -85 12q-16 10 -16 29q0 25 24 39q15 9 24 12q6 2 11 7q10 10 18 46q6 23 11 60.5t7.5 66.5t6.5 75.5t5 62.5z" />
    <glyph glyph-name="N" unicode="N" horiz-adv-x="759" 
d="M195 490l-28 -212q-15 -120 -15 -157q0 -7 1 -12t3 -8t3.5 -4.5t5 -3t4.5 -2.5l8 -5q1 0 4 -2t5 -3.5t5 -4.5t4.5 -6t3 -7.5t1.5 -9.5q0 -19 -12 -31.5t-34.5 -17.5t-39 -6.5t-41.5 -1.5q-63 0 -85 10t-22 35q0 26 19 39q2 1 22 10q23 9 28 17q7 9 20 72q19 95 36 215
t17 181v17q0 30 -19 41l-7 4q-29 16 -29 39q0 57 129 57h20q34 0 49 -8t30 -28q13 -18 29.5 -44.5t51.5 -83.5t82 -129l125 -192l29 206q14 93 14 150q0 25 -17 35l-8 5q-1 0 -4 2.5t-5 4t-5 4.5t-4.5 6t-3 8t-1.5 10q0 18 11 29.5t31.5 17t39.5 7t45 1.5q60 0 83.5 -10.5
t23.5 -34.5q0 -32 -40 -49q-14 -5 -19.5 -9t-11.5 -15t-11 -33q-24 -118 -37 -204q-15 -98 -21.5 -157t-18.5 -144q-7 -50 -21 -69.5t-49 -19.5q-26 0 -47 13t-30.5 25.5t-25.5 38.5l-57 90q-16 25 -51.5 82t-73.5 116t-89 136z" />
    <glyph glyph-name="O" unicode="O" horiz-adv-x="799" 
d="M354 -18q-150 0 -239 91.5t-89 245.5q0 199 147 322q116 99 279 99q148 0 234.5 -89t86.5 -239q0 -138 -76 -250q-58 -86 -149 -133t-194 -47zM375 77q82 0 142 86.5t60 247.5q0 68 -15 117t-40 73t-49.5 34t-51.5 10q-82 0 -140.5 -87.5t-58.5 -257.5q0 -59 12.5 -102.5
t29 -66t40 -35.5t39.5 -16t32 -3z" />
    <glyph glyph-name="P" unicode="P" horiz-adv-x="650" 
d="M94 633l-7 4q-29 17 -29 39q0 20 12 32.5t36 17.5t42.5 6.5t47.5 1.5h11q19 0 59 -0.5t59 -0.5q15 0 47 0.5t47 0.5q53 0 91.5 -7t75 -25.5t56 -57.5t19.5 -97q0 -43 -12.5 -78.5t-32.5 -59t-48.5 -41.5t-55.5 -27.5t-58.5 -15.5t-53.5 -8t-44 -2q-11 0 -33 1t-33 1
q-18 0 -24.5 -5.5t-10.5 -21.5q-18 -71 -18 -162q0 -18 4 -25t24 -15q10 -4 15.5 -7t11 -11.5t5.5 -20.5q0 -31 -37 -42.5t-150 -11.5h-32q-107 0 -107 46q0 26 20 39q10 7 26 12.5t23 14.5t21 72q23 104 41 250q11 88 11 162q0 31 -19 42zM288 551l-18 -134q50 -3 61 -3
q156 0 156 121q0 104 -116 104q-46 0 -61 -15t-22 -73z" />
    <glyph glyph-name="Q" unicode="Q" horiz-adv-x="799" 
d="M375 72q82 0 142 88t60 249q0 69 -15 118t-39.5 73.5t-49.5 34.5t-52 10q-82 0 -140.5 -87.5t-58.5 -260.5q0 -59 12.5 -103t29 -66.5t40 -36t39 -16.5t32.5 -3zM163 27v8q-139 84 -139 276q0 142 77 252q53 77 144 127t207 50q148 0 234.5 -89t86.5 -239
q0 -189 -132 -316q-102 -97 -245 -111q181 -59 237 -59q28 0 55 16q7 4 16 10t13 8.5t9.5 4.5t9.5 2q13 0 21 -10t8 -24q0 -28 -25 -64q-53 -75 -165 -75q-46 0 -94.5 13.5t-79.5 28t-85 43.5l-36 19q-4 2 -16 8.5t-16 8.5l-15 7.5t-16 7.5t-14 6t-15.5 5.5t-14.5 2.5t-15 1
q-25 0 -63 -19q-31 -14 -41 -14q-15 0 -25 10t-10 27q0 31 35 54.5t99 23.5h10z" />
    <glyph glyph-name="R" unicode="R" horiz-adv-x="718" 
d="M291 573l-18 -145q26 -3 50 -3q156 0 156 115q0 15 -3.5 29t-13.5 32.5t-34.5 30t-61.5 11.5q-55 0 -64 -13q-4 -6 -11 -57zM413 150l-6 32q-7 36 -13 57t-18 43.5t-31.5 32.5t-47.5 10q-15 0 -39 -4q-22 -119 -22 -180q0 -36 11 -43l16 -10q25 -16 25 -39
q0 -17 -9.5 -27.5t-49.5 -18.5t-113 -8h-31q-25 0 -41.5 1.5t-35 5.5t-28 14t-9.5 25q0 26 20 39q5 4 23.5 11t25.5 16q7 10 21 72q22 102 40 247q12 101 12 169q0 27 -19 38l-7 4q-29 18 -29 37q0 60 138 60h13q14 0 42.5 -0.5t42.5 -0.5q21 0 63 0.5t64 0.5q36 0 64.5 -3
t62.5 -13.5t57 -28.5t38.5 -50.5t15.5 -77.5q0 -73 -44.5 -126t-119.5 -70v-8q46 -18 70 -59q18 -30 33 -117q1 -3 2.5 -12t2 -12.5t2 -11.5t3 -11.5t3.5 -10t4.5 -9.5t5.5 -7t7 -6t8.5 -3.5t10.5 -1.5q4 0 11.5 1t11.5 1q24 0 24 -25q0 -27 -35 -52.5t-97 -25.5
q-65 0 -101 31q-19 17 -28.5 43t-19.5 81z" />
    <glyph glyph-name="S" unicode="S" horiz-adv-x="625" 
d="M122 212l12 -27q47 -105 139 -105q56 0 83.5 27.5t27.5 66.5q0 37 -23.5 59.5t-77.5 52.5l-18 10q-1 0 -15.5 9t-31 19t-37.5 24t-34 26q-64 57 -64 147q0 98 72 159t180 61q43 0 92 -14q27 -8 30 -8q1 0 22 8q10 5 25 5q35 0 58 -52t23 -109q0 -55 -47 -55
q-17 0 -30.5 9.5t-18 17t-15.5 25.5q-50 85 -120 85q-43 0 -70 -26.5t-27 -72.5q0 -39 23.5 -63t92.5 -58l20 -10q94 -47 125 -81q47 -53 47 -129q0 -92 -78 -162t-218 -70q-66 0 -125 19.5t-87 46.5q-41 37 -41 135q0 43 16.5 61t39.5 18q5 0 9.5 -1t8.5 -3t7 -4t6 -6
l4.5 -6t4.5 -7.5t3.5 -7t3.5 -7.5t3 -7z" />
    <glyph glyph-name="T" unicode="T" horiz-adv-x="676" 
d="M192 729h391q12 0 54 6q8 1 16.5 3.5t11.5 2.5q41 0 41 -122v-25q0 -22 -1.5 -36.5t-6 -31t-15 -24.5t-27.5 -8q-5 0 -9 1t-7 2t-6.5 4t-5.5 4t-4.5 5.5t-3.5 6t-3 7.5t-2.5 7t-2.5 7.5t-2 7.5l-7 23q-9 29 -24 44t-28 17.5t-37 2.5q-16 0 -23.5 -1.5t-16 -7.5t-13 -20
t-8.5 -38l-30 -206q-25 -182 -25 -238q0 -15 4.5 -21.5t19.5 -13.5l9 -4q22 -10 22 -34q0 -22 -14 -33t-53 -16t-119 -5q-78 0 -108 9t-30 37q0 31 31 45q4 2 12.5 5t12.5 5t9.5 7t8.5 12q17 39 48 245q28 174 28 236q0 9 -1 13.5t-4.5 11.5t-14 10t-26.5 3q-59 0 -92 -50
l-24 -36q-2 -2 -11 -17t-13.5 -19.5t-15.5 -10.5t-24 -6q-32 0 -32 38q0 42 31 125q9 25 15 39t18 29t25 15q3 0 12.5 -3t27.5 -6t42 -3z" />
    <glyph glyph-name="U" unicode="U" horiz-adv-x="764" 
d="M273 487l-29 -195q-9 -69 -9 -89q0 -13 1.5 -25.5t9.5 -32.5t22 -34.5t42 -25.5t66 -11q110 0 151 73q24 41 42 172l26 184q6 38 6 87q0 16 -5 26.5t-8 12.5l-15 10q-26 17 -26 37q0 59 124 59q70 0 96.5 -11t26.5 -38q0 -18 -9.5 -28.5t-32.5 -21.5q-16 -8 -22 -14.5
t-12.5 -30t-15.5 -78.5l-33 -215q-9 -56 -15 -85.5t-21 -70.5t-37 -67q-78 -94 -261 -94q-266 0 -266 206q0 34 11 118l25 178q8 58 8 103v3q0 29 -22 44l-8 5q-1 0 -4.5 2.5t-4.5 3.5t-4.5 3t-5 4t-3.5 5t-3 5.5t-2 6.5t-1 8q0 20 13 32.5t38 18t47 7t53 1.5q73 0 110 -6.5
t45.5 -16t8.5 -26.5q0 -11 -4 -19.5t-7 -11.5t-15 -10t-15 -9q-25 -16 -35 -44t-21 -105z" />
    <glyph glyph-name="V" unicode="V" horiz-adv-x="729" 
d="M194 310l-63 251q-14 57 -32 64l-22 9q-15 6 -21.5 9.5t-12 11.5t-5.5 19q0 15 8.5 26t25.5 17t33 10t41.5 5.5t39.5 2t38 0.5q79 0 107 -10t28 -39q0 -18 -10 -28q-8 -8 -25 -15q-8 -3 -10.5 -4.5t-7 -8.5t-4.5 -18q0 -25 52 -220l8 -29q26 -90 33 -90q3 0 12 13
l152 268q25 45 25 60q0 17 -22 26l-9 4q-25 11 -25 34q0 34 38 45.5t101 11.5q114 0 114 -49q0 -22 -26 -35q-16 -8 -27 -12t-14 -6q-20 -12 -52 -71q-172 -309 -221 -401q-7 -13 -20.5 -38.5t-20.5 -38.5l-34 -62q-2 -3 -3 -5.5t-2 -3.5q-15 -30 -45 -30q-19 0 -27 9
t-17 33q-19 49 -78 285z" />
    <glyph glyph-name="W" unicode="W" horiz-adv-x="1037" 
d="M512 363l-166 -319q-11 -21 -15.5 -29.5t-17 -19.5t-27.5 -11q-12 0 -20 7t-11 14.5t-9 25.5q-59 193 -115 429l-24 101q-13 56 -30 64l-21 9q-28 12 -33 22q-5 8 -5 19q0 60 177 60q74 0 102 -11t28 -38q0 -29 -29 -41l-5 -2q-20 -9 -20 -30q0 -37 41 -191q1 -3 6 -23
t10 -39t11 -39.5t12 -33.5t10 -13q12 0 83 135l40 76q-16 106 -39 134q-4 4 -22 18q-1 1 -4.5 3t-5 3t-4.5 3.5t-4.5 4t-3.5 4.5t-3 5.5t-2 6t-1 7.5q0 61 174 61q25 0 39.5 -1t35.5 -5.5t31.5 -16t10.5 -30.5q0 -27 -34 -39q-20 -6 -20 -31q0 -19 13 -74l64 -245
q6 -19 10 -19q10 0 78 126q9 18 14 27q83 155 90 175q2 7 2 12q0 4 -1 7t-2 5t-4 4.5t-4.5 3.5t-5 3t-4.5 2l-9 5q-24 14 -24 34q0 57 133 57q110 0 110 -47q0 -31 -44 -46q-18 -6 -30 -17q-17 -16 -93 -164q-7 -12 -11 -20t-10.5 -20.5t-12.5 -23.5l-184 -353l-5 -10
l-5.5 -11t-5.5 -9.5t-6.5 -9.5t-7 -8t-8.5 -7t-9.5 -3.5t-11.5 -1.5q-7 0 -12.5 2t-10 6.5t-7.5 8.5t-6 12.5t-4.5 13t-4.5 15t-4 14.5z" />
    <glyph glyph-name="X" unicode="X" horiz-adv-x="694" 
d="M428 405l118 -232q28 -55 49 -67l22 -11q1 -1 8.5 -4t10.5 -5t8 -6.5t7 -10t2 -13.5q0 -21 -18 -35t-51.5 -19t-55.5 -6t-56 -1h-10q-120 0 -120 49q0 19 14 28l11 7q22 14 22 26q0 8 -11 30l-75 147l-104 -137q-22 -29 -22 -39q0 -7 16 -20q22 -18 22 -34
q0 -57 -138 -57q-114 0 -114 50q0 6 1.5 10.5t4.5 8.5t6 7t9.5 6.5t10 5t12.5 5.5t13 6l13 6q47 21 90 76l141 180l-103 201q-33 60 -48 67l-23 11q-2 1 -8 3.5t-9 4t-7.5 4.5t-6.5 6t-3.5 7.5t-1.5 10.5q0 22 16 36t46 19.5t52.5 7t54.5 1.5h11h6q25 0 41.5 -1t38.5 -5
t33.5 -15t11.5 -28q0 -25 -26 -36q-21 -9 -21 -24q0 -11 10 -31l59 -113l82 103q23 29 23 39q0 8 -16 21q-1 1 -5.5 4t-6.5 5t-5 5.5t-4.5 8t-1.5 10.5q0 57 139 57q114 0 114 -49q0 -5 -1 -9t-3.5 -7.5t-4.5 -6.5t-7 -6t-7 -4.5t-8.5 -4.5t-8.5 -4t-9 -4t-8 -3l-14 -6
q-44 -19 -89 -77z" />
    <glyph glyph-name="Y" unicode="Y" horiz-adv-x="655" 
d="M237 335l-107 222q-24 49 -49 67q-7 5 -18 9t-21 10q-19 11 -19 31q0 21 17.5 34.5t51 18.5t55.5 6t57 1h6q27 0 43.5 -1t38.5 -5t33 -14.5t11 -27.5q0 -18 -14 -28l-12 -8l-6 -4q-6 -3 -8 -4.5t-4.5 -6t-2.5 -9.5q0 -9 11 -31l78 -165l103 151q21 31 21 42q0 9 -16 22
q-21 16 -21 33q0 56 138 56q64 0 89 -11.5t25 -33.5q0 -9 -2.5 -16t-9.5 -12.5t-11.5 -8t-17 -8t-16.5 -7.5l-13 -6q-51 -24 -90 -77l-154 -219l-7 -83q-11 -121 -11 -125q0 -17 4 -25.5t19 -14.5l9 -4l8 -4t6 -5t5.5 -10t1.5 -15q0 -23 -21 -37q-17 -11 -41 -14t-75 -3h-43
q-38 0 -54 0.5t-33.5 4t-28.5 10.5q-17 10 -17 30q0 16 6 26t12.5 14t20.5 10l14 6q14 6 24 38t25 133z" />
    <glyph glyph-name="Z" unicode="Z" horiz-adv-x="634" 
d="M391 0h-351q-70 0 -70 40q0 25 21 50l385 484q17 24 17 32q0 19 -46 19h-91q-45 0 -66.5 -9.5t-40.5 -39.5l-18 -28q-2 -3 -7.5 -13t-8.5 -14t-9.5 -11t-14 -9.5t-17.5 -2.5q-29 0 -29 38q0 30 14.5 75t31.5 78q25 48 55 48q2 0 14 -3q26 -7 90 -7h322q71 0 71 -40
q0 -23 -22 -50l-366 -463q-30 -40 -30 -51q0 -19 64 -19h77q51 0 75.5 10t45.5 45l18 30q7 13 10.5 18t10.5 13.5t14 11.5t16 3q32 0 32 -34q0 -52 -33 -136q-28 -76 -61 -76q-1 0 -11 2.5t-34 5.5t-58 3z" />
    <glyph glyph-name="bracketleft" unicode="[" horiz-adv-x="407" 
d="M123 659q5 39 23.5 54.5t60.5 15.5h179q24 0 35 -1t18.5 -6t7.5 -16q0 -38 -15 -51t-51 -13h-50q-26 0 -35 -7.5t-13 -35.5l-81 -595l-2 -22q0 -19 8.5 -25.5t31.5 -6.5h48q28 0 39 -4t11 -21q0 -41 -15 -51.5t-58 -10.5h-160q-42 0 -60.5 11.5t-18.5 40.5q0 13 4 45z
" />
    <glyph glyph-name="backslash" unicode="\" horiz-adv-x="278" 
d="M44 715q-1 4 -1 10q0 17 26 17q31 0 42.5 -4.5t14.5 -21.5l115 -780q1 -4 1 -10q0 -18 -26 -18q-30 0 -41.5 5t-14.5 22z" />
    <glyph glyph-name="bracketright" unicode="]" horiz-adv-x="407" 
d="M275 -66q-5 -39 -24 -55t-60 -16h-179q-25 0 -35.5 1t-18 7t-7.5 18q0 36 15 48.5t51 12.5h50q26 0 35 7.5t13 35.5l81 595q2 22 2 23q0 18 -8.5 24.5t-31.5 6.5h-49q-27 0 -38 5t-11 21q0 22 4 35t15 18.5t21 6.5t33 1h160q44 0 61.5 -12t17.5 -45q0 -8 -4 -40z" />
    <glyph glyph-name="asciicircum" unicode="^" horiz-adv-x="1000" 
d="M436 714h127l234 -276h-59l-239 170l-239 -170h-59z" />
    <glyph glyph-name="underscore" unicode="_" horiz-adv-x="500" 
d="M0 -119h500v-117h-500v117z" />
    <glyph glyph-name="grave" unicode="`" horiz-adv-x="500" 
d="M339 583l-175 51q-22 7 -28 12.5t-6 18.5q0 26 10 53.5t27 27.5q8 0 32 -9l159 -67q32 -13 40.5 -21.5t8.5 -23.5q0 -48 -35 -48q-9 0 -33 6z" />
    <glyph glyph-name="a" unicode="a" horiz-adv-x="597" 
d="M378 361q0 78 -53 78q-43 0 -81 -51q-31 -42 -51.5 -101.5t-20.5 -110.5q0 -39 14.5 -58.5t38.5 -19.5q42 0 81 52q31 40 51.5 100.5t20.5 110.5zM318 59l-26 -18q-80 -55 -142 -55q-60 0 -102 45t-42 131q0 71 27 140q38 96 108 157q73 65 159 65q28 0 82 -21
q32 -12 37 -12q12 0 36 13q35 19 57 19q32 0 32 -44q0 -24 -10 -77q-9 -51 -21 -144t-12 -113q0 -15 5 -21t19 -6q3 0 7 0.5t7 0.5q22 0 22 -19q0 -32 -45 -63q-68 -48 -119 -48q-28 0 -40 29q-4 9 -6.5 23t-4.5 22.5t-6 8.5q-2 0 -22 -13z" />
    <glyph glyph-name="b" unicode="b" horiz-adv-x="593" 
d="M242 661l-26 -185q-1 -5 -1 -13q0 -17 7 -17q1 0 23 16q13 10 30 21q64 42 121 42q64 0 108 -44t44 -132q0 -59 -20 -122.5t-54 -113.5q-86 -128 -241 -128q-102 0 -149.5 44.5t-47.5 111.5q0 11 6 62l15 101q27 177 27 253q0 29 -5 39.5t-23 16.5l-6 2q-14 5 -19.5 7
t-11 8.5t-5.5 15.5q0 24 37 45q30 17 85 34t84 17q28 0 28 -34q0 -14 -1 -23.5t-3 -15.5t-2 -8zM381 322q0 87 -60 87q-39 0 -77 -55q-25 -37 -41.5 -93.5t-16.5 -105.5q0 -47 17 -66t39 -19q44 0 81 56q26 39 42 93t16 103z" />
    <glyph glyph-name="c" unicode="c" horiz-adv-x="519" 
d="M7 187q0 66 26 128.5t71 108.5q49 50 112.5 75t121.5 25q68 0 110.5 -33.5t42.5 -90.5q0 -41 -22 -66.5t-64 -25.5q-33 0 -49 18t-16 45q0 6 1.5 18t1.5 18q0 38 -33 38q-44 0 -83.5 -60.5t-39.5 -174.5q0 -126 95 -126q35 0 80 28q17 10 20 13t13 11q22 17 30 17
q11 0 23.5 -12.5t12.5 -27.5q0 -23 -32 -48q-103 -79 -219 -79q-95 0 -149 53.5t-54 147.5z" />
    <glyph glyph-name="d" unicode="d" horiz-adv-x="604" 
d="M385 361q0 35 -14 56.5t-40 21.5q-42 0 -80 -51q-30 -40 -51 -102t-21 -111q0 -38 15.5 -57.5t38.5 -19.5q42 0 80 52q34 46 53 106t19 105zM572 617l-42 -286q-23 -157 -23 -186q0 -15 5 -21t19 -6q3 0 7 0.5t7 0.5q22 0 22 -19q0 -32 -45 -63q-72 -48 -119 -48
q-16 0 -24 6t-16 23q-4 9 -6.5 23t-4.5 22.5t-6 8.5q-2 0 -23 -14l-23 -16q-81 -56 -144 -56q-60 0 -102 45t-42 131q0 110 64 212q49 76 108.5 113.5t115.5 37.5q28 0 70 -16q18 -8 25 -8q11 0 15.5 32.5t4.5 57.5q0 10 -1 14.5t-7 9.5t-20 8l-8 2q-22 5 -32 12t-10 21
q0 30 62 51q103 33 149 33q33 0 34 -39v-7q-1 -17 -10 -79z" />
    <glyph glyph-name="e" unicode="e" horiz-adv-x="539" 
d="M301 445q-36 0 -68 -44q-16 -22 -29 -57.5t-13 -58.5q0 -19 28 -19q46 0 84.5 40t38.5 96q0 43 -41 43zM202 190h-14q2 -40 17 -66q23 -40 77 -40q32 0 80 28q10 6 23.5 17t23 17.5t15.5 6.5q12 0 24.5 -12.5t12.5 -26.5q0 -23 -32 -49q-106 -79 -219 -79
q-94 0 -148.5 53t-54.5 145q0 70 30 138t81 115q45 40 105.5 63.5t122.5 23.5q80 0 118.5 -36.5t38.5 -90.5q0 -80 -79.5 -143.5t-221.5 -63.5z" />
    <glyph glyph-name="f" unicode="f" horiz-adv-x="347" 
d="M86 407h-70q-17 0 -17 18v5l5 33q2 14 7 17.5t14 3.5h68q3 23 4.5 55.5t1.5 37.5q4 36 13 58q18 42 62.5 74t116.5 32t117.5 -27t45.5 -70q0 -26 -15 -44.5t-45 -18.5q-26 0 -44 14q-13 10 -31 43q-6 13 -9.5 18.5t-11 10.5t-17.5 5q-38 0 -38 -47q0 -27 4 -49
q5 -35 5 -56q0 -20 -3 -36h83q18 0 18 -18v-5l-5 -33q-1 -5 -1 -6t-2 -5.5t-3.5 -5.5t-5.5 -2.5t-9 -1.5h-76l-49 -405q0 -4 -1.5 -16t-2.5 -23t-1 -18q0 -8 2.5 -25.5t2.5 -26.5q0 -39 -26.5 -61t-60.5 -28t-83 -6q-61 0 -61 36q0 21 29 39q14 10 15 12l2 5q10 24 29 170z
" />
    <glyph glyph-name="g" unicode="g" 
d="M499 575q38 -32 38 -54q0 -33 -43 -61q38 -51 38 -105q0 -96 -72.5 -152t-188.5 -56q-57 0 -109 17q-17 -18 -17 -40q0 -40 67 -40q44 0 92.5 5t85.5 5q124 0 124 -108q0 -78 -79 -134.5t-226 -56.5q-107 0 -153 35.5t-46 79.5q0 46 53 85q-48 24 -48 80q0 40 24 65
t70 46q-62 46 -62 135q0 84 65.5 143.5t190.5 59.5q56 0 120 -12q37 20 76 63zM200 308q0 -54 22 -74.5t51 -20.5q46 0 76.5 44.5t30.5 107.5q0 46 -20 69.5t-51 23.5q-43 0 -76 -40.5t-33 -109.5zM380 -66q0 33 -46 33q-8 0 -71 -6q-48 -3 -51 -3q-45 0 -89 13
q-5 -17 -5 -27q0 -29 29.5 -53t102.5 -24q67 0 98.5 21t31.5 46z" />
    <glyph glyph-name="h" unicode="h" horiz-adv-x="606" 
d="M254 627l-24 -156q0 -1 -0.5 -5t-0.5 -6q0 -8 5 -8q4 0 14 6l36 20q72 40 131 40q122 0 122 -142q0 -37 -10 -107q-2 -13 -7 -39t-6 -35q-5 -34 -5 -50q0 -15 5 -21t19 -6q3 0 8 0.5t7 0.5q21 0 21 -19q0 -35 -47 -66q-72 -48 -140 -48q-29 0 -42.5 8.5t-13.5 36.5
q0 18 14 88l3 16q29 151 29 199q0 64 -45 64q-58 0 -86 -64t-38 -189l-3 -37q0 -4 -1 -15.5t-1.5 -18.5t-2 -16.5t-4.5 -16t-7 -11.5q-12 -13 -48.5 -26.5t-79.5 -13.5q-18 0 -27.5 6t-11 12.5t-1.5 16.5q0 17 15 98l20 108q12 65 26.5 172.5t14.5 147.5v8q0 39 -16 49
q-3 2 -16 6q-2 1 -10 3.5t-10.5 3.5t-7.5 4t-6.5 5.5t-3.5 6.5t-2 9q0 25 38 45q39 20 91.5 35.5t81.5 15.5q34 0 34 -41q0 -6 -11 -74z" />
    <glyph glyph-name="i" unicode="i" horiz-adv-x="299" 
d="M243 432l-16 -101q-23 -147 -23 -186q0 -15 5.5 -20.5t19.5 -5.5q2 0 6.5 0.5t6.5 0.5q35 0 35 -25q0 -31 -49 -61q-31 -19 -75.5 -33.5t-80.5 -14.5q-52 0 -52 45q0 11 2.5 26t7 36.5t6.5 32.5l12 64q20 113 20 156q0 28 -8 38q-6 6 -26 13q-1 0 -9 2.5t-10.5 3.5
t-8 3.5t-7.5 5.5t-4 7.5t-2 10.5q0 30 70 57q94 37 151 37q37 0 37 -39q0 -7 -1 -14t-3 -18t-4 -21zM276 668q0 -36 -31 -62.5t-83 -26.5q-43 0 -65.5 20t-22.5 49q0 39 35 65.5t84 26.5q42 0 62.5 -21t20.5 -51z" />
    <glyph glyph-name="j" unicode="j" horiz-adv-x="294" 
d="M276 670q0 -37 -31.5 -64t-85.5 -27q-41 0 -63 20t-22 49q0 39 35 65.5t84 26.5q41 0 62 -21t21 -49zM245 426l-10 -58q-6 -35 -37 -273l-15 -114q-3 -20 -7 -38t-16.5 -47.5t-30.5 -50t-51.5 -36t-76.5 -15.5q-55 0 -84.5 17.5t-29.5 43.5q0 14 8.5 22.5t21.5 8.5
q4 0 7 -0.5l9 -1.5l12 -2q14 -2 16 -2q15 0 25 7t16.5 24.5t9 29t6.5 37.5q11 67 29.5 197.5t18.5 171.5q0 25 -3.5 32t-14.5 12q-9 5 -15 6q-1 0 -9 2.5t-10.5 3.5t-8 3.5t-7.5 5.5t-4 7.5t-2 10.5q0 30 70 57q93 37 153 37q39 0 39 -43q0 -3 -9 -55z" />
    <glyph glyph-name="k" unicode="k" horiz-adv-x="556" 
d="M254 627l-24 -156q0 -2 -0.5 -6t-0.5 -6q0 -8 5 -8q1 0 12 8l29 21q58 41 127 41q61 0 90.5 -32t29.5 -77q0 -105 -142 -165q14 -44 37 -88t48 -55q7 -2 18 -4q29 -4 29 -26q0 -28 -44 -57.5t-95 -29.5q-24 0 -40 11.5t-31 39.5q-17 31 -29 66.5t-19 50.5q-9 23 -25 23
q-13 0 -19 -19q-4 -13 -6 -43q-4 -53 -14 -75q-5 -12 -14 -18t-32 -15q-46 -18 -89 -18q-39 0 -39 35q0 17 16 106l19 100q9 47 25 166.5t16 158.5q0 24 -2.5 35t-13.5 17q-2 1 -7 2.5t-9 3.5q-22 7 -31 13t-9 19q0 25 38 45q39 20 93.5 35.5t81.5 15.5q32 0 32 -41
q0 -8 -11 -74zM326 407q-42 0 -75 -42.5t-35 -100.5q78 13 114 43t36 62q0 15 -11 26.5t-29 11.5z" />
    <glyph glyph-name="l" unicode="l" horiz-adv-x="303" 
d="M272 657l-46 -326q-22 -148 -22 -187q0 -14 5 -19.5t19 -5.5q2 0 5.5 0.5t5.5 0.5q35 0 35 -25q0 -38 -70 -73.5t-135 -35.5q-48 0 -48 45q0 17 13 82l20 115q9 49 24 168.5t15 160.5q0 23 -2.5 34t-13.5 17q-10 4 -19 7q-2 1 -6.5 2.5t-7 2t-6 2.5t-6 3t-5 3.5t-4 5
t-2.5 5.5t-1 7q0 24 39 45q40 21 97 36t86 15q35 0 35 -44q0 -6 -5 -41z" />
    <glyph glyph-name="m" unicode="m" horiz-adv-x="880" 
d="M209 496l4 -24q6 -30 10 -30q2 0 5 3t13.5 11t25.5 18q69 46 131 46q66 0 95 -52l8 -14q7 -14 11 -14q1 0 23 15l24 17q68 48 132 48q117 0 117 -143q0 -58 -16 -151q-10 -58 -10 -80q0 -9 1 -14.5t6.5 -9.5t15.5 -4q2 0 6.5 0.5t6.5 0.5q20 0 20 -19q0 -32 -44 -65
q-67 -50 -136 -50q-32 0 -46.5 9.5t-14.5 35.5q0 10 10 67l8 40q27 138 27 197q0 64 -42 64q-20 0 -36.5 -10.5t-27 -32.5t-17.5 -42.5t-12 -53.5t-7 -52t-4 -51l-2 -27q-1 -7 -1.5 -22t-1.5 -24t-2.5 -20.5t-4.5 -19.5t-7 -13q-12 -15 -47.5 -27.5t-76.5 -12.5
q-45 0 -45 35q0 7 10 64l8 47q28 160 28 199q0 63 -44 63q-29 0 -49.5 -23t-31 -65.5t-15 -75.5t-7.5 -78l-2 -30q-6 -82 -17 -96q-13 -15 -48.5 -27.5t-79.5 -12.5q-41 0 -41 32q0 11 16 100l13 69q24 130 24 173q0 21 -7 28q-4 4 -21.5 5.5t-31.5 7.5q-17 7 -17 22
q0 21 30 38q27 15 65 29q68 25 95 25q9 0 15.5 -7t8.5 -16z" />
    <glyph glyph-name="n" unicode="n" horiz-adv-x="611" 
d="M209 496l4 -24q6 -31 12 -31q2 0 10.5 6t23 16t27.5 17q73 38 134 38q122 0 122 -144q0 -45 -17 -145q-11 -63 -11 -84q0 -27 24 -27q2 0 7 0.5t8 0.5q21 0 21 -19q0 -35 -48 -66q-73 -48 -144 -48q-27 0 -39 9t-12 36q0 18 14 88l3 16q29 151 29 199q0 64 -46 64
q-34 0 -58 -22.5t-35.5 -61.5t-17 -73t-9.5 -76q-1 -10 -1 -14l-3 -31q-8 -78 -19 -90q-12 -14 -51.5 -27t-76.5 -13q-18 0 -27.5 6t-11.5 12t-2 16t16 98l13 69q24 120 24 174q0 21 -7 27q-3 3 -10.5 4.5t-19.5 3.5t-22 5q-18 6 -18 22q0 20 30 38q25 15 65 29q68 25 95 25
q9 0 15.5 -7t8.5 -16z" />
    <glyph glyph-name="o" unicode="o" horiz-adv-x="576" 
d="M6 210q0 122 90 214q98 100 224 100q91 0 157.5 -55.5t66.5 -165.5q0 -122 -87 -217q-92 -100 -223 -100q-101 0 -164.5 63t-63.5 161zM297 444q-42 0 -77 -60t-35 -172q0 -38 6 -66.5t13.5 -43.5t18.5 -23.5t17.5 -10.5t13.5 -2q40 0 76 63.5t36 179.5q0 42 -7.5 71.5
t-19.5 42t-21.5 17t-20.5 4.5z" />
    <glyph glyph-name="p" unicode="p" horiz-adv-x="609" 
d="M27 14l38 274q7 53 7 78v6q0 14 -7 20q-4 4 -21 5.5t-32 7.5q-17 7 -17 22q0 21 30 38q23 13 75 30q75 25 95 25q19 0 24 -26q4 -18 6 -33q3 -23 10 -25h2q2 0 9 6t21 17t28 21q68 45 128 45q71 0 109 -51t38 -138q0 -115 -61 -214q-39 -64 -93.5 -101t-109.5 -37
q-49 0 -100 30q-14 7 -15 7q-7 0 -10 -18l-7 -46q-3 -27 -3 -30q0 -20 9 -29q5 -5 16.5 -9t20.5 -9q17 -10 17 -28q0 -46 -148 -46q-73 0 -106 8.5t-33 37.5q0 25 31 39q2 1 5.5 2.5t5.5 2.5q1 0 3 2q1 0 2.5 2t2.5 2q16 9 30 112zM401 323q0 47 -17 66t-39 19
q-44 0 -81 -55q-58 -89 -58 -197q0 -49 17 -68t39 -19q44 0 81 56q26 38 42 92.5t16 105.5z" />
    <glyph glyph-name="q" unicode="q" horiz-adv-x="593" 
d="M542 411l-60 -425q-5 -40 -5 -59q0 -20 18 -32q7 -5 14.5 -8.5t10.5 -5.5q15 -12 15 -29q0 -27 -33 -36.5t-99 -9.5h-19q-27 0 -46 1t-42 5t-35.5 14t-12.5 26q0 14 9 22t29 16q15 7 23 11q6 3 8.5 6.5t6.5 19t8 45.5l14 102q-42 -36 -94 -62t-96 -26q-60 0 -102 45
t-42 131q0 110 63 211q43 70 103 110.5t123 40.5q34 0 87 -21q31 -12 38 -12q12 0 35 13q33 19 58 19q31 0 31 -44q0 -12 -8 -68zM385 361q0 39 -16 58.5t-38 19.5q-41 0 -80 -51q-31 -41 -51.5 -101t-20.5 -111q0 -43 17 -60.5t36 -17.5q42 0 81 52q30 40 51 101t21 110z
" />
    <glyph glyph-name="r" unicode="r" horiz-adv-x="470" 
d="M52 398l-13 5q-1 0 -4.5 1.5t-5 2l-4.5 1.5t-5 2.5l-4 3t-3 4t-2 5.5t-1 6q0 17 14.5 29t42.5 25q78 36 107 36q16 0 27 -21q11 -19 19 -62q3 -14 4 -14t8 8q19 24 33 38q41 41 99 41q9 0 18 -1t23.5 -6.5t24.5 -14.5t18 -28t8 -45q0 -47 -21.5 -71t-57.5 -24
q-29 0 -44 18q-6 7 -12 20t-8 16q-8 13 -23 13q-23 0 -38 -25q-14 -24 -23 -70.5t-20 -154.5l-4 -38q0 -3 -1.5 -19t-2 -21.5t-3 -17t-7 -17.5t-10.5 -11q-13 -10 -46.5 -18t-63.5 -8q-19 0 -28.5 5.5t-11 11.5t-1.5 16q0 22 21 124l4 19q25 125 25 180q0 28 -5 38.5
t-23 17.5z" />
    <glyph glyph-name="s" unicode="s" horiz-adv-x="456" 
d="M262 330l37 -24q49 -31 73.5 -66t24.5 -86q0 -79 -59 -123.5t-153 -44.5q-46 0 -89 10.5t-74.5 34t-31.5 55.5q0 36 16.5 64.5t41.5 28.5q16 0 27 -15q4 -5 9 -17t13 -25q34 -56 90 -56q29 0 44 14.5t15 36.5q0 7 -1.5 12.5t-5.5 11.5t-6.5 9.5t-10 9t-10.5 7.5t-13 9
t-12 8l-22 15q-41 28 -63 46.5t-40.5 51t-18.5 70.5q0 71 54.5 114t140.5 43q63 0 131 -28q23 -10 30 -21.5t7 -38.5q0 -78 -45 -78q-23 0 -40 31l-9 16q-23 40 -61 40q-19 0 -34 -11t-15 -34q0 -9 3 -17t6 -13t11.5 -12t11.5 -9.5t14.5 -10t13.5 -8.5z" />
    <glyph glyph-name="t" unicode="t" horiz-adv-x="374" 
d="M85 434h-64q-15 0 -15 9v5l3 20q3 19 16.5 28t48.5 15l23 4l4 18q10 46 18 67q8 18 41 27q34 9 70 9q22 0 29.5 -4.5t7.5 -17.5q0 -9 -1 -14l-11 -91h115q12 0 12 -11v-5l-5 -40q-2 -19 -21 -19h-97q-7 0 -10.5 -2.5t-4.5 -6t-2 -12.5l-35 -242q-2 -12 -2 -24
q0 -54 54 -54q9 0 37 7q43 12 44 12q10 0 17 -8t7 -19q0 -24 -34 -45q-86 -53 -184 -53q-33 0 -56.5 10t-34 27.5t-15 34t-4.5 34.5q0 17 9 80z" />
    <glyph glyph-name="u" unicode="u" horiz-adv-x="611" 
d="M549 422l-16 -104q-3 -19 -11 -87t-8 -86q0 -15 5 -21t19 -6q2 0 7 0.5t8 0.5q21 0 21 -19q0 -31 -44 -63q-69 -48 -120 -48q-24 0 -35.5 17.5t-16.5 69.5q-43 -41 -98 -64.5t-106 -23.5q-40 0 -67 15.5t-37.5 41t-13.5 42.5t-3 36q0 50 17 137q15 79 15 108q0 14 -4 20
t-18 11l-8 3q-15 5 -20.5 11t-5.5 18q0 17 14 27.5t43 22.5q97 40 133 40q10 0 16.5 -1.5t14 -7t11 -17.5t3.5 -30q0 -24 -20 -122q-25 -114 -25 -171q0 -65 45 -65q69 0 97 96q20 71 28 163l3 38q5 61 17 73q12 13 48 26.5t80 13.5q18 0 27.5 -6t11.5 -13t2 -20
q0 -2 -9 -56z" />
    <glyph glyph-name="v" unicode="v" horiz-adv-x="567" 
d="M246 410l-25 -149q-10 -60 -10 -91q0 -28 13.5 -48.5t44.5 -20.5q36 0 70 27.5t54 69.5q25 55 25 119q0 60 -23 126q-9 27 -9 32q0 42 67 42q18 0 28.5 -3t22.5 -13t17.5 -34.5t5.5 -62.5q0 -136 -48 -233q-45 -92 -120 -138t-162 -46q-14 0 -28.5 1.5t-39 10t-42.5 22.5
t-31.5 43.5t-13.5 69.5q0 36 13 105q13 75 13 104q0 22 -3 32t-14 16q-7 3 -16 6q-1 0 -9 2.5t-10.5 3.5t-8 3.5t-7.5 5.5t-4 7.5t-2 10.5q0 16 17 30t38 21q101 42 155 42q49 0 49 -46q0 -35 -7 -67z" />
    <glyph glyph-name="w" unicode="w" horiz-adv-x="845" 
d="M242 410l-25 -149q-9 -56 -9 -90t16 -52t38 -18q56 0 84 94q22 75 29 166l3 40q4 64 16 77q11 12 47.5 26.5t77.5 14.5q39 0 39 -33q0 -21 -21 -134q-28 -154 -28 -187q0 -63 44 -63q52 0 97 61t45 154q0 59 -23 126q-9 25 -9 33q0 41 67 41q39 0 55.5 -22.5t16.5 -91.5
q0 -148 -52 -244q-41 -76 -112 -124t-148 -48q-95 0 -126 79q-81 -79 -175 -79q-66 0 -105.5 40t-39.5 112q0 27 12 96q13 68 13 106q0 9 -0.5 16.5t-1 12.5t-3 9t-3.5 6t-4.5 4t-4.5 2.5t-6 2.5t-6 2l-6 2q-1 0 -9.5 3t-11 4t-8 4.5t-7 7.5t-1.5 10q0 31 54 54
q95 42 150 42q48 0 48 -48q0 -25 -7 -65z" />
    <glyph glyph-name="x" unicode="x" horiz-adv-x="530" 
d="M307 295l47 -104q23 -52 44 -52q11 0 26 9q18 10 31 10q26 0 26 -25q0 -16 -13 -35.5t-25 -30.5t-34 -30q-62 -50 -95 -50q-19 0 -35.5 14.5t-25 29.5t-19.5 40q-2 5 -3 7l-34 76l-46 -67q-52 -76 -79 -93q-13 -8 -24 -8q-18 0 -39 26q-34 42 -34 91q0 33 31 33
q8 0 24 -9q15 -9 22 -9q27 0 76 63l33 44l-34 88q-1 2 -2 5q-24 50 -44 54q-3 0 -19 -4q-25 -5 -29 -5q-10 0 -18 7t-8 18q0 25 44 62q84 68 125 68q29 0 46 -37l48 -106l62 82q1 2 7 10l9 12t9.5 11t11 11.5t10.5 9t11.5 6.5t11.5 2q19 0 38 -25q37 -45 37 -94
q0 -36 -24 -36q-10 0 -27 8q-26 13 -32 13q-4 0 -8 -1.5t-6.5 -3.5t-6.5 -6l-6 -6t-6 -7t-5 -6z" />
    <glyph glyph-name="y" unicode="y" horiz-adv-x="567" 
d="M344 75q27 48 46 112.5t19 115.5q0 43 -33 112q-19 40 -19 53q0 23 20.5 37t47.5 14q83 0 83 -146q0 -168 -95 -336q-37 -65 -80 -113t-78.5 -72t-74 -38.5t-60 -17.5t-42.5 -3q-68 0 -106 34t-38 85q0 41 22.5 63.5t50.5 22.5q27 0 46.5 -18.5t19.5 -50.5q0 -5 -1.5 -16
t-1.5 -16q0 -27 29 -27q44 0 77.5 36.5t33.5 81.5q0 76 -87 282q-27 62 -44 85.5t-41 23.5q-4 0 -10 -1t-10 -1q-29 0 -29 23q0 36 58 77q57 41 107 41q49 0 102 -137q44 -116 88 -306z" />
    <glyph glyph-name="z" unicode="z" horiz-adv-x="458" 
d="M178 118h110q25 0 36.5 5.5t26.5 23.5l10 12q2 2 5.5 6.5t5.5 7t5.5 6t6 5t6.5 3t8 1.5q12 0 18.5 -9.5t6.5 -20.5q0 -42 -29 -112q-25 -58 -51 -58q-8 0 -22.5 6t-32.5 6h-248q-53 0 -53 40q0 22 22 47l229 280q11 14 11 15q0 9 -15 9h-84q-52 0 -62 -18l-10 -17
q-14 -25 -28 -25q-5 0 -10.5 2.5t-11.5 15t-6 32.5q0 76 33 119q15 19 29 19q2 0 15 -5q17 -6 35 -6h219q49 0 62 -14q9 -11 9 -27q0 -19 -31 -58l-220 -266q-12 -15 -12 -17q0 -8 17 -8z" />
    <glyph glyph-name="braceleft" unicode="{" horiz-adv-x="500" 
d="M416 740v-32q-58 -1 -76 -28.5t-18 -99.5v-64q0 -101 -21 -144.5t-94 -61.5q73 -18 94 -61.5t21 -143.5v-64q0 -72 18 -100t76 -29v-31h-6q-112 0 -153.5 36.5t-41.5 132.5v91q0 80 -25.5 111.5t-102.5 38.5v39q77 7 102.5 38.5t25.5 111.5v91q0 96 41.5 132.5
t153.5 36.5h6z" />
    <glyph glyph-name="bar" unicode="|" horiz-adv-x="500" 
d="M192 764h117v-1000h-117v1000z" />
    <glyph glyph-name="braceright" unicode="}" horiz-adv-x="500" 
d="M84 740h6q112 0 153.5 -36.5t41.5 -132.5v-91q0 -80 25.5 -111.5t102.5 -38.5v-39q-77 -7 -102.5 -38.5t-25.5 -111.5v-91q0 -96 -41.5 -132.5t-153.5 -36.5h-6v31q58 1 76 29t18 100v64q0 100 21 143.5t94 61.5q-73 18 -94 62t-21 144v64q0 72 -18 99.5t-76 28.5v32z
" />
    <glyph glyph-name="asciitilde" unicode="~" horiz-adv-x="833" 
d="M747 400v-124q-97 -67 -184 -67q-45 0 -84 14q-5 2 -23.5 8.5t-24 8t-22 7t-23.5 7.5t-21.5 6t-23.5 5.5t-21.5 4t-23.5 3t-22 0.5q-79 0 -187 -77v124q108 70 189 70q58 0 144 -28q8 -3 27.5 -10t30.5 -10l27.5 -7.5t31 -6.5t29.5 -2q79 0 181 74z" />
    <glyph glyph-name="sterling" unicode="&#xa3;" 
d="M186 171q11 38 11 58q0 24 -10 54h-110q-14 0 -18 1.5t-4 9.5q0 6 1 11l6 39q2 13 6.5 16t19.5 3h80q-12 60 -12 96q0 83 59 134.5t159 51.5q75 0 119.5 -40t44.5 -100q0 -21 -11 -34t-27 -13q-14 0 -22 9.5t-16 32.5q-23 60 -73 60q-33 0 -52 -26t-19 -72q0 -17 12 -99
h102q19 0 19 -16q0 -1 -0.5 -3.5t-0.5 -4.5l-4 -34q-1 -13 -7 -17.5t-19 -4.5h-88q1 -9 1 -26q0 -78 -47 -129q54 -27 109 -27q73 0 115 50q4 5 10 13l9 12t8.5 7.5t11.5 3.5q24 0 24 -29q0 -45 -45 -95q-70 -77 -187 -77q-87 0 -147 48q-64 -43 -121 -43q-50 0 -76.5 24
t-26.5 68q0 48 34.5 78t92.5 30q41 0 89 -20zM133 82q-24 30 -57 30q-17 0 -28 -10t-11 -25q0 -29 35 -29q30 0 61 34z" />
    <glyph glyph-name="currency" unicode="&#xa4;" horiz-adv-x="606" 
d="M87 705l99 -98q52 36 117 36q68 0 119 -36l98 98l58 -57l-98 -100q34 -52 34 -116t-34 -116l98 -99l-58 -58l-98 99q-50 -36 -118 -36q-66 0 -118 36l-99 -99l-57 58l98 99q-35 52 -35 116q0 66 35 116l-98 100zM304 559q-52 0 -89.5 -37.5t-37.5 -89.5q0 -53 37 -89.5
t90 -36.5q52 0 89 37t37 89t-37 89.5t-89 37.5z" />
    <glyph glyph-name="section" unicode="&#xa7;" horiz-adv-x="542" 
d="M153 444q-56 46 -56 110q0 82 65 134.5t171 52.5q77 0 123 -30t46 -76q0 -31 -17.5 -50t-44.5 -19q-8 0 -14.5 1.5t-12 5.5t-8.5 7t-6.5 11t-5 12t-5.5 16.5t-6 17.5q-5 14 -26 24.5t-49 10.5q-45 0 -71 -20.5t-26 -54.5t25 -54.5t90 -52.5q4 -2 26.5 -12.5t30 -14.5
t24 -13.5t28.5 -19t23 -20.5q39 -40 39 -105q0 -120 -131 -179q67 -48 67 -129q0 -86 -67 -145.5t-173 -59.5q-83 0 -131 32t-48 82q0 31 18 50t49 19q10 0 17 -2.5t11.5 -5.5t8.5 -10t5.5 -11t4.5 -15t4 -15q16 -50 84 -50q45 0 75 26t30 63q0 36 -28 59.5t-97 56.5
q-8 4 -26.5 12.5t-28.5 13.5t-24.5 12.5t-26.5 16t-23 18.5q-44 39 -44 111q0 124 131 189zM123 297q0 -43 39 -71q82 -57 132 -57q40 0 67.5 28.5t27.5 68.5q0 48 -46 78q-80 52 -126 52q-39 0 -66.5 -30t-27.5 -69z" />
    <glyph glyph-name="dieresis" unicode="&#xa8;" horiz-adv-x="493" 
d="M112 668q0 28 21 48.5t50 20.5t49 -20.5t20 -48.5q0 -31 -20 -51t-49 -20t-50 20.5t-21 50.5zM303 668q0 28 20.5 48.5t49.5 20.5t49.5 -20.5t20.5 -48.5q0 -32 -21.5 -51.5t-48.5 -19.5q-28 0 -49 20.5t-21 50.5z" />
    <glyph glyph-name="copyright" unicode="&#xa9;" horiz-adv-x="864" 
d="M416 777q184 0 292 -104.5t108 -260.5q0 -159 -114.5 -272.5t-274.5 -113.5q-158 0 -268.5 103.5t-110.5 257.5q0 50 12.5 102.5t41.5 104.5t70.5 92.5t104.5 65.5t139 25zM406 700q-98 0 -173.5 -74t-75.5 -192q0 -87 29.5 -160t95.5 -122t158 -49q51 0 97.5 15.5t86 46
t63 84.5t23.5 123q0 87 -25.5 152.5t-69.5 102.5t-96.5 55t-112.5 18zM546 500l-4 4l-6 7q-7 7 -8.5 8t-8 7t-9.5 7.5t-10 6t-12.5 6t-13 4t-16 3.5t-17.5 1q-95 0 -95 -118q0 -49 13 -84t34 -52.5t42 -25t44 -7.5q24 0 46 10q14 6 32 26q13 15 21 15q22 0 22 -33
q0 -25 -9.5 -40t-21.5 -15q-5 0 -17 4q-54 -30 -107 -30q-70 0 -119 35q-42 30 -61.5 77t-19.5 94q0 70 38 119q58 75 164 75q47 0 89 -19q10 7 21 7q13 0 27 -22t14 -59q0 -28 -25 -28q-10 0 -27 17z" />
    <glyph glyph-name="guillemotleft" unicode="&#xab;" horiz-adv-x="484" 
d="M134 250q75 -136 75 -175q0 -10 -8.5 -18t-19.5 -8q-24 0 -63 50q-8 11 -24 31q-83 107 -83 121q0 12 16.5 30.5t53.5 53.5l3 3t3 2.5t3 2.5q94 89 116 103q19 13 32 13q19 0 19 -23q0 -30 -123 -186zM324 250q75 -136 75 -175q0 -10 -8.5 -18t-19.5 -8q-24 0 -63 50
q-11 14 -27 34.5t-24.5 31.5t-19.5 25.5t-16.5 22t-11 16t-7.5 14t-2 8.5q0 12 14.5 28.5t51.5 50.5q9 8 14 13q94 89 116 103q19 13 32 13q19 0 19 -23q0 -30 -123 -186z" />
    <glyph glyph-name="logicalnot" unicode="&#xac;" horiz-adv-x="833" 
d="M124 423h585v-245h-112v134h-473v111z" />
    <glyph glyph-name="registered" unicode="&#xae;" horiz-adv-x="864" 
d="M416 777q184 0 292 -104.5t108 -260.5q0 -159 -114.5 -272.5t-274.5 -113.5q-158 0 -268.5 103.5t-110.5 257.5q0 50 12.5 102.5t41.5 104.5t70.5 92.5t104.5 65.5t139 25zM406 700q-98 0 -173.5 -74t-75.5 -192q0 -87 29.5 -160t95.5 -122t158 -49q51 0 97.5 15.5t86 46
t63 84.5t23.5 123q0 87 -25.5 152.5t-69.5 102.5t-96.5 55t-112.5 18zM391 385v-59q0 -45 5 -51q1 -1 3 -2.5t5 -3t4 -2.5q1 0 3 -1.5t3.5 -2t3.5 -1.5t3.5 -2.5l3 -3t2.5 -3.5t1.5 -4.5t0.5 -5.5q0 -28 -69 -28h-17h-24q-30 0 -46 5t-16 23q0 14 20 24q8 4 12 8q5 7 6 34
q3 72 3 118v31q0 80 -9 91q-3 4 -13 8q-19 9 -19 24q0 25 53 25q10 0 32 -0.5t32 -0.5q24 0 37 1.5t48 1.5q131 0 131 -103q0 -40 -20.5 -66t-46.5 -31q-6 0 -6 -4q0 -5 12 -8q21 -9 31 -18q18 -17 24 -44q2 -6 6 -24t7 -26q6 -15 25 -20q1 0 3.5 -1t4 -1.5l4.5 -1.5
t4.5 -2.5t3 -3.5t2.5 -4.5t1 -6.5q0 -13 -16.5 -23t-49.5 -10q-38 0 -61 19q-18 17 -32 68l-5 18q-11 38 -25.5 55t-44.5 17q-6 0 -20 -2zM391 485v-46q7 0 14.5 -0.5t13.5 -0.5q77 0 77 60t-72 60h-3q-23 0 -27 -13q-3 -9 -3 -60z" />
    <glyph glyph-name="degree" unicode="&#xb0;" horiz-adv-x="329" 
d="M165 716q63 0 107.5 -44.5t44.5 -107.5q0 -62 -44.5 -107t-108.5 -45q-63 0 -107 44t-44 108t44.5 108t107.5 44zM165 645q-33 0 -57 -23.5t-24 -56.5q0 -34 23.5 -57.5t57.5 -23.5q33 0 56.5 24t23.5 57t-23 56.5t-57 23.5z" />
    <glyph glyph-name="plusminus" unicode="&#xb1;" horiz-adv-x="833" 
d="M359 606h116v-156h234v-113h-234v-156h-116v156h-235v113h235v156zM124 104h585v-113h-585v113z" />
    <glyph glyph-name="acute" unicode="&#xb4;" horiz-adv-x="500" 
d="M412 634l-175 -51q-24 -6 -33 -6q-35 0 -35 48q0 15 8.5 23.5t40.5 21.5l159 67q24 9 32 9q17 0 27 -27.5t10 -53.5q0 -13 -6 -18.5t-28 -12.5z" />
    <glyph glyph-name="mu" unicode="&#xb5;" horiz-adv-x="602" 
d="M107 93q-4 -30 -8 -63.5t-6 -56.5t-5 -48t-5.5 -41.5t-6.5 -33t-9.5 -26t-13 -17.5t-17 -11.5t-22.5 -3.5q-28 0 -45 17t-17 43q0 23 13 67.5t35 118.5t37 145l53 249h143l-52 -243q-10 -43 -10 -61q0 -27 13.5 -42.5t36.5 -15.5q60 0 84 110l54 252h142l-54 -256
q-6 -26 -6 -45q0 -45 36 -45q27 0 44 25q4 6 13 22.5t15.5 22.5t15.5 6q5 0 9.5 -5.5t4.5 -13.5q0 -13 -9.5 -40.5t-26.5 -52.5q-40 -60 -108 -60q-86 0 -93 95q-36 -95 -122 -95q-49 0 -78.5 26.5t-34.5 76.5z" />
    <glyph glyph-name="mu" unicode="&#x3bc;" horiz-adv-x="602" 
d="M107 93q-4 -30 -8 -63.5t-6 -56.5t-5 -48t-5.5 -41.5t-6.5 -33t-9.5 -26t-13 -17.5t-17 -11.5t-22.5 -3.5q-28 0 -45 17t-17 43q0 23 13 67.5t35 118.5t37 145l53 249h143l-52 -243q-10 -43 -10 -61q0 -27 13.5 -42.5t36.5 -15.5q60 0 84 110l54 252h142l-54 -256
q-6 -26 -6 -45q0 -45 36 -45q27 0 44 25q4 6 13 22.5t15.5 22.5t15.5 6q5 0 9.5 -5.5t4.5 -13.5q0 -13 -9.5 -40.5t-26.5 -52.5q-40 -60 -108 -60q-86 0 -93 95q-36 -95 -122 -95q-49 0 -78.5 26.5t-34.5 76.5z" />
    <glyph glyph-name="paragraph" unicode="&#xb6;" horiz-adv-x="500" 
d="M487 722v-60h-52v-662h-85v662h-74v-662h-85v383q-81 3 -129 49.5t-48 119.5q0 76 51.5 123t138.5 47h283z" />
    <glyph glyph-name="guillemotright" unicode="&#xbb;" horiz-adv-x="484" 
d="M134 257q-75 137 -75 175q0 11 8 19t19 8q23 0 63 -51q11 -14 27 -34.5t24.5 -31.5t19.5 -25.5t16.5 -22t11 -16t7.5 -14t2 -8.5q0 -12 -16.5 -30.5t-53.5 -53.5q-6 -5 -9 -8q-94 -89 -118 -104q-18 -11 -30 -11q-20 0 -20 22q0 28 124 186zM324 257q-75 137 -75 175
q0 11 8 19t19 8q23 0 63 -51q11 -14 27 -34.5t24.5 -31.5t19.5 -25.5t16.5 -22t11 -16t7.5 -14t2 -8.5q0 -12 -16.5 -30.5t-53.5 -53.5q-6 -5 -9 -8q-95 -90 -121 -106q-16 -9 -28 -9q-19 0 -19 22q0 28 124 186z" />
    <glyph glyph-name="divide" unicode="&#xf7;" horiz-adv-x="833" 
d="M417 577q33 0 56.5 -23.5t23.5 -57.5q0 -33 -23.5 -56.5t-57.5 -23.5t-57 23.5t-23 56.5q0 34 24 57.5t57 23.5zM124 355h585v-113h-585v113zM417 181q33 0 56.5 -23.5t23.5 -57.5q0 -33 -23 -56.5t-57 -23.5q-33 0 -57 23.5t-24 56.5q0 34 24 57.5t57 23.5z" />
    <glyph glyph-name="dotlessi" unicode="&#x131;" horiz-adv-x="299" 
d="M243 432l-16 -101q-23 -147 -23 -186q0 -15 5.5 -20.5t19.5 -5.5q2 0 6.5 0.5t6.5 0.5q35 0 35 -25q0 -31 -49 -61q-31 -19 -75.5 -33.5t-80.5 -14.5q-52 0 -52 45q0 11 2.5 26t7 36.5t6.5 32.5l12 64q20 113 20 156q0 28 -8 38q-6 6 -26 13q-1 0 -9 2.5t-10.5 3.5
t-8 3.5t-7.5 5.5t-4 7.5t-2 10.5q0 30 70 57q94 37 151 37q37 0 37 -39q0 -7 -1 -14t-3 -18t-4 -21z" />
    <glyph glyph-name="florin" unicode="&#x192;" 
d="M222 400h-68q-17 0 -17 17v6l5 33q2 12 6 16.5t14 4.5h72q27 264 216 264q61 0 94.5 -25t33.5 -68q0 -25 -15 -41t-39 -16q-38 0 -54 36q-3 6 -6 15.5t-5 14.5t-5.5 9t-8.5 4q-23 0 -39.5 -49.5t-22.5 -143.5h90q17 0 17 -17v-6l-5 -33q-2 -12 -6 -16.5t-14 -4.5h-87
q-14 -162 -33.5 -270.5t-52 -186.5t-80 -113.5t-115.5 -35.5q-54 0 -87 24.5t-33 62.5q0 31 18 51t46 20q43 0 53 -36q2 -6 3 -19t5 -18t14 -5q36 0 47 69l7 59q8 59 22 166t30 232z" />
    <glyph glyph-name="dotaccent" unicode="&#x2d9;" horiz-adv-x="522" 
d="M214 668q0 31 23 53.5t53 22.5q32 0 54 -22t22 -54t-21.5 -54.5t-54.5 -22.5q-30 0 -53 23t-23 54z" />
    <glyph glyph-name="Delta" unicode="&#x394;" horiz-adv-x="671" 
d="M359 740l306 -710q3 -6 3 -12q0 -19 -24 -19h-624q-21 0 -21 19q0 7 2 10l322 710q6 12 19 12q12 0 17 -10zM159 120h293q4 0 4 3q0 1 -0.5 3.5t-0.5 3.5t1 1t3 -4l-147 353q-2 3 -4 3t-2 -2l-151 -351l-1 -1v-2q0 -7 5 -7z" />
    <glyph glyph-name="Delta" unicode="&#x2206;" horiz-adv-x="671" 
d="M359 740l306 -710q3 -6 3 -12q0 -19 -24 -19h-624q-21 0 -21 19q0 7 2 10l322 710q6 12 19 12q12 0 17 -10zM159 120h293q4 0 4 3q0 1 -0.5 3.5t-0.5 3.5t1 1t3 -4l-147 353q-2 3 -4 3t-2 -2l-151 -351l-1 -1v-2q0 -7 5 -7z" />
    <glyph glyph-name="afii10023" unicode="&#x401;" horiz-adv-x="662" 
d="M452 0h-382q-57 0 -77.5 9.5t-20.5 31.5q0 25 18 39q5 4 15.5 7.5t21.5 10.5q16 10 18 13q15 18 31 142q42 286 42 337q0 21 -2.5 27t-17.5 16l-9 6l-7 3.5t-7 4.5q-12 9 -12 31q0 51 93 51h353q29 0 55 7t30 7q14 0 22.5 -10.5t17.5 -31.5q23 -54 23 -96q0 -52 -42 -52
q-12 0 -22 6.5t-13.5 11t-13.5 19.5q-15 24 -31.5 35t-50.5 11h-106q-38 0 -52 -10t-22 -29q-11 -26 -19 -71.5t-8 -78.5q0 -12 4.5 -15.5t22.5 -3.5h62q30 0 43 6.5t24 30.5q3 7 7 19q11 33 12 34q10 23 34 23q22 0 27.5 -11.5t5.5 -38.5q0 -130 -35 -223q-8 -20 -17 -29.5
t-27 -9.5q-29 0 -32 33q-2 51 -9 61q-12 17 -40 17h-72q-10 0 -15.5 -2.5t-6.5 -4.5t-3 -8q-9 -27 -14.5 -84t-5.5 -91q0 -21 4 -31t24 -17t62 -7h58q49 0 73 11t49 38l5.5 5.5t3 5t3.5 7t7.5 14t13.5 23.5q19 34 47 34q33 0 33 -41q0 -70 -49 -167q-21 -39 -41 -39
q-2 0 -28 7q-28 7 -55 7zM210 891q0 29 23 51.5t53 22.5t52 -22.5t22 -51.5q0 -32 -21.5 -54t-52.5 -22q-30 0 -53 22.5t-23 53.5zM430 891q0 29 22.5 51.5t52.5 22.5q27 0 51 -20.5t24 -53.5q0 -34 -23.5 -55t-51.5 -21q-29 0 -52 22.5t-23 53.5z" />
    <glyph glyph-name="afii10051" unicode="&#x402;" horiz-adv-x="883" 
d="M197 729h391q12 0 54 6q8 1 16.5 3.5t11.5 2.5q41 0 41 -130v-7q0 -27 -1 -42t-5.5 -33.5t-15 -26.5t-28.5 -8q-5 0 -9 1t-7 2t-6.5 4t-5.5 4t-4.5 5.5t-3.5 6t-3 7.5t-2.5 7t-2.5 7.5t-2 7.5l-7 23q-9 29 -24.5 44t-28 17.5t-33.5 2.5h-6q-20 0 -28.5 -2.5t-16.5 -17.5
t-13 -47l-17 -108q0 -4 -1.5 -10.5t-1.5 -9.5q0 -11 11 -11q6 0 33 10q41 15 103 15q113 0 173 -41q84 -57 84 -169q0 -125 -90 -199q-68 -56 -170 -56q-71 0 -104 27t-33 68q0 35 21 58t54 23q24 0 39.5 -14t15.5 -31q0 -5 -2 -15t-2 -16q0 -25 22 -25q27 0 50 39.5
t23 108.5q0 61 -37 102t-116 41q-87 0 -93 -44l-5 -38q-12 -108 -12 -143q0 -16 3 -25l7 -18q8 -20 8 -34q0 -19 -12 -31.5t-34 -17.5t-38 -6t-39 -1q-96 0 -130 8t-34 38q0 31 31 45q4 2 12.5 5t12.5 5t9.5 7t8.5 12q17 39 48 245q28 174 28 236q0 9 -1 13.5t-4.5 11.5
t-14 10t-26.5 3q-59 0 -92 -50l-24 -36q-3 -5 -9.5 -15.5t-10.5 -15t-10.5 -11t-14.5 -9t-18 -2.5q-33 0 -33 38q0 42 31 125q9 25 15 39t18 29t25 15q3 0 12.5 -3t27.5 -6t42 -3z" />
    <glyph glyph-name="afii10052" unicode="&#x403;" horiz-adv-x="580" 
d="M244 729h245q35 0 52.5 5.5t29.5 5.5q18 0 31 -36.5t13 -95.5q0 -61 -11 -86.5t-39 -25.5q-15 0 -25.5 9.5t-20.5 38.5l-8 24q-13 39 -32 52t-58 13h-59q-32 0 -43 -11q-10 -10 -14 -28q-9 -36 -29 -175q-33 -242 -33 -299q0 -12 4.5 -16.5t20.5 -13.5q1 -1 6.5 -3.5
t8 -4t7 -5t6 -7t3.5 -9t2 -12.5q0 -29 -34 -41.5t-136 -12.5h-39q-121 0 -121 47q0 31 45 50q18 7 25 15t13.5 32.5t13 64t11 68.5t10.5 75t7 54q20 151 20 192q0 19 -3 28q-3 6 -19 15q-2 1 -5.5 3t-5.5 3t-5 3t-5 3.5t-4.5 4t-3.5 5t-2.5 5.5t-2 6.5t-0.5 7.5
q0 26 29 40.5t72 14.5q24 0 36 -1q32 -2 47 -2zM452 824l-175 -51q-24 -6 -33 -6q-35 0 -35 48q0 15 8.5 23.5t40.5 21.5l159 67q24 9 32 9q17 0 27 -27.5t10 -53.5q0 -13 -6 -18.5t-28 -12.5z" />
    <glyph glyph-name="afii10053" unicode="&#x404;" horiz-adv-x="704" 
d="M593 548l-10 13q-2 3 -10.5 14t-11.5 14.5t-10.5 12.5t-12 12.5t-13 10.5t-15.5 9.5t-17 6t-21 5t-23 1.5q-88 0 -147 -68.5t-72 -167.5q54 37 120 37q29 0 54 -16q1 -1 38 -26q15 -11 33 -11q16 0 45 14q46 19 61 19t22.5 -9.5t7.5 -20.5q0 -36 -81 -82q-57 -33 -98 -33
q-23 0 -59 20q-14 8 -24.5 16t-19.5 13q-20 12 -41 12q-33 0 -66 -18q0 -3 -0.5 -9t-0.5 -9q0 -94 51 -156.5t121 -62.5q72 0 142 62q17 15 31 31q24 28 40 32q4 1 8 1q15 0 25 -11.5t10 -33.5q0 -37 -23 -79t-48 -42q-2 0 -6.5 1t-6.5 1q-7 0 -15 -4.5t-21.5 -13.5
t-27.5 -15q-81 -37 -164 -37q-60 0 -113.5 18.5t-98.5 55.5t-72 101t-27 148q0 192 127 316q65 62 143.5 91.5t153.5 29.5q64 0 111 -19q15 -6 27 -12q8 -5 13 -5q3 0 11 4t13 4q18 0 37 -31q35 -56 35 -101q0 -61 -53 -61q-29 0 -51 28z" />
    <glyph glyph-name="afii10054" unicode="&#x405;" horiz-adv-x="625" 
d="M122 212l12 -27q47 -105 139 -105q56 0 83.5 27.5t27.5 66.5q0 37 -23.5 59.5t-77.5 52.5l-18 10q-1 0 -15.5 9t-31 19t-37.5 24t-34 26q-64 57 -64 147q0 98 72 159t180 61q43 0 92 -14q27 -8 30 -8q1 0 22 8q10 5 25 5q35 0 58 -52t23 -109q0 -55 -47 -55
q-17 0 -30.5 9.5t-18 17t-15.5 25.5q-50 85 -120 85q-43 0 -70 -26.5t-27 -72.5q0 -39 23.5 -63t92.5 -58l20 -10q92 -46 125 -81q47 -51 47 -129q0 -92 -78 -162t-218 -70q-66 0 -125 19.5t-87 46.5q-41 37 -41 135q0 43 16.5 61t39.5 18q5 0 9.5 -1t8.5 -3t7 -4t6 -6
l4.5 -6t4.5 -7.5t3.5 -7t3.5 -7.5t3 -7z" />
    <glyph glyph-name="afii10055" unicode="&#x406;" horiz-adv-x="359" 
d="M94 633l-7 4q-29 16 -29 39q0 20 13 33t38.5 18t45.5 6.5t53 1.5h19h8q33 0 52 -1t43 -5.5t35 -15t11 -27.5q0 -25 -23 -41q-11 -8 -18 -10q-19 -7 -27 -20q-8 -16 -27 -137q-41 -266 -41 -359q0 -5 1 -9.5t1.5 -6.5t3 -4.5l3 -3t4 -2.5t4.5 -2l8 -5q23 -15 23 -37
q0 -19 -11.5 -30t-52 -17.5t-117.5 -6.5h-27q-31 0 -51.5 2t-39 13t-18.5 31q0 27 20 39q12 8 32 14q11 5 17 13q7 10 21 72q52 228 52 410q0 33 -19 44z" />
    <glyph glyph-name="afii10056" unicode="&#x407;" horiz-adv-x="359" 
d="M94 633l-7 4q-29 16 -29 39q0 20 13 33t38.5 18t45.5 6.5t53 1.5h19h8q33 0 52 -1t43 -5.5t35 -15t11 -27.5q0 -25 -23 -41q-11 -8 -18 -10q-19 -7 -27 -20q-8 -16 -27 -137q-41 -266 -41 -359q0 -5 1 -9.5t1.5 -6.5t3 -4.5l3 -3t4 -2.5t4.5 -2l8 -5q23 -15 23 -37
q0 -19 -11.5 -30t-52 -17.5t-117.5 -6.5h-27q-31 0 -51.5 2t-39 13t-18.5 31q0 27 20 39q12 8 32 14q11 5 17 13q7 10 21 72q52 228 52 410q0 33 -19 44zM57 848q0 28 21 48.5t50 20.5q28 0 48.5 -20.5t20.5 -48.5q0 -31 -20 -51t-49 -20t-50 20.5t-21 50.5zM248 848
q0 28 20.5 48.5t49.5 20.5t49.5 -20.5t20.5 -48.5q0 -32 -21.5 -51.5t-48.5 -19.5q-28 0 -49 20.5t-21 50.5z" />
    <glyph glyph-name="afii10057" unicode="&#x408;" horiz-adv-x="590" 
d="M322 632l-7 4q-30 17 -30 39q0 17 11 28.5t25.5 17.5t38.5 9.5t40.5 4t41.5 0.5h12q46 0 66 -1t43.5 -5t31.5 -14t8 -27q0 -24 -18 -36q-4 -3 -12 -7.5t-15 -8.5q-18 -11 -24 -22t-10 -45q-4 -31 -9.5 -71t-9.5 -70q-26 -221 -39 -268q-8 -28 -19 -50q-63 -129 -246 -129
q-110 0 -166 43t-56 109q0 51 32.5 83t82.5 32q43 0 64.5 -22.5t21.5 -54.5q0 -9 -2 -16t-6 -14t-5 -8q-11 -23 -11 -31q0 -35 50 -35q65 0 86 70q4 14 15 88q34 243 34 354v16q0 27 -19 37z" />
    <glyph glyph-name="afii10058" unicode="&#x409;" horiz-adv-x="1104" 
d="M512 277l38 286q3 30 3 31q0 14 -5 20q-9 11 -49 11q-35 0 -51 -3.5t-33 -15.5q-22 -16 -35 -47q-6 -15 -12 -35t-9 -35.5t-10 -48t-11 -51.5q-60 -282 -140 -360q-56 -55 -129 -55q-51 0 -76 27t-25 64q0 41 26.5 69t66.5 28q27 0 46 -19t30 -24q8 3 14.5 8.5t18.5 27.5
t25 61q34 97 60 242q16 93 16 116q0 26 -14 41q-5 6 -12 10t-15.5 8t-11.5 6q-24 13 -24 37q0 16 5.5 26.5t13 16.5t20.5 9t22.5 3.5t23.5 0.5q29 0 89 -2.5t89 -2.5q11 0 23.5 0.5t34.5 1t42 0.5q106 2 109 2h22q23 0 38 -0.5t34.5 -3t31 -7t19.5 -13.5t8 -22
q0 -32 -44 -51q-20 -10 -25 -15q-6 -7 -14 -37.5t-11 -50.5l-15 -103q64 11 119 11q109 0 175 -43q81 -53 81 -157q0 -119 -83.5 -182t-215.5 -63q-51 0 -116 3.5t-102 3.5q-13 0 -40.5 -1t-41.5 -1q-82 0 -82 48q0 12 7.5 21t15 13t22.5 11q21 10 25 15q15 19 38 170z
M692 306l-11 -76q-10 -67 -10 -95q0 -21 12 -33q16 -15 64 -15q81 0 120 39t39 99q0 7 -1 16t-8 29.5t-19 35.5t-39 27.5t-64 12.5q-46 0 -63 -10.5t-20 -29.5z" />
    <glyph glyph-name="afii10059" unicode="&#x40a;" horiz-adv-x="1067" 
d="M686 455l-4 -27q64 11 119 11q109 0 175 -43q81 -53 81 -157q0 -119 -83.5 -182t-215.5 -63q-51 0 -116 3.5t-102 3.5q-13 0 -40.5 -1t-41.5 -1q-82 0 -82 48q0 12 7.5 21t15 13t22.5 11q21 10 25 15q10 13 23 73q17 78 17 123q0 21 -16 26t-62 5h-33h-48q-60 0 -66 -17
q-24 -70 -24 -196q0 -7 1 -12.5t3 -8.5t3.5 -4.5t4.5 -3t4 -2.5l8 -5q23 -15 23 -37q0 -20 -13.5 -31t-53 -17t-111.5 -6h-21q-27 0 -43 1t-34.5 5t-27.5 14t-9 26q0 26 20 39q16 8 30 14q15 8 19 13q9 11 21 72q27 131 40 236q12 96 12 179v3q0 24 -19 36l-7 4
q-29 17 -29 37q0 21 14 35t41.5 19t46 6t49.5 1h18q72 0 109 -8.5t37 -39.5q0 -7 -1 -12.5t-4.5 -10t-5.5 -8t-7.5 -7t-7 -5t-8.5 -5.5l-7 -3l-6 -3q-6 -4 -11 -7.5t-7 -5.5q-10 -12 -19 -68.5t-9 -88.5q0 -28 53 -28h60h36q63 0 74 18q8 14 14 64.5t6 85.5v3q0 20 -16 27
l-4 2q-28 14 -28 38q0 21 13.5 34.5t41 19t49 7t55.5 1.5h13q71 0 105 -10t34 -39q0 -20 -12 -30.5t-31 -18.5t-27 -16t-16.5 -52t-10.5 -72zM664 306l-11 -76q-10 -67 -10 -95q0 -21 12 -33q16 -15 64 -15q81 0 120 39t39 99q0 7 -1 16t-8 29.5t-19 35.5t-39 27.5t-64 12.5
q-46 0 -63 -10.5t-20 -29.5z" />
    <glyph glyph-name="afii10060" unicode="&#x40b;" horiz-adv-x="919" 
d="M199 729h405q35 0 52.5 5.5t29.5 5.5q18 0 31 -35t13 -89q0 -26 -1 -42t-5.5 -36.5t-15 -31t-27.5 -10.5q-33 0 -50 55l-5 15q-14 41 -32 54t-58 13q-39 0 -50 -11q-7 -7 -14 -28q-5 -11 -17 -94q-8 -53 -8 -55q0 -11 10 -11q7 0 54 10q36 8 104 8q125 0 168 -70
q24 -38 24 -100q0 -20 -9 -94q-6 -51 -6 -65q0 -10 3 -16q5 -10 22 -16q31 -14 31 -36q0 -34 -34.5 -47t-134.5 -13h-34q-36 0 -57.5 2t-39.5 13t-18 32q0 34 40 48q18 9 20 11q11 11 22 69.5t11 79.5q0 96 -97 96q-50 0 -95 -21l-11 -87q-9 -86 -9 -110q0 -18 5.5 -25
t20.5 -13q30 -12 30 -36q0 -34 -37.5 -46.5t-131.5 -12.5q-6 0 -21.5 -0.5t-23.5 -0.5q-108 0 -108 48q0 19 11 29.5t34 20.5q18 7 25 15q20 24 45 209q0 3 6 43t11.5 83t10.5 88t5 62q0 24 -6 31q-9 10 -48 10q-36 0 -58.5 -12t-50.5 -56q-31 -48 -32 -49q-16 -20 -42 -20
q-30 0 -30 42q0 49 33 125.5t62 76.5q2 0 5 -1t9 -2.5t13 -2.5q23 -5 51 -5z" />
    <glyph glyph-name="afii10061" unicode="&#x40c;" horiz-adv-x="741" 
d="M288 532l-12 -83q0 -1 -0.5 -5.5t-0.5 -6.5q0 -15 10 -15h39q71 0 133 141q3 7 17 39.5t21 46.5t21.5 35t30.5 33q35 27 90 27t79.5 -29.5t24.5 -65.5q0 -38 -26.5 -64.5t-62.5 -26.5t-58 25q-16 20 -18 22q-14 -14 -26 -42q-28 -67 -55 -109q-20 -32 -44 -52
q-11 -10 -11 -13q0 -1 3 -2t10 -3t14 -6q65 -35 89 -116q12 -40 19 -81.5t17 -64.5q11 -24 30 -33q12 -5 28 -5q8 0 14 -1q15 -1 21.5 -9t6.5 -16q0 -14 -10.5 -27t-44 -25t-86.5 -12q-82 0 -119 58q-6 10 -11 21.5t-7.5 20t-5 23.5t-3.5 21.5t-3 24.5t-3 24q-9 73 -25 98
q-29 47 -92 47q-15 0 -19.5 -5t-8.5 -29l-12 -87q-5 -32 -5 -72q0 -24 7 -31q2 -2 19 -11q30 -16 30 -42q0 -33 -36.5 -43.5t-130.5 -10.5h-45q-53 0 -81.5 9t-28.5 39q0 19 11 29t34 20q20 10 25 15q20 24 55 285q20 157 20 208q0 24 -15 33l-9 5q-2 1 -8.5 4t-8.5 4.5
t-6 5t-5 7t-2.5 9.5t-1.5 14q0 18 7.5 27.5t45 17t112.5 7.5q83 0 120 -8t37 -39q0 -14 -7 -24t-13.5 -13.5t-21.5 -11.5l-22 -11q-19 -14 -30 -95zM532 824l-175 -51q-24 -6 -33 -6q-35 0 -35 48q0 15 8.5 23.5t40.5 21.5l159 67q24 9 32 9q17 0 27 -27.5t10 -53.5
q0 -13 -6 -18.5t-28 -12.5z" />
    <glyph glyph-name="afii10062" unicode="&#x40e;" horiz-adv-x="706" 
d="M307 195q-38 102 -80 203q-83 199 -106 220q-11 10 -30 17q-1 0 -8 2.5t-9.5 4t-8 5t-8 7t-4.5 9t-2 12.5q0 20 15 33t45.5 18t55 6.5t63.5 1.5q7 0 24.5 0.5t26.5 0.5q100 0 100 -43q0 -17 -16 -31q-4 -3 -12.5 -9t-11.5 -9q-8 -8 -8 -18q0 -4 4 -16q29 -85 90 -216
q50 80 99 185q17 34 17 47q0 10 -15 18q-10 6 -12.5 6.5t-8.5 4.5q-14 10 -14 28q0 17 13 28t38 15.5t46 6t52 1.5q118 0 118 -50q0 -8 -3.5 -14.5t-7.5 -11t-12 -8.5t-12.5 -5.5t-12.5 -4t-9 -2.5q-25 -8 -41 -21q-10 -8 -19 -18.5t-21 -30t-21.5 -36.5t-29.5 -53t-36 -65
q-100 -178 -171 -290q-21 -33 -37.5 -54.5t-41 -46t-55 -36.5t-65.5 -12q-48 0 -75 25t-27 68q0 45 27.5 70t63.5 25q31 0 48 -17q12 -11 20 -34q5 -12 13 -12q12 0 34 31q19 28 38 65zM393 791q-82 0 -125.5 37t-43.5 92q0 35 21.5 58t61.5 23q54 0 65 -51l2 -8
q1 -8 1.5 -9t2.5 -8t4 -9t6 -7t9 -7t11.5 -4.5t15 -3.5t19.5 -1q80 0 138 74q24 33 47 33q11 0 19 -8.5t8 -23.5q0 -55 -74.5 -116t-187.5 -61z" />
    <glyph glyph-name="afii10145" unicode="&#x40f;" horiz-adv-x="771" 
d="M476 166l50 356q8 52 8 86q0 14 -6 20q-3 4 -17 12q-27 15 -27 40q0 32 34.5 43t122.5 11h50q52 0 80.5 -10t28.5 -42q0 -27 -43 -45q-20 -10 -25 -15q-21 -23 -56 -290q-19 -154 -19 -202q0 -17 8 -23q9 -8 17 -11l4 -2l5 -2.5t4.5 -2.5t5 -3.5t4.5 -4t4 -5t3 -5.5
t2.5 -7t0.5 -8q0 -20 -14.5 -32.5t-42 -18t-51 -7t-56.5 -1.5q-21 0 -41.5 2.5t-49.5 2.5q-31 0 -51.5 -4.5t-29.5 -14t-11.5 -17.5t-2.5 -20q0 -15 6 -67q2 -28 2 -43q0 -81 -76 -81q-23 0 -37 11t-17.5 22t-3.5 24q0 20 24 81q21 55 21 71q0 38 -81 38q-26 0 -42.5 -2.5
t-50.5 -2.5q-81 0 -110 13.5t-29 37.5q0 14 6 23t13 13.5t24 11.5q20 9 26 16q11 13 25.5 91.5t20.5 128.5q29 209 29 270q0 15 -3 20q-1 3 -21 15q-1 1 -6.5 4t-7 3.5t-5.5 3.5t-5.5 5t-4 5.5t-3 7.5t-0.5 9q0 20 12 33t36.5 18t45 6.5t54.5 1.5h20h16q29 0 48 -1t41.5 -5
t34 -14t11.5 -25q0 -31 -41 -50q-20 -10 -25 -17q-10 -14 -22 -100l-50 -356q-3 -21 -3 -33q0 -13 5 -18q10 -12 67 -12h42h47t30.5 1.5t23.5 4t10 6.5q9 12 14 51z" />
    <glyph glyph-name="afii10017" unicode="&#x410;" horiz-adv-x="776" 
d="M283 297h120q12 0 12 11q0 4 -2 16l-9 56q-20 125 -38 125q-11 0 -26 -35l-66 -149q-4 -9 -4 -14q0 -10 13 -10zM460 114l-11 53q-5 26 -17 33t-48 7h-115h-10q-35 0 -53 -21q-12 -14 -22 -38.5t-10 -39.5q0 -6 2 -9.5t6 -6t13 -7.5l10 -5q1 -1 4.5 -2.5t5 -2.5t4 -3.5
t4 -4.5t2.5 -6t1 -9q0 -57 -130 -57q-69 0 -98 8.5t-29 37.5q0 26 25 39q9 4 26.5 10.5t28.5 13.5q21 15 55 76q199 370 231 457q10 25 12 34q4 14 7 26l6 22q6 22 52 22q66 0 87 -32q16 -26 52 -192l31 -144q54 -249 76 -267q3 -2 7 -4t9.5 -4t8.5 -3q38 -15 38 -44
q0 -19 -15 -31.5t-44 -17.5t-49.5 -6t-51.5 -1q-94 0 -127 9t-33 38q0 5 1 9.5t3.5 8t3.5 6t6 5.5t6 4t7 4.5t7 3.5l14 8q12 7 12 17q0 1 -0.5 3t-0.5 3z" />
    <glyph glyph-name="afii10018" unicode="&#x411;" horiz-adv-x="677" 
d="M281 455l-4 -27q51 11 110 11q121 0 187 -43q83 -53 83 -164q0 -114 -81.5 -176t-209.5 -62q-16 0 -101 3.5t-121 3.5q-14 0 -43 -1t-44 -1h-7q-79 0 -79 48q0 12 7.5 21.5t14.5 13t23 10.5q18 8 25 15q21 24 48 233t27 253q0 22 -3 28q-5 8 -21 15q-33 16 -33 40
q0 56 99 56q18 0 36 -1.5t47 -1.5h273q35 0 52.5 5.5t29.5 5.5q18 0 31 -36.5t13 -93.5q0 -59 -10.5 -86.5t-40.5 -27.5q-17 0 -26.5 11.5t-20.5 43.5l-6 18q-13 40 -33 52t-57 12h-84q-32 0 -44 -11q-9 -8 -13 -26q-8 -35 -24 -141zM260 306l-15 -112q-6 -43 -6 -59
q0 -22 12 -33q16 -15 70 -15q28 0 53.5 6t50.5 20.5t39.5 42.5t14.5 66q0 57 -35.5 90.5t-107.5 33.5q-42 0 -57.5 -10.5t-18.5 -29.5z" />
    <glyph glyph-name="afii10019" unicode="&#x412;" horiz-adv-x="699" 
d="M258 323l-19 -149q-3 -21 -3 -38q0 -26 17.5 -38t68.5 -12q76 0 117 33.5t41 98.5q0 59 -35.5 84t-111.5 25q-39 0 -75 -4zM288 551l-16 -119q58 -4 66 -4q153 0 153 113q0 98 -118 98q-47 0 -62.5 -15.5t-22.5 -72.5zM94 633l-7 4q-29 18 -29 37q0 20 12.5 33t37 18.5
t45.5 7t52 1.5q15 0 44.5 -0.5t44.5 -0.5q20 0 61 0.5t61 0.5q243 0 243 -165q0 -68 -51.5 -119.5t-134.5 -63.5q76 -6 129.5 -53.5t53.5 -128.5q0 -93 -72 -151.5t-216 -58.5q-26 0 -77 2t-76 2q-19 0 -59 -1t-59 -1h-13q-25 0 -40.5 1t-34.5 5t-28.5 13.5t-9.5 24.5
q0 26 20 40q6 4 14.5 6.5t17.5 7.5q14 8 17 13q7 8 21 72t33 194t19 190q0 8 0.5 19t0.5 15q0 24 -20 36z" />
    <glyph glyph-name="afii10020" unicode="&#x413;" horiz-adv-x="580" 
d="M244 729h245q35 0 52.5 5.5t29.5 5.5q18 0 31 -36.5t13 -95.5q0 -61 -11 -86.5t-39 -25.5q-15 0 -25.5 9.5t-20.5 38.5l-8 24q-13 39 -32 52t-58 13h-59q-32 0 -43 -11q-10 -10 -14 -28q-9 -36 -29 -175q-33 -242 -33 -299q0 -12 4.5 -16.5t20.5 -13.5q1 -1 6.5 -3.5
t8 -4t7 -5t6 -7t3.5 -9t2 -12.5q0 -29 -34 -41.5t-136 -12.5h-39q-121 0 -121 47q0 31 45 50q18 7 25 15t13.5 32.5t13 64t11 68.5t10.5 75t7 54q20 151 20 192q0 19 -3 28q-3 6 -19 15q-2 1 -5.5 3t-5.5 3t-5 3t-5 3.5t-4.5 4t-3.5 5t-2.5 5.5t-2 6.5t-0.5 7.5
q0 26 29 40.5t72 14.5q24 0 36 -1q32 -2 47 -2z" />
    <glyph glyph-name="afii10021" unicode="&#x414;" horiz-adv-x="795" 
d="M240 103h162q19 0 28.5 3.5t11 6t3.5 9.5q14 34 35 187l22 154q4 24 5.5 37.5t2.5 26.5l2 26q4 29 4 55v2q0 6 -1 9.5t-7 6.5t-18 3h-43q-58 0 -84 -61q-7 -16 -26 -88q-47 -179 -83 -269q-7 -16 -13 -31t-9.5 -23t-6.5 -14.5t-4.5 -10t-2 -6.5t-0.5 -6q0 -17 22 -17z
M503 0h-316q-78 0 -124 -74q-4 -7 -18.5 -33.5t-23.5 -37.5q-14 -17 -35 -17q-42 0 -42 62q0 40 8 76q14 73 39 102.5t48 29.5q4 0 7.5 -1t7.5 -2.5t6 -2.5q9 -3 15 -3q19 0 41 48q58 122 102 283q22 81 22 135q0 36 -13 50q-7 7 -14 11t-16.5 7.5t-13.5 5.5q-26 12 -26 39
q0 15 5.5 25.5t13.5 16t22 8.5t25 3.5t29 0.5q30 0 89 -2.5t89 -2.5q40 0 103 2q80 2 100 2h45q25 0 41 -1.5t32 -6t24 -14.5t8 -25q0 -33 -44 -50q-21 -11 -25 -15q-15 -15 -39 -189q-17 -119 -26 -191q-11 -91 -11 -120v-2q0 -17 17 -17l12 3q15 5 22 5q50 0 50 -112
q0 -46 -6.5 -79.5t-17.5 -49.5t-22 -22.5t-23 -6.5q-18 0 -28 19q-6 11 -12.5 36t-9.5 33q-26 74 -117 74z" />
    <glyph glyph-name="afii10022" unicode="&#x415;" horiz-adv-x="662" 
d="M452 0h-382q-57 0 -77.5 9.5t-20.5 31.5q0 25 18 39q5 4 15.5 7.5t21.5 10.5q16 10 18 13q15 18 31 142q42 286 42 337q0 21 -2.5 27t-17.5 16l-9 6l-7 3.5t-7 4.5q-12 9 -12 31q0 51 93 51h353q29 0 55 7t30 7q14 0 22.5 -10.5t17.5 -31.5q23 -54 23 -96q0 -52 -42 -52
q-12 0 -22 6.5t-13.5 11t-13.5 19.5q-15 24 -31.5 35t-50.5 11h-106q-38 0 -52 -10t-22 -29q-11 -26 -19 -71.5t-8 -78.5q0 -12 4.5 -15.5t22.5 -3.5h62q30 0 43 6.5t24 30.5q3 7 7 19q11 33 12 34q10 23 34 23q22 0 27.5 -11.5t5.5 -38.5q0 -130 -35 -223q-8 -20 -17 -29.5
t-27 -9.5q-29 0 -32 33q-2 51 -9 61q-12 17 -40 17h-72q-10 0 -15.5 -2.5t-6.5 -4.5t-3 -8q-9 -27 -14.5 -84t-5.5 -91q0 -21 4 -31t24 -17t62 -7h58q49 0 73 11t49 38l5.5 5.5t3 5t3.5 7t7.5 14t13.5 23.5q19 34 47 34q33 0 33 -41q0 -70 -49 -167q-21 -39 -41 -39
q-2 0 -28 7q-28 7 -55 7z" />
    <glyph glyph-name="afii10024" unicode="&#x416;" horiz-adv-x="1073" 
d="M654 557l-17 -108q0 -1 -0.5 -5.5t-0.5 -6.5q0 -15 10 -15h18q73 0 127 141q14 38 22 57.5t27.5 49.5t41.5 47q36 27 87 27q35 0 58 -11.5t31 -29.5t10 -28t2 -20q0 -41 -27 -64t-60 -23q-32 0 -52 22q-14 16 -17 19q-17 -12 -31 -43q-45 -102 -47 -105q-20 -39 -45 -59
q-12 -9 -12 -13q0 -2 21 -12q69 -32 93 -115q11 -39 15 -88.5t18 -70.5q10 -14 24 -21q7 -3 13.5 -4t15 -1t14.5 -1q26 -2 26 -23q0 -15 -11.5 -28.5t-46 -25t-87.5 -11.5q-45 0 -74.5 15t-46.5 60q-9 23 -15 81.5t-10 81.5q-10 58 -31 79t-53 21q-18 0 -22 -5t-7 -29
l-6 -43q-12 -90 -12 -117q0 -22 6 -30q3 -4 19 -11q31 -14 31 -40q0 -14 -4.5 -23.5t-16 -15.5t-22.5 -9.5t-34 -5t-40 -2t-50 -0.5h-8q-33 0 -51 1t-41 5.5t-34 15.5t-11 28q0 29 43 46q14 6 21 11q20 16 38 147l6 43q2 16 2 19q0 6 -1 9t-3.5 4t-5 1.5t-8.5 0.5
q-63 0 -107 -100q-12 -28 -31 -82.5t-35 -80.5q-28 -45 -63.5 -60t-84.5 -15q-135 0 -135 60q0 21 34 28q8 1 23.5 2.5t21.5 3.5q13 4 28 21q19 23 43.5 81t35.5 78q23 40 51.5 67.5t73.5 48.5q7 3 13.5 5.5t9 3.5t2.5 2t-10 13q-18 20 -27 59q-4 16 -6.5 32.5t-5 37
t-5.5 35.5q-5 30 -19 43q-8 -6 -22 -18q-27 -23 -57 -23q-32 0 -50.5 21t-18.5 51q0 43 30.5 73.5t91.5 30.5q48 0 78 -27q41 -38 54 -154q15 -141 88 -141h20q3 0 5 0.5t3.5 1.5t3 3t2 3.5t1 4.5t1 4.5t1 5t0.5 4.5l12 83q5 38 5 55q0 29 -9 40q-2 3 -14.5 9.5t-20.5 12.5
q-16 11 -16 32q0 18 13.5 29.5t40 16t47.5 6t54 1.5q7 0 23 0.5t26 0.5q111 0 111 -51q0 -29 -42 -46q-2 -1 -6.5 -2.5t-8 -3.5t-7.5 -5q-17 -14 -25 -70z" />
    <glyph glyph-name="afii10025" unicode="&#x417;" horiz-adv-x="647" 
d="M431 393v-3q23 -3 45.5 -11t52 -25t48 -51.5t18.5 -81.5q0 -34 -10 -66t-35.5 -64.5t-63.5 -56.5t-99 -39t-137 -15q-124 0 -204 47q-48 45 -48 125q0 48 16.5 71t35.5 23q28 0 50 -55q13 -30 34 -65q40 -53 124 -53q42 0 73.5 12.5t46.5 28.5t24 38t10.5 34.5t1.5 23.5
q0 39 -13 65t-36 36.5t-42.5 14t-44.5 3.5h-63q-18 0 -27.5 6t-11.5 13t-2 19v8q0 25 10.5 36.5t43.5 11.5h60q13 0 25.5 1t35 8t38 18.5t28 36t12.5 58.5q0 49 -25.5 76.5t-71.5 27.5q-35 0 -66.5 -15.5t-46 -29.5t-33.5 -37q-15 -19 -23.5 -28t-23.5 -18.5t-30 -9.5
q-16 0 -28 11t-12 34q0 37 21 77.5t48 69.5q33 35 63 35q20 0 39 -17q72 20 136 20q120 0 176.5 -48t56.5 -118q0 -67 -50.5 -116.5t-125.5 -65.5z" />
    <glyph glyph-name="afii10026" unicode="&#x418;" horiz-adv-x="773" 
d="M292 531l-23 -157q-4 -22 -4 -36q0 -9 5 -9q6 0 32 24l192 167q41 35 41 87q0 15 -6 21t-16 11q-29 13 -29 37q0 20 15 33t44.5 18t49.5 6t55 1q96 0 125 -8t29 -34q0 -25 -11 -35.5t-32 -18.5q-11 -5 -21 -11q-23 -16 -53 -235q-28 -217 -28 -265q0 -15 3 -20
q1 -3 21 -15q10 -6 13.5 -8t9 -7.5t7.5 -12t2 -16.5q0 -31 -33 -42t-134 -11h-36q-25 0 -42.5 1.5t-35.5 6t-27.5 15t-9.5 26.5q0 13 7.5 23t14.5 14t19 9q10 4 15 7q19 13 31 103l14 100q9 81 9 98q0 12 -6 12q-3 0 -27 -20l-179 -157q-56 -50 -56 -109q0 -15 7 -23
q5 -5 17 -11q27 -14 27 -41q0 -18 -8.5 -28.5t-44.5 -18t-104 -7.5h-44q-25 0 -42.5 1.5t-36 6.5t-28 16t-9.5 28q0 26 44 45q20 10 25 15q22 24 55 285q20 161 20 212q0 17 -7 23q-4 4 -17 11q-11 5 -16 8.5t-10 12.5t-5 23q0 18 8.5 27.5t46.5 17t111 7.5h38q25 0 42 -1.5
t35 -6.5t27.5 -16t9.5 -28q0 -18 -14 -29t-26 -14q-14 -5 -21 -11t-25 -97z" />
    <glyph glyph-name="afii10027" unicode="&#x419;" horiz-adv-x="773" 
d="M292 531l-23 -157q-4 -22 -4 -36q0 -9 5 -9q6 0 32 24l192 167q41 35 41 87q0 15 -6 21t-16 11q-29 13 -29 37q0 20 15 33t44.5 18t49.5 6t55 1q96 0 125 -8t29 -34q0 -25 -11 -35.5t-32 -18.5q-11 -5 -21 -11q-23 -16 -53 -235q-28 -217 -28 -265q0 -15 3 -20
q1 -3 21 -15q10 -6 13.5 -8t9 -7.5t7.5 -12t2 -16.5q0 -31 -33 -42t-134 -11h-36q-25 0 -42.5 1.5t-35.5 6t-27.5 15t-9.5 26.5q0 13 7.5 23t14.5 14t19 9q10 4 15 7q19 13 31 103l14 100q9 81 9 98q0 12 -6 12q-3 0 -27 -20l-179 -157q-56 -50 -56 -109q0 -15 7 -23
q5 -5 17 -11q27 -14 27 -41q0 -18 -8.5 -28.5t-44.5 -18t-104 -7.5h-44q-25 0 -42.5 1.5t-36 6.5t-28 16t-9.5 28q0 26 44 45q20 10 25 15q22 24 55 285q20 161 20 212q0 17 -7 23q-4 4 -17 11q-11 5 -16 8.5t-10 12.5t-5 23q0 18 8.5 27.5t46.5 17t111 7.5h38q25 0 42 -1.5
t35 -6.5t27.5 -16t9.5 -28q0 -18 -14 -29t-26 -14q-14 -5 -21 -11t-25 -97zM412 791q-82 0 -125.5 37t-43.5 92q0 35 21.5 58t61.5 23q54 0 65 -51l1 -8q2 -8 2.5 -9t2.5 -8t4 -9t6 -7t9 -7t11.5 -4.5t15 -3.5t19.5 -1q80 0 138 74q24 33 47 33q11 0 19 -8.5t8 -23.5
q0 -55 -74.5 -116t-187.5 -61z" />
    <glyph glyph-name="afii10028" unicode="&#x41a;" horiz-adv-x="741" 
d="M288 532l-12 -83q0 -1 -0.5 -5.5t-0.5 -6.5q0 -15 10 -15h39q71 0 133 141q3 7 17 39.5t21 46.5t21.5 35t30.5 33q35 27 90 27t79.5 -29.5t24.5 -65.5q0 -38 -26.5 -64.5t-62.5 -26.5t-58 25q-16 20 -18 22q-14 -14 -26 -42q-28 -67 -55 -109q-20 -32 -44 -52
q-11 -10 -11 -13q0 -1 3 -2t10 -3t14 -6q65 -35 89 -116q12 -40 19 -81.5t17 -64.5q11 -24 30 -33q12 -5 28 -5q8 0 14 -1q15 -1 21.5 -9t6.5 -16q0 -14 -10.5 -27t-44 -25t-86.5 -12q-82 0 -119 58q-6 10 -11 21.5t-7.5 20t-5 23.5t-3.5 21.5t-3 24.5t-3 24q-9 73 -25 98
q-29 47 -92 47q-15 0 -19.5 -5t-8.5 -29l-12 -87q-5 -32 -5 -72q0 -24 7 -31q2 -2 19 -11q30 -16 30 -42q0 -33 -36.5 -43.5t-130.5 -10.5h-45q-53 0 -81.5 9t-28.5 39q0 19 11 29t34 20q20 10 25 15q20 24 55 285q20 157 20 208q0 24 -15 33l-9 5q-2 1 -8.5 4t-8.5 4.5
t-6 5t-5 7t-2.5 9.5t-1.5 14q0 18 7.5 27.5t45 17t112.5 7.5q83 0 120 -8t37 -39q0 -14 -7 -24t-13.5 -13.5t-21.5 -11.5l-22 -11q-19 -14 -30 -95z" />
    <glyph glyph-name="afii10029" unicode="&#x41b;" horiz-adv-x="792" 
d="M500 207l50 356q3 30 3 31q0 14 -5 20q-9 11 -49 11q-35 0 -51 -3.5t-33 -15.5q-22 -16 -35 -47q-6 -15 -12 -35t-9 -35.5t-10 -48t-11 -51.5q-60 -282 -140 -360q-56 -55 -129 -55q-51 0 -76 27t-25 64q0 41 26.5 69t66.5 28q27 0 46 -19t30 -24q8 3 14.5 8.5t18.5 27.5
t25 61q34 97 60 242q16 93 16 116q0 26 -14 41q-5 6 -12 10t-15.5 8t-11.5 6q-24 13 -24 37q0 16 5.5 26.5t13 16.5t20.5 9t22.5 3.5t23.5 0.5q29 0 89 -2.5t89 -2.5q11 0 23.5 0.5t34.5 1t42 0.5q106 2 109 2h22q23 0 38 -0.5t34.5 -3t31 -7t19.5 -13.5t8 -22
q0 -32 -44 -51q-20 -10 -25 -15q-10 -12 -26.5 -103t-24.5 -156q-24 -187 -24 -233q0 -15 3 -20q1 -3 21 -15q13 -7 16.5 -9t10 -12t6.5 -22q0 -18 -11.5 -29.5t-33.5 -16.5t-41 -6.5t-46 -1.5h-36h-40q-24 0 -40.5 1.5t-34.5 6t-27 14.5t-9 25q0 14 7.5 24.5t13.5 14
t19 9.5q21 11 25 17q13 19 22 100z" />
    <glyph glyph-name="afii10030" unicode="&#x41c;" horiz-adv-x="914" 
d="M660 517l-219 -403q-2 -3 -8.5 -15.5t-9.5 -18t-10 -16t-12.5 -15.5t-13.5 -9t-16 -4q-7 0 -12.5 2.5t-9.5 8.5t-7 11.5t-5.5 14.5t-4 14.5t-3 15t-2.5 12.5l-99 429l-45 -254q-24 -134 -24 -168q0 -25 10 -31l14 -9q24 -15 24 -35q0 -18 -10 -29t-30.5 -15.5t-36 -5.5
t-40.5 -1h-6q-106 0 -106 43q0 22 18 33q5 4 16.5 9.5t15.5 8.5q17 11 28 41q12 34 45 216q36 195 36 242q0 37 -22 49l-9 5q-27 16 -27 33q0 24 38 39q50 18 137 18q53 0 69 -8q6 -3 10.5 -7.5t8 -10.5t6 -11t5 -14t3.5 -13t3.5 -13.5t2.5 -11.5l64 -277q3 -13 7.5 -23.5
t8.5 -16t6 -5.5q4 0 19.5 23t28.5 47l129 242q39 75 66 89q19 10 92 10q123 0 123 -50q0 -19 -23 -31q-1 -1 -2.5 -1.5t-4.5 -2.5q-1 0 -3.5 -2t-4 -2.5t-4 -3t-4.5 -5t-5 -6t-5.5 -8.5l-5.5 -11q-13 -29 -24 -120q-23 -181 -23 -303q0 -74 12 -89q3 -3 15 -11
q27 -17 27 -40q0 -33 -42.5 -42t-141.5 -9h-23q-66 0 -85 12q-16 10 -16 29q0 25 24 39q15 9 24 12q6 2 11 7q10 10 18 46q6 23 11 60.5t7.5 66.5t6.5 75.5t5 62.5z" />
    <glyph glyph-name="afii10031" unicode="&#x41d;" horiz-adv-x="757" 
d="M253 91l8 -5q23 -15 23 -37q0 -20 -13.5 -31t-53 -17t-111.5 -6h-21q-27 0 -43 1t-34.5 5t-27.5 14t-9 26q0 26 20 39q16 8 30 14q15 8 19 13q9 11 21 72q27 131 40 236q12 96 12 179v3q0 24 -19 36l-7 4q-29 17 -29 37q0 21 14 35t41.5 19t46 6t49.5 1h18q72 0 109 -8.5
t37 -39.5q0 -7 -1 -12.5t-4.5 -10t-5.5 -8t-7.5 -7t-7 -5t-8.5 -4.5l-7 -4l-6 -4q-6 -3 -11 -6.5t-7 -5.5q-10 -12 -19 -68.5t-9 -88.5q0 -28 53 -28h60h36q63 0 74 18q8 14 14 64.5t6 85.5v3q0 20 -16 27l-4 2q-28 14 -28 38q0 21 13.5 34.5t41 19t49 7t55.5 1.5h13
q71 0 105 -10t34 -39q0 -20 -12 -30.5t-31 -18.5t-27 -16q-12 -12 -28 -124q-44 -291 -44 -362q0 -14 1 -19.5t5 -10t13 -9.5l6 -3q17 -8 24.5 -16t7.5 -23q0 -21 -13.5 -34t-39.5 -18t-46.5 -6.5t-51.5 -1.5h-17q-65 0 -99 7.5t-41 16t-7 24.5q0 28 22 39l16 8q2 1 8 3
t10.5 5.5t7.5 9.5q10 22 19 74q17 89 17 123q0 20 -16 25.5t-62 5.5h-33h-43h-6q-60 0 -65 -17q-24 -70 -24 -196q0 -7 1 -12.5t3 -8.5t3.5 -4.5t4.5 -3t4 -2.5z" />
    <glyph glyph-name="afii10032" unicode="&#x41e;" horiz-adv-x="791" 
d="M350 -18q-150 0 -239 91.5t-89 245.5q0 199 147 322q116 99 279 99q148 0 234.5 -89t86.5 -239q0 -138 -76 -250q-58 -86 -149 -133t-194 -47zM371 77q82 0 142 86.5t60 247.5q0 68 -15 117t-40 73t-49.5 34t-51.5 10q-82 0 -140.5 -87.5t-58.5 -257.5q0 -59 12.5 -102.5
t29 -66t40 -35.5t39.5 -16t32 -3z" />
    <glyph glyph-name="afii10033" unicode="&#x41f;" horiz-adv-x="771" 
d="M295 563l-50 -356q-8 -52 -8 -86q0 -14 6 -20q3 -4 17 -12q27 -15 27 -40q0 -32 -34.5 -43t-122.5 -11h-50q-52 0 -80.5 10t-28.5 42q0 27 43 45q20 10 25 15q21 23 56 290q19 154 19 202q0 17 -8 23q-9 8 -17 11l-4 2l-5 2.5t-4.5 2.5t-5 3.5t-4.5 4t-4 5t-3 5.5t-2.5 7
t-0.5 8q0 19 11.5 31t36 17t45 6.5t54.5 1.5h22h420h19q35 0 55 -1t41.5 -5.5t30.5 -14.5t9 -27q0 -14 -6 -23t-13 -13.5t-24 -11.5q-20 -9 -26 -16q-19 -24 -46 -220q-29 -209 -29 -270q0 -15 3 -20q1 -3 21 -15q1 -1 6.5 -4t7 -3.5t5.5 -3.5t5.5 -5t4 -5.5t3 -7.5t0.5 -9
q0 -20 -12 -33t-36.5 -18t-45 -6.5t-54.5 -1.5h-20h-16q-29 0 -48 1t-41.5 5t-34 14t-11.5 25q0 31 41 50q20 10 25 17q10 14 22 100l50 356q3 21 3 33q0 13 -5 18q-10 12 -67 12h-42q-60 0 -82.5 -2t-28.5 -10q-9 -12 -14 -51z" />
    <glyph glyph-name="afii10034" unicode="&#x420;" horiz-adv-x="641" 
d="M94 633l-7 4q-29 17 -29 39q0 20 12 32.5t36 17.5t42.5 6.5t47.5 1.5h11q19 0 59 -0.5t59 -0.5q15 0 47 0.5t47 0.5q53 0 91.5 -7t75 -25.5t56 -57.5t19.5 -97q0 -43 -12.5 -78.5t-32.5 -59t-48.5 -41.5t-55.5 -27.5t-58.5 -15.5t-53.5 -8t-44 -2q-11 0 -33 1t-33 1
q-18 0 -24.5 -5.5t-10.5 -21.5q-18 -71 -18 -162q0 -18 4 -25t24 -15q10 -4 15.5 -7t11 -11.5t5.5 -20.5q0 -31 -37 -42.5t-150 -11.5h-32q-107 0 -107 46q0 26 20 39q10 7 26 12.5t23 14.5t21 72q23 104 41 250q11 88 11 162q0 31 -19 42zM288 551l-18 -134q50 -3 61 -3
q156 0 156 121q0 104 -116 104q-46 0 -61 -15t-22 -73z" />
    <glyph glyph-name="afii10035" unicode="&#x421;" horiz-adv-x="704" 
d="M593 548l-10 13q-2 3 -10.5 14t-11.5 14.5t-10.5 12.5t-12 12.5t-13 10.5t-15.5 9.5t-17 6t-21 5t-23 1.5q-92 0 -159 -85t-67 -239q0 -66 17 -114t44 -73t54 -36t55 -11q70 0 142 62q17 15 31 31q24 28 40 32q4 1 8 1q15 0 25 -11.5t10 -33.5q0 -37 -23 -79t-48 -42
q-2 0 -6.5 1t-6.5 1q-7 0 -15 -4.5t-21.5 -13.5t-27.5 -15q-81 -37 -164 -37q-60 0 -113.5 18.5t-98.5 55.5t-72 101t-27 148q0 192 127 316q65 62 143.5 91.5t153.5 29.5q64 0 111 -19q15 -6 27 -12q8 -5 13 -5q3 0 11 4t13 4q18 0 37 -31q35 -56 35 -101q0 -61 -53 -61
q-29 0 -51 28z" />
    <glyph glyph-name="afii10036" unicode="&#x422;" horiz-adv-x="684" 
d="M197 729h391q12 0 54 6q8 1 16.5 3.5t11.5 2.5q41 0 41 -122v-25q0 -22 -1.5 -36.5t-6 -31t-15 -24.5t-27.5 -8q-5 0 -9 1t-7 2t-6.5 4t-5.5 4t-4.5 5.5t-3.5 6t-3 7.5t-2.5 7t-2.5 7.5t-2 7.5l-7 23q-9 29 -24 44t-28 17.5t-37 2.5q-16 0 -23.5 -1.5t-16 -7.5t-13 -20
t-8.5 -38l-30 -206q-25 -182 -25 -238q0 -15 4.5 -21.5t19.5 -13.5l9 -4q22 -10 22 -34q0 -22 -14 -33t-53 -16t-119 -5q-78 0 -108 9t-30 37q0 31 31 45q4 2 12.5 5t12.5 5t9.5 7t8.5 12q17 39 48 245q28 174 28 236q0 9 -1 13.5t-4.5 11.5t-14 10t-26.5 3q-59 0 -92 -50
l-24 -36q-2 -2 -11 -17t-13.5 -19.5t-15.5 -10.5t-24 -6q-32 0 -32 38q0 42 31 125q9 25 15 39t18 29t25 15q3 0 12.5 -3t27.5 -6t42 -3z" />
    <glyph glyph-name="afii10037" unicode="&#x423;" horiz-adv-x="706" 
d="M307 195q-38 102 -80 203q-83 199 -106 220q-11 10 -30 17q-1 0 -8 2.5t-9.5 4t-8 5t-8 7t-4.5 9t-2 12.5q0 20 15 33t45.5 18t55 6.5t63.5 1.5q7 0 24.5 0.5t26.5 0.5q100 0 100 -43q0 -17 -16 -31q-4 -3 -12.5 -9t-11.5 -9q-8 -8 -8 -18q0 -4 4 -16q29 -85 90 -216
q50 80 99 185q17 34 17 47q0 10 -15 18q-10 6 -12.5 6.5t-8.5 4.5q-14 10 -14 28q0 17 13 28t38 15.5t46 6t52 1.5q118 0 118 -50q0 -8 -3.5 -14.5t-7.5 -11t-12 -8.5t-12.5 -5.5t-12.5 -4t-9 -2.5q-25 -8 -41 -21q-10 -8 -19 -18.5t-21 -30t-21.5 -36.5t-29.5 -53t-36 -65
q-100 -178 -171 -290q-21 -33 -37.5 -54.5t-41 -46t-55 -36.5t-65.5 -12q-48 0 -75 25t-27 68q0 45 27.5 70t63.5 25q31 0 48 -17q12 -11 20 -34q5 -12 13 -12q12 0 34 31q19 28 38 65z" />
    <glyph glyph-name="afii10038" unicode="&#x424;" horiz-adv-x="864" 
d="M550 552l-47 -334q24 -4 42 -4q63 0 109 54t46 145q0 20 -3 38.5t-13 45.5t-35 43t-62 16q-19 0 -37 -4zM489 775h38q26 0 43.5 -1.5t36.5 -6.5t29 -16t10 -28q0 -7 -2.5 -13t-5 -10t-9 -8t-9 -5t-10.5 -5l-9 -3q-20 -9 -26 -15q-12 -10 -12 -35q0 -4 1 -5t5 -1
q7 0 17.5 1.5t14.5 1.5q20 2 42 2q96 0 158 -47q79 -60 79 -173q0 -93 -58 -160q-44 -51 -113.5 -79t-149.5 -28q-17 0 -28 2t-30 2q-10 0 -10 -28q0 -9 4 -17q5 -6 22 -15q1 -1 6 -3.5t7.5 -3.5t6.5 -4.5t6 -7t4 -9.5t2 -13q0 -33 -37 -44.5t-131 -11.5h-36q-36 0 -58 2.5
t-41 14t-19 33.5q0 19 12 28.5t34 18.5q15 5 26 15q12 11 12 39q0 6 -6 6q-20 0 -29.5 -2t-28.5 -2q-155 0 -220 109q-31 54 -31 119q0 135 117 212q73 47 181 47q31 0 47 -2q27 -3 32 -3t6.5 4t1.5 21q0 9 -4 16q-5 8 -20 15q-1 1 -6.5 3.5t-6.5 3t-5.5 3t-5.5 4t-4 5
t-3.5 6.5t-1.5 7t-1 9q0 31 33 43t133 12zM325 218l47 334q-20 4 -37 4q-73 0 -118.5 -56t-45.5 -135q0 -74 35.5 -112.5t80.5 -38.5q10 0 38 4z" />
    <glyph glyph-name="afii10039" unicode="&#x425;" horiz-adv-x="710" 
d="M436 405l118 -232q28 -55 49 -67l22 -11q1 -1 8.5 -4t10.5 -5t8 -6.5t7 -10t2 -13.5q0 -21 -18 -35t-51.5 -19t-55.5 -6t-56 -1h-10q-120 0 -120 49q0 19 14 28l11 7q22 14 22 26q0 8 -11 30l-75 147l-104 -137q-22 -29 -22 -39q0 -7 16 -20q22 -18 22 -34
q0 -57 -138 -57q-114 0 -114 50q0 6 1.5 10.5t4.5 8.5t6 7t9.5 6.5t10 5t12.5 5.5t13 6l13 6q47 21 90 76l141 180l-103 201q-33 60 -48 67l-23 11q-2 1 -8 3.5t-9 4t-7.5 4.5t-6.5 6t-3.5 7.5t-1.5 10.5q0 22 16 36t46 19.5t52.5 7t54.5 1.5h11h6q25 0 41.5 -1t38.5 -5
t33.5 -15t11.5 -28q0 -25 -26 -36q-21 -9 -21 -24q0 -11 10 -31l59 -113l82 103q23 29 23 39q0 8 -16 21q-1 1 -5.5 4t-6.5 5t-5 5.5t-4.5 8t-1.5 10.5q0 57 139 57q114 0 114 -49q0 -5 -1 -9t-3.5 -7.5t-4.5 -6.5t-7 -6t-7 -4.5t-8.5 -4.5t-8.5 -4t-9 -4t-8 -3l-14 -6
q-44 -19 -89 -77z" />
    <glyph glyph-name="afii10040" unicode="&#x426;" horiz-adv-x="810" 
d="M291 522l-50 -356q-3 -24 -3 -35q0 -13 3 -16q8 -12 66 -12h43h42q58 0 71 12q8 8 14 51l50 356q8 52 8 86q0 14 -6 20t-16 11q-28 14 -28 39q0 32 38.5 44t125.5 12h40q26 0 43.5 -1.5t35 -6t26.5 -14.5t9 -25q0 -18 -10.5 -29t-33.5 -21q-22 -10 -26 -15
q-22 -27 -53 -290q-3 -23 -9.5 -70t-9 -74t-2.5 -52v-3q0 -17 14 -17q4 0 14 2q18 3 19 3q54 0 54 -112q0 -46 -6.5 -79.5t-17.5 -49.5t-22 -22.5t-23 -6.5q-18 0 -28 19q-6 11 -13.5 38t-8.5 31q-11 32 -33 48t-68 16h-8l-423 -9h-15q-36 0 -60 3.5t-43 16t-19 35.5
q0 29 43 47q19 8 27 16q18 21 46 218q29 199 29 274q0 12 -4 18q-4 7 -20 15q-12 6 -16.5 9.5t-10 11.5t-5.5 20q0 33 37 44.5t123 11.5q7 0 24 0.5t26 0.5q108 0 108 -48q0 -30 -40 -48q-21 -9 -26 -17q-10 -14 -22 -100z" />
    <glyph glyph-name="afii10041" unicode="&#x427;" horiz-adv-x="770" 
d="M505 393l10 67q16 109 16 149q0 12 -6 19q-5 5 -17 11q-29 14 -29 40q0 28 36.5 41.5t129.5 13.5h35q27 0 44.5 -1.5t36.5 -5.5t28.5 -14t9.5 -25q0 -21 -10.5 -30.5t-33.5 -19.5q-23 -11 -27 -16q-21 -27 -47 -233q-27 -215 -27 -267v-5q0 -9 6 -15q2 -2 17 -10
q1 0 6 -2.5t6.5 -3.5l6 -4t6 -5t4 -6t3.5 -8.5t1 -9.5q0 -20 -12.5 -32.5t-38 -17.5t-47 -6.5t-56.5 -1.5h-15h-38q-35 0 -56 2.5t-38.5 13.5t-17.5 32q0 14 6.5 23.5t13.5 13.5t21 10q20 9 25 18q10 18 21 92l13 95q-109 -28 -201 -28q-195 0 -195 165q0 8 9 96q7 59 7 72
q0 20 -7 27q-4 4 -17 11l-7 3.5t-6.5 3.5t-5.5 3.5t-5.5 4.5t-3.5 5.5t-2.5 7.5t-0.5 9q0 33 34.5 46t133.5 13q89 0 119.5 -8t30.5 -40q0 -34 -40 -47q-15 -6 -21 -11q-11 -9 -23 -75.5t-12 -90.5q0 -89 99 -89q55 0 128 20z" />
    <glyph glyph-name="afii10042" unicode="&#x428;" horiz-adv-x="1042" 
d="M292 522l-50 -356q-3 -18 -3 -36q0 -11 3 -15q8 -12 57 -12h17q64 0 78 12q8 8 14 51l50 356q8 53 8 83q0 19 -9 29l-6 6t-7.5 6t-6.5 5q-13 10 -13 28q0 16 10.5 27.5t45.5 19.5t95 8h26q31 0 50.5 -2t37.5 -13t18 -31q0 -9 -2 -15.5t-7 -12t-8.5 -8t-11.5 -7.5t-10 -6
q-12 -7 -18 -16q-12 -17 -23 -101l-50 -356q-3 -30 -3 -36q0 -12 3 -15q9 -12 64 -12h10h12q52 0 66 12q8 8 14 51l50 356q8 53 8 83q0 16 -6 23q-6 6 -16 11q-28 15 -28 41q0 28 34.5 41t119.5 13q10 0 30.5 0.5t31.5 0.5q102 0 102 -46q0 -19 -11 -30t-33 -22
q-20 -9 -26 -15q-20 -21 -54 -290q-20 -159 -20 -202q0 -17 7 -23q5 -5 17 -11q1 -1 6.5 -3.5t7 -3.5t5.5 -3.5t5.5 -5t3.5 -5.5t2.5 -7.5t0.5 -9.5q0 -30 -29.5 -46t-121.5 -16q-59 0 -179 2.5t-180 2.5t-179.5 -2.5t-178.5 -2.5q-30 0 -50 1.5t-43 6.5t-34.5 16.5
t-11.5 30.5q0 12 7.5 22t15 13.5t20.5 9.5q23 12 27 16q20 22 47.5 227t27.5 265q0 12 -4 18q-4 7 -20 15q-12 6 -16.5 9.5t-10 11.5t-5.5 20q0 33 38 44.5t130 11.5h36q37 0 58 -2t38.5 -13t17.5 -31q0 -32 -40 -49q-21 -9 -26 -17q-12 -17 -22 -100z" />
    <glyph glyph-name="afii10043" unicode="&#x429;" horiz-adv-x="1090" 
d="M408 166l50 356q8 53 8 83q0 19 -9 29l-6 6t-7.5 6t-6.5 5q-13 10 -13 28q0 26 31.5 40.5t116.5 14.5h28q32 0 51.5 -2t37.5 -13t18 -31q0 -9 -2 -15.5t-7 -12t-8.5 -8t-11.5 -7.5t-10 -6q-12 -7 -18 -16q-12 -17 -23 -101l-50 -356q-3 -30 -3 -36q0 -12 3 -15
q9 -12 64 -12h10h12q52 0 66 12q8 8 14 51l50 356q8 53 8 83q0 16 -6 23q-6 6 -16 11q-28 15 -28 41q0 16 10.5 27t46 19t97.5 8h46q29 0 47 -1.5t36 -6t26.5 -14t8.5 -25.5q0 -15 -7.5 -25.5t-14.5 -14.5t-22 -10q-20 -9 -26 -15q-12 -12 -29.5 -118.5t-24.5 -171.5
l-12 -107q-8 -72 -8 -89v-3q0 -17 14 -17q4 0 14 2q18 3 19 3q54 0 54 -112q0 -46 -6.5 -79.5t-17.5 -49.5t-22 -22.5t-23 -6.5q-18 0 -28 19q-6 11 -13.5 38t-8.5 31q-12 33 -34 48.5t-71 15.5h-4l-688 -11h-6q-61 0 -96 15t-35 40q0 32 43 49q23 12 27 16q10 12 25.5 96.5
t20.5 123.5l13 101q16 117 16 171q0 12 -4 18q-4 7 -20 15q-12 6 -16.5 9.5t-10 11.5t-5.5 20q0 33 38 44.5t130 11.5h36q37 0 58 -2t38.5 -13t17.5 -31q0 -32 -40 -49q-21 -9 -26 -17q-12 -17 -22 -100l-50 -356q-3 -18 -3 -36q0 -11 3 -15q8 -12 57 -12h17q64 0 78 12
q8 8 14 51z" />
    <glyph glyph-name="afii10044" unicode="&#x42a;" horiz-adv-x="847" 
d="M458 531l-15 -103q58 11 110 11q118 0 184 -43q81 -53 81 -157q0 -119 -83.5 -182t-215.5 -63q-51 0 -116 3.5t-102 3.5q-13 0 -40.5 -1t-41.5 -1q-82 0 -82 48q0 12 7.5 21t15 13t22.5 11q21 10 25 15q13 17 51 253q28 193 28 236q0 9 -1 13.5t-4.5 11.5t-14 10t-26.5 3
q-59 0 -92 -50l-24 -36q-2 -2 -11 -17t-13.5 -19.5t-15.5 -10.5t-24 -6q-32 0 -32 38q0 42 31 125q9 25 15 39t18 29t25 15q21 0 33 -6t49 -6q5 0 29 1t79.5 2t136.5 1q101 0 101 -46q0 -36 -40 -48q-16 -6 -21 -11q-12 -10 -26 -97zM426 306l-11 -76q-10 -67 -10 -95
q0 -21 12 -33q16 -15 64 -15q81 0 120 39t39 99q0 7 -1 16t-8 29.5t-19 35.5t-39 27.5t-64 12.5q-46 0 -63 -10.5t-20 -29.5z" />
    <glyph glyph-name="afii10045" unicode="&#x42b;" horiz-adv-x="1003" 
d="M294 531l-15 -102q66 9 106 9q106 0 170 -42q81 -53 81 -158q0 -107 -76 -175.5t-216 -68.5q-78 0 -129.5 3.5t-95.5 3.5q-10 0 -31.5 -1t-32.5 -1q-82 0 -82 48q0 12 7.5 21t15 13.5t22.5 10.5q20 10 25 15q13 15 31.5 127t24.5 163q19 145 19 203v6q0 14 -7 21
q-4 4 -17 11q-1 1 -4 2l-13.5 7.5t-9 10t-4.5 18.5q0 32 35 45t133 13h41q24 0 40.5 -1.5t33.5 -6t26 -14.5t9 -25q0 -19 -9.5 -29t-30.5 -19q-16 -7 -21 -11q-14 -13 -26 -97zM263 311l-12 -82q-11 -73 -11 -98q0 -21 13 -31q17 -13 51 -13q57 0 100.5 35t43.5 107
q0 53 -32 84.5t-87 31.5q-38 0 -50.5 -7t-15.5 -27zM748 633l-7 4q-29 16 -29 37t13.5 34.5t39.5 18.5t46.5 6.5t52.5 1.5h17h16q31 0 49.5 -1t40.5 -5.5t32.5 -15t10.5 -27.5q0 -25 -23 -41q-11 -8 -18 -10q-19 -7 -27 -20q-8 -16 -27 -137q-41 -266 -41 -359q0 -5 1 -9.5
t1.5 -6.5t3 -4.5l3 -3t4 -2.5t4.5 -2l8 -5q23 -15 23 -37q0 -19 -11.5 -30t-52 -17.5t-117.5 -6.5h-27q-31 0 -51.5 2t-39 13t-18.5 31q0 27 20 39q13 7 32 14q11 5 17 13q7 10 21 72q52 228 52 410q0 33 -19 44z" />
    <glyph glyph-name="afii10046" unicode="&#x42c;" horiz-adv-x="682" 
d="M294 531l-15 -103q64 11 119 11q109 0 175 -43q81 -53 81 -157q0 -119 -83.5 -182t-215.5 -63q-51 0 -116 3.5t-102 3.5q-13 0 -40.5 -1t-41.5 -1q-82 0 -82 48q0 12 7.5 21t15 13t22.5 11q21 10 25 15q21 28 58 312q16 125 16 183q0 18 -7 25q-5 5 -17 11
q-11 5 -15.5 7.5t-10 11t-5.5 20.5q0 20 12 32t35.5 17t43 6.5t49.5 1.5h18h30q36 0 55.5 -1t39.5 -5.5t28 -14.5t8 -26q0 -36 -40 -48q-16 -6 -21 -11q-12 -10 -26 -97zM261 306l-11 -76q-10 -67 -10 -95q0 -21 12 -33q16 -15 64 -15q81 0 120 39t39 99q0 7 -1 16t-8 29.5
t-19 35.5t-39 27.5t-64 12.5q-46 0 -63 -10.5t-20 -29.5z" />
    <glyph glyph-name="afii10047" unicode="&#x42d;" horiz-adv-x="736" 
d="M520 413q2 22 2 33q0 96 -56 152q-48 48 -112 48q-90 0 -169 -82q-2 -2 -16 -17.5t-19.5 -20t-17 -11t-22.5 -6.5q-37 0 -37 44q0 51 44 124q37 61 76 61q13 0 24 -3q7 -2 15 -6t14 -6t12 -2q1 0 35 8q50 12 91 12q110 0 190 -55q62 -42 99 -117t37 -166q0 -141 -89 -255
q-67 -85 -168 -126.5t-201 -41.5q-107 0 -182 46q-50 50 -50 126q0 43 16 67t36 24q24 0 51 -52q28 -57 35 -65q41 -51 108 -51q45 0 91.5 25.5t83.5 73.5q51 65 67 150q-55 -32 -114 -32q-28 0 -54 16q-1 1 -38 26q-15 11 -33 11q-16 0 -45 -14q-46 -19 -61 -19t-22.5 9.5
t-7.5 20.5q0 36 81 82q57 33 98 33q23 0 59 -20q14 -8 24.5 -16t19.5 -13q20 -12 41 -12q32 0 64 17z" />
    <glyph glyph-name="afii10048" unicode="&#x42e;" horiz-adv-x="1122" 
d="M310 415h38q13 0 21 2.5t13 8.5t7 10.5t5 14.5q36 112 106 182q107 107 271 107q152 0 239.5 -89.5t87.5 -238.5q0 -134 -75 -250q-12 -18 -25.5 -35t-45 -45.5t-67 -48.5t-90.5 -35.5t-116 -15.5q-59 0 -106.5 14t-78.5 35t-54 53t-35 58.5t-20 61t-10 52.5t-3 41
q0 21 -22 21h-48q-26 0 -38 -7q-4 -2 -6 -5t-3 -8t-2 -9.5t-2 -14t-2 -16.5q-11 -79 -11 -116q0 -29 3 -35t21 -15q1 -1 6.5 -3.5t8 -4t7 -5t6 -7t3.5 -9t2 -12.5q0 -19 -10.5 -30.5t-35.5 -17t-50.5 -7t-69.5 -1.5h-26q-59 0 -94.5 9t-35.5 39t44 49q18 7 25 15
q18 20 56 291q19 136 19 204q0 18 -7 25q-4 4 -17 11q-1 1 -5.5 3t-6 3t-5 3t-5 4t-4 4.5t-3.5 5t-2 6.5t-1 8q0 21 14 33.5t42.5 17.5t49 6.5t54.5 1.5h7h42q27 0 44.5 -1.5t35 -6t26 -14.5t8.5 -25q0 -14 -8 -24.5t-14.5 -14t-21.5 -10.5q-22 -11 -27 -16
q-16 -23 -31 -127l-6 -42q-3 -21 -3 -23q0 -9 8 -12q9 -3 29 -3zM705 79q76 0 136.5 86.5t60.5 245.5q0 118 -43.5 175t-104.5 57q-75 0 -134 -87.5t-59 -256.5q0 -65 14.5 -111.5t38.5 -68.5t46 -31t45 -9z" />
    <glyph glyph-name="afii10049" unicode="&#x42f;" horiz-adv-x="765" 
d="M304 203l-24 -54q-2 -5 -10.5 -23t-11.5 -25t-11 -21.5t-13.5 -22.5t-14.5 -18.5t-18 -17.5q-45 -35 -124 -35q-111 0 -111 60q0 30 49 41q45 10 67 46q9 15 25 47q14 29 33 61q28 46 66 72q17 12 35 19t21 9q2 1 5 2t4.5 2.5t1.5 3.5q0 5 -10 7q-58 11 -90 56t-32 101
q0 28 5.5 54t23 57.5t46 54.5t80 39t119.5 16q10 0 50 -2t113 -2q32 0 72 2.5t66 2.5q78 0 78 -41q0 -32 -44 -51q-21 -9 -27 -16q-19 -21 -47 -230q-29 -206 -29 -270q0 -14 3 -20q3 -7 22 -16q32 -17 32 -41q0 -23 -18.5 -36.5t-41 -16.5t-56.5 -3q-9 0 -26 0.5t-25 0.5
t-26.5 -0.5t-27.5 -0.5q-48 0 -75.5 10.5t-27.5 42.5q0 26 44 45q20 10 25 15q12 13 25 96l8 59q3 19 3 30q0 23 -26 23q-104 0 -155 -112zM505 436l9 66q11 81 11 104q0 12 -5 19q-11 16 -55 16q-75 0 -109.5 -36t-34.5 -88q0 -34 13.5 -56.5t35.5 -31.5t37.5 -11.5
t31.5 -2.5q39 0 51.5 5t14.5 16z" />
    <glyph glyph-name="afii10065" unicode="&#x430;" horiz-adv-x="613" 
d="M378 361q0 78 -53 78q-43 0 -81 -51q-31 -42 -51.5 -101.5t-20.5 -110.5q0 -39 14.5 -58.5t38.5 -19.5q42 0 81 52q31 40 51.5 100.5t20.5 110.5zM318 59l-26 -18q-80 -55 -142 -55q-60 0 -102 45t-42 131q0 71 27 140q38 96 108 157q73 65 159 65q28 0 82 -21
q32 -12 37 -12q12 0 36 13q35 19 57 19q32 0 32 -44q0 -24 -10 -77q-9 -51 -21 -144t-12 -113q0 -15 5 -21t19 -6q3 0 7 0.5t7 0.5q22 0 22 -19q0 -32 -45 -63q-68 -48 -119 -48q-28 0 -40 29q-4 9 -6.5 23t-4.5 22.5t-6 8.5q-2 0 -22 -13z" />
    <glyph glyph-name="afii10066" unicode="&#x431;" horiz-adv-x="593" 
d="M555 297q0 -122 -79 -211q-90 -100 -228 -100q-108 0 -174 70q-68 73 -68 199q0 144 65 271q61 120 159 171q29 15 64.5 24.5t56 11.5t59.5 5t57.5 5t40 8t38.5 17q3 2 11.5 7.5t13 8.5t11.5 5.5t14 2.5q27 0 27 -32q0 -31 -27.5 -70t-55.5 -59q-45 -30 -121 -41
q-32 -4 -64.5 -5.5t-51.5 -4.5q-61 -11 -97 -52t-36 -88q0 -13 6 -13q2 0 17 17q18 23 54 41q48 24 101 24q87 0 147 -54t60 -158zM381 280q0 74 -25.5 103t-58.5 29q-52 0 -87.5 -60t-35.5 -150q0 -68 26 -99t60 -31q46 0 83.5 51.5t37.5 156.5z" />
    <glyph glyph-name="afii10067" unicode="&#x432;" horiz-adv-x="568" 
d="M410 277v-2q42 -8 67 -36.5t25 -71.5q0 -98 -92 -146q-66 -35 -185 -35q-27 0 -51 3t-56.5 15t-55.5 32t-39.5 58t-16.5 90q0 70 30 138t81 115q96 87 228 87q82 0 127.5 -33t45.5 -92q0 -44 -29 -78t-79 -44zM303 437q-58 0 -96 -77q-34 -69 -34 -159q0 -48 17 -85
q22 -44 71 -44q30 0 49 22.5t19 54.5q0 39 -31 60q-9 6 -51 17q-30 9 -30 34q0 13 7.5 22.5t14.5 12.5t20 7q37 12 54 27q30 25 30 62q0 21 -10.5 33.5t-29.5 12.5z" />
    <glyph glyph-name="afii10068" unicode="&#x433;" horiz-adv-x="488" 
d="M427 412q0 -67 -67 -114q-27 -19 -65 -40q-41 -23 -54 -32q-45 -33 -45 -76q0 -65 63 -65q37 0 80 27q16 10 33 24q23 17 30 17q11 0 23.5 -12.5t12.5 -27.5q0 -21 -32 -48q-97 -79 -213 -79q-74 0 -122.5 34.5t-48.5 98.5q0 71 74 122q18 13 58.5 33.5t45.5 23.5
q60 34 60 77q0 20 -14.5 36t-41.5 16q-34 0 -82 -28q-14 -8 -34 -23q-17 -13 -30 -13q-16 0 -24 9.5t-8 20.5q0 26 31 52q94 79 216 79q69 0 111.5 -29.5t42.5 -82.5z" />
    <glyph glyph-name="afii10069" unicode="&#x434;" horiz-adv-x="607" 
d="M16 211q0 131 87 220q82 84 182 84q46 0 80 -17q13 -7 22.5 -15.5t14 -13.5t8.5 -5q8 0 8 13q0 59 -33 110q-41 61 -103 79q-16 4 -48 8q-25 2 -37 6q-26 8 -26 29q0 17 20 32.5t68 15.5q95 0 167 -52q134 -95 134 -315q0 -176 -81 -284q-88 -120 -236 -120
q-107 0 -167 63.5t-60 161.5zM303 432q-44 0 -79 -59.5t-35 -167.5q0 -40 8 -69t20 -42.5t23 -19t21 -5.5q42 0 77 62t35 168q0 74 -21.5 103.5t-48.5 29.5z" />
    <glyph glyph-name="afii10070" unicode="&#x435;" horiz-adv-x="539" 
d="M301 445q-36 0 -68 -44q-16 -22 -29 -57.5t-13 -58.5q0 -19 28 -19q46 0 84.5 40t38.5 96q0 43 -41 43zM202 190h-14q2 -40 17 -66q23 -40 77 -40q32 0 80 28q10 6 23.5 17t23 17.5t15.5 6.5q12 0 24.5 -12.5t12.5 -26.5q0 -23 -32 -49q-106 -79 -219 -79
q-94 0 -148.5 53t-54.5 145q0 70 30 138t81 115q45 40 105.5 63.5t122.5 23.5q80 0 118.5 -36.5t38.5 -90.5q0 -80 -79.5 -143.5t-221.5 -63.5z" />
    <glyph glyph-name="afii10072" unicode="&#x436;" horiz-adv-x="888" 
d="M508 203l-9 -95q-1 -5 -2 -15.5t-1.5 -15t-1.5 -13t-1.5 -13t-2 -11.5t-2.5 -10.5t-3 -8.5t-4 -8t-5 -6q-17 -17 -70 -17q-29 0 -41.5 1.5t-23.5 11.5t-11 31q0 8 10 69l10 62q6 30 6 52q0 11 -12 11q-28 0 -50 -27q-16 -20 -50 -102q-33 -72 -66 -94q-28 -18 -67 -18
q-52 0 -85 26.5t-33 51.5q0 31 37 35q30 5 41 12q17 10 43.5 53.5t40.5 59.5q32 38 77 52v3q-11 10 -20 29q-10 22 -15 57q-3 18 -10 33q-6 -5 -20 -19q-20 -18 -42 -18q-25 0 -41 18t-16 45q0 37 25 65.5t81 28.5q66 0 85 -72q5 -20 10 -51t13 -50q18 -43 54 -43h13h4
q7 0 13 6q6 7 8 25l6 60q1 9 2.5 27t2.5 26t3 19t5.5 17.5t8.5 11.5q19 17 69 17q30 0 42.5 -1.5t22.5 -12.5t10 -33q0 -2 -11 -68q-11 -59 -11 -78q0 -16 17 -16h13q36 0 66 43q12 17 24.5 49t23.5 52q38 72 107 72q40 0 61.5 -24t21.5 -58q0 -33 -21.5 -54t-50.5 -21
q-26 0 -41 18q-13 16 -18 19q-8 -12 -18 -36q-13 -32 -29 -54q-16 -21 -29 -29v-3q37 -16 58 -52q13 -22 28 -62t30 -51q14 -10 36 -12q29 -4 29 -26q0 -28 -43 -57.5t-86 -29.5q-34 0 -57 20q-25 21 -43 92q-3 10 -7 25.5t-5.5 22.5t-4.5 17.5t-4.5 15.5t-4.5 11.5
t-5.5 10.5t-5.5 8q-14 18 -37 18q-19 0 -21 -25z" />
    <glyph glyph-name="afii10073" unicode="&#x437;" horiz-adv-x="533" 
d="M198 297h25q33 0 54.5 21t21.5 55q0 29 -16 47t-48 18q-36 0 -59 -21q-10 -9 -27 -37q-1 -2 -5 -9t-6 -9.5t-6 -8.5t-7.5 -9t-8.5 -6.5t-10.5 -5t-11.5 -1.5q-35 0 -35 43q0 49 27.5 97.5t60.5 48.5q9 0 25 -7q21 -6 27 -6q8 0 44 7q38 8 75 8q83 0 120.5 -37t37.5 -89
q0 -47 -30.5 -78.5t-77.5 -40.5v-2q43 -8 68 -37t25 -73q0 -64 -38.5 -105.5t-94 -57.5t-125.5 -16q-74 0 -134.5 26t-60.5 74q0 36 16.5 64.5t42.5 28.5q15 0 26 -15q3 -5 9.5 -18.5t12.5 -23.5q31 -52 84 -52q38 0 62.5 25.5t24.5 64.5q0 67 -75 67h-25q-35 0 -35 30
q0 11 1.5 18t13 14.5t32.5 7.5z" />
    <glyph glyph-name="afii10074" unicode="&#x438;" horiz-adv-x="606" 
d="M544 422l-16 -104q-3 -19 -11 -87t-8 -86q0 -15 5 -21t19 -6q3 0 8 0.5t7 0.5q21 0 21 -18q0 -34 -44 -64q-69 -48 -120 -48q-24 0 -35.5 17.5t-16.5 69.5q-43 -41 -98 -64.5t-106 -23.5q-40 0 -67 15.5t-37.5 41t-13.5 42.5t-3 36q0 50 17 137q15 79 15 108q0 14 -4 20
t-18 11l-8 3q-15 5 -20.5 11t-5.5 18q0 17 14 27.5t43 22.5q97 40 133 40q10 0 16.5 -1.5t14 -7t11 -17.5t3.5 -30q0 -24 -20 -122q-25 -114 -25 -171q0 -65 45 -65q69 0 97 96q20 71 28 163l3 38q5 61 17 73q12 13 48 26.5t80 13.5q26 0 33.5 -9t7.5 -26q0 -14 -5 -37z" />
    <glyph glyph-name="afii10075" unicode="&#x439;" horiz-adv-x="606" 
d="M544 422l-16 -104q-3 -19 -11 -87t-8 -86q0 -15 5 -21t19 -6q3 0 8 0.5t7 0.5q21 0 21 -19q0 -31 -44 -63q-69 -48 -120 -48q-24 0 -35.5 17.5t-16.5 69.5q-43 -41 -98 -64.5t-106 -23.5q-40 0 -67 15.5t-37.5 41t-13.5 42.5t-3 36q0 50 17 137q15 79 15 108q0 14 -4 20
t-18 11l-8 3q-15 5 -20.5 11t-5.5 18q0 17 14 27.5t43 22.5q97 40 133 40q10 0 16.5 -1.5t14 -7t11 -17.5t3.5 -30q0 -24 -20 -122q-25 -114 -25 -171q0 -65 45 -65q69 0 97 96q20 71 28 163l3 38q5 61 17 73q12 13 48 26.5t80 13.5q18 0 27.5 -6t11.5 -13t2 -20
q0 -2 -9 -56zM314 571q-45 0 -77 11.5t-46.5 30t-20.5 34.5t-6 32q0 15 4.5 30t22.5 30.5t47 15.5q49 0 54 -50q4 -33 17 -43q13 -8 33 -8q31 0 55 12t34 24t23 32q21 33 45 33q22 0 22 -28q0 -59 -61 -107.5t-146 -48.5z" />
    <glyph glyph-name="afii10076" unicode="&#x43a;" horiz-adv-x="615" 
d="M249 303h23q37 0 66 43q13 18 26.5 51t22.5 50q37 72 110 72q40 0 63 -23.5t23 -59.5q0 -34 -20.5 -55.5t-49.5 -21.5q-28 0 -47 21q-15 15 -19 17q-10 -12 -20 -34q-16 -36 -28 -53t-30 -30v-4q35 -12 59 -46q6 -9 29.5 -62t43.5 -63q6 -3 25 -6q32 -2 32 -24
q0 -30 -43.5 -59.5t-90.5 -29.5q-55 0 -82 48q-8 15 -29 84q-21 76 -37 96q-12 15 -31 15h-4h-5q-6 0 -9 -1t-6.5 -5.5t-4.5 -13.5l-9 -97q-5 -61 -13 -75q-11 -21 -46 -33q-52 -18 -89 -18q-39 0 -39 35q0 12 17 106q33 175 33 219q0 28 -8 38q-7 6 -26 13q-2 1 -6.5 2
t-6.5 2t-6 2t-5.5 2t-4.5 2.5t-4.5 2.5t-3 3t-2.5 4.5t-1.5 5t-0.5 5.5q0 14 13 27t25 18.5t32 13.5q94 37 150 37q38 0 38 -39q0 -8 -1.5 -16t-3.5 -18.5t-3 -18.5l-12 -82q-3 -21 -3 -33q0 -14 16 -14h3z" />
    <glyph glyph-name="afii10077" unicode="&#x43b;" horiz-adv-x="675" 
d="M576 334l-21 -146q-3 -30 -3 -43q0 -15 5 -21t19 -6q2 0 7 0.5t8 0.5q21 0 21 -18q0 -35 -47 -67q-72 -48 -143 -48q-36 0 -48 11t-12 32q0 15 13 87l20 119l16 116q6 33 6 63q0 14 -7 18.5t-28 4.5q-32 0 -48 -16q-20 -19 -34 -85q-22 -107 -33 -148q-25 -95 -70 -146
q-50 -56 -121 -56q-41 0 -61.5 23t-20.5 54q0 34 20.5 56t49.5 22q24 0 42 -21q14 -16 25 -19q41 34 64 122q21 78 21 132q0 29 -13 42q-6 6 -16 11q-19 11 -21 13q-9 9 -9 24q0 20 12.5 30t36.5 17q81 25 221 25q71 0 137 -6q20 -2 31 -3.5t25.5 -12t14.5 -28.5
q0 -7 -2.5 -13t-5 -9.5t-8 -9.5t-7.5 -8q-28 -33 -36 -93z" />
    <glyph glyph-name="afii10078" unicode="&#x43c;" horiz-adv-x="815" 
d="M170 399l-8 3q-15 5 -20.5 11t-5.5 18q0 17 14 27.5t43 22.5q96 40 133 40q6 0 11 -1t9 -2t7 -4.5t5.5 -5.5t4.5 -8t3.5 -10t3 -13t2.5 -14.5t3 -17t3 -19.5q24 -132 37 -184q1 -4 2.5 -12t2.5 -13t3 -11t4 -9t5 -3q4 0 43 75q18 35 34.5 67.5t25 49.5t17.5 32
q30 49 44 59q54 40 128 40q41 0 41 -31q0 -7 -9 -64l-36 -234q-3 -24 -3 -42q0 -15 4.5 -21.5t19.5 -6.5q3 0 8 0.5t7 0.5q21 0 21 -20q0 -34 -47 -65q-72 -48 -143 -48q-33 0 -43.5 12t-10.5 31q0 20 13 87q5 25 14 84.5t17 108.5l-57 -109q-52 -99 -85 -156
q-32 -58 -64 -58q-7 0 -13.5 2.5t-11.5 7.5t-9 10t-8 14.5t-6 15t-5 17.5t-4 16.5t-3.5 17t-3.5 14.5q-3 17 -17.5 84t-18.5 87l-8 39q-5 -24 -10 -46t-7.5 -33.5t-4.5 -21t-3 -14.5t-2 -8q-24 -100 -57 -146q-42 -56 -116 -56q-41 0 -61.5 23t-20.5 54q0 34 20.5 56
t49.5 22q24 0 42 -21q14 -16 25 -19q34 28 55 126q19 88 19 139q0 10 -1 14.5t-5.5 9.5t-15.5 9z" />
    <glyph glyph-name="afii10079" unicode="&#x43d;" horiz-adv-x="635" 
d="M278 308h58q30 0 36.5 2t7.5 14l7 81q6 59 18 73q13 15 50.5 27.5t76.5 12.5q18 0 27.5 -6t11.5 -12t2 -16q0 -12 -9 -61q-8 -43 -23.5 -147.5t-15.5 -129.5q0 -15 5 -21t20 -6q2 0 6.5 0.5t6.5 0.5q35 0 35 -25q0 -31 -49 -61q-30 -18 -74.5 -33t-79.5 -15q-52 0 -52 45
q0 3 14 94l8 51q4 25 4 39q0 11 -7.5 14.5t-37.5 3.5h-52q-38 0 -46 -9q-7 -7 -9 -27l-11 -85q-8 -64 -13 -75q-9 -21 -44 -33q-54 -18 -89 -18q-39 0 -39 35q0 12 17 106q32 170 32 213q0 28 -8 38q-7 6 -26 13q-2 1 -6.5 2t-6.5 2t-6 2t-5.5 2t-4.5 2.5t-4.5 2.5t-3 3
t-2.5 4.5t-1.5 5t-0.5 5.5q0 14 13 27t25 18.5t32 13.5q94 37 150 37q38 0 38 -39q0 -8 -1.5 -16t-3.5 -19t-3 -18q-12 -81 -12 -98q0 -12 9 -16t36 -4z" />
    <glyph glyph-name="afii10080" unicode="&#x43e;" horiz-adv-x="579" 
d="M6 210q0 122 90 214q98 100 224 100q91 0 157.5 -55.5t66.5 -165.5q0 -122 -87 -217q-92 -100 -223 -100q-101 0 -164.5 63t-63.5 161zM297 444q-42 0 -77 -60t-35 -172q0 -38 6 -66.5t13.5 -43.5t18.5 -23.5t17.5 -10.5t13.5 -2q40 0 76 63.5t36 179.5q0 42 -7.5 71.5
t-19.5 42t-21.5 17t-20.5 4.5z" />
    <glyph glyph-name="afii10081" unicode="&#x43f;" horiz-adv-x="611" 
d="M209 496l4 -24q6 -31 12 -31q2 0 10.5 6t23 16t27.5 17q73 38 134 38q122 0 122 -144q0 -45 -17 -145q-11 -63 -11 -84q0 -27 24 -27q2 0 7 0.5t8 0.5q21 0 21 -19q0 -35 -48 -66q-73 -48 -144 -48q-27 0 -39 9t-12 36q0 18 14 88l3 16q29 151 29 199q0 64 -46 64
q-34 0 -58 -22.5t-35.5 -61.5t-17 -73t-9.5 -76q-1 -10 -1 -14l-3 -31q-8 -78 -19 -90q-12 -14 -51.5 -27t-76.5 -13q-18 0 -27.5 6t-11.5 12t-2 16t16 98l13 69q24 120 24 174q0 21 -7 27q-3 3 -10.5 4.5t-19.5 3.5t-22 5q-18 6 -18 22q0 20 30 38q25 15 65 29q68 25 95 25
q9 0 15.5 -7t8.5 -16z" />
    <glyph glyph-name="afii10082" unicode="&#x440;" horiz-adv-x="609" 
d="M27 14l38 274q7 53 7 78v6q0 14 -7 20q-4 4 -21 5.5t-32 7.5q-17 7 -17 22q0 21 30 38q23 13 75 30q75 25 95 25q19 0 24 -26q4 -18 6 -33q3 -23 10 -25h2q2 0 9 6t21 17t28 21q68 45 128 45q71 0 109 -51t38 -138q0 -115 -61 -214q-39 -64 -93.5 -101t-109.5 -37
q-49 0 -100 30q-14 7 -15 7q-7 0 -10 -18l-7 -46q-3 -27 -3 -30q0 -20 9 -29q5 -5 16.5 -9t20.5 -9q17 -10 17 -28q0 -46 -148 -46q-73 0 -106 8.5t-33 37.5q0 25 31 39q2 1 5.5 2.5t5.5 2.5q1 0 3 2q1 0 2.5 2t2.5 2q16 9 30 112zM401 323q0 47 -17 66t-39 19
q-44 0 -81 -55q-58 -89 -58 -197q0 -49 17 -68t39 -19q44 0 81 56q26 38 42 92.5t16 105.5z" />
    <glyph glyph-name="afii10083" unicode="&#x441;" horiz-adv-x="518" 
d="M6 187q0 66 26 128.5t71 108.5q49 50 112.5 75t121.5 25q68 0 110.5 -33.5t42.5 -90.5q0 -41 -22 -66.5t-64 -25.5q-33 0 -49 18t-16 45q0 6 1.5 18t1.5 18q0 38 -33 38q-44 0 -83.5 -60.5t-39.5 -174.5q0 -126 95 -126q35 0 80 28q17 10 20 13t13 11q22 17 30 17
q11 0 23.5 -12.5t12.5 -27.5q0 -23 -32 -48q-103 -79 -219 -79q-95 0 -149 53.5t-54 147.5z" />
    <glyph glyph-name="afii10084" unicode="&#x442;" horiz-adv-x="875" 
d="M208 496l4 -24q6 -30 10 -30q2 0 5 3t13.5 11t25.5 18q69 46 131 46q66 0 95 -52l8 -14q7 -14 11 -14q1 0 23 15l24 17q68 48 132 48q117 0 117 -143q0 -58 -16 -151q-10 -58 -10 -80q0 -9 1 -14.5t6.5 -9.5t15.5 -4q2 0 6.5 0.5t6.5 0.5q20 0 20 -19q0 -32 -44 -65
q-67 -50 -136 -50q-32 0 -46.5 9.5t-14.5 35.5q0 10 10 67l8 40q27 138 27 197q0 64 -42 64q-20 0 -36.5 -10.5t-27 -32.5t-17.5 -42.5t-12 -53.5t-7 -52t-4 -51l-2 -27q-1 -7 -1.5 -22t-1.5 -24t-2.5 -20.5t-4.5 -19.5t-7 -13q-12 -15 -47.5 -27.5t-76.5 -12.5
q-45 0 -45 35q0 7 10 64l8 47q28 160 28 199q0 63 -44 63q-29 0 -49.5 -23t-31 -65.5t-15 -75.5t-7.5 -78l-2 -30q-6 -82 -17 -96q-13 -15 -48.5 -27.5t-79.5 -12.5q-41 0 -41 32q0 11 16 100l13 69q24 130 24 173q0 21 -7 28q-4 4 -21.5 5.5t-31.5 7.5q-17 7 -17 22
q0 21 30 38q27 15 65 29q68 25 95 25q9 0 15.5 -7t8.5 -16z" />
    <glyph glyph-name="afii10085" unicode="&#x443;" horiz-adv-x="564" 
d="M344 75q27 48 46 112.5t19 115.5q0 43 -33 112q-19 40 -19 53q0 23 20.5 37t47.5 14q83 0 83 -146q0 -168 -95 -336q-37 -65 -80 -113t-78.5 -72t-74 -38.5t-60 -17.5t-42.5 -3q-68 0 -106 34t-38 85q0 41 22.5 63.5t50.5 22.5q27 0 46.5 -18.5t19.5 -50.5q0 -5 -1.5 -16
t-1.5 -16q0 -27 29 -27q44 0 77.5 36.5t33.5 81.5q0 76 -87 282q-27 62 -44 85.5t-41 23.5q-4 0 -10 -1t-10 -1q-29 0 -29 23q0 36 58 77q57 41 107 41q49 0 102 -137q44 -116 88 -306z" />
    <glyph glyph-name="afii10086" unicode="&#x444;" horiz-adv-x="893" 
d="M576 688l-31 -214q-2 -12 -2 -18t5 -6q4 0 14 10q53 58 125 58t121.5 -54t49.5 -157q0 -72 -24.5 -133.5t-63 -100.5t-84 -61t-90.5 -22q-42 0 -79 20q-8 5 -15 9.5t-10 6t-4 1.5q-8 0 -11 -31l-5 -41q-2 -16 -2 -34q0 -15 9 -22q2 -2 9 -5l8 -4q2 -1 6.5 -3t6 -3t5.5 -3
t5 -3l3.5 -3.5t3.5 -5t2 -5.5t1 -7q0 -52 -158 -52h-18q-31 0 -48 1t-37.5 4.5t-29.5 13t-9 24.5q0 7 2 12.5t3.5 9t6.5 7t7.5 5t9.5 5l9 4.5l17 9q14 7 21 56l10 62q0 2 0.5 5t0.5 4t0.5 3.5t0.5 3.5q0 7 -5 7q-2 0 -15 -11q-47 -40 -115 -40q-81 0 -128.5 58.5
t-47.5 156.5q0 92 41 165.5t100 110.5t120 37q50 0 84 -34q20 -20 22 -20q8 0 10 24l5 49q3 30 3 42q0 25 -11 33q-5 4 -18 7q-32 8 -32 30q0 27 46 47q105 45 172 45q16 0 23.5 -4.5t7.5 -20.5q0 -7 -3 -28zM522 303l-16 -109q-4 -25 -4 -44q0 -26 14.5 -46.5t43.5 -20.5
q47 0 82.5 55t35.5 133q0 59 -24 89.5t-56 30.5q-25 0 -47 -20.5t-29 -67.5zM337 171l15 109q4 36 4 42q0 34 -17 51.5t-38 17.5q-47 0 -84 -56t-37 -134q0 -58 24 -88t57 -30q25 0 47.5 21.5t28.5 66.5z" />
    <glyph glyph-name="afii10087" unicode="&#x445;" horiz-adv-x="552" 
d="M334 295l47 -104q23 -52 44 -52q11 0 26 9q18 10 31 10q26 0 26 -25q0 -16 -13 -35.5t-25 -30.5t-34 -30q-62 -50 -95 -50q-19 0 -35.5 14.5t-25 29.5t-19.5 40q-2 5 -3 7l-34 76l-46 -67q-52 -76 -79 -93q-13 -8 -24 -8q-18 0 -39 26q-34 42 -34 91q0 33 31 33
q8 0 24 -9q15 -9 22 -9q27 0 76 63l33 44l-34 88q-1 2 -2 5q-24 50 -44 54q-3 0 -19 -4q-25 -5 -29 -5q-10 0 -18 7t-8 18q0 25 44 62q84 68 125 68q29 0 46 -37l48 -106l62 82q1 2 7 10l9 12t9.5 11t11 11.5t10.5 9t11.5 6.5t11.5 2q19 0 38 -25q37 -45 37 -94
q0 -36 -24 -36q-10 0 -27 8q-26 13 -32 13q-4 0 -8 -1.5t-6.5 -3.5t-6.5 -6l-6 -6t-6 -7t-5 -6z" />
    <glyph glyph-name="afii10088" unicode="&#x446;" horiz-adv-x="645" 
d="M535 422l-16 -104q-3 -19 -11 -87t-8 -86q0 -15 5 -21t19 -6q7 0 22 5q16 6 27 6q47 0 47 -89q0 -73 -32 -119q-10 -14 -42 -46t-48 -58l-4 -7q-5 -7 -5.5 -8t-4.5 -6.5t-6 -6.5t-6 -3.5t-8.5 -3.5t-9.5 -1q-20 0 -33.5 18t-13.5 46q0 37 32 71q12 13 23 20t21 16
q12 12 23 32.5t11 37.5q0 11 -7 11q-2 0 -47 -24q-36 -20 -68 -20q-22 0 -34 17t-17 70q-43 -41 -98 -64.5t-106 -23.5q-40 0 -67 15.5t-37.5 41t-13.5 42.5t-3 36q0 50 17 137q15 79 15 108q0 14 -4 20t-18 11l-8 3q-15 5 -20.5 11t-5.5 18q0 17 14 27.5t43 22.5
q97 40 133 40q10 0 16.5 -1.5t14 -7t11 -17.5t3.5 -30q0 -24 -20 -122q-25 -114 -25 -171q0 -65 45 -65q69 0 97 96q20 71 28 163l3 38q5 61 17 73q12 13 48 26.5t80 13.5q26 0 33.5 -9t7.5 -26q0 -14 -4 -37z" />
    <glyph glyph-name="afii10089" unicode="&#x447;" horiz-adv-x="590" 
d="M26 399l-8 3q-15 6 -20.5 11t-5.5 16q0 13 9 23t19 15.5t29 13.5q92 40 124 40q41 0 41 -50q0 -5 -9 -74q-8 -72 -8 -90q0 -62 43 -62q27 0 52 22.5t34 53.5q7 24 10 76q2 64 17 80q36 40 128 40q20 0 31 -5.5t13 -12t2 -16.5q0 -12 -9 -61q-4 -23 -30 -199
q-8 -53 -8 -78q0 -14 5.5 -20t19.5 -6q2 0 6.5 0.5t6.5 0.5q35 0 35 -25q0 -32 -49 -61q-79 -48 -163 -48q-51 0 -51 45q0 14 16 109l9 52q-82 -69 -159 -69q-50 0 -84 31.5t-34 93.5q0 24 6 71q4 32 4 45v4q0 13 -3.5 19t-18.5 12z" />
    <glyph glyph-name="afii10090" unicode="&#x448;" horiz-adv-x="878" 
d="M625 10l-4 24q-6 30 -10 30q-2 0 -5 -3t-13.5 -11t-25.5 -18q-69 -46 -131 -46q-66 0 -95 52l-8 14q-7 14 -11 14q-1 0 -23 -15l-24 -17q-68 -48 -132 -48q-117 0 -117 143q0 58 16 151q10 53 10 80q0 9 -1 14.5t-6.5 9.5t-15.5 4q-2 0 -6.5 -0.5t-6.5 -0.5q-20 0 -20 19
q0 32 44 65q69 49 140 49q31 0 44 -9.5t13 -34.5q0 -10 -10 -67l-8 -40q-27 -138 -27 -197q0 -64 42 -64q20 0 36.5 10.5t27 32.5t17.5 42.5t12 53.5t7 52t4 51l2 27q1 7 1.5 22t1.5 24t2.5 20.5t4.5 19.5t7 13q12 15 47.5 27.5t76.5 12.5q45 0 45 -35q0 -7 -10 -64l-8 -47
q-28 -160 -28 -199q0 -63 44 -63q29 0 49.5 23t31 65.5t15 75.5t7.5 78l2 30q6 82 17 96q13 15 48.5 27.5t79.5 12.5q41 0 41 -32q0 -11 -16 -100l-13 -69q-24 -130 -24 -173q0 -21 7 -28q4 -4 21.5 -5.5t31.5 -7.5q17 -7 17 -22q0 -20 -30 -38q-26 -15 -65 -29
q-69 -25 -95 -25q-9 0 -15.5 7t-8.5 16z" />
    <glyph glyph-name="afii10091" unicode="&#x449;" horiz-adv-x="926" 
d="M338 350l2 27q1 7 1.5 22t1.5 24t2.5 20.5t4.5 19.5t7 13q12 15 47.5 27.5t76.5 12.5q45 0 45 -35q0 -7 -10 -64l-8 -47q-28 -160 -28 -199q0 -63 44 -63q29 0 49.5 23t31 65.5t15 75.5t7.5 78l2 30q6 82 17 96q13 15 48.5 27.5t79.5 12.5q41 0 41 -32q0 -11 -16 -100
l-13 -69q-4 -23 -11.5 -89.5t-7.5 -83.5q0 -15 5 -21t19 -6q7 0 22 5q16 6 27 6q47 0 47 -89q0 -73 -32 -119q-10 -14 -42 -46t-48 -58l-5 -7q-4 -7 -4.5 -8t-4.5 -6.5t-6 -6.5t-6 -3.5t-8.5 -3.5t-9.5 -1q-20 0 -33.5 18t-13.5 46q0 37 32 71q12 13 23 20t21 16
q12 12 23 32.5t11 37.5q0 11 -7 11q-2 0 -47 -24q-36 -20 -68 -20q-33 0 -37 24l-4 24q-6 30 -10 30q-2 0 -5 -3t-13.5 -11t-25.5 -18q-69 -46 -131 -46q-66 0 -95 52l-8 14q-7 14 -11 14q-1 0 -23 -15l-24 -17q-68 -48 -132 -48q-117 0 -117 143q0 58 16 151q10 53 10 80
q0 9 -1 14.5t-6.5 9.5t-15.5 4q-2 0 -6.5 -0.5t-6.5 -0.5q-20 0 -20 19q0 32 44 65q69 49 140 49q31 0 44 -9.5t13 -34.5q0 -10 -10 -67l-8 -40q-27 -138 -27 -197q0 -64 42 -64q20 0 36.5 10.5t27 32.5t17.5 42.5t12 53.5t7 52t4 51z" />
    <glyph glyph-name="afii10092" unicode="&#x44a;" horiz-adv-x="634" 
d="M340 430l-24 -63q-13 -29 -13 -46q0 -9 7 -9q2 0 3.5 1t5 4t7.5 5q27 16 44 22q40 15 82 15q69 0 108 -38t39 -99q0 -105 -96 -173q-86 -63 -203 -63q-58 0 -100 23q-76 43 -76 142q0 57 26 116l24 57q25 59 25 64q0 13 -22 13h-36q-43 0 -61 -16q-8 -7 -19 -25
q-2 -4 -6.5 -12t-6.5 -11.5t-5.5 -9t-6.5 -7.5t-7 -5t-9 -4t-11 -1q-17 0 -22 11.5t-5 33.5q0 35 8 74q17 89 58 89q6 0 15 -3t20 -5q19 -3 72 -3h143q14 0 21 -0.5t17 -3t14 -9.5t4 -18q0 -9 -14 -46zM375 267q-43 0 -68 -39.5t-25 -83.5q0 -29 14.5 -49t41.5 -20
q39 0 68 35.5t29 83.5q0 32 -17 52.5t-43 20.5z" />
    <glyph glyph-name="afii10093" unicode="&#x44b;" horiz-adv-x="797" 
d="M223 428l-14 -73q-4 -24 -4 -31t3 -7q1 0 15 9q4 3 40 19q42 17 76 17q58 0 102 -36.5t44 -104.5q0 -103 -97 -172q-88 -63 -212 -63q-61 0 -97 21q-59 34 -59 119q0 44 17 134q15 79 15 108q0 14 -4 20t-18 11l-8 3q-15 5 -20.5 11t-5.5 18q0 17 14 27.5t43 22.5
q95 40 135 40q42 0 42 -46q0 -12 -7 -47zM266 270q-31 0 -59.5 -35t-28.5 -90q0 -29 13 -49t37 -20q36 0 64 36t28 83q0 31 -15 53t-39 22zM724 429l-15 -98q-23 -152 -23 -186q0 -15 5.5 -20.5t19.5 -5.5q2 0 6.5 0.5t6.5 0.5q35 0 35 -25q0 -31 -49 -61
q-31 -19 -75.5 -33.5t-80.5 -14.5q-52 0 -52 45q0 11 2.5 26t7 35.5t6.5 33.5l11 61q20 108 20 156q0 28 -8 38q-7 7 -26 13q-1 0 -9 2.5t-10.5 3.5t-8 3.5t-7.5 5.5t-4 7.5t-2 10.5q0 30 70 57q94 37 151 37q37 0 37 -39q0 -8 -1.5 -16t-3.5 -19t-3 -18z" />
    <glyph glyph-name="afii10094" unicode="&#x44c;" horiz-adv-x="528" 
d="M232 428l-14 -73q-4 -24 -4 -31t3 -7q1 0 15 9q4 3 40 19q46 18 81 18q61 0 106 -37t45 -105q0 -103 -97 -172q-87 -63 -214 -63q-69 0 -105 21q-59 34 -59 119q0 44 17 134q15 79 15 108q0 14 -4 20t-18 11l-8 3q-15 5 -20.5 11t-5.5 18q0 17 14 27.5t43 22.5
q95 40 135 40q42 0 42 -49q0 -3 -7 -44zM279 272q-34 0 -63 -36t-29 -91q0 -30 13.5 -50t40.5 -20q40 0 69 36.5t29 86.5q0 35 -18 54.5t-42 19.5z" />
    <glyph glyph-name="afii10095" unicode="&#x44d;" horiz-adv-x="551" 
d="M516 288q0 -103 -54 -178q-34 -49 -98 -86.5t-164 -37.5q-75 0 -136 26.5t-61 73.5q0 36 16.5 64.5t42.5 28.5q16 0 26 -15q3 -5 9.5 -18.5t12.5 -23.5q31 -52 78 -52q33 0 67 19.5t54 48.5q23 33 31 86q-42 -25 -79 -25q-28 0 -58 20q-25 16 -41 16q-14 0 -27 -5
q-30 -10 -35 -10q-9 0 -14.5 7t-5.5 15q0 32 55 61q34 17 63 17q21 0 54 -20q23 -14 31.5 -17.5t22.5 -3.5q24 0 38 10q1 5 1 16q0 50 -30.5 90t-84.5 40q-39 0 -67 -20q-22 -17 -38 -42q-12 -18 -15.5 -23t-15 -13.5t-23.5 -8.5q-27 0 -27 37q0 32 14.5 71.5t38.5 64.5
q17 19 37 19q9 0 25 -7q18 -6 32 -6q6 0 36 6q38 9 67 9q69 0 120 -31q44 -27 73 -80t29 -123z" />
    <glyph glyph-name="afii10096" unicode="&#x44e;" horiz-adv-x="827" 
d="M217 194l-10 -82q-8 -65 -13 -75q-9 -21 -44 -33q-54 -18 -89 -18q-39 0 -39 35q0 12 17 106q32 170 32 213q0 28 -8 38q-7 6 -26 13q-2 1 -6.5 2t-6.5 2t-6 2t-5.5 2t-4.5 2.5t-4.5 2.5t-3 3t-2.5 4.5t-1.5 5t-0.5 5.5q0 14 13 27t25 18.5t32 13.5q94 37 150 37
q38 0 38 -39q0 -13 -9 -56q-12 -66 -12 -97q0 -21 24 -21h34h4q6 0 8 3.5t11 24.5q20 49 59 91q94 100 212 100q86 0 147 -58.5t61 -162.5q0 -125 -84 -219q-88 -98 -210 -98q-146 0 -193 133q-12 32 -15 91q-1 13 -4 16t-10 3h-5h-22q-18 0 -24 -8q-9 -9 -9 -27zM561 443
q-41 0 -76.5 -60t-35.5 -173q0 -44 7.5 -74.5t19 -44t22 -19t20.5 -5.5q41 0 76.5 63t35.5 175q0 44 -7.5 74t-20 42.5t-22 17t-19.5 4.5z" />
    <glyph glyph-name="afii10097" unicode="&#x44f;" horiz-adv-x="657" 
d="M556 334l-21 -146q-3 -30 -3 -43q0 -15 5 -21t19 -6q2 0 7 0.5t8 0.5q21 0 21 -18q0 -35 -47 -67q-72 -48 -143 -48q-36 0 -48 11t-12 32q0 6 13 90l11 68q3 18 3 25q0 10 -10 10q-23 0 -47 -18q-7 -5 -14 -11.5t-14 -16t-11.5 -15.5t-11.5 -18.5t-9.5 -17.5t-10 -19.5
t-9.5 -17.5q-27 -52 -56 -74.5t-87 -22.5q-111 0 -111 52q0 27 33 33q5 1 17 2t20 4q14 6 24 21q6 8 16 25t15 25q28 43 55 60q25 16 64 26v3q-56 7 -88.5 43t-32.5 83q0 35 21.5 69.5t71.5 54.5q64 25 213 25q71 0 137 -6q20 -2 31 -3.5t25.5 -12t14.5 -28.5q0 -7 -2.5 -13
t-5 -9.5t-8 -9.5t-7.5 -8q-28 -33 -36 -93zM391 370q4 36 4 42q0 15 -6 20t-29 5q-31 0 -58 -20.5t-27 -62.5q0 -54 64 -54q33 0 39 4l2 2t2 3t1.5 3.5t1 5t1 6.5t1 8.5t1 10.5t1.5 12.5t2 14.5z" />
    <glyph glyph-name="afii10071" unicode="&#x451;" horiz-adv-x="563" 
d="M301 445q-36 0 -68 -44q-16 -22 -29 -57.5t-13 -58.5q0 -19 28 -19q46 0 84.5 40t38.5 96q0 43 -41 43zM202 190h-14q2 -40 17 -66q23 -40 77 -40q32 0 80 28q10 6 23.5 17t23 17.5t15.5 6.5q12 0 24.5 -12.5t12.5 -26.5q0 -23 -32 -49q-106 -79 -219 -79
q-94 0 -148.5 53t-54.5 145q0 70 30 138t81 115q45 40 105.5 63.5t122.5 23.5q80 0 118.5 -36.5t38.5 -90.5q0 -80 -79.5 -143.5t-221.5 -63.5zM185 656q0 28 21 48.5t50 20.5q28 0 48.5 -20.5t20.5 -48.5q0 -31 -20 -51t-49 -20t-50 20.5t-21 50.5zM387 656q0 28 20.5 48.5
t49.5 20.5t49.5 -20.5t20.5 -48.5q0 -32 -21.5 -51.5t-48.5 -19.5q-28 0 -49 20.5t-21 50.5z" />
    <glyph glyph-name="afii10099" unicode="&#x452;" horiz-adv-x="601" 
d="M269 627l-8 -48h193q29 0 29 -32q0 -16 -9.5 -30.5t-30.5 -14.5h-194l-14 -91q0 -1 -0.5 -5t-0.5 -6q0 -8 5 -8q2 0 10 4q17 9 20.5 11.5t19.5 11.5q71 39 131 39q70 0 99.5 -46t29.5 -143q0 -110 -49 -231t-126 -200q-13 -14 -32 -30.5t-55.5 -36t-67.5 -19.5
q-36 0 -36 27q0 5 2 10.5t4 9t8 8.5t8 7t9.5 7.5t8.5 6.5q45 34 75 83q87 132 87 316q0 59 -12.5 85t-42.5 26q-94 0 -112 -193l-3 -37q0 -4 -1 -15.5t-1.5 -18.5t-2 -16.5t-4.5 -16t-7 -11.5q-12 -13 -48.5 -26.5t-79.5 -13.5q-18 0 -27.5 6t-11 12.5t-1.5 16.5q0 17 15 98
l20 108q20 110 38 271h-86q-24 0 -24 23q0 54 38 54h74q0 20 -15 29q-3 2 -16 6q-2 1 -10 3.5t-10.5 3.5t-7.5 4t-6.5 5.5t-3.5 6.5t-2 9q0 25 38 45q39 20 91.5 35.5t81.5 15.5q34 0 34 -41q0 -9 -11 -74z" />
    <glyph glyph-name="afii10100" unicode="&#x453;" horiz-adv-x="488" 
d="M427 412q0 -67 -67 -114q-27 -19 -65 -40q-41 -23 -54 -32q-45 -33 -45 -76q0 -65 63 -65q37 0 80 27q16 10 33 24q23 17 30 17q11 0 23.5 -12.5t12.5 -27.5q0 -21 -32 -48q-97 -79 -213 -79q-74 0 -122.5 34.5t-48.5 98.5q0 71 74 122q18 13 58.5 33.5t45.5 23.5
q60 34 60 77q0 20 -14.5 36t-41.5 16q-34 0 -82 -28q-14 -8 -34 -23q-17 -13 -30 -13q-16 0 -24 9.5t-8 20.5q0 26 31 52q94 79 216 79q69 0 111.5 -29.5t42.5 -82.5zM386 634l-175 -51q-24 -6 -33 -6q-35 0 -35 48q0 15 8.5 23.5t40.5 21.5l159 67q24 9 32 9q17 0 27 -27.5
t10 -53.5q0 -13 -6 -18.5t-28 -12.5z" />
    <glyph glyph-name="afii10101" unicode="&#x454;" horiz-adv-x="514" 
d="M6 186q0 66 26 129t71 109q49 50 112.5 75t121.5 25q71 0 110 -36t39 -81q0 -28 -18 -47t-47 -19q-51 0 -66 59q-7 26 -16 35.5t-25 9.5q-43 0 -79.5 -47.5t-43.5 -118.5q53 32 91 32q26 0 56 -24q18 -15 35 -15q12 0 25 5q30 10 37 10q18 0 18 -20q0 -37 -54 -63
q-36 -18 -66 -18q-25 0 -52 22q-26 22 -47 22q-25 0 -49 -11q-2 -9 -2 -26q0 -46 26 -77.5t72 -31.5q35 0 80 28q17 10 20 13t13 11q22 17 30 17q11 0 23.5 -12.5t12.5 -27.5q0 -23 -32 -48q-103 -79 -219 -79q-95 0 -149 53.5t-54 146.5z" />
    <glyph glyph-name="afii10102" unicode="&#x455;" horiz-adv-x="456" 
d="M262 330l37 -24q49 -31 73.5 -66t24.5 -86q0 -79 -59 -123.5t-153 -44.5q-46 0 -89 10.5t-74.5 34t-31.5 55.5q0 36 16.5 64.5t41.5 28.5q16 0 27 -15q4 -5 9 -17t13 -25q34 -56 90 -56q29 0 44 14.5t15 36.5q0 7 -1.5 12.5t-5.5 11.5t-6.5 9.5t-10 9t-10.5 7.5t-13 9
t-12 8l-22 15q-41 28 -63 46.5t-40.5 51t-18.5 70.5q0 71 54.5 114t140.5 43q63 0 131 -28q23 -10 30 -21.5t7 -38.5q0 -78 -45 -78q-23 0 -40 31l-9 16q-23 40 -61 40q-19 0 -34 -11t-15 -34q0 -9 3 -17t6 -13t11.5 -12t11.5 -9.5t14.5 -10t13.5 -8.5z" />
    <glyph glyph-name="afii10103" unicode="&#x456;" horiz-adv-x="299" 
d="M243 432l-16 -101q-23 -147 -23 -186q0 -15 5.5 -20.5t19.5 -5.5q2 0 6.5 0.5t6.5 0.5q35 0 35 -25q0 -31 -49 -61q-31 -19 -75.5 -33.5t-80.5 -14.5q-52 0 -52 45q0 11 2.5 26t7 36.5t6.5 32.5l12 64q20 113 20 156q0 28 -8 38q-6 6 -26 13q-1 0 -9 2.5t-10.5 3.5
t-8 3.5t-7.5 5.5t-4 7.5t-2 10.5q0 30 70 57q94 37 151 37q37 0 37 -39q0 -7 -1 -14t-3 -18t-4 -21zM276 668q0 -36 -31 -62.5t-83 -26.5q-43 0 -65.5 20t-22.5 49q0 39 35 65.5t84 26.5q42 0 62.5 -21t20.5 -51z" />
    <glyph glyph-name="afii10104" unicode="&#x457;" horiz-adv-x="348" 
d="M243 432l-16 -101q-23 -147 -23 -186q0 -15 5.5 -20.5t19.5 -5.5q2 0 6.5 0.5t6.5 0.5q35 0 35 -25q0 -31 -49 -61q-31 -19 -75.5 -33.5t-80.5 -14.5q-52 0 -52 45q0 11 2.5 26t7 36.5t6.5 32.5l12 64q20 113 20 156q0 28 -8 38q-6 6 -26 13q-1 0 -9 2.5t-10.5 3.5
t-8 3.5t-7.5 5.5t-4 7.5t-2 10.5q0 30 70 57q94 37 151 37q37 0 37 -39q0 -7 -1 -14t-3 -18t-4 -21zM-5 668q0 28 21 48.5t50 20.5q28 0 48.5 -20.5t20.5 -48.5q0 -31 -20 -51t-49 -20t-50 20.5t-21 50.5zM186 668q0 28 20.5 48.5t49.5 20.5t49.5 -20.5t20.5 -48.5
q0 -32 -21.5 -51.5t-48.5 -19.5q-28 0 -49 20.5t-21 50.5z" />
    <glyph glyph-name="afii10105" unicode="&#x458;" horiz-adv-x="294" 
d="M276 670q0 -37 -31.5 -64t-85.5 -27q-41 0 -63 20t-22 49q0 39 35 65.5t84 26.5q41 0 62 -21t21 -49zM245 426l-10 -58q-6 -35 -37 -273l-15 -114q-3 -20 -7 -38t-16.5 -47.5t-30.5 -50t-51.5 -36t-76.5 -15.5q-55 0 -84.5 17.5t-29.5 43.5q0 14 8.5 22.5t21.5 8.5
q4 0 7 -0.5l9 -1.5l12 -2q14 -2 16 -2q15 0 25 7t16.5 24.5t9 29t6.5 37.5q11 67 29.5 197.5t18.5 171.5q0 25 -3.5 32t-14.5 12q-9 5 -15 6q-1 0 -9 2.5t-10.5 3.5t-8 3.5t-7.5 5.5t-4 7.5t-2 10.5q0 30 70 57q93 37 153 37q39 0 39 -43q0 -3 -9 -55z" />
    <glyph glyph-name="afii10106" unicode="&#x459;" horiz-adv-x="892" 
d="M578 388l-6 -33q-4 -26 -4 -31q0 -7 3 -7q1 0 15 9q4 3 40 19q46 18 81 18q61 0 106 -37t45 -105q0 -103 -97 -172q-87 -63 -214 -63q-69 0 -105 21q-59 34 -59 119q0 22 9 90q6 42 10.5 72.5t6 44.5t2.5 18q6 48 6 63q0 14 -7 18.5t-28 4.5q-32 0 -48 -16
q-20 -19 -34 -85q-22 -107 -33 -148q-25 -95 -70 -146q-50 -56 -121 -56q-41 0 -61.5 23t-20.5 54q0 34 20.5 56t49.5 22q24 0 42 -21q14 -16 25 -19q41 34 64 122q21 78 21 132q0 29 -13 42q-6 6 -16 11q-19 11 -21 13q-9 9 -9 24q0 20 12.5 30t36.5 17q84 25 221 25
q57 0 127 -6q20 -2 31 -3.5t25.5 -12t14.5 -28.5q0 -7 -2.5 -13t-5 -9.5t-8 -9.5t-7.5 -8q-22 -27 -24 -39zM633 272q-34 0 -63 -36t-29 -91q0 -30 13.5 -50t40.5 -20q40 0 69 36.5t29 86.5q0 35 -18 54.5t-42 19.5z" />
    <glyph glyph-name="afii10107" unicode="&#x45a;" horiz-adv-x="871" 
d="M564 423l-13 -68q-4 -24 -4 -31t3 -7q1 0 15 9q4 3 40 19q46 18 81 18q61 0 106 -37t45 -105q0 -103 -97 -172q-87 -63 -214 -63q-69 0 -105 21q-59 34 -59 119q0 25 3.5 46.5t3.5 42.5q0 11 -7.5 14.5t-37.5 3.5h-52q-38 0 -46 -9q-7 -7 -9 -27l-11 -85q-8 -64 -13 -75
q-9 -21 -44 -33q-54 -18 -89 -18q-39 0 -39 35q0 12 17 106q32 170 32 213q0 28 -8 38q-7 6 -26 13q-2 1 -6.5 2t-6.5 2t-6 2t-5.5 2t-4.5 2.5t-4.5 2.5t-3 3t-2.5 4.5t-1.5 5t-0.5 5.5q0 14 13 27t25 18.5t32 13.5q94 37 150 37q38 0 38 -39q0 -8 -1.5 -16t-3.5 -19t-3 -18
q-12 -81 -12 -98q0 -12 9 -16t36 -4h58q30 0 36.5 2t7.5 14l7 81q6 59 18 73q13 15 50.5 27.5t76.5 12.5q18 0 27.5 -6t11.5 -12t2 -16q0 -14 -9 -61zM612 272q-34 0 -63 -36t-29 -91q0 -30 13.5 -50t40.5 -20q40 0 69 36.5t29 86.5q0 35 -18 54.5t-42 19.5z" />
    <glyph glyph-name="afii10108" unicode="&#x45b;" horiz-adv-x="621" 
d="M268 627l-8 -48h193q29 0 29 -32q0 -16 -9.5 -30.5t-30.5 -14.5h-194l-14 -91q0 -1 -0.5 -5t-0.5 -6q0 -8 5 -8q4 0 14 6l36 20q72 40 131 40q122 0 122 -142q0 -34 -7 -84l-5 -37q-5 -35 -5 -50t5 -21t19 -6q2 0 7 0.5t8 0.5q21 0 21 -19q0 -35 -47 -66
q-72 -48 -140 -48q-29 0 -42.5 8.5t-13.5 36.5q0 18 14 88l3 16q18 95 18 139q0 64 -45 64q-97 0 -114 -193l-3 -37q0 -4 -1 -15.5t-1.5 -18.5t-2 -16.5t-4.5 -16t-7 -11.5q-12 -13 -48.5 -26.5t-79.5 -13.5q-18 0 -27.5 6t-11 12.5t-1.5 16.5q0 17 15 98l20 108
q20 110 38 271h-86q-24 0 -24 23q0 54 38 54h74q0 20 -15 29q-3 2 -16 6q-2 1 -10 3.5t-10.5 3.5t-7.5 4t-6.5 5.5t-3.5 6.5t-2 9q0 25 38 45q39 20 91.5 35.5t81.5 15.5q34 0 34 -41q0 -9 -11 -74z" />
    <glyph glyph-name="afii10109" unicode="&#x45c;" horiz-adv-x="615" 
d="M249 303h23q37 0 66 43q13 18 26.5 51t22.5 50q37 72 110 72q40 0 63 -23.5t23 -59.5q0 -34 -20.5 -55.5t-49.5 -21.5q-28 0 -47 21q-15 15 -19 17q-10 -12 -20 -34q-16 -36 -28 -53t-30 -30v-4q35 -12 59 -46q6 -9 29.5 -62t43.5 -63q6 -3 25 -6q32 -2 32 -24
q0 -30 -43.5 -59.5t-90.5 -29.5q-55 0 -82 48q-8 15 -29 84q-21 76 -37 96q-12 15 -31 15h-4h-5q-6 0 -9 -1t-6.5 -5.5t-4.5 -13.5l-9 -97q-5 -61 -13 -75q-11 -21 -46 -33q-52 -18 -89 -18q-39 0 -39 35q0 12 17 106q33 175 33 219q0 28 -8 38q-7 6 -26 13q-2 1 -6.5 2
t-6.5 2t-6 2t-5.5 2t-4.5 2.5t-4.5 2.5t-3 3t-2.5 4.5t-1.5 5t-0.5 5.5q0 14 13 27t25 18.5t32 13.5q94 37 150 37q38 0 38 -39q0 -8 -1.5 -16t-3.5 -18.5t-3 -18.5l-12 -82q-3 -21 -3 -33q0 -14 16 -14h3zM461 634l-175 -51q-24 -6 -33 -6q-35 0 -35 48q0 15 8.5 23.5
t40.5 21.5l159 67q24 9 32 9q17 0 27 -27.5t10 -53.5q0 -13 -6 -18.5t-28 -12.5z" />
    <glyph glyph-name="afii10110" unicode="&#x45e;" horiz-adv-x="564" 
d="M344 75q27 48 46 112.5t19 115.5q0 43 -33 112q-19 40 -19 53q0 23 20.5 37t47.5 14q83 0 83 -146q0 -168 -95 -336q-37 -65 -80 -113t-78.5 -72t-74 -38.5t-60 -17.5t-42.5 -3q-68 0 -106 34t-38 85q0 41 22.5 63.5t50.5 22.5q27 0 46.5 -18.5t19.5 -50.5q0 -5 -1.5 -16
t-1.5 -16q0 -27 29 -27q44 0 77.5 36.5t33.5 81.5q0 76 -87 282q-27 62 -44 85.5t-41 23.5q-4 0 -10 -1t-10 -1q-29 0 -29 23q0 36 58 77q57 41 107 41q49 0 102 -137q44 -116 88 -306zM265 571q-45 0 -77 11.5t-46.5 30t-20.5 34.5t-6 32q0 15 4.5 30t22.5 30.5t47 15.5
q49 0 54 -50q4 -33 17 -43q13 -8 33 -8q31 0 55 12t34 24t23 32q21 33 45 33q22 0 22 -28q0 -59 -61 -107.5t-146 -48.5z" />
    <glyph glyph-name="afii10193" unicode="&#x45f;" horiz-adv-x="611" 
d="M549 422l-16 -104q-3 -19 -11 -87t-8 -86q0 -15 5 -21t19 -6q2 0 7 0.5t8 0.5q21 0 21 -19q0 -31 -44 -63q-69 -48 -120 -48q-24 0 -35.5 17.5t-16.5 69.5q-43 -41 -98 -64.5t-106 -23.5q-40 0 -67 15.5t-37.5 41t-13.5 42.5t-3 36q0 50 17 137q15 79 15 108q0 14 -4 20
t-18 11l-8 3q-15 5 -20.5 11t-5.5 18q0 17 14 27.5t43 22.5q97 40 133 40q10 0 16.5 -1.5t14 -7t11 -17.5t3.5 -30q0 -24 -20 -122q-25 -114 -25 -171q0 -65 45 -65q69 0 97 96q20 71 28 163l3 38q5 61 17 73q12 13 48 26.5t80 13.5q18 0 27.5 -6t11.5 -13t2 -20
q0 -2 -9 -56zM315 -24q29 0 29 -28q0 -11 -15 -21q-11 -6 -11 -17q0 -10 8 -43q8 -30 8 -48q0 -25 -10 -43q-23 -42 -70 -42q-18 0 -26.5 8t-8.5 19q0 7 10 20q6 7 6 21q0 18 -9 48q-8 35 -8 39q0 46 49 73q25 14 48 14z" />
    <glyph glyph-name="afii10050" unicode="&#x490;" horiz-adv-x="580" 
d="M489 633h-127q-32 0 -43 -11q-10 -10 -14 -28q-9 -36 -29 -175q-33 -242 -33 -299q0 -12 4.5 -16.5t20.5 -13.5q1 -1 6.5 -3.5t8 -4t7 -5t6 -7t3.5 -9t2 -12.5q0 -29 -34 -41.5t-136 -12.5h-39q-121 0 -121 47q0 31 45 50q18 7 25 15t13.5 32.5t13 64t11 68.5t10.5 75
t7 54q20 151 20 192q0 19 -3 28q-3 6 -19 15q-2 1 -5.5 3t-5.5 3t-5 3t-5 3.5t-4.5 4t-3.5 5t-2.5 5.5t-2 6.5t-0.5 7.5q0 26 29 40.5t72 14.5q24 0 36 -1q32 -2 47 -2h177q39 0 58 13t32 52l8 24q10 29 20.5 38.5t25.5 9.5q28 0 39 -25.5t11 -86.5q0 -59 -13 -95.5
t-31 -36.5q-12 0 -29.5 5.5t-52.5 5.5z" />
    <glyph glyph-name="afii10098" unicode="&#x491;" horiz-adv-x="418" 
d="M169 507h139q52 0 73 17q15 13 33 52q8 18 12 25t14.5 16t24.5 9q29 0 29 -40q0 -8 -2 -24l-8 -55q-5 -35 -17 -56.5t-21.5 -27t-19.5 -5.5q-4 0 -16 3.5t-19 4.5q-21 3 -73 3h-21q-35 0 -49 -12q-6 -5 -10.5 -15.5t-6 -19.5t-4 -29t-4.5 -32q-8 -44 -23 -185l-4 -38
q0 -3 -1.5 -19t-2 -21.5t-3 -17t-7 -17.5t-10.5 -11q-13 -10 -46.5 -18t-63.5 -8q-19 0 -28.5 5.5t-11 11.5t-1.5 16q0 22 21 124l4 19l23 161q7 56 7 60q0 24 -8 33q-3 4 -12.5 8.5t-16.5 9.5q-14 9 -14 24q0 17 11.5 27.5t35 15t41.5 5.5t49 1h7z" />
    <glyph glyph-name="endash" unicode="&#x2013;" horiz-adv-x="500" 
d="M464 220h-460q-17 0 -17 21v6l5 36q3 25 17 25h460q18 0 18 -22v-5l-6 -36q-6 -25 -17 -25z" />
    <glyph glyph-name="emdash" unicode="&#x2014;" horiz-adv-x="1000" 
d="M966 308q24 0 24 -21q0 -1 -0.5 -3t-0.5 -3l-7 -36q-5 -25 -23 -25h-947q-24 0 -24 21q0 1 0.5 3t0.5 3l7 36q5 25 23 25h947z" />
    <glyph glyph-name="quoteleft" unicode="&#x2018;" horiz-adv-x="295" 
d="M223 684l-18 -24q-25 -32 -25 -64q0 -14 8 -18q6 -3 12 -5t14 -6q37 -19 37 -65q0 -47 -28 -78t-71 -31q-38 0 -59.5 28.5t-21.5 74.5q0 74 71 176q49 69 75 69q9 0 18 -5.5t9 -16.5q0 -8 -21 -35z" />
    <glyph glyph-name="quoteright" unicode="&#x2019;" horiz-adv-x="295" 
d="M111 449l18 24q25 34 25 64q0 14 -8 18q-6 3 -12 5t-14 6q-37 18 -37 65t28 78t71 31q38 0 59.5 -28.5t21.5 -74.5q0 -74 -71 -176q-49 -69 -75 -69q-9 0 -18 5.5t-9 16.5q0 8 21 35z" />
    <glyph glyph-name="quotedblleft" unicode="&#x201c;" horiz-adv-x="516" 
d="M70 496q0 75 71 176q27 38 42.5 53.5t32.5 15.5q11 0 19 -7t8 -15q0 -6 -5 -13.5t-16 -21t-19 -24.5q-24 -35 -24 -63q0 -16 8 -19q40 -17 49 -28q13 -17 13 -49q0 -47 -28 -77.5t-70 -30.5q-37 0 -59 27.5t-22 75.5zM295 496q0 75 71 176q27 39 42 54t32 15
q11 0 19.5 -7t8.5 -15q0 -6 -5 -13.5t-16 -21t-19 -24.5q-25 -37 -25 -63q0 -15 9 -19q26 -11 34.5 -15.5t17.5 -20t9 -41.5q0 -48 -27.5 -78t-69.5 -30q-37 0 -59 27.5t-22 75.5z" />
    <glyph glyph-name="quotedblright" unicode="&#x201d;" horiz-adv-x="516" 
d="M490 637q0 -75 -71 -176q-27 -39 -42 -54t-32 -15q-11 0 -19.5 7t-8.5 15q0 6 5 13.5t16 21t19 24.5q25 37 25 63q0 15 -9 19q-26 11 -34.5 15.5t-17.5 20t-9 41.5q0 48 27.5 78t69.5 30q37 0 59 -27.5t22 -75.5zM266 637q0 -74 -72 -176q-27 -39 -42 -54t-32 -15
q-11 0 -19 7t-8 15q0 6 5 13.5t16 21t18 24.5q25 37 25 63q0 16 -8 19q-40 17 -49 28q-13 16 -13 49q0 48 27.5 78t69.5 30q37 0 59.5 -27.5t22.5 -75.5z" />
    <glyph glyph-name="quotedblbase" unicode="&#x201e;" horiz-adv-x="516" 
d="M200 73q0 -75 -72 -177q-27 -38 -42 -53t-32 -15q-11 0 -19 6.5t-8 14.5q0 6 5 13.5t16 21.5t18 25q25 37 25 62q0 17 -8 20q-3 1 -11 4.5t-10 4.5t-9 4t-8.5 5t-6.5 5.5t-6.5 6.5t-4.5 8t-3.5 10.5t-1.5 12.5t-1 15q0 47 28 77.5t70 30.5q37 0 59 -27t22 -75zM424 73
q0 -76 -71 -177q-27 -38 -42 -53t-32 -15q-11 0 -19.5 6.5t-8.5 14.5q0 6 5 13.5t16.5 21.5t18.5 25q24 35 24 62q0 17 -8 20q-3 1 -11 4.5t-10 4.5t-9 4t-8.5 5t-6.5 5.5t-6.5 6.5t-4.5 8t-3.5 10.5t-1.5 12.5t-1 15q0 47 28 77.5t70 30.5q37 0 59 -27t22 -75z" />
    <glyph glyph-name="dagger" unicode="&#x2020;" horiz-adv-x="500" 
d="M140 -169q24 179 24 324q0 57 -9 114q47 74 75 192q-118 -41 -148 -41q-51 0 -51 54q0 39 17 61.5t45 22.5q17 0 63.5 -16.5t80.5 -20.5v17q0 33 -9 76.5t-9 54.5q0 35 21 53.5t60 18.5q60 0 60 -47q0 -18 -25 -73t-36 -100q23 6 56 16t54.5 15.5t37.5 5.5q23 0 36 -11.5
t13 -31.5q0 -43 -19 -68.5t-51 -25.5q-10 0 -54 17.5t-82 22.5q0 -5 -0.5 -16t-0.5 -17q0 -87 22 -158q-50 -99 -108 -439h-63z" />
    <glyph glyph-name="bullet" unicode="&#x2022;" horiz-adv-x="590" 
d="M150 372q0 60 42.5 102t102.5 42q59 0 101.5 -42t42.5 -102q0 -59 -42.5 -102t-102.5 -43t-102 42.5t-42 102.5z" />
    <glyph glyph-name="ellipsis" unicode="&#x2026;" horiz-adv-x="1000" 
d="M-2 81q0 41 27.5 68.5t67.5 27.5t67 -27.5t27 -68.5q0 -40 -27 -67.5t-67 -27.5t-67.5 27.5t-27.5 67.5zM331 81q0 41 27.5 68.5t67.5 27.5t67 -27.5t27 -68.5q0 -40 -27 -67.5t-67 -27.5t-67.5 27.5t-27.5 67.5zM665 81q0 41 27.5 68.5t67.5 27.5t67 -27.5t27 -68.5
q0 -40 -27 -67.5t-67 -27.5t-67.5 27.5t-27.5 67.5z" />
    <glyph glyph-name="Euro" unicode="&#x20ac;" horiz-adv-x="820" 
d="M80 437h80q30 106 109 183q64 62 143.5 91.5t156.5 29.5q63 0 108 -19q15 -6 27 -12q8 -5 13 -5q3 0 11 4t13 4q18 0 37 -31q35 -56 35 -101q0 -61 -53 -61q-29 0 -51 28l-10 13q-38 49 -55 62q-33 24 -79 24q-80 0 -138 -59t-76 -151h323h3q26 0 26 -24q0 -36 -37 -36
h-325q-2 -28 -2 -43q0 -18 1 -28h251h3q26 0 26 -23q0 -16 -6.5 -25t-13 -10.5t-17.5 -1.5h-236q12 -70 57.5 -113.5t105.5 -43.5q69 0 141 62q17 15 31 31q24 28 40 32q4 1 8 1q15 0 25 -11.5t10 -33.5q0 -37 -23 -79t-48 -42q-2 0 -6.5 1t-6.5 1q-7 0 -15 -4.5
t-21.5 -13.5t-27.5 -15q-81 -37 -164 -37q-122 0 -208 70.5t-99 194.5h-92q-17 0 -22.5 5t-5.5 16q0 25 9.5 32t26.5 7h80v12q0 29 6 59h-76q-19 0 -24 5t-5 16q0 24 10 31.5t27 7.5z" />
    <glyph glyph-name="afii61352" unicode="&#x2116;" horiz-adv-x="1161" 
d="M1006 567q0 -48 14.5 -68.5t31.5 -20.5q9 0 18.5 6t19.5 29t10 60q0 33 -7 54.5t-15.5 28t-17.5 6.5q-20 0 -37 -22.5t-17 -72.5zM893 552q0 84 53 131.5t125 47.5q70 0 106.5 -44.5t36.5 -106.5q0 -69 -51.5 -122t-126.5 -53q-59 0 -101 38t-42 109zM1101 343l14 1h4
q30 0 30 -21q0 -16 -15 -37q-15 -23 -25.5 -28t-30.5 -5h-53q-16 0 -32.5 -0.5t-35.5 -1.5t-31 -1l-35 -1q-9 0 -14 0.5t-10 5.5t-5 14q0 8 12 27l9 15q18 30 52 30l75 -1q34 0 91 3zM269 490l-28 -212q-15 -120 -15 -157q0 -7 1 -12t3 -8t3.5 -4.5t5 -3t4.5 -2.5l8 -5l3 -2
q4 -2 6 -3.5t5 -4.5t4.5 -6t3 -7.5t1.5 -9.5q0 -19 -12 -31.5t-34.5 -17.5t-39 -6.5t-41.5 -1.5q-63 0 -85 10t-22 35q0 26 19 39q2 1 22 10q23 9 28 17q7 9 20 72q19 95 36 215t17 181v17q0 30 -19 41l-7 4q-29 16 -29 39q0 57 129 57h20q34 0 49 -8t30 -28
q13 -18 29.5 -44.5t51.5 -83.5t82 -129l125 -192l29 206q14 93 14 150q0 25 -17 35l-8 5q-1 0 -4 2.5t-5 4t-5 4.5t-4.5 6t-3 8t-1.5 10q0 18 11 29.5t31.5 17t39.5 7t45 1.5q60 0 83.5 -10.5t23.5 -34.5q0 -32 -40 -49q-14 -5 -19.5 -9t-11.5 -15t-11 -33
q-24 -118 -37 -204q-15 -98 -21.5 -157t-18.5 -144q-7 -50 -21 -69.5t-49 -19.5q-26 0 -47 13t-30.5 25.5t-25.5 38.5l-57 90q-16 25 -51.5 82t-73.5 116t-89 136z" />
    <glyph glyph-name="trademark" unicode="&#x2122;" horiz-adv-x="829" 
d="M159 713h148q15 0 21 2l8 2q9 0 16.5 -21t7.5 -48q0 -20 -13 -20q-8 0 -11 3.5t-10 16.5l-3 6q-8 15 -15.5 19.5t-20.5 4.5q-14 0 -18 -4t-4 -10v-7v-3q0 -4 -0.5 -12.5t-0.5 -12.5v-92q0 -33 4 -49q1 -4 10 -8q13 -5 13 -16q0 -6 -2 -9.5t-15.5 -6.5t-40.5 -3t-40.5 3
t-15.5 6.5t-2 9.5q0 11 13 16q9 4 10 8q4 16 4 49v92q0 4 -0.5 12.5t-0.5 12.5v3v7q0 6 -4 10t-18 4q-13 0 -20.5 -4.5t-15.5 -19.5l-3 -6q-10 -18 -16 -19q-2 -1 -5 -1q-13 0 -13 20q0 27 7.5 48t16.5 21l8 -2q6 -2 21 -2zM401 590v51q0 33 -7 35h-2l-2 2t-3 2
q-14 6 -14 16q0 19 50 19q29 0 37 -6q6 -6 18 -31q33 -79 52 -111q4 -8 7 -8q1 0 7 6q2 3 19 39l29 66q7 17 10.5 24t15 14t29.5 7h7q46 0 46 -19q0 -8 -7 -13q-1 -1 -3.5 -2t-3.5 -1h-1l-1 -1l-2 -2q-1 -1 -3 -1q-6 -4 -6 -74v-29q0 -75 5 -85q2 -6 11 -8q13 -5 13 -16
q0 -19 -48 -19h-11q-37 0 -48.5 4.5t-11.5 14.5q0 12 13 16q4 2 8 5q9 10 9 43q0 12 -1 38t-2 61q-30 -67 -41 -94q-33 -77 -42 -77q-11 0 -38 54q-1 1 -7 14.5t-17.5 39t-27.5 60.5q0 -6 -0.5 -17.5t-0.5 -17.5v-16q-1 -16 -1.5 -27t-0.5 -17q0 -39 6 -45q1 -1 7 -4
q1 -1 3.5 -2t4 -1.5t3 -2t2.5 -4t1 -5.5q0 -20 -45 -20q-29 0 -37.5 4.5t-8.5 14.5q0 5 1.5 8t3.5 4t9 5q6 2 9 6q8 11 8 103z" />
    <glyph glyph-name="radical" unicode="&#x221a;" horiz-adv-x="804" 
d="M74 456h282l145 -375l142 696h201v-109h-115l-184 -900h-91l-245 597h-135v91z" />
    <glyph glyph-name="infinity" unicode="&#x221e;" horiz-adv-x="1047" 
d="M530 420q41 51 99 78.5t121 27.5q92 0 144.5 -57t52.5 -136q0 -87 -60 -147.5t-158 -60.5q-8 0 -18.5 0.5t-41 6.5t-57.5 16t-60.5 32.5t-58.5 52.5q-44 -50 -101 -79t-113 -29q-88 0 -141 61.5t-53 138.5q0 82 59 142t165 60q131 0 221 -107zM442 310q-49 67 -87 95
t-77 28q-38 0 -65.5 -26.5t-27.5 -76.5q0 -52 32 -80t75 -28q30 0 58.5 14t45.5 29t46 45zM585 354q89 -117 162 -117q44 0 72 27t28 71q0 46 -28.5 74t-78.5 28q-31 0 -58.5 -11.5t-45 -25.5t-51.5 -46z" />
    <glyph glyph-name="approxequal" unicode="&#x2248;" horiz-adv-x="833" 
d="M747 468v-124q-97 -67 -184 -67q-45 0 -84 14q-5 2 -23.5 8.5t-24 8t-22 7t-23.5 7.5t-21.5 6t-23.5 5.5t-21.5 4t-23.5 3t-22 0.5q-79 0 -187 -77v124q108 70 189 70q58 0 144 -28q8 -3 27.5 -10t30.5 -10l27.5 -7.5t31 -6.5t29.5 -2q79 0 181 74zM747 243v-124
q-97 -67 -184 -67q-45 0 -84 14q-5 2 -23.5 8.5t-24 8t-22 7t-23.5 7.5t-21.5 6t-23.5 5.5t-21.5 4t-23.5 3t-22 0.5q-79 0 -187 -77v124q108 70 189 70q58 0 144 -28q8 -3 27.5 -10t30.5 -10l27.5 -7.5t31 -6.5t29.5 -2q79 0 181 74z" />
    <glyph glyph-name="notequal" unicode="&#x2260;" horiz-adv-x="833" 
d="M124 464h337l78 126l83 -49l-47 -77h134v-113h-204l-65 -106h269v-112h-338l-77 -125l-83 49l47 76h-134v112h203l65 106h-268v113z" />
    <glyph glyph-name="lessequal" unicode="&#x2264;" horiz-adv-x="833" 
d="M704 638v-124l-417 -171l417 -170v-124l-575 237v114zM704 -154l-575 237v124l575 -237v-124z" />
    <glyph glyph-name="greaterequal" unicode="&#x2265;" horiz-adv-x="833" 
d="M129 638l575 -238v-114l-575 -237v124l417 170l-417 171v124zM129 -154v124l575 237v-124z" />
    <glyph glyph-name="Acute" unicode="&#xf6c9;" horiz-adv-x="500" 
d="M412 824l-175 -51q-24 -6 -33 -6q-35 0 -35 48q0 15 8.5 23.5t40.5 21.5l159 67q24 9 32 9q17 0 27 -27.5t10 -53.5q0 -13 -6 -18.5t-28 -12.5z" />
    <glyph glyph-name="Dieresis" unicode="&#xf6cb;" horiz-adv-x="493" 
d="M112 848q0 28 21 48.5t50 20.5t49 -20.5t20 -48.5q0 -31 -20 -51t-49 -20t-50 20.5t-21 50.5zM303 848q0 28 20.5 48.5t49.5 20.5t49.5 -20.5t20.5 -48.5q0 -32 -21.5 -51.5t-48.5 -19.5q-28 0 -49 20.5t-21 50.5z" />
    <glyph glyph-name="cyrBreve" unicode="&#xf6d1;" horiz-adv-x="373" 
d="M140 791q-82 0 -125.5 37t-43.5 92q0 35 21.5 58t61.5 23q54 0 65 -51l1 -8q2 -8 2.5 -9t2.5 -8t4 -9t6 -7t9 -7t11.5 -4.5t15 -3.5t19.5 -1q80 0 138 74q24 33 47 33q11 0 19 -8.5t8 -23.5q0 -55 -74.5 -116t-187.5 -61z" />
    <glyph glyph-name="cyrbreve" unicode="&#xf6d4;" horiz-adv-x="398" 
d="M154 571q-45 0 -77 11.5t-46.5 30t-20.5 34.5t-6 32q0 15 4.5 30t22.5 30.5t47 15.5q49 0 54 -50q4 -33 17 -43q13 -8 33 -8q31 0 55 12t34 24t23 32q21 33 45 33q22 0 22 -28q0 -59 -61 -107.5t-146 -48.5z" />
    <glyph glyph-name="nbspace" horiz-adv-x="294" 
 />
    </font>
</defs>
</svg>
