<?xml version="1.0" encoding="utf-8"?>
<!-- Generator: Adobe Illustrator 17.0.0, SVG Export Plug-In . SVG Version: 6.00 Build 0)  -->
<!DOCTYPE svg PUBLIC "-//W3C//DTD SVG 1.1//EN" "http://www.w3.org/Graphics/SVG/1.1/DTD/svg11.dtd">
<svg version="1.1" id="Layer_1" xmlns="http://www.w3.org/2000/svg" xmlns:xlink="http://www.w3.org/1999/xlink" x="0px" y="0px"
	 width="100px" height="50px" viewBox="0 0 100 50" enable-background="new 0 0 100 50" xml:space="preserve">
<path fill="#FFFFFF" d="M13.372,7.039c-0.466,7.658,2.536,12.454,5.138,15.13c0.078,0.08,0.155,0.157,0.233,0.234L4.027,19.889
	c-0.778-0.133-1.512,0.381-1.641,1.148c-0.129,0.767,0.398,1.496,1.175,1.629l14.834,2.534c-0.061,0.03-0.121,0.06-0.182,0.091
	c-3.119,1.617-6.957,5.006-7.535,11.968c-0.064,0.775,0.521,1.46,1.306,1.529c0.786,0.069,1.475-0.502,1.539-1.278
	c0.697-8.4,6.95-10.512,9.904-11.042c0.058,2.789,0.897,5.599,2.582,8.096c1.255,1.86,2.904,3.404,4.798,4.549
	c0.1,0.077,0.207,0.14,0.32,0.188c2.067,1.185,4.408,1.901,6.836,2.042c0.013,0.001,0.03,0.002,0.042,0.002l0,0
	c0.894,0.031,17.037,0.508,31.566,0.937c0.282,0.102,0.597,0.117,0.901,0.027c7.648,0.226,14.747,0.435,18.797,0.554
	c1.401,0.139,2.814-0.205,3.985-0.97c2.816-1.841,3.573-5.612,1.687-8.406c-0.745-1.104-1.803-1.922-3.063-2.369L44.081,12.119
	c-0.015-0.006-0.031-0.011-0.047-0.017c-0.01-0.004-0.02-0.008-0.031-0.011c0,0-0.001,0-0.002-0.001
	c-4.586-1.688-9.736-1.118-13.788,1.53c-3.378,2.207-5.566,5.529-6.403,9.158c-0.901-0.529-2.081-1.352-3.249-2.554
	c-3.205-3.297-4.665-7.669-4.34-12.996c0.019-0.319-0.071-0.621-0.238-0.869c-0.24-0.355-0.638-0.601-1.101-0.632
	C14.095,5.676,13.419,6.262,13.372,7.039z M42.788,14.647c0.359,0.368,1.187,1.302,1.784,2.632c1.036,2.31,0.887,4.678-0.442,7.038
	c-0.382,0.678-0.132,1.537,0.557,1.919c0.69,0.382,1.558,0.143,1.94-0.535c2.134-3.789,1.581-7.091,0.671-9.274l13.587,5.4
	c0.063,0.077,0.135,0.148,0.217,0.213c0.181,0.142,4.397,3.54,2.195,7.802c-0.357,0.691-0.077,1.542,0.626,1.899
	c0.703,0.358,1.562,0.088,1.919-0.603c1.221-2.362,1.268-4.861,0.154-7.279l17.494,6.953c0.589,2.46-0.413,3.573-0.459,3.623
	c0.016-0.017,0.025-0.025,0.025-0.025l1.999,2.027c0.079-0.076,1.56-1.545,1.466-4.42l4.305,1.711
	c0.028,0.012,0.056,0.023,0.085,0.033c0.683,0.238,1.257,0.679,1.66,1.276c1.01,1.497,0.605,3.517-0.904,4.503
	c-0.646,0.422-1.395,0.6-2.166,0.516c-0.038-0.004-0.076-0.007-0.114-0.008c-0.185-0.005-6.979-0.206-15.565-0.459
	c0.749-1.262,1.032-2.887,0.277-4.806c-0.039-0.099-0.087-0.19-0.145-0.275c-0.364-0.539-1.068-0.78-1.703-0.541
	c-0.734,0.277-1.098,1.091-0.812,1.818c0.446,1.134,0.312,2.033-0.421,2.828c-0.377,0.409-0.825,0.693-1.132,0.859
	c-5.367-0.158-11.115-0.328-16.228-0.479c0.072-0.075,0.143-0.152,0.214-0.232c1.481-1.663,3.023-4.581,1.963-9.042
	c-0.04-0.17-0.11-0.326-0.203-0.463c-0.322-0.476-0.918-0.733-1.513-0.599c-0.767,0.172-1.243,0.927-1.063,1.686
	c0.619,2.603,0.194,4.779-1.264,6.468c-1.121,1.299-2.472,1.852-2.512,1.868c-0.116,0.045-0.222,0.105-0.318,0.174
	c-6.168-0.183-10.608-0.315-10.863-0.324c-1.398-0.082-2.743-0.386-3.995-0.887c1.672-1.872,4.031-5.444,3.531-10.325
	c-0.024-0.238-0.107-0.456-0.233-0.643c-0.284-0.421-0.787-0.679-1.331-0.629c-0.784,0.072-1.356,0.759-1.276,1.534
	c0.444,4.331-2,7.383-3.272,8.656c-1.213-0.862-2.278-1.945-3.14-3.221c-3.823-5.665-2.289-13.309,3.42-17.041
	C35.03,13.865,39.115,13.377,42.788,14.647z"/>
</svg>
