<?xml version="1.0" encoding="utf-8"?>
<!-- Generator: Adobe Illustrator 17.0.0, SVG Export Plug-In . SVG Version: 6.00 Build 0)  -->
<!DOCTYPE svg PUBLIC "-//W3C//DTD SVG 1.1//EN" "http://www.w3.org/Graphics/SVG/1.1/DTD/svg11.dtd">
<svg version="1.1" id="Layer_1" xmlns="http://www.w3.org/2000/svg" xmlns:xlink="http://www.w3.org/1999/xlink" x="0px" y="0px"
	 width="94.665px" height="76.099px" viewBox="0 0 94.665 76.099" enable-background="new 0 0 94.665 76.099" xml:space="preserve">
<path fill="#509743" d="M55.406,49.047c-0.163,0-0.328-0.006-0.493-0.017l-16.139-1.135c-1.842-0.13-3.526-0.968-4.743-2.362
	c-1.217-1.393-1.815-3.169-1.685-4.999c0.13-1.83,0.974-3.504,2.376-4.713c1.223-1.055,2.739-1.643,4.328-1.689
	c0.38-1.908,1.38-3.628,2.882-4.923c1.788-1.542,4.079-2.3,6.432-2.133c2.361,0.166,4.516,1.236,6.066,3.012
	c1.304,1.493,2.05,3.335,2.156,5.278c3.462,0.594,5.984,3.721,5.731,7.277C62.06,46.267,59.009,49.046,55.406,49.047z M39.26,36.425
	c-1.108,0-2.171,0.395-3.022,1.13c-0.936,0.808-1.5,1.923-1.586,3.141c-0.087,1.218,0.313,2.401,1.126,3.331
	c0.812,0.93,1.934,1.49,3.159,1.576l16.139,1.135c2.558,0.176,4.758-1.732,4.938-4.259c0.18-2.527-1.743-4.728-4.285-4.907
	l-0.385-0.027l-1.152-0.082l0.081-1.145c0.123-1.734-0.44-3.412-1.587-4.725c-1.147-1.313-2.739-2.104-4.483-2.227
	c-3.596-0.246-6.74,2.452-6.995,6.034l-0.081,1.145l-1.537-0.108C39.479,36.429,39.369,36.425,39.26,36.425z"/>
</svg>
