<?xml version="1.0" encoding="utf-8"?>
<!-- Generator: Adobe Illustrator 17.0.0, SVG Export Plug-In . SVG Version: 6.00 Build 0)  -->
<!DOCTYPE svg PUBLIC "-//W3C//DTD SVG 1.1//EN" "http://www.w3.org/Graphics/SVG/1.1/DTD/svg11.dtd">
<svg version="1.1" id="Layer_1" xmlns="http://www.w3.org/2000/svg" xmlns:xlink="http://www.w3.org/1999/xlink" x="0px" y="0px"
	 width="94.665px" height="76.099px" viewBox="0 0 94.665 76.099" enable-background="new 0 0 94.665 76.099" xml:space="preserve">
<g>
	<g>
		<path fill="#529843" d="M84.05,42.5c-1.024-1.926-2.729-3.324-4.799-3.939l-1.343-0.398c0.682-3.239,0.219-6.573-1.342-9.508
			c-1.753-3.296-4.68-5.694-8.249-6.752c-3.625-1.075-7.516-0.609-10.816,1.266c-1.023-0.811-2.173-1.408-3.428-1.78
			c-2.665-0.791-5.488-0.484-7.946,0.862c-2.096,1.148-3.714,2.936-4.648,5.108l-7.322-2.171c-4.289-1.272-8.841,1.221-10.146,5.558
			l-0.156,0.518c-0.156,0.519-0.255,1.041-0.308,1.561l-5.974-1.479c-0.652-0.162-1.316,0.242-1.483,0.901
			c-0.145,0.574,0.134,1.153,0.639,1.399c0.076,0.037,0.156,0.066,0.24,0.087l6.728,1.666c0.52,2.378,2.078,4.455,4.327,5.553
			c0.393,0.192,0.808,0.355,1.242,0.483l45.094,13.373c4.289,1.271,8.841-1.221,10.146-5.558l0.156-0.518
			C85.291,46.638,85.074,44.425,84.05,42.5z M82.329,48.04l-0.156,0.518c-0.914,3.036-4.1,4.782-7.104,3.891L29.975,39.076
			c-1.583-0.469-2.8-1.587-3.467-2.982l3.743,0.927c0.653,0.162,1.316-0.242,1.483-0.901c0.166-0.66-0.228-1.326-0.88-1.486
			l-4.904-1.214c0.017-0.486,0.089-0.977,0.236-1.464l0.156-0.518c0.914-3.036,4.1-4.781,7.104-3.891l9.587,2.843l0.355-1.179
			c0.622-2.065,2.001-3.77,3.885-4.802c1.884-1.032,4.046-1.266,6.088-0.661c0.418,0.124,0.82,0.28,1.206,0.469
			c0.712,0.348,1.368,0.804,1.959,1.365l0.693,0.657l0.805-0.53c2.855-1.878,6.347-2.406,9.581-1.447
			c2.941,0.871,5.36,2.851,6.807,5.572c1.448,2.72,1.751,5.857,0.856,8.831l-0.356,1.179l3.627,1.076
			c1.445,0.426,2.639,1.408,3.357,2.758C82.616,45.027,82.769,46.576,82.329,48.04z M67.78,27.943
			c-0.635-0.219-1.331,0.125-1.555,0.767c-0.223,0.643,0.106,1.339,0.745,1.56c1.259,0.433,2.273,1.339,2.851,2.549
			c0.578,1.209,0.651,2.578,0.207,3.853c-0.207,0.595,0.063,1.237,0.608,1.503c0.044,0.021,0.089,0.041,0.137,0.057
			c0.635,0.219,1.331-0.124,1.555-0.767c0.661-1.897,0.551-3.932-0.308-5.731C71.161,29.935,69.651,28.59,67.78,27.943z
			 M20.151,25.191c0.159-0.661-0.241-1.322-0.897-1.475l-8.096-1.898c-0.655-0.154-1.314,0.258-1.473,0.919
			c-0.137,0.571,0.143,1.141,0.644,1.385c0.079,0.039,0.164,0.069,0.254,0.09l8.096,1.898
			C19.333,26.263,19.992,25.851,20.151,25.191z"/>
	</g>
</g>
</svg>
