<?xml version="1.0" encoding="utf-8"?>
<!-- Generator: Adobe Illustrator 17.0.0, SVG Export Plug-In . SVG Version: 6.00 Build 0)  -->
<!DOCTYPE svg PUBLIC "-//W3C//DTD SVG 1.1//EN" "http://www.w3.org/Graphics/SVG/1.1/DTD/svg11.dtd">
<svg version="1.1" id="Layer_1" xmlns="http://www.w3.org/2000/svg" xmlns:xlink="http://www.w3.org/1999/xlink" x="0px" y="0px"
	 width="94.665px" height="76.099px" viewBox="0 0 94.665 76.099" enable-background="new 0 0 94.665 76.099" xml:space="preserve">
<path fill="#4B9643" d="M27.745,55.05c-0.591,0-1.184-0.109-1.754-0.328c-1.226-0.47-2.194-1.39-2.727-2.589
	c-0.533-1.199-0.57-2.538-0.103-3.772c0.468-1.234,1.381-2.209,2.571-2.746l9.253-4.173c-0.238-1.766,0.346-3.547,1.581-4.823
	c-0.069-0.135-0.133-0.27-0.193-0.405c-1.058-2.377-1.132-5.027-0.211-7.461c0.922-2.434,2.73-4.362,5.091-5.427
	c2.717-1.225,5.865-1.099,8.477,0.284c0.706-0.809,1.577-1.457,2.568-1.904c3.779-1.702,8.231,0.004,9.925,3.81
	c0.47,1.058,0.686,2.206,0.646,3.349l2.059-0.929c2.464-1.111,5.369,0.004,6.474,2.485c1.104,2.483-0.003,5.407-2.468,6.518
	L29.738,54.619C29.101,54.906,28.424,55.05,27.745,55.05z M45.212,25.031c-0.987,0-1.978,0.209-2.919,0.634
	c-1.742,0.785-3.075,2.206-3.755,4.002c-0.68,1.795-0.625,3.75,0.156,5.503c0.145,0.326,0.332,0.663,0.572,1.029
	c0.387,0.588,0.228,1.38-0.355,1.771c-1.229,0.825-1.742,2.379-1.249,3.78c0.222,0.629-0.073,1.324-0.678,1.597l-10.213,4.606
	c-0.571,0.257-1.009,0.726-1.234,1.321c-0.225,0.595-0.209,1.238,0.047,1.813v0c0.256,0.575,0.722,1.016,1.312,1.243
	c0.591,0.227,1.23,0.209,1.801-0.048l39.196-17.678c1.185-0.535,1.718-1.941,1.187-3.135c-0.532-1.194-1.931-1.728-3.113-1.195
	l-4.343,1.959c-0.478,0.215-1.036,0.114-1.41-0.254c-0.373-0.369-0.484-0.93-0.28-1.415c0.55-1.3,0.538-2.72-0.031-4
	c-1.12-2.517-4.067-3.647-6.564-2.52c-0.913,0.411-1.673,1.081-2.196,1.938c-0.184,0.301-0.483,0.511-0.827,0.583
	c-0.34,0.071-0.7-0.004-0.988-0.207C48.088,25.479,46.656,25.031,45.212,25.031z M53.292,35.869c-0.304,0-0.605-0.11-0.842-0.321
	c-0.375-0.334-0.521-0.858-0.373-1.34c0.102-0.328,0.339-0.63,0.643-0.786c0.305-0.157,0.667-0.212,0.992-0.103
	c0.496,0.166,0.871,0.632,0.897,1.158c0.027,0.526-0.238,1.025-0.715,1.242l-0.079,0.036C53.648,35.831,53.47,35.869,53.292,35.869z
	"/>
</svg>
