<?xml version="1.0" encoding="utf-8"?>
<!-- Generator: Adobe Illustrator 17.0.0, SVG Export Plug-In . SVG Version: 6.00 Build 0)  -->
<!DOCTYPE svg PUBLIC "-//W3C//DTD SVG 1.1//EN" "http://www.w3.org/Graphics/SVG/1.1/DTD/svg11.dtd">
<svg version="1.1" id="Layer_1" xmlns="http://www.w3.org/2000/svg" xmlns:xlink="http://www.w3.org/1999/xlink" x="0px" y="0px"
	 width="94.665px" height="76.099px" viewBox="0 0 94.665 76.099" enable-background="new 0 0 94.665 76.099" xml:space="preserve">
<g>
	<g>
		<path fill="#4C9744" d="M75.465,43.777c-0.011-2.216-1.192-4.252-3.061-5.361c-0.103-5.886-4.869-10.62-10.696-10.576
			c-1.368,0.01-2.692,0.28-3.949,0.805c-1.681-2.74-4.676-4.448-7.9-4.425c-3.408,0.024-6.501,1.942-8.096,4.951
			c-0.536-0.089-1.069-0.133-1.592-0.129c-2.567,0.018-4.975,1.049-6.782,2.902c-0.675,0.693-1.227,1.473-1.664,2.309l-3.161-0.118
			c-0.555-0.02-1.022,0.419-1.044,0.982c-0.021,0.551,0.393,1.015,0.93,1.054c0.012,0.001,0.024,0.002,0.036,0.002l2.453,0.092
			c-0.136,0.511-0.232,1.036-0.284,1.57l-6.174,0.045c-1.644,0.011-3.192,0.676-4.356,1.871c-1.164,1.195-1.799,2.771-1.792,4.438
			c0.008,1.668,0.66,3.235,1.837,4.412c1.058,1.059,2.421,1.686,3.881,1.792c0.164,0.012,0.328,0.017,0.493,0.016l44.772-0.323
			C72.725,50.063,75.483,47.232,75.465,43.777z M69.307,48.048L24.535,48.37c-1.109,0.005-2.155-0.426-2.949-1.221
			c-0.794-0.796-1.235-1.852-1.24-2.975s0.424-2.186,1.21-2.993c0.786-0.807,1.829-1.255,2.937-1.264l7.129-0.052
			c0.267-0.002,0.522-0.111,0.709-0.303c0.188-0.193,0.292-0.453,0.291-0.723c-0.004-0.863,0.138-1.702,0.402-2.497l3.844,0.144
			c0.555,0.02,1.022-0.419,1.044-0.982c0.021-0.563-0.386-1.036-0.966-1.057l-2.914-0.109c0.237-0.338,0.496-0.663,0.789-0.964
			c1.428-1.466,3.333-2.281,5.362-2.296c0.184-0.002,0.369,0.005,0.555,0.018c0.442,0.032,0.893,0.106,1.344,0.221
			c0.478,0.121,0.977-0.128,1.171-0.59c1.135-2.696,3.733-4.45,6.617-4.471c2.779-0.016,5.349,1.611,6.554,4.155
			c0.117,0.248,0.33,0.438,0.588,0.525c0.257,0.087,0.54,0.063,0.782-0.064c1.23-0.65,2.549-0.985,3.925-0.995
			c4.77-0.03,8.651,3.864,8.675,8.686c0,0.079-0.006,0.158-0.01,0.237l-0.01,0.183c-0.019,0.419,0.218,0.805,0.595,0.975
			c1.502,0.677,2.478,2.181,2.486,3.832C73.465,46.122,71.605,48.031,69.307,48.048z M60.824,33.725
			c-3.044,0.022-5.507,2.55-5.491,5.636c0.002,0.536,0.412,0.972,0.93,1.009c0.027,0.002,0.054,0.003,0.081,0.003
			c0.556-0.004,1.003-0.463,1-1.027c-0.005-0.95,0.356-1.846,1.015-2.523c0.66-0.677,1.539-1.053,2.476-1.06
			c0.556-0.004,1.003-0.463,1-1.027C61.832,34.173,61.369,33.717,60.824,33.725z"/>
	</g>
</g>
</svg>
