<?xml version="1.0" encoding="utf-8"?>
<!-- Generator: Adobe Illustrator 17.0.0, SVG Export Plug-In . SVG Version: 6.00 Build 0)  -->
<!DOCTYPE svg PUBLIC "-//W3C//DTD SVG 1.1//EN" "http://www.w3.org/Graphics/SVG/1.1/DTD/svg11.dtd">
<svg version="1.1" id="Layer_1" xmlns="http://www.w3.org/2000/svg" xmlns:xlink="http://www.w3.org/1999/xlink" x="0px" y="0px"
	 width="94.665px" height="76.099px" viewBox="0 0 94.665 76.099" enable-background="new 0 0 94.665 76.099" xml:space="preserve">
<path fill="#529843" d="M24.426,32.09c-0.364-0.466-0.642-1.001-0.82-1.585c-0.383-1.256-0.254-2.585,0.364-3.743
	c0.617-1.157,1.651-2.01,2.91-2.401c1.26-0.39,2.591-0.27,3.746,0.338l8.982,4.729c1.245-1.274,3.009-1.909,4.775-1.72
	c0.064-0.138,0.131-0.271,0.2-0.401c1.223-2.296,3.267-3.985,5.753-4.756c2.487-0.77,5.118-0.53,7.41,0.677
	c2.637,1.388,4.474,3.948,4.99,6.858c1.072,0.059,2.119,0.347,3.081,0.854c3.667,1.933,5.059,6.493,3.101,10.169
	c-0.545,1.021-1.317,1.898-2.243,2.569l1.999,1.052c2.392,1.26,3.299,4.235,2.023,6.633c-1.278,2.398-4.265,3.323-6.658,2.063
	L25.992,33.395C25.374,33.07,24.844,32.625,24.426,32.09z M58.839,27.397c-0.607-0.778-1.382-1.431-2.295-1.911
	c-1.691-0.89-3.631-1.067-5.465-0.499c-1.834,0.568-3.341,1.814-4.243,3.507c-0.168,0.315-0.318,0.669-0.459,1.084
	c-0.226,0.667-0.948,1.028-1.615,0.809c-1.407-0.462-2.948,0.09-3.749,1.34c-0.359,0.562-1.089,0.757-1.676,0.448l-9.914-5.219
	c-0.554-0.292-1.193-0.349-1.801-0.161c-0.607,0.188-1.105,0.597-1.401,1.153l0,0c-0.296,0.555-0.357,1.194-0.173,1.799
	c0.185,0.605,0.592,1.099,1.146,1.391l38.047,20.031c1.151,0.606,2.587,0.161,3.201-0.992c0.615-1.154,0.175-2.586-0.972-3.19
	l-4.216-2.22c-0.463-0.245-0.727-0.747-0.667-1.269c0.061-0.521,0.436-0.954,0.943-1.091c1.363-0.366,2.476-1.249,3.134-2.485
	c1.296-2.431,0.374-5.45-2.051-6.725c-0.886-0.467-1.882-0.654-2.878-0.54c-0.35,0.04-0.7-0.067-0.968-0.294
	c-0.265-0.224-0.428-0.554-0.444-0.906C60.254,29.94,59.727,28.535,58.839,27.397z M55.264,40.434
	c-0.187-0.239-0.285-0.545-0.265-0.861c0.032-0.501,0.356-0.938,0.827-1.118c0.321-0.122,0.705-0.12,1.015,0.023
	c0.312,0.144,0.577,0.396,0.691,0.719c0.174,0.493,0.037,1.075-0.361,1.42c-0.398,0.345-0.954,0.442-1.419,0.2l-0.077-0.04
	C55.512,40.692,55.373,40.574,55.264,40.434z"/>
</svg>
