<?xml version="1.0" encoding="utf-8"?>
<!-- Generator: Adobe Illustrator 17.0.0, SVG Export Plug-In . SVG Version: 6.00 Build 0)  -->
<!DOCTYPE svg PUBLIC "-//W3C//DTD SVG 1.1//EN" "http://www.w3.org/Graphics/SVG/1.1/DTD/svg11.dtd">
<svg version="1.1" id="Layer_1" xmlns="http://www.w3.org/2000/svg" xmlns:xlink="http://www.w3.org/1999/xlink" x="0px" y="0px"
	 width="94.665px" height="76.099px" viewBox="0 0 94.665 76.099" enable-background="new 0 0 94.665 76.099" xml:space="preserve">
<g>
	<g>
		<path fill="#65AA5B" d="M85.95,43.602c-0.004-1.557-0.632-3.025-1.769-4.132c-1.069-1.041-2.464-1.641-3.95-1.708
			c0-0.012,0-0.024,0-0.036c-0.004-1.552-0.626-3.011-1.753-4.109c-0.866-0.843-1.955-1.396-3.122-1.605
			c-0.154-3.231-1.52-6.248-3.88-8.548c-2.503-2.438-5.825-3.778-9.356-3.775c-3.531,0.002-6.847,1.35-9.337,3.791
			c-2.251,2.208-3.584,5.072-3.812,8.151c-0.61,0.102-1.199,0.29-1.754,0.562c-1.665-1.904-4.094-3.013-6.685-3.01
			c-2.343,0.002-4.545,0.895-6.197,2.517c-1.653,1.621-2.56,3.776-2.554,6.065c0,0.01,0,0.02,0,0.031l-20.876,0.018
			c-3.301,0.003-5.981,2.63-5.972,5.857c0.007,2.662,1.841,4.912,4.335,5.617c0.53,0.15,1.09,0.229,1.667,0.23l69.042-0.058
			C83.28,49.455,85.958,46.828,85.95,43.602z M79.972,47.312l-69.041,0.059c-2.092-0.001-3.795-1.659-3.801-3.702
			s1.691-3.706,3.781-3.708l23.338-0.02l-0.188-1.229c-0.056-0.364-0.083-0.666-0.083-0.947c-0.009-3.545,2.934-6.431,6.56-6.434
			c0.63,0,1.246,0.086,1.836,0.253c1.477,0.418,2.777,1.334,3.655,2.624l0.639,0.936l0.927-0.664
			c0.717-0.514,1.563-0.787,2.443-0.787l1.098-0.001l-0.002-1.073c-0.007-2.877,1.132-5.583,3.207-7.619
			c2.076-2.036,4.841-3.159,7.785-3.161c2.944-0.001,5.713,1.115,7.8,3.148c2.087,2.032,3.241,4.737,3.247,7.613
			c0,0.052-0.004,0.103-0.008,0.155c-0.004,0.069-0.01,0.138-0.011,0.208l0.03,1.067l1.091,0.039c1.003,0,1.945,0.38,2.655,1.071
			c0.71,0.692,1.102,1.611,1.105,2.591c0.001,0.276-0.034,0.563-0.104,0.855l-0.32,1.324l2.344-0.003
			c2.092-0.002,3.794,1.659,3.801,3.702C83.759,45.646,82.062,47.31,79.972,47.312z M62.395,25.777
			c-1.561,0.001-3.028,0.597-4.128,1.676c-1.101,1.08-1.706,2.515-1.701,4.041c0.001,0.489,0.336,0.901,0.793,1.031
			c0.097,0.028,0.2,0.042,0.307,0.042c0.607,0,1.097-0.482,1.095-1.074c-0.003-0.952,0.375-1.848,1.063-2.522
			c0.687-0.674,1.602-1.046,2.577-1.047c0.607,0,1.097-0.481,1.095-1.074C63.495,26.255,63.001,25.776,62.395,25.777z
			 M14.728,32.683c0.094,0.027,0.193,0.041,0.296,0.042l11.971,0.111c0.606,0.006,1.102-0.471,1.106-1.064
			c0.005-0.593-0.484-1.079-1.089-1.083l-11.971-0.111c-0.606-0.006-1.102,0.471-1.106,1.064
			C13.931,32.133,14.267,32.552,14.728,32.683z"/>
	</g>
</g>
</svg>
