<?xml version="1.0" encoding="utf-8"?>
<!-- Generator: Adobe Illustrator 17.0.0, SVG Export Plug-In . SVG Version: 6.00 Build 0)  -->
<!DOCTYPE svg PUBLIC "-//W3C//DTD SVG 1.1//EN" "http://www.w3.org/Graphics/SVG/1.1/DTD/svg11.dtd">
<svg version="1.1" id="Layer_1" xmlns="http://www.w3.org/2000/svg" xmlns:xlink="http://www.w3.org/1999/xlink" x="0px" y="0px"
	 width="94.665px" height="76.099px" viewBox="0 0 94.665 76.099" enable-background="new 0 0 94.665 76.099" xml:space="preserve">
<g>
	<g>
		<path fill="#529843" d="M85.692,30.931c-0.503-1.474-1.568-2.663-3-3.347c-1.346-0.644-2.86-0.765-4.289-0.352
			c-0.004-0.011-0.008-0.023-0.012-0.034c-0.501-1.469-1.558-2.652-2.977-3.33c-1.091-0.521-2.299-0.696-3.472-0.519
			c-1.182-3.011-3.442-5.431-6.415-6.853c-3.152-1.507-6.729-1.711-10.072-0.577c-3.344,1.134-6.053,3.473-7.629,6.584
			c-1.424,2.813-1.769,5.953-0.998,8.943c-0.545,0.292-1.043,0.659-1.481,1.094c-2.187-1.27-4.844-1.542-7.297-0.708
			c-2.219,0.753-4.018,2.305-5.063,4.37c-1.046,2.065-1.215,4.397-0.475,6.564c0.003,0.01,0.006,0.019,0.01,0.029l-19.769,6.709
			c-3.126,1.061-4.822,4.408-3.78,7.462c0.86,2.519,3.318,4.063,5.907,3.931c0.55-0.028,1.106-0.132,1.653-0.317l65.38-22.186
			C85.039,37.331,86.734,33.984,85.692,30.931z M81.219,36.361L15.84,58.547c-1.982,0.67-4.127-0.355-4.787-2.288
			c-0.66-1.933,0.414-4.053,2.393-4.724l22.1-7.5l-0.572-1.104c-0.17-0.327-0.292-0.604-0.382-0.871
			c-1.145-3.355,0.718-7.032,4.152-8.197c0.597-0.202,1.208-0.318,1.82-0.349c1.533-0.078,3.058,0.374,4.303,1.314l0.905,0.682
			l0.665-0.926c0.514-0.717,1.228-1.246,2.062-1.529l1.04-0.353l-0.346-1.016c-0.929-2.723-0.717-5.651,0.596-8.245
			c1.314-2.594,3.573-4.544,6.361-5.49c2.788-0.945,5.769-0.775,8.398,0.482c2.628,1.256,4.588,3.448,5.516,6.17
			c0.017,0.049,0.029,0.099,0.042,0.149c0.018,0.067,0.035,0.134,0.056,0.201l0.37,1.001l1.046-0.313
			c0.95-0.321,1.964-0.263,2.858,0.164c0.894,0.428,1.56,1.173,1.877,2.1c0.089,0.261,0.148,0.544,0.175,0.843l0.121,1.357
			l2.219-0.754c1.981-0.672,4.126,0.355,4.787,2.288C84.272,33.569,83.198,35.689,81.219,36.361z M57.666,21.596
			c-1.478,0.501-2.677,1.536-3.373,2.911c-0.697,1.376-0.81,2.929-0.316,4.373c0.158,0.463,0.607,0.746,1.082,0.722
			c0.101-0.005,0.203-0.024,0.304-0.059c0.575-0.195,0.885-0.808,0.693-1.368c-0.308-0.901-0.237-1.871,0.198-2.73
			c0.435-0.859,1.182-1.504,2.105-1.818c0.575-0.195,0.885-0.807,0.693-1.368C58.861,21.697,58.24,21.401,57.666,21.596z
			 M14.728,43.417c0.098-0.005,0.196-0.023,0.294-0.055l11.375-3.732c0.576-0.189,0.893-0.799,0.707-1.362
			c-0.185-0.563-0.804-0.867-1.379-0.677L14.35,41.323c-0.576,0.189-0.893,0.799-0.707,1.362
			C13.797,43.152,14.249,43.441,14.728,43.417z"/>
	</g>
</g>
</svg>
