<?xml version="1.0" encoding="utf-8"?>
<!-- Generator: Adobe Illustrator 17.0.0, SVG Export Plug-In . SVG Version: 6.00 Build 0)  -->
<!DOCTYPE svg PUBLIC "-//W3C//DTD SVG 1.1//EN" "http://www.w3.org/Graphics/SVG/1.1/DTD/svg11.dtd">
<svg version="1.1" id="Layer_1" xmlns="http://www.w3.org/2000/svg" xmlns:xlink="http://www.w3.org/1999/xlink" x="0px" y="0px"
	 width="94.665px" height="76.099px" viewBox="0 0 94.665 76.099" enable-background="new 0 0 94.665 76.099" xml:space="preserve">
<path fill="#65AA5B" d="M56.253,48.372c-0.162,0.013-0.327,0.02-0.493,0.022l-16.178,0.148c-1.847,0.016-3.592-0.685-4.915-1.978
	c-1.324-1.292-2.061-3.015-2.076-4.85c-0.016-1.835,0.693-3.57,1.995-4.887c1.135-1.149,2.6-1.855,4.18-2.027
	c0.228-1.932,1.088-3.726,2.483-5.136c1.66-1.679,3.884-2.616,6.243-2.636c2.367-0.022,4.6,0.874,6.286,2.522
	c1.418,1.385,2.308,3.162,2.568,5.09c3.498,0.318,6.26,3.235,6.29,6.8C62.665,45.073,59.844,48.085,56.253,48.372z M39.157,37.07
	c-1.105,0.088-2.133,0.566-2.923,1.366c-0.869,0.88-1.343,2.036-1.332,3.257c0.01,1.221,0.502,2.369,1.387,3.231
	c0.883,0.863,2.046,1.332,3.274,1.321l16.178-0.148c2.564-0.027,4.606-2.104,4.585-4.637s-2.112-4.575-4.661-4.552l-0.386,0.004
	l-1.155,0.01l-0.01-1.148c-0.015-1.738-0.709-3.366-1.957-4.584c-1.247-1.218-2.897-1.88-4.645-1.865
	c-3.604,0.04-6.524,2.979-6.495,6.57l0.01,1.148l-1.541,0.014C39.375,37.057,39.265,37.061,39.157,37.07z"/>
</svg>
