<?xml version="1.0" encoding="utf-8"?>
<!-- Generator: Adobe Illustrator 17.0.0, SVG Export Plug-In . SVG Version: 6.00 Build 0)  -->
<!DOCTYPE svg PUBLIC "-//W3C//DTD SVG 1.1//EN" "http://www.w3.org/Graphics/SVG/1.1/DTD/svg11.dtd">
<svg version="1.1" id="Layer_1" xmlns="http://www.w3.org/2000/svg" xmlns:xlink="http://www.w3.org/1999/xlink" x="0px" y="0px"
	 width="94.665px" height="76.099px" viewBox="0 0 94.665 76.099" enable-background="new 0 0 94.665 76.099" xml:space="preserve">
<g>
	<g>
		<path fill="#4B9643" d="M68.465,31.864c-0.56-1.538-1.696-2.77-3.198-3.469c-1.502-0.699-3.184-0.779-4.736-0.223l-6.286,2.249
			c-2.127-4.33-7.266-6.47-11.94-4.798c-2.422,0.866-4.359,2.616-5.453,4.926c-0.947,1.999-1.165,4.21-0.64,6.324l-6.286,2.249
			c-3.214,1.15-4.885,4.677-3.725,7.863c0.911,2.499,3.298,4.057,5.837,4.057c0.697,0,1.405-0.117,2.098-0.365L64.74,39.727
			c1.552-0.555,2.794-1.681,3.5-3.17C68.946,35.069,69.025,33.402,68.465,31.864z M66.37,35.688
			c-0.471,0.994-1.299,1.744-2.331,2.114l-30.605,10.95c-2.146,0.767-4.517-0.338-5.29-2.461c-0.773-2.124,0.34-4.475,2.484-5.242
			l8.177-2.926l-0.35-0.963c-0.687-1.886-0.592-3.925,0.268-5.74c0.859-1.815,2.381-3.19,4.285-3.871
			c0.847-0.303,1.712-0.447,2.564-0.447c3.102,0,6.02,1.904,7.133,4.958l0.351,0.963l8.178-2.926
			c1.032-0.37,2.153-0.316,3.156,0.151c1.003,0.467,1.76,1.287,2.133,2.311C66.894,33.583,66.84,34.694,66.37,35.688z
			 M44.321,31.159c-1.905,0.681-2.894,2.772-2.207,4.66c0.152,0.417,0.549,0.677,0.972,0.677c0.116,0,0.235-0.02,0.351-0.061
			c0.536-0.192,0.814-0.779,0.621-1.311c-0.301-0.826,0.132-1.74,0.966-2.038c0.536-0.192,0.814-0.779,0.621-1.311
			C45.45,31.243,44.859,30.968,44.321,31.159z"/>
	</g>
</g>
</svg>
