<?xml version="1.0" encoding="utf-8"?>
<!-- Generator: Adobe Illustrator 17.0.0, SVG Export Plug-In . SVG Version: 6.00 Build 0)  -->
<!DOCTYPE svg PUBLIC "-//W3C//DTD SVG 1.1//EN" "http://www.w3.org/Graphics/SVG/1.1/DTD/svg11.dtd">
<svg version="1.1" id="Layer_1" xmlns="http://www.w3.org/2000/svg" xmlns:xlink="http://www.w3.org/1999/xlink" x="0px" y="0px"
	 width="94.665px" height="76.099px" viewBox="0 0 94.665 76.099" enable-background="new 0 0 94.665 76.099" xml:space="preserve">
<path fill="#65AA5B" d="M24.304,43.517c-0.54-0.241-1.036-0.584-1.467-1.016c-0.927-0.93-1.436-2.165-1.432-3.477
	c0.003-1.311,0.517-2.549,1.446-3.485c0.93-0.935,2.162-1.453,3.468-1.457l10.151-0.031c0.503-1.709,1.764-3.096,3.413-3.757
	c-0.008-0.152-0.011-0.301-0.011-0.448c0.005-2.601,1.019-5.051,2.854-6.897c1.836-1.846,4.273-2.866,6.863-2.874
	c2.98-0.009,5.802,1.392,7.622,3.721c0.975-0.45,2.035-0.686,3.122-0.689c4.145-0.01,7.512,3.366,7.504,7.531
	c-0.003,1.157-0.274,2.294-0.778,3.321l2.259-0.007c2.704-0.008,4.899,2.196,4.895,4.912c-0.005,2.717-2.211,4.934-4.915,4.942
	L26.3,43.936C25.601,43.939,24.924,43.794,24.304,43.517z M52.507,23.247c-0.901-0.403-1.891-0.617-2.923-0.613
	c-1.911,0.006-3.708,0.759-5.062,2.12c-1.354,1.361-2.102,3.168-2.105,5.086c-0.001,0.357,0.033,0.74,0.102,1.173
	c0.113,0.695-0.356,1.352-1.048,1.471c-1.459,0.251-2.562,1.461-2.684,2.94c-0.054,0.665-0.607,1.179-1.271,1.181L26.313,36.64
	c-0.626,0.002-1.217,0.251-1.667,0.702c-0.448,0.45-0.696,1.045-0.697,1.675l0,0c-0.001,0.629,0.244,1.222,0.69,1.67
	c0.447,0.448,1.038,0.694,1.664,0.692l42.998-0.13c1.301-0.004,2.361-1.07,2.363-2.376c0.003-1.308-1.057-2.367-2.353-2.363
	l-4.765,0.014c-0.524,0-0.992-0.319-1.184-0.809c-0.19-0.489-0.062-1.047,0.322-1.406c1.033-0.962,1.602-2.264,1.604-3.664
	c0.006-2.755-2.223-4.99-4.963-4.98c-1.002,0.003-1.969,0.304-2.796,0.871c-0.29,0.199-0.65,0.269-0.993,0.194
	c-0.339-0.074-0.638-0.289-0.817-0.592C54.949,24.831,53.825,23.837,52.507,23.247z M55.457,36.44
	c-0.277-0.124-0.507-0.348-0.638-0.636c-0.206-0.458-0.125-0.995,0.207-1.375c0.226-0.258,0.567-0.436,0.907-0.455
	c0.343-0.019,0.695,0.079,0.947,0.311c0.385,0.354,0.536,0.932,0.346,1.424c-0.19,0.491-0.636,0.837-1.16,0.842l-0.087,0.001
	C55.797,36.551,55.619,36.512,55.457,36.44z"/>
</svg>
