<?xml version="1.0" encoding="utf-8"?>
<!-- Generator: Adobe Illustrator 17.0.0, SVG Export Plug-In . SVG Version: 6.00 Build 0)  -->
<!DOCTYPE svg PUBLIC "-//W3C//DTD SVG 1.1//EN" "http://www.w3.org/Graphics/SVG/1.1/DTD/svg11.dtd">
<svg version="1.1" id="Layer_1" xmlns="http://www.w3.org/2000/svg" xmlns:xlink="http://www.w3.org/1999/xlink" x="0px" y="0px"
	 width="94.665px" height="76.099px" viewBox="0 0 94.665 76.099" enable-background="new 0 0 94.665 76.099" xml:space="preserve">
<g>
	<g>
		<path fill="#4B9643" d="M69.315,39.305c-0.012-1.637-0.669-3.178-1.85-4.34s-2.739-1.801-4.387-1.798l-6.676,0.012
			c-0.552-4.792-4.677-8.531-9.641-8.523c-2.572,0.004-4.984,1.003-6.789,2.813c-1.562,1.566-2.509,3.576-2.723,5.744l-6.676,0.012
			c-3.414,0.006-6.17,2.769-6.145,6.159c0.021,2.66,1.747,4.928,4.139,5.779c0.657,0.234,1.363,0.361,2.099,0.359l32.504-0.058
			c1.648-0.003,3.196-0.647,4.36-1.813C68.694,42.486,69.327,40.942,69.315,39.305z M66.06,42.206
			c-0.777,0.779-1.808,1.208-2.905,1.21L30.65,43.474c-2.279,0.003-4.142-1.833-4.159-4.092c-0.016-2.26,1.82-4.102,4.097-4.106
			l8.685-0.016l-0.007-1.025c-0.015-2.007,0.758-3.896,2.177-5.318c1.418-1.422,3.313-2.207,5.335-2.211
			c0.9-0.002,1.763,0.153,2.565,0.438c2.923,1.04,5.033,3.812,5.058,7.062l0.008,1.025l8.686-0.015
			c1.096-0.003,2.134,0.424,2.923,1.2c0.788,0.776,1.227,1.803,1.235,2.892C67.259,40.398,66.836,41.427,66.06,42.206z
			 M46.805,30.548c-2.023,0.003-3.656,1.642-3.641,3.651c0.003,0.444,0.29,0.822,0.689,0.964c0.109,0.039,0.228,0.06,0.351,0.06
			c0.569-0.001,1.028-0.461,1.025-1.027c-0.007-0.879,0.708-1.595,1.593-1.596c0.569-0.001,1.028-0.461,1.025-1.027
			C47.84,31.005,47.376,30.548,46.805,30.548z"/>
	</g>
</g>
</svg>
