<?xml version="1.0" encoding="utf-8"?>
<!-- Generator: Adobe Illustrator 17.0.0, SVG Export Plug-In . SVG Version: 6.00 Build 0)  -->
<!DOCTYPE svg PUBLIC "-//W3C//DTD SVG 1.1//EN" "http://www.w3.org/Graphics/SVG/1.1/DTD/svg11.dtd">
<svg version="1.1" id="Layer_1" xmlns="http://www.w3.org/2000/svg" xmlns:xlink="http://www.w3.org/1999/xlink" x="0px" y="0px"
	 width="94.665px" height="76.099px" viewBox="0 0 94.665 76.099" enable-background="new 0 0 94.665 76.099" xml:space="preserve">
<path fill="#4B9643" d="M22.487,45.492c-0.539-0.243-1.034-0.586-1.464-1.02c-0.924-0.933-1.428-2.169-1.421-3.481
	c0.007-1.312,0.524-2.548,1.457-3.481c0.934-0.932,2.167-1.446,3.473-1.446l10.15,0.001c0.509-1.708,1.774-3.091,3.424-3.746
	c-0.007-0.151-0.01-0.301-0.009-0.449c0.013-2.602,1.035-5.048,2.875-6.888c1.841-1.84,4.282-2.854,6.872-2.854
	c2.98,0.001,5.798,1.41,7.61,3.744c0.976-0.447,2.037-0.68,3.124-0.68c4.145,0.002,7.501,3.388,7.481,7.554
	c-0.007,1.158-0.282,2.293-0.788,3.318l2.259,0c2.703,0,4.893,2.211,4.88,4.927c-0.015,2.717-2.226,4.928-4.93,4.927l-42.999,0
	C23.782,45.919,23.106,45.772,22.487,45.492z M50.752,25.31c-0.9-0.406-1.889-0.623-2.922-0.622
	c-1.911-0.001-3.71,0.747-5.068,2.104c-1.358,1.357-2.112,3.161-2.12,5.08c-0.002,0.357,0.03,0.741,0.098,1.173
	c0.111,0.695-0.36,1.352-1.052,1.468c-1.46,0.247-2.566,1.452-2.693,2.932c-0.056,0.665-0.611,1.177-1.275,1.177l-11.204-0.001
	c-0.626-0.001-1.218,0.247-1.668,0.697c-0.45,0.45-0.7,1.043-0.703,1.672l0,0c-0.003,0.629,0.24,1.223,0.685,1.673
	c0.445,0.45,1.035,0.696,1.661,0.697l42.998,0.002c1.3,0,2.364-1.063,2.371-2.37c0.006-1.307-1.05-2.369-2.346-2.369l-4.764,0
	c-0.524-0.001-0.991-0.322-1.181-0.811c-0.188-0.49-0.059-1.047,0.327-1.405c1.036-0.959,1.609-2.258,1.616-3.659
	c0.014-2.755-2.208-4.997-4.947-4.996c-1.001-0.001-1.97,0.297-2.799,0.864c-0.291,0.199-0.65,0.267-0.994,0.191
	c-0.339-0.075-0.636-0.291-0.816-0.595C53.189,26.901,52.068,25.904,50.752,25.31z M53.661,38.512
	c-0.277-0.125-0.506-0.349-0.636-0.639c-0.205-0.459-0.122-0.996,0.211-1.375c0.228-0.257,0.568-0.435,0.909-0.452
	c0.343-0.018,0.695,0.081,0.947,0.314c0.384,0.355,0.534,0.934,0.342,1.424c-0.192,0.491-0.638,0.836-1.162,0.838l-0.087,0
	C54.001,38.624,53.823,38.585,53.661,38.512z"/>
</svg>
