<?xml version="1.0" encoding="utf-8"?>
<!-- Generator: Adobe Illustrator 17.0.0, SVG Export Plug-In . SVG Version: 6.00 Build 0)  -->
<!DOCTYPE svg PUBLIC "-//W3C//DTD SVG 1.1//EN" "http://www.w3.org/Graphics/SVG/1.1/DTD/svg11.dtd">
<svg version="1.1" id="Layer_1" xmlns="http://www.w3.org/2000/svg" xmlns:xlink="http://www.w3.org/1999/xlink" x="0px" y="0px"
	 width="94.665px" height="76.099px" viewBox="0 0 94.665 76.099" enable-background="new 0 0 94.665 76.099" xml:space="preserve">
<g>
	<g>
		<path fill="#4C9744" d="M75.807,41.716c-0.172-2.209-1.498-4.154-3.443-5.124c-0.531-5.863-5.629-10.238-11.437-9.77
			c-1.364,0.109-2.665,0.475-3.88,1.09c-1.876-2.61-4.987-4.096-8.201-3.839c-3.397,0.272-6.343,2.41-7.714,5.527
			c-0.541-0.05-1.076-0.055-1.597-0.013c-2.559,0.205-4.886,1.408-6.553,3.388c-0.623,0.74-1.117,1.558-1.492,2.424l-3.161,0.112
			c-0.555,0.02-0.989,0.492-0.97,1.055c0.019,0.551,0.466,0.984,1.004,0.984c0.012,0,0.024,0,0.036-0.001l2.453-0.087
			c-0.098,0.52-0.156,1.05-0.169,1.586l-6.154,0.494c-1.639,0.131-3.134,0.906-4.208,2.183c-1.074,1.276-1.593,2.895-1.464,4.557
			c0.129,1.663,0.894,3.178,2.153,4.267c1.132,0.979,2.537,1.505,4.001,1.505c0.164,0,0.328-0.007,0.493-0.02l44.63-3.578
			C73.531,48.184,76.076,45.16,75.807,41.716z M69.976,46.423l-44.63,3.578c-1.106,0.086-2.18-0.268-3.03-1.003
			c-0.85-0.736-1.366-1.757-1.453-2.877c-0.087-1.12,0.264-2.211,0.989-3.073c0.725-0.862,1.733-1.385,2.837-1.474l7.106-0.57
			c0.266-0.021,0.513-0.149,0.685-0.354c0.173-0.206,0.258-0.473,0.238-0.742c-0.067-0.86,0.014-1.708,0.219-2.52l3.844-0.136
			c0.555-0.02,0.989-0.492,0.97-1.055c-0.02-0.563-0.46-1.005-1.04-0.984l-2.914,0.103c0.212-0.354,0.446-0.697,0.717-1.019
			c1.318-1.566,3.158-2.517,5.181-2.68c0.183-0.015,0.368-0.022,0.555-0.022c0.443,0,0.898,0.041,1.357,0.123
			c0.486,0.086,0.965-0.199,1.125-0.674c0.936-2.771,3.399-4.71,6.274-4.94c2.77-0.218,5.452,1.218,6.839,3.667
			c0.135,0.239,0.361,0.413,0.625,0.481c0.263,0.068,0.543,0.024,0.775-0.121c1.179-0.738,2.471-1.168,3.842-1.278
			c4.755-0.377,8.909,3.225,9.284,8.032c0.006,0.079,0.006,0.158,0.007,0.237l0.003,0.183c0.012,0.419,0.276,0.787,0.664,0.929
			c1.547,0.566,2.63,1.995,2.758,3.641C73.983,44.2,72.267,46.239,69.976,46.423z M60.474,32.755
			c-3.034,0.243-5.307,2.944-5.067,6.02c0.041,0.534,0.482,0.939,1.001,0.939c0.027,0,0.054-0.001,0.081-0.003
			c0.554-0.044,0.967-0.535,0.923-1.097c-0.074-0.947,0.221-1.867,0.829-2.59c0.609-0.723,1.458-1.162,2.392-1.237
			c0.554-0.044,0.967-0.535,0.923-1.097C61.512,33.129,61.017,32.708,60.474,32.755z"/>
	</g>
</g>
</svg>
