<?xml version="1.0" encoding="utf-8"?>
<!-- Generator: Adobe Illustrator 17.0.0, SVG Export Plug-In . SVG Version: 6.00 Build 0)  -->
<!DOCTYPE svg PUBLIC "-//W3C//DTD SVG 1.1//EN" "http://www.w3.org/Graphics/SVG/1.1/DTD/svg11.dtd">
<svg version="1.1" id="Layer_1" xmlns="http://www.w3.org/2000/svg" xmlns:xlink="http://www.w3.org/1999/xlink" x="0px" y="0px"
	 width="94.665px" height="76.099px" viewBox="0 0 94.665 76.099" enable-background="new 0 0 94.665 76.099" xml:space="preserve">
<g>
	<g>
		<path fill="#65AA5B" d="M83.823,32.011c-1.524-1.561-3.553-2.424-5.712-2.433l-1.401-0.005c-0.255-3.3-1.635-6.37-3.958-8.749
			c-2.608-2.671-6.091-4.151-9.813-4.164c-3.781-0.014-7.385,1.526-10.025,4.252c-1.21-0.491-2.481-0.741-3.79-0.746
			c-2.78-0.011-5.403,1.076-7.384,3.059c-1.689,1.69-2.74,3.861-3.027,6.208l-7.637-0.028c-4.474-0.017-8.142,3.654-8.177,8.183
			l-0.004,0.541c-0.004,0.542,0.048,1.071,0.143,1.585l-6.149,0.258c-0.671,0.028-1.195,0.602-1.17,1.281
			c0.022,0.592,0.452,1.069,1.006,1.163c0.083,0.014,0.168,0.02,0.255,0.016l6.925-0.29c1.167,2.136,3.245,3.692,5.712,4.115
			c0.431,0.074,0.875,0.114,1.328,0.115l47.035,0.173c4.473,0.016,8.142-3.654,8.177-8.183l0.004-0.541
			C86.175,35.634,85.346,33.571,83.823,32.011z M83.726,37.811l-0.004,0.541c-0.025,3.171-2.592,5.741-5.726,5.729l-47.035-0.173
			c-1.651-0.006-3.133-0.737-4.165-1.889l3.853-0.161c0.672-0.028,1.195-0.602,1.17-1.281c-0.026-0.68-0.591-1.209-1.262-1.179
			L25.51,39.61c-0.12-0.471-0.189-0.963-0.185-1.471l0.004-0.541c0.025-3.171,2.593-5.74,5.726-5.729l10,0.037l0.01-1.231
			c0.017-2.157,0.862-4.18,2.38-5.7c1.518-1.519,3.528-2.351,5.657-2.344c0.436,0.002,0.866,0.038,1.289,0.111
			c0.781,0.134,1.539,0.388,2.263,0.76l0.85,0.436l0.624-0.735c2.213-2.604,5.416-4.091,8.789-4.079
			c3.067,0.01,5.945,1.231,8.098,3.436c2.153,2.204,3.325,5.13,3.301,8.235l-0.011,1.232l3.783,0.014
			c1.506,0.003,2.928,0.61,3.996,1.704C83.156,34.839,83.738,36.283,83.726,37.811z M64.12,22.608
			c-0.671-0.032-1.242,0.494-1.277,1.173c-0.033,0.68,0.478,1.255,1.153,1.288c1.33,0.062,2.558,0.647,3.452,1.646
			c0.894,0.998,1.349,2.291,1.281,3.64c-0.032,0.629,0.408,1.17,1.006,1.272c0.048,0.008,0.097,0.014,0.147,0.016
			c0.671,0.032,1.243-0.493,1.277-1.173c0.102-2.006-0.575-3.929-1.905-5.414S66.097,22.704,64.12,22.608z M17.634,33.341
			c-0.033-0.679-0.603-1.201-1.275-1.164l-8.303,0.452c-0.672,0.036-1.189,0.617-1.156,1.296c0.029,0.586,0.458,1.055,1.007,1.148
			c0.087,0.015,0.177,0.02,0.269,0.015l8.303-0.452C17.15,34.599,17.667,34.019,17.634,33.341z"/>
	</g>
</g>
</svg>
