<?xml version="1.0" encoding="utf-8"?>
<!-- Generator: Adobe Illustrator 17.0.0, SVG Export Plug-In . SVG Version: 6.00 Build 0)  -->
<!DOCTYPE svg PUBLIC "-//W3C//DTD SVG 1.1//EN" "http://www.w3.org/Graphics/SVG/1.1/DTD/svg11.dtd">
<svg version="1.1" id="Layer_1" xmlns="http://www.w3.org/2000/svg" xmlns:xlink="http://www.w3.org/1999/xlink" x="0px" y="0px"
	 width="146px" height="133px" viewBox="0 0 146 133" enable-background="new 0 0 146 133" xml:space="preserve">
<g>
	<path fill="#FFFFFF" d="M113.558,54.693h-13.037V32.914c0-5.742-4.671-10.413-10.412-10.413H66.03
		c-5.742,0-10.413,4.671-10.413,10.413v19.751H33.841c-5.742,0-10.413,4.671-10.413,10.413v12.167
		c0,5.742,4.671,10.413,10.413,10.413h25.853c4.173,0,7.938-2.523,9.571-6.337h6.63v22.164c0,4.971,4.044,9.014,9.014,9.014h28.649
		c4.97,0,9.014-4.044,9.014-9.014V63.707C122.572,58.737,118.528,54.693,113.558,54.693z M59.694,83.083H33.841
		c-4.321,0-7.837-3.516-7.837-7.837V63.078c0-4.321,3.516-7.837,7.837-7.837h21.777v13.668c0,5.741,4.671,10.413,10.413,10.413
		h0.344C64.966,81.619,62.448,83.083,59.694,83.083z M75.895,76.745H66.03c-4.321,0-7.837-3.516-7.837-7.837V32.914
		c0-4.322,3.516-7.837,7.837-7.837h24.078c4.321,0,7.837,3.516,7.837,7.837v21.779H84.909c-4.97,0-9.014,4.044-9.014,9.014V76.745z
		 M119.996,101.485c0,3.55-2.888,6.439-6.438,6.439H84.909c-3.55,0-6.438-2.888-6.438-6.439V63.707c0-3.55,2.888-6.439,6.438-6.439
		h28.649c3.55,0,6.438,2.888,6.438,6.439V101.485z M53.02,97.044c0,0.711,0.577,1.288,1.288,1.288h5.383l-9.588,9.589
		c-0.503,0.503-0.503,1.318,0,1.821c0.251,0.252,0.581,0.377,0.91,0.377s0.659-0.126,0.91-0.377l9.588-9.589v5.51
		c0,0.711,0.577,1.288,1.288,1.288s1.288-0.577,1.288-1.288v-9.906h-9.779C53.596,95.757,53.02,96.333,53.02,97.044z M68.818,36.42
		H87.7c0.711,0,1.288-0.577,1.288-1.288s-0.576-1.288-1.288-1.288H68.818c-0.711,0-1.288,0.577-1.288,1.288
		S68.107,36.42,68.818,36.42z M68.818,42.503H87.7c0.711,0,1.288-0.577,1.288-1.288s-0.576-1.288-1.288-1.288H68.818
		c-0.711,0-1.288,0.577-1.288,1.288C67.531,41.927,68.107,42.503,68.818,42.503z M88.988,47.299c0-0.711-0.576-1.288-1.288-1.288
		H68.818c-0.711,0-1.288,0.577-1.288,1.288s0.577,1.288,1.288,1.288H87.7C88.412,48.587,88.988,48.01,88.988,47.299z
		 M108.674,93.856H89.792c-0.711,0-1.288,0.577-1.288,1.288s0.577,1.288,1.288,1.288h18.883c0.711,0,1.288-0.577,1.288-1.288
		C109.962,94.432,109.386,93.856,108.674,93.856z M108.674,99.939H89.792c-0.711,0-1.288,0.577-1.288,1.288s0.577,1.288,1.288,1.288
		h18.883c0.711,0,1.288-0.577,1.288-1.288S109.386,99.939,108.674,99.939z M105.069,63.913H93.398c-3.729,0-6.763,3.034-6.763,6.763
		v11.672c0,3.729,3.034,6.763,6.763,6.763h11.671c3.729,0,6.763-3.034,6.763-6.763V70.677
		C111.831,66.947,108.798,63.913,105.069,63.913z M103.958,86.536h-9.121v-3.829c0-1.363,0.686-2.636,1.786-3.415
		c0.88,0.528,1.905,0.837,3.003,0.837c0.992,0,1.926-0.25,2.746-0.686c0.989,0.79,1.586,1.982,1.586,3.265V86.536z M96.338,74.264
		c0-1.813,1.475-3.289,3.288-3.289s3.289,1.476,3.289,3.289c0,1.046-0.5,1.968-1.263,2.571c-0.062,0.042-0.121,0.091-0.175,0.145
		c-0.528,0.361-1.165,0.574-1.851,0.574C97.813,77.554,96.338,76.078,96.338,74.264z M109.256,82.349
		c0,1.793-1.135,3.322-2.723,3.918v-3.559c0-1.913-0.817-3.701-2.194-4.968c0.72-0.974,1.151-2.174,1.151-3.475
		c0-3.234-2.631-5.865-5.864-5.865s-5.864,2.631-5.864,5.865c0,1.196,0.361,2.308,0.978,3.236c-1.536,1.271-2.479,3.174-2.479,5.207
		v3.668c-1.758-0.497-3.051-2.112-3.051-4.027V70.677c0-2.309,1.879-4.188,4.187-4.188h11.671c2.309,0,4.188,1.878,4.188,4.188
		V82.349z M35.362,62.146c-0.805,0-1.457,0.653-1.457,1.458c0,0.805,0.652,1.458,1.457,1.458s1.457-0.652,1.457-1.458
		C36.819,62.799,36.167,62.146,35.362,62.146z M114.714,61.395c-0.805,0-1.457,0.653-1.457,1.457c0,0.805,0.652,1.458,1.457,1.458
		s1.457-0.653,1.457-1.458C116.172,62.048,115.519,61.395,114.714,61.395z M35.362,67.469c-0.805,0-1.457,0.653-1.457,1.458
		s0.652,1.458,1.457,1.458s1.457-0.653,1.457-1.458S36.167,67.469,35.362,67.469z M35.362,72.792c-0.805,0-1.457,0.653-1.457,1.458
		s0.652,1.458,1.457,1.458s1.457-0.653,1.457-1.458S36.167,72.792,35.362,72.792z"/>
</g>
</svg>
