<?xml version="1.0" encoding="utf-8"?>
<!-- Generator: Adobe Illustrator 17.0.0, SVG Export Plug-In . SVG Version: 6.00 Build 0)  -->
<!DOCTYPE svg PUBLIC "-//W3C//DTD SVG 1.1//EN" "http://www.w3.org/Graphics/SVG/1.1/DTD/svg11.dtd">
<svg version="1.1" id="Layer_1" xmlns="http://www.w3.org/2000/svg" xmlns:xlink="http://www.w3.org/1999/xlink" x="0px" y="0px"
	 width="146px" height="133px" viewBox="0 0 146 133" enable-background="new 0 0 146 133" xml:space="preserve">
<g>
	<path fill="none" d="M111.739,32.055c-2.275-2.259-5.644-3.12-9.483-2.428c-3.679,0.664-7.381,2.694-10.428,5.716
		c-5.916,5.869-7.624,13.872-4.242,18.638L72.935,68.517L60.49,56.17c2.971-4.072,1.665-10.831-3.251-15.707L46.205,29.516
		c-0.468-0.464-1.226-0.464-1.694,0c-0.468,0.464-0.468,1.216,0,1.68l11.035,10.947c3.875,3.844,5.166,9.157,3.214,12.311
		L39.914,35.758c-0.468-0.464-1.226-0.464-1.694,0c-0.468,0.464-0.468,1.216,0,1.68l18.846,18.696
		c-3.179,1.936-8.535,0.656-12.409-3.189L33.623,41.999c-0.468-0.464-1.226-0.464-1.694,0c-0.468,0.464-0.468,1.216,0,1.68
		l11.035,10.947c3.161,3.137,7.11,4.795,10.618,4.795c1.945,0,3.749-0.52,5.214-1.571l12.446,12.347l-14.021,13.91l-0.382,0.151
		c-1.73,0.683-16.94,6.865-18.317,13.49c-0.245,1.179-0.172,2.946,1.567,4.671c1.073,1.065,2.309,1.611,3.619,1.611
		c0.319,0,0.644-0.032,0.971-0.098c5.993-1.2,11.767-13.606,13.35-17.266l14.906-14.788l14.616,14.5
		c1.2,2.906,7.116,16.485,13.437,17.778c0.299,0.061,0.635,0.102,0.998,0.102c1.082,0,2.408-0.365,3.71-1.657
		c1.335-1.324,1.862-2.899,1.525-4.554c-1.328-6.526-16.258-12.788-18.209-13.58l-14.384-14.27l14.59-14.475
		c1.71,1.354,3.891,2.009,6.267,2.009c4.216,0,9.045-2.06,12.939-5.922c3.046-3.022,5.092-6.696,5.762-10.345
		C114.885,37.655,114.016,34.314,111.739,32.055z M52.148,93.006c-2.966,5.112-5.787,8.164-7.943,8.596
		c-0.885,0.176-1.651-0.099-2.423-0.864c-0.812-0.806-1.103-1.604-0.915-2.511c0.447-2.151,3.526-4.931,8.671-7.828
		c1.958-1.103,3.897-2.043,5.396-2.728C54.234,89.152,53.273,91.067,52.148,93.006z M96.208,90.636
		c5.153,2.943,8.23,5.741,8.665,7.881c0.178,0.874-0.099,1.637-0.871,2.403c-0.812,0.805-1.619,1.094-2.53,0.907
		c-2.168-0.443-4.971-3.498-7.891-8.603c-1.112-1.943-2.06-3.866-2.75-5.353C92.324,88.567,94.254,89.52,96.208,90.636z
		 M111.83,41.038c-0.583,3.178-2.394,6.406-5.099,9.09c-5.468,5.426-12.88,6.9-16.524,3.288c-3.642-3.613-2.154-10.966,3.315-16.393
		c2.705-2.684,5.959-4.48,9.163-5.058c0.717-0.13,1.411-0.193,2.075-0.193c2.15,0,3.984,0.672,5.286,1.964
		C111.75,35.426,112.384,38.02,111.83,41.038z M82.988,101.79c-0.204-0.624-0.88-0.965-1.508-0.764l-3.327,1.07
		c1.641-3.593,1.049-9.524-3.383-15.12l-1.74-2.197l-1.273,9.083l-2.691-2.504l-0.762,1.272c-0.128,0.213-3.104,5.256-1.651,9.126
		c0.048,0.127,0.107,0.245,0.162,0.366l-3.41-1.096c-0.628-0.201-1.305,0.14-1.508,0.764c-0.204,0.624,0.141,1.294,0.77,1.497
		l5.89,1.894l-5.89,1.894c-0.629,0.202-0.974,0.872-0.77,1.497c0.164,0.502,0.634,0.822,1.139,0.822
		c0.122,0,0.247-0.019,0.369-0.058l9.037-2.906l9.037,2.906c0.122,0.039,0.247,0.058,0.369,0.058c0.505,0,0.975-0.32,1.139-0.822
		c0.204-0.624-0.141-1.294-0.77-1.497l-5.89-1.894l5.89-1.894C82.847,103.085,83.192,102.414,82.988,101.79z M75.543,101.885
		c-0.953,1.343-2.4,1.741-4.184,1.151c-1.281-0.424-2.086-1.112-2.46-2.105c-0.648-1.719,0.078-4.124,0.785-5.739l3.808,3.544
		l1.091-7.782C77.108,95.408,77.084,99.713,75.543,101.885z M67.326,37.325v3.221c-0.055,0.022-0.097,0.039-0.109,0.044
		c-0.609,0.255-0.895,0.952-0.638,1.556c0.193,0.454,0.637,0.727,1.104,0.727c0.155,0,0.313-0.03,0.465-0.094
		c0.03-0.013,3.116-1.289,6.094-1.289c3.274,0,6.023,1.257,6.049,1.269c0.6,0.279,1.312,0.026,1.594-0.568
		c0.282-0.594,0.026-1.301-0.572-1.582c-0.028-0.013-0.198-0.091-0.475-0.201v-2.778c2.107-0.762,3.619-2.763,3.619-5.114
		c0-2.864-2.241-5.213-5.075-5.425c-0.796-2.036-2.786-3.486-5.116-3.486c-2.344,0-4.345,1.468-5.13,3.524
		c-2.666,0.371-4.725,2.642-4.725,5.387C64.41,34.598,65.593,36.408,67.326,37.325z M68.815,29.653
		c0.082,0.731,0.307,1.443,0.673,2.084c0.22,0.386,0.626,0.602,1.043,0.602c0.2,0,0.403-0.05,0.589-0.155
		c0.575-0.323,0.777-1.049,0.451-1.62c-0.262-0.458-0.401-0.981-0.401-1.511c0-1.693,1.388-3.07,3.095-3.07
		c1.706,0,3.095,1.377,3.095,3.07c0,0.454-0.097,0.891-0.289,1.297c-0.28,0.594-0.022,1.302,0.577,1.579
		c0.599,0.277,1.312,0.022,1.592-0.573c0.27-0.573,0.43-1.178,0.487-1.804c1.337,0.339,2.332,1.534,2.332,2.964
		c0,1.693-1.388,3.07-3.095,3.07c-0.661,0-1.198,0.532-1.198,1.188c0,0.467,0.278,0.862,0.674,1.056v1.816
		c-1.175-0.29-2.625-0.534-4.201-0.534c-1.629,0-3.246,0.315-4.521,0.654v-1.813c0.06,0.002,0.119,0.009,0.179,0.009
		c0.661,0,1.198-0.532,1.198-1.188s-0.536-1.188-1.198-1.188c-1.706,0-3.094-1.377-3.094-3.07
		C66.806,31.205,67.645,30.091,68.815,29.653z"/>
</g>
</svg>
