<?xml version="1.0" encoding="utf-8"?>
<!-- Generator: Adobe Illustrator 17.0.0, SVG Export Plug-In . SVG Version: 6.00 Build 0)  -->
<!DOCTYPE svg PUBLIC "-//W3C//DTD SVG 1.1//EN" "http://www.w3.org/Graphics/SVG/1.1/DTD/svg11.dtd">
<svg version="1.1" id="Layer_1" xmlns="http://www.w3.org/2000/svg" xmlns:xlink="http://www.w3.org/1999/xlink" x="0px" y="0px"
	 width="146px" height="133px" viewBox="0 0 146 133" enable-background="new 0 0 146 133" xml:space="preserve">
<g>
	<g>
		<path fill="#FFFFFF" d="M73,65.04c-0.808,0-1.463,0.654-1.463,1.46s0.655,1.46,1.463,1.46c0.808,0,1.463-0.654,1.463-1.46
			S73.808,65.04,73,65.04z M65.11,70.419c-0.698-1.228-1.067-2.62-1.067-4.026c0-1.33,0.314-2.604,0.935-3.787l0.44-0.84
			l-11.796-11.77l0.06,7.235H42.827c-4.128,0-7.486,3.351-7.486,7.469v4.407c0,4.118,3.358,7.469,7.46,7.469l10.821,0.217
			l0.05,6.377l11.923-11.897L65.11,70.419z M56.209,76.991l-0.022-2.728l-13.36-0.267c-2.702,0-4.901-2.194-4.901-4.89V64.7
			c0-2.696,2.198-4.89,4.901-4.89h13.462l-0.03-3.535l6.02,6.007c-0.539,1.301-0.822,2.705-0.822,4.111
			c0,1.519,0.327,3.026,0.952,4.411L56.209,76.991z M76.812,74.228c-1.194,0.65-2.55,0.994-3.919,0.994
			c-1.278,0-2.513-0.294-3.669-0.873l-0.834-0.417L56.458,85.835l7.252-0.06v10.831c0,4.118,3.358,7.469,7.486,7.469h4.417
			c4.128,0,7.486-3.351,7.486-7.443l0.217-10.797l6.391-0.051L77.661,73.766L76.812,74.228z M80.781,83.276l-0.268,13.33
			c0,2.696-2.198,4.89-4.901,4.89h-4.417c-2.702,0-4.901-2.194-4.901-4.89V83.174l-3.543,0.029l6.176-6.162
			c2.627,1.047,5.647,0.995,8.239-0.121l6.348,6.333L80.781,83.276z M68.972,58.557c2.388-1.3,5.449-1.301,7.841,0l0.849,0.462
			l11.879-11.853l-7.25,0.06V36.394c0-4.118-3.358-7.469-7.486-7.469h-4.417c-4.128,0-7.486,3.351-7.486,7.443l-0.217,10.797
			l-6.392,0.051l11.83,11.802L68.972,58.557z M65.22,49.725l0.268-13.33c0-2.696,2.198-4.89,4.901-4.89h4.417
			c2.703,0,4.901,2.194,4.901,4.89v13.432l3.543-0.029l-6.081,6.067c-1.344-0.578-2.804-0.88-4.275-0.88s-2.932,0.302-4.275,0.88
			l-6.131-6.117L65.22,49.725z M103.187,56.425l-10.809-0.216l-0.051-6.377L80.366,61.766l0.44,0.84
			c0.621,1.183,0.935,2.457,0.935,3.787c0,1.329-0.314,2.603-0.935,3.786l-0.44,0.84l12.012,11.985l-0.059-7.234h10.855
			c4.128,0,7.486-3.351,7.486-7.469v-4.407C110.659,59.78,107.308,56.432,103.187,56.425z M108.074,68.301
			c0,2.696-2.198,4.89-4.901,4.89H89.712l0.029,3.535l-6.236-6.222c0.54-1.301,0.822-2.705,0.822-4.11
			c0-1.406-0.282-2.809-0.822-4.111l6.287-6.273l0.022,2.728l13.334,0.267l0.026,0c2.703,0,4.901,2.194,4.901,4.89V68.301z
			 M72.892,60.374c-3.326,0-6.032,2.7-6.032,6.018s2.706,6.018,6.032,6.018c3.325,0,6.031-2.7,6.031-6.018
			S76.218,60.374,72.892,60.374z M72.892,69.831c-1.9,0-3.446-1.542-3.446-3.438c0-1.896,1.546-3.439,3.446-3.439
			c1.9,0,3.446,1.543,3.446,3.439C76.338,68.289,74.793,69.831,72.892,69.831z M98.548,37.625h2.65l-3.445,3.437
			c-0.505,0.503-0.505,1.32,0,1.824c0.253,0.252,0.583,0.378,0.914,0.378c0.331,0,0.661-0.126,0.914-0.378l5.651-5.638
			c0.37-0.369,0.48-0.924,0.28-1.405c-0.2-0.482-0.672-0.796-1.194-0.796h-2.649l3.563-3.556c0.505-0.503,0.505-1.32,0-1.824
			c-0.505-0.504-1.323-0.504-1.828,0l-5.77,5.757c-0.37,0.369-0.48,0.923-0.28,1.405C97.554,37.31,98.025,37.625,98.548,37.625z
			 M48.225,90.52c-0.981,0-1.969,0.35-2.718,1.036c-0.749-0.685-1.737-1.036-2.718-1.036c-1.151,0-2.278,0.473-3.091,1.298
			c-0.63,0.639-1.381,1.792-1.381,3.661c0,5.51,6.466,7.959,6.742,8.061c0.145,0.053,0.296,0.08,0.448,0.08
			c0.152,0,0.304-0.027,0.448-0.08c0.276-0.102,6.742-2.551,6.742-8.061c0-1.869-0.751-3.023-1.381-3.661
			C50.503,90.993,49.376,90.52,48.225,90.52z M45.504,100.929c-1.239-0.567-4.602-2.388-4.602-5.45c0-0.788,0.221-1.429,0.638-1.853
			c0.331-0.335,0.786-0.527,1.248-0.527c0.334,0,1.426,0.117,1.426,1.628c0,0.712,0.579,1.29,1.293,1.29
			c0.714,0,1.293-0.578,1.293-1.29c0-1.51,1.091-1.628,1.426-1.628c0.463,0,0.918,0.192,1.248,0.527
			c0.417,0.423,0.638,1.064,0.638,1.853C50.111,98.524,46.739,100.359,45.504,100.929z"/>
	</g>
</g>
</svg>
