<?xml version="1.0" encoding="utf-8"?>
<!-- Generator: Adobe Illustrator 17.0.0, SVG Export Plug-In . SVG Version: 6.00 Build 0)  -->
<!DOCTYPE svg PUBLIC "-//W3C//DTD SVG 1.1//EN" "http://www.w3.org/Graphics/SVG/1.1/DTD/svg11.dtd">
<svg version="1.1" id="Layer_1" xmlns="http://www.w3.org/2000/svg" xmlns:xlink="http://www.w3.org/1999/xlink" x="0px" y="0px"
	 width="146px" height="133px" viewBox="0 0 146 133" enable-background="new 0 0 146 133" xml:space="preserve">
<g>
	<g>
		<path fill="#FFFFFF" d="M107.979,23.19c0.724,0,1.31-0.586,1.31-1.31V18.38c0-0.724-0.587-1.31-1.31-1.31
			c-0.724,0-1.311,0.586-1.311,1.31v3.499C106.668,22.603,107.255,23.19,107.979,23.19z M74.161,78.459
			c-0.724,0-1.311,0.586-1.311,1.31v2.14c0,0.724,0.587,1.31,1.311,1.31c0.724,0,1.311-0.586,1.311-1.31v-2.14
			C75.471,79.045,74.885,78.459,74.161,78.459z M63.355,83.219c0.724,0,1.311-0.586,1.311-1.31v-2.14c0-0.724-0.587-1.31-1.311-1.31
			c-0.724,0-1.31,0.586-1.31,1.31v2.14C62.044,82.632,62.631,83.219,63.355,83.219z M98.933,95.884
			c-3.252,0-5.898,2.645-5.898,5.896c0,3.251,2.646,5.896,5.898,5.896s5.898-2.645,5.898-5.896
			C104.831,98.529,102.185,95.884,98.933,95.884z M98.933,105.055c-1.807,0-3.277-1.47-3.277-3.276c0-1.806,1.47-3.276,3.277-3.276
			c1.807,0,3.277,1.47,3.277,3.276C102.21,103.586,100.74,105.055,98.933,105.055z M49.009,95.884c-3.252,0-5.898,2.645-5.898,5.896
			c0,3.251,2.646,5.896,5.898,5.896c3.252,0,5.898-2.645,5.898-5.896C54.907,98.529,52.261,95.884,49.009,95.884z M49.009,105.055
			c-1.807,0-3.277-1.47-3.277-3.276c0-1.806,1.47-3.276,3.277-3.276c1.807,0,3.277,1.47,3.277,3.276
			C52.286,103.586,50.816,105.055,49.009,105.055z M98.933,100.297c-0.819,0-1.483,0.664-1.483,1.483s0.664,1.483,1.483,1.483
			c0.819,0,1.483-0.664,1.483-1.483S99.752,100.297,98.933,100.297z M49.009,100.297c-0.819,0-1.483,0.664-1.483,1.483
			s0.664,1.483,1.483,1.483c0.819,0,1.483-0.664,1.483-1.483S49.828,100.297,49.009,100.297z M89.737,66.628h-4.696
			c-0.724,0-1.311,0.587-1.311,1.31c0,0.724,0.587,1.31,1.311,1.31h4.696c0.724,0,1.31-0.586,1.31-1.31
			C91.047,67.214,90.461,66.628,89.737,66.628z M140.574,113.31h-33.45c3.138-2.234,5.328-5.712,5.844-9.71h1.563
			c4.376,0,7.937-3.559,7.937-7.933V78.342c0-4.375-3.56-7.933-7.937-7.933h-14.406c-1.674-1.843-8.269-9.122-10.363-11.737
			c-2.09-2.612-4.791-5.281-8.975-5.281H60.714V40.848c0-0.724-0.587-1.31-1.31-1.31c-0.586,0-1.076,0.387-1.244,0.918
			c-1.651-0.827-4.127-1.463-7.039-0.255c-3.976,1.647-8.316,0.421-8.356,0.409c-0.583-0.172-1.204,0.078-1.506,0.603
			c-0.302,0.525-0.205,1.189,0.235,1.605l2.926,2.768l-2.926,2.768c-0.34,0.322-0.482,0.802-0.373,1.257
			c0.109,0.456,0.454,0.818,0.904,0.951c0.213,0.063,5.253,1.508,10.1-0.502c2.843-1.178,5.101,0.192,5.969,0.864v2.472
			c-4.457,0.061-7.432,2.548-9.756,4.986c-1.814,1.905-9.153,10.034-10.95,12.026h-4.616c-4.376,0-7.937,3.559-7.937,7.933v17.324
			c0,4.374,3.56,7.933,7.937,7.933h2.203c0.516,3.998,2.706,7.476,5.844,9.71H5.426c-0.724,0-1.31,0.586-1.31,1.31
			c0,0.723,0.587,1.31,1.31,1.31h135.148c0.724,0,1.31-0.587,1.31-1.31C141.884,113.896,141.298,113.31,140.574,113.31z
			 M70.068,56.011h10.719c2.478,0,4.485,1.245,6.929,4.298c1.721,2.151,6.233,7.181,8.872,10.1h-26.52V56.011z M70.068,73.029
			h44.463c2.931,0,5.316,2.384,5.316,5.314v1.288h-5.316c-0.724,0-1.311,0.587-1.311,1.31c0,0.723,0.587,1.31,1.311,1.31h5.316
			v13.415c0,2.93-2.384,5.313-5.316,5.313h-1.465c-0.001-0.019-0.005-0.038-0.006-0.057c-0.026-0.442-0.071-0.88-0.138-1.31
			c-0.001-0.009-0.003-0.018-0.005-0.027c-0.068-0.437-0.157-0.866-0.264-1.289c-0.003-0.011-0.005-0.021-0.007-0.032
			c-0.107-0.415-0.234-0.822-0.376-1.222c-0.009-0.025-0.017-0.051-0.026-0.076c-0.141-0.387-0.3-0.766-0.473-1.137
			c-0.016-0.035-0.031-0.07-0.047-0.104c-0.172-0.361-0.36-0.713-0.561-1.057c-0.024-0.04-0.046-0.081-0.07-0.121
			c-0.201-0.336-0.417-0.662-0.644-0.98c-0.03-0.042-0.059-0.085-0.09-0.127c-0.228-0.312-0.47-0.613-0.722-0.904
			c-0.036-0.042-0.072-0.084-0.109-0.126c-0.254-0.286-0.519-0.562-0.795-0.827c-0.042-0.04-0.084-0.08-0.126-0.12
			c-0.278-0.261-0.567-0.51-0.865-0.749c-0.045-0.036-0.091-0.072-0.137-0.108c-0.302-0.235-0.613-0.458-0.934-0.668
			c-0.048-0.031-0.096-0.062-0.145-0.093c-0.324-0.207-0.657-0.402-0.999-0.583c-0.049-0.026-0.098-0.05-0.147-0.075
			c-0.347-0.178-0.702-0.344-1.065-0.494c-0.047-0.019-0.094-0.037-0.14-0.055c-0.37-0.148-0.747-0.283-1.131-0.4
			c-0.042-0.013-0.084-0.023-0.125-0.036c-0.393-0.116-0.793-0.217-1.2-0.298c-0.033-0.007-0.066-0.011-0.099-0.018
			c-0.418-0.081-0.842-0.145-1.273-0.188c-0.02-0.002-0.039-0.003-0.059-0.004c-0.446-0.042-0.897-0.066-1.354-0.066
			s-0.908,0.024-1.353,0.066c-0.02,0.002-0.04,0.003-0.059,0.004c-0.431,0.043-0.855,0.107-1.273,0.188
			c-0.033,0.006-0.067,0.011-0.1,0.018c-0.407,0.081-0.807,0.183-1.2,0.298c-0.042,0.012-0.084,0.023-0.125,0.036
			c-0.384,0.117-0.761,0.252-1.131,0.4c-0.047,0.019-0.094,0.036-0.14,0.055c-0.363,0.15-0.718,0.315-1.065,0.494
			c-0.049,0.025-0.099,0.05-0.148,0.076c-0.342,0.181-0.674,0.376-0.999,0.583c-0.049,0.031-0.097,0.062-0.145,0.093
			c-0.32,0.21-0.631,0.433-0.933,0.667c-0.046,0.036-0.092,0.072-0.137,0.108c-0.299,0.238-0.587,0.487-0.866,0.748
			c-0.042,0.04-0.084,0.08-0.126,0.12c-0.276,0.265-0.541,0.54-0.795,0.827c-0.037,0.042-0.073,0.084-0.11,0.127
			c-0.252,0.291-0.493,0.592-0.721,0.903c-0.031,0.042-0.06,0.085-0.091,0.128c-0.227,0.317-0.443,0.643-0.644,0.979
			c-0.024,0.04-0.046,0.08-0.07,0.12c-0.201,0.344-0.389,0.695-0.561,1.057c-0.017,0.035-0.031,0.071-0.048,0.106
			c-0.173,0.371-0.332,0.749-0.472,1.136c-0.009,0.025-0.017,0.051-0.026,0.076c-0.143,0.4-0.27,0.807-0.376,1.222
			c-0.003,0.011-0.005,0.021-0.007,0.032c-0.107,0.422-0.196,0.851-0.264,1.287c-0.002,0.01-0.004,0.02-0.005,0.03
			c-0.067,0.43-0.111,0.868-0.138,1.31c-0.001,0.019-0.005,0.038-0.006,0.057H80.24c-0.62-9.036-7.567-12.593-10.172-13.612V73.029z
			 M51.12,47.64c-2.098,0.869-4.297,0.938-5.913,0.808l2.02-1.911c0.261-0.247,0.409-0.592,0.409-0.951s-0.148-0.704-0.409-0.951
			l-1.007-0.952c1.764,0.024,3.843-0.207,5.904-1.062c2.841-1.176,5.101,0.193,5.969,0.862v4.377
			C56.443,47.05,53.992,46.45,51.12,47.64z M50.235,60.19c2.069-2.171,4.472-4.179,8.022-4.179h9.19v14.398H40.918
			C43.758,67.265,48.812,61.684,50.235,60.19z M36.779,94.668c-0.201,0.344-0.389,0.695-0.561,1.057
			c-0.017,0.035-0.032,0.071-0.048,0.106c-0.173,0.371-0.332,0.749-0.472,1.136c-0.009,0.025-0.017,0.051-0.026,0.076
			c-0.143,0.4-0.269,0.807-0.376,1.222c-0.003,0.011-0.005,0.021-0.007,0.032c-0.107,0.422-0.196,0.851-0.264,1.287
			c-0.002,0.01-0.004,0.02-0.005,0.03c-0.067,0.43-0.111,0.868-0.138,1.31c-0.001,0.019-0.005,0.038-0.006,0.057h-2.104
			c-2.931,0-5.316-2.384-5.316-5.313v-9.825h1.56c0.724,0,1.31-0.587,1.31-1.31c0-0.724-0.587-1.31-1.31-1.31h-1.56v-0.97h5.316
			c0.724,0,1.311-0.586,1.311-1.31c0-0.723-0.587-1.31-1.311-1.31h-5.316v-1.288c0-2.93,2.384-5.314,5.316-5.314h34.676v15.268
			c0,0.592,0.401,1.112,0.974,1.266c0.361,0.097,8.464,2.389,9.19,11.416H63.142c-0.001-0.019-0.005-0.038-0.006-0.057
			c-0.027-0.442-0.071-0.88-0.138-1.31c-0.001-0.009-0.003-0.018-0.005-0.027c-0.068-0.437-0.157-0.866-0.264-1.289
			c-0.003-0.011-0.005-0.021-0.007-0.032c-0.107-0.415-0.234-0.822-0.376-1.222c-0.009-0.025-0.017-0.051-0.026-0.076
			c-0.141-0.387-0.3-0.766-0.473-1.137c-0.016-0.035-0.031-0.07-0.047-0.104c-0.172-0.361-0.36-0.713-0.561-1.057
			c-0.023-0.04-0.046-0.081-0.07-0.121c-0.201-0.336-0.417-0.662-0.644-0.98c-0.03-0.042-0.06-0.085-0.09-0.127
			c-0.228-0.312-0.47-0.613-0.722-0.904c-0.036-0.042-0.072-0.084-0.109-0.126c-0.254-0.286-0.519-0.562-0.795-0.827
			c-0.042-0.04-0.084-0.08-0.126-0.12c-0.278-0.261-0.567-0.51-0.865-0.749c-0.045-0.036-0.091-0.072-0.137-0.108
			c-0.302-0.235-0.613-0.458-0.934-0.668c-0.048-0.031-0.096-0.062-0.145-0.093c-0.325-0.207-0.658-0.402-0.999-0.583
			c-0.049-0.026-0.098-0.05-0.147-0.075c-0.347-0.178-0.702-0.344-1.065-0.494c-0.047-0.019-0.094-0.037-0.141-0.055
			c-0.37-0.148-0.747-0.283-1.131-0.4c-0.042-0.013-0.084-0.023-0.125-0.036c-0.393-0.116-0.793-0.217-1.2-0.298
			c-0.033-0.007-0.066-0.011-0.099-0.018c-0.418-0.081-0.842-0.145-1.273-0.188c-0.02-0.002-0.04-0.003-0.059-0.004
			c-0.446-0.042-0.897-0.066-1.354-0.066c-0.457,0-0.908,0.024-1.353,0.066c-0.02,0.002-0.04,0.003-0.059,0.004
			c-0.431,0.043-0.855,0.107-1.273,0.188c-0.033,0.006-0.067,0.011-0.1,0.018c-0.407,0.081-0.807,0.183-1.2,0.298
			c-0.042,0.012-0.084,0.023-0.125,0.036c-0.385,0.117-0.762,0.252-1.132,0.4c-0.047,0.019-0.094,0.036-0.14,0.055
			c-0.363,0.15-0.718,0.315-1.065,0.494c-0.049,0.025-0.099,0.05-0.148,0.076c-0.342,0.181-0.674,0.376-0.999,0.583
			c-0.048,0.031-0.097,0.062-0.145,0.093c-0.32,0.21-0.632,0.433-0.934,0.667c-0.046,0.036-0.092,0.072-0.137,0.108
			c-0.299,0.238-0.587,0.487-0.865,0.748c-0.042,0.04-0.084,0.08-0.126,0.12c-0.276,0.265-0.541,0.54-0.795,0.827
			c-0.037,0.042-0.073,0.084-0.11,0.127c-0.252,0.291-0.493,0.592-0.721,0.903c-0.031,0.042-0.06,0.085-0.091,0.128
			c-0.227,0.317-0.443,0.643-0.644,0.979C36.824,94.587,36.802,94.628,36.779,94.668z M49.009,113.31
			c-6.14,0-11.159-4.823-11.502-10.875l-0.008-0.199c-0.003-0.078-0.008-0.156-0.013-0.234c-0.005-0.074-0.012-0.147-0.012-0.222
			c0-6.358,5.174-11.53,11.535-11.53c6.36,0,11.534,5.172,11.534,11.53C60.543,108.137,55.369,113.31,49.009,113.31z M57.199,113.31
			c3.138-2.234,5.328-5.712,5.844-9.71h21.855c0.516,3.998,2.706,7.476,5.844,9.71H57.199z M98.933,113.31
			c-6.14,0-11.159-4.823-11.502-10.875l-0.008-0.199c-0.003-0.078-0.008-0.156-0.013-0.234c-0.005-0.074-0.011-0.147-0.011-0.222
			c0-6.358,5.174-11.53,11.535-11.53c6.36,0,11.534,5.172,11.534,11.53c0,0.08-0.01,0.158-0.012,0.237
			c-0.005,0.074-0.01,0.148-0.013,0.223l-0.004,0.121C110.133,108.448,105.097,113.31,98.933,113.31z M107.979,41.266
			c4.497,0,8.154-3.657,8.154-8.151c0-4.495-3.658-8.151-8.154-8.151c-4.497,0-8.155,3.656-8.155,8.151
			C99.823,37.609,103.482,41.266,107.979,41.266z M107.979,27.583c3.051,0,5.533,2.481,5.533,5.531c0,3.05-2.482,5.532-5.533,5.532
			c-3.052,0-5.534-2.482-5.534-5.532C102.445,30.064,104.927,27.583,107.979,27.583z M106.668,44.349v3.499
			c0,0.724,0.587,1.31,1.311,1.31c0.724,0,1.31-0.586,1.31-1.31v-3.499c0-0.723-0.587-1.31-1.31-1.31
			C107.255,43.039,106.668,43.625,106.668,44.349z M117.906,33.114c0,0.723,0.587,1.31,1.311,1.31h3.501
			c0.724,0,1.31-0.587,1.31-1.31s-0.587-1.31-1.31-1.31h-3.501C118.493,31.804,117.906,32.391,117.906,33.114z M93.238,34.424h3.501
			c0.724,0,1.311-0.587,1.311-1.31s-0.587-1.31-1.311-1.31h-3.501c-0.724,0-1.311,0.587-1.311,1.31S92.515,34.424,93.238,34.424z
			 M99.104,26.096c0.256,0.256,0.591,0.384,0.927,0.384c0.335,0,0.671-0.128,0.927-0.384c0.512-0.511,0.512-1.341,0-1.852
			l-2.475-2.474c-0.512-0.512-1.341-0.512-1.853,0c-0.512,0.511-0.512,1.341,0,1.852L99.104,26.096z M115.925,26.48
			c0.335,0,0.671-0.128,0.927-0.384l2.475-2.474c0.512-0.511,0.512-1.341,0-1.852c-0.512-0.512-1.341-0.512-1.853,0l-2.475,2.474
			c-0.512,0.511-0.512,1.341,0,1.852C115.255,26.352,115.59,26.48,115.925,26.48z M114.999,40.132c-0.512,0.512-0.512,1.341,0,1.853
			l2.475,2.474c0.256,0.256,0.591,0.384,0.927,0.384c0.335,0,0.671-0.128,0.927-0.383c0.512-0.512,0.512-1.341,0-1.853l-2.475-2.475
			C116.34,39.62,115.511,39.621,114.999,40.132z M99.104,40.132l-2.475,2.475c-0.512,0.512-0.512,1.341,0,1.853
			c0.256,0.255,0.591,0.383,0.927,0.383c0.335,0,0.671-0.128,0.927-0.384l2.475-2.474c0.512-0.512,0.512-1.341,0-1.853
			C100.445,39.621,99.616,39.62,99.104,40.132z"/>
	</g>
</g>
</svg>
