<?xml version="1.0" encoding="utf-8"?>
<!-- Generator: Adobe Illustrator 17.0.0, SVG Export Plug-In . SVG Version: 6.00 Build 0)  -->
<!DOCTYPE svg PUBLIC "-//W3C//DTD SVG 1.1//EN" "http://www.w3.org/Graphics/SVG/1.1/DTD/svg11.dtd">
<svg version="1.1" id="Layer_1" xmlns="http://www.w3.org/2000/svg" xmlns:xlink="http://www.w3.org/1999/xlink" x="0px" y="0px"
	 width="76.625px" height="67.792px" viewBox="0 0 76.625 67.792" enable-background="new 0 0 76.625 67.792" xml:space="preserve">
<path fill-rule="evenodd" clip-rule="evenodd" fill="none" d="M-555.875-1235.215C-1.653-1418.573,596.273-1117.929,779.631-563.708
	S662.346,588.44,108.125,771.798s-1152.148-117.286-1335.506-671.507S-1110.096-1051.857-555.875-1235.215z"/>
<path fill="#FFCD06" d="M29.284,26.036l-4.009,14.313c-0.007,0.025-0.006,0.05-0.011,0.075c-0.025,0.104-0.04,0.209-0.048,0.316
	c-0.001,0.019-0.004,0.038-0.005,0.057c-0.019,0.421,0.086,0.85,0.344,1.224c0.258,0.374,0.622,0.625,1.022,0.757
	c0.018,0.006,0.037,0.01,0.055,0.016c0.103,0.03,0.206,0.054,0.312,0.067c0.026,0.004,0.049,0.014,0.074,0.016l14.803,1.339
	c1.093,0.099,2.054-0.709,2.149-1.803c0.093-1.094-0.718-2.062-1.81-2.161l-9.309-0.842l17.71-12.213
	c0.902-0.622,1.126-1.86,0.501-2.767c-0.625-0.906-1.862-1.137-2.764-0.515L30.589,36.129l2.521-9
	c0.166-0.593,0.044-1.201-0.281-1.673c-0.254-0.368-0.633-0.655-1.096-0.787C30.677,24.368,29.58,24.98,29.284,26.036z"/>
</svg>
