<?xml version="1.0" encoding="utf-8"?>
<!-- Generator: Adobe Illustrator 17.0.0, SVG Export Plug-In . SVG Version: 6.00 Build 0)  -->
<!DOCTYPE svg PUBLIC "-//W3C//DTD SVG 1.1//EN" "http://www.w3.org/Graphics/SVG/1.1/DTD/svg11.dtd">
<svg version="1.1" id="Layer_1" xmlns="http://www.w3.org/2000/svg" xmlns:xlink="http://www.w3.org/1999/xlink" x="0px" y="0px"
	 width="61.272px" height="51.001px" viewBox="0 0 61.272 51.001" enable-background="new 0 0 61.272 51.001" xml:space="preserve">
<path fill="#FFCD06" d="M19.421,29.248l10.1,11.087c0.017,0.019,0.04,0.032,0.058,0.05c0.076,0.077,0.158,0.146,0.245,0.21
	c0.016,0.011,0.03,0.024,0.047,0.035c0.351,0.243,0.778,0.385,1.242,0.368c0.463-0.016,0.88-0.189,1.212-0.455
	c0.015-0.012,0.028-0.026,0.044-0.038c0.082-0.07,0.159-0.145,0.229-0.227c0.017-0.02,0.038-0.034,0.055-0.054l9.289-11.774
	c0.686-0.869,0.52-2.115-0.369-2.784c-0.889-0.668-2.167-0.503-2.853,0.365l-5.841,7.404l-0.763-21.52
	c-0.039-1.095-0.98-1.952-2.103-1.912c-1.122,0.04-2.001,0.96-1.962,2.056l0.763,21.521l-6.351-6.972
	c-0.419-0.459-1.008-0.684-1.592-0.663c-0.457,0.016-0.911,0.182-1.279,0.501C18.752,27.175,18.675,28.43,19.421,29.248z"/>
</svg>
