<?xml version="1.0" encoding="utf-8"?>
<!-- Generator: Adobe Illustrator 17.0.0, SVG Export Plug-In . SVG Version: 6.00 Build 0)  -->
<!DOCTYPE svg PUBLIC "-//W3C//DTD SVG 1.1//EN" "http://www.w3.org/Graphics/SVG/1.1/DTD/svg11.dtd">
<svg version="1.1" id="Layer_1" xmlns="http://www.w3.org/2000/svg" xmlns:xlink="http://www.w3.org/1999/xlink" x="0px" y="0px"
	 width="510.24px" height="127.559px" viewBox="0 0 510.24 127.559" enable-background="new 0 0 510.24 127.559"
	 xml:space="preserve">
<g>
	<path fill="#86C440" d="M54.598,4.279c0,0,4.45-4.279,8.727-4.279c4.28,0,5.991,1.027,5.991,1.027S57.678,12.412,57.678,27.214
		c0,14.801,3.422,15.575,3.422,15.575l-6.502,2.567c0,0-4.28-9.07-4.28-20.196C50.318,14.035,54.598,4.279,54.598,4.279z"/>
	<path fill="#86C440" d="M0,49.292c0,0,13.351-14.719,29.096-14.719c15.747,0,24.816,10.783,24.816,10.783
		S42.787,58.534,26.015,58.534C9.242,58.534,0,49.292,0,49.292z"/>
	<g>
		<g>
			<path fill="#FFFFFF" d="M109.887,81.753c0,8.578-2.953,15.654-9.031,21.631c-6.084,5.984-13.49,8.893-22.639,8.893
				c-9.228,0-16.587-3.023-22.504-9.245c-5.946-6.254-8.837-13.589-8.837-22.425c0-6.726,1.59-12.754,4.739-17.933
				c2.816-4.727,6.634-8.395,11.352-10.903c8.446-4.49,18.158-5.132,27.968-1.277c3.444,1.354,6.562,3.51,9.295,6.423L50.501,90.993
				l6.207,8.571l58.904-40.201l-1.188-1.921c-3.906-6.314-9.036-11.295-15.248-14.805c-6.222-3.515-13.164-5.296-20.631-5.296
				c-12.158,0-22.409,4.087-30.469,12.147c-8.057,8.06-12.145,18.421-12.145,30.796c0,12.395,4.208,22.711,12.509,30.664
				c8.272,7.928,18.568,11.946,30.596,11.946c12.17,0,22.344-4.122,30.246-12.25c7.88-8.113,11.876-17.834,11.876-28.89V79.39
				h-11.272V81.753z"/>
			<path fill="#FFFFFF" d="M171.479,37.34c-13.07,0-23.953,4.663-32.338,13.855c-7.688,8.376-11.584,18.437-11.584,29.904
				c0,12.438,4.619,22.78,13.742,30.747c8.475,7.329,18.628,11.047,30.18,11.047c5.749,0,10.958-0.971,15.484-2.886
				c4.476-1.895,8.607-4.542,12.28-7.868l0.777-0.704v-13.75l-3.99,3.788c-4.035,3.828-8.018,6.623-11.841,8.305
				c-3.77,1.658-8.157,2.499-13.038,2.499c-9.489,0-17.14-2.939-23.391-8.988c-6.231-6.026-9.261-13.283-9.261-22.189
				c0-9.062,3.03-16.694,9.261-23.335c6.188-6.598,13.838-9.806,23.391-9.806c8.792,0,15.782,2.814,21.372,8.608
				c6.18,6.384,9.314,15.738,9.314,27.806v36.887h10.945V83.063c0-14.774-4.313-26.465-12.826-34.748
				C192.443,41.033,182.862,37.34,171.479,37.34z"/>
			<path fill="#FFFFFF" d="M266.124,49.594V38.978h-27.488V17.706h-10.944v75.337c0,8.152,1.292,14.229,3.951,18.581
				c3.929,6.393,10.992,9.634,20.991,9.634h13.491v-10.617h-13.491c-2.786,0-5.234-0.345-7.27-1.024
				c-1.777-0.593-3.189-1.743-4.315-3.523c-1.221-1.922-1.928-3.627-2.103-5.072c-0.206-1.694-0.31-4.49-0.31-8.305V49.594H266.124z
				"/>
		</g>
		<g>
			<path fill="#86C440" d="M369.668,40.036c-3.907-1.897-8.326-2.858-13.141-2.858c-5.981,0-11.24,1.37-15.633,4.07
				c-3.133,1.923-5.657,4.608-7.55,8.017c-2.168-3.601-5.017-6.446-8.506-8.49c-4.062-2.387-8.868-3.597-14.287-3.597
				c-5.041,0-9.636,1.021-13.657,3.031c-6.169,3.084-10.509,7.563-12.906,13.312c-1.747,4.199-2.634,9.789-2.634,16.617v51.121
				h10.943V69.864c0-3.121,0.207-5.815,0.614-8.016c0.386-2.071,1.199-4.189,2.423-6.295c1.173-2.022,2.771-3.718,4.732-5.03
				c2.761-1.811,6.12-2.73,9.993-2.73c3.903,0,7.204,0.986,10.114,3.028c1.79,1.229,3.349,2.92,4.639,5.026
				c1.307,2.13,2.136,4.218,2.468,6.203c0.359,2.165,0.541,4.737,0.541,7.647v51.56h10.942v-49.59c0-3.161,0.189-6.145,0.555-8.87
				c0.334-2.495,1.159-4.834,2.452-6.949c1.298-2.117,2.921-3.868,4.843-5.217c2.629-1.884,5.968-2.839,9.913-2.839
				c3.811,0,7.073,0.943,10.019,2.909c2.102,1.344,3.702,2.966,4.883,4.952c1.203,2.027,1.982,4.143,2.315,6.29
				c0.362,2.336,0.544,5.003,0.544,7.92v51.395h10.946V70.036c0-6.624-0.942-12.226-2.792-16.632
				C380.04,47.518,375.745,43.023,369.668,40.036z"/>
			<path fill="#86C440" d="M469.843,81.753c0,8.578-2.953,15.654-9.029,21.631c-6.088,5.984-13.493,8.893-22.639,8.893
				c-9.23,0-16.591-3.023-22.506-9.245c-5.947-6.253-8.838-13.587-8.838-22.425c0-6.726,1.591-12.754,4.738-17.933
				c2.816-4.726,6.633-8.394,11.352-10.903c8.445-4.49,18.159-5.132,27.971-1.277c3.442,1.354,6.559,3.51,9.291,6.423
				l-49.726,34.076l6.205,8.571l58.904-40.201l-1.188-1.92c-3.902-6.315-9.032-11.295-15.245-14.806
				c-6.225-3.515-13.165-5.296-20.634-5.296c-12.157,0-22.408,4.087-30.468,12.147c-8.06,8.059-12.146,18.42-12.146,30.796
				c0,12.393,4.207,22.709,12.51,30.664c8.272,7.928,18.565,11.946,30.596,11.946c12.169,0,22.347-4.122,30.247-12.25
				c7.88-8.113,11.875-17.834,11.875-28.89V79.39h-11.271V81.753z"/>
			<rect x="496.184" y="0.035" fill="#86C440" width="10.945" height="98.645"/>
			<path fill="#86C440" d="M507.74,107.566c-1.655-1.65-3.704-2.487-6.086-2.487c-2.386,0-4.433,0.838-6.089,2.491
				c-1.651,1.654-2.49,3.703-2.49,6.09c0,2.392,0.839,4.44,2.49,6.089c1.653,1.653,3.703,2.491,6.089,2.491
				c2.385,0,4.432-0.838,6.089-2.491c1.654-1.653,2.493-3.701,2.493-6.089C510.236,111.278,509.399,109.229,507.74,107.566z"/>
		</g>
	</g>
</g>
</svg>
