<?xml version="1.0" encoding="utf-8"?>
<!-- Generator: Adobe Illustrator 17.0.0, SVG Export Plug-In . SVG Version: 6.00 Build 0)  -->
<!DOCTYPE svg PUBLIC "-//W3C//DTD SVG 1.1//EN" "http://www.w3.org/Graphics/SVG/1.1/DTD/svg11.dtd">
<svg version="1.1" id="Layer_1" xmlns="http://www.w3.org/2000/svg" xmlns:xlink="http://www.w3.org/1999/xlink" x="0px" y="0px"
	 width="94.665px" height="76.099px" viewBox="0 0 94.665 76.099" enable-background="new 0 0 94.665 76.099" xml:space="preserve">
<g>
	<g>
		<path fill="#E5E5E5" d="M63.368,28.613h-9.389c-2.382,0-4.32,1.965-4.32,4.381c0,2.416,1.938,4.381,4.32,4.381h9.389
			c2.382,0,4.32-1.966,4.32-4.381C67.689,30.579,65.75,28.613,63.368,28.613z M63.368,35.354h-9.389
			c-1.283,0-2.326-1.058-2.326-2.359c0-1.301,1.044-2.359,2.326-2.359h9.389c1.283,0,2.326,1.058,2.326,2.359
			C65.694,34.295,64.651,35.354,63.368,35.354z M52.899,43.947h-1.413c-0.551,0-0.997,0.453-0.997,1.011
			c0,0.558,0.446,1.011,0.997,1.011h1.413c0.551,0,0.997-0.453,0.997-1.011C53.896,44.4,53.45,43.947,52.899,43.947z M59.38,43.947
			h-1.413c-0.551,0-0.997,0.453-0.997,1.011c0,0.558,0.446,1.011,0.997,1.011h1.413c0.551,0,0.997-0.453,0.997-1.011
			C60.377,44.4,59.931,43.947,59.38,43.947z M65.861,43.947h-1.413c-0.551,0-0.997,0.453-0.997,1.011
			c0,0.558,0.446,1.011,0.997,1.011h1.413c0.551,0,0.997-0.453,0.997-1.011C66.858,44.4,66.411,43.947,65.861,43.947z
			 M52.899,49.002h-1.413c-0.551,0-0.997,0.453-0.997,1.011c0,0.558,0.446,1.011,0.997,1.011h1.413c0.551,0,0.997-0.453,0.997-1.011
			C53.896,49.455,53.45,49.002,52.899,49.002z M59.38,49.002h-1.413c-0.551,0-0.997,0.453-0.997,1.011
			c0,0.558,0.446,1.011,0.997,1.011h1.413c0.551,0,0.997-0.453,0.997-1.011C60.377,49.455,59.931,49.002,59.38,49.002z
			 M65.861,49.002h-1.413c-0.551,0-0.997,0.453-0.997,1.011c0,0.558,0.446,1.011,0.997,1.011h1.413c0.551,0,0.997-0.453,0.997-1.011
			C66.858,49.455,66.411,49.002,65.861,49.002z M52.899,54.057h-1.413c-0.551,0-0.997,0.453-0.997,1.011s0.446,1.011,0.997,1.011
			h1.413c0.551,0,0.997-0.453,0.997-1.011S53.45,54.057,52.899,54.057z M59.38,54.057h-1.413c-0.551,0-0.997,0.453-0.997,1.011
			s0.446,1.011,0.997,1.011h1.413c0.551,0,0.997-0.453,0.997-1.011S59.931,54.057,59.38,54.057z M65.861,54.057h-1.413
			c-0.551,0-0.997,0.453-0.997,1.011s0.446,1.011,0.997,1.011h1.413c0.551,0,0.997-0.453,0.997-1.011S66.411,54.057,65.861,54.057z
			 M69.598,22.884H44.591v-1.262c0-2.928-2.349-5.31-5.236-5.31h-8.141V8.562c0-0.558-0.447-1.011-0.997-1.011
			S29.22,8.003,29.22,8.562v7.751c-2.886,0.001-5.235,2.382-5.235,5.31v1.387c-2.363,0.512-4.154,2.657-4.154,5.185v31.085
			c0,2.589,1.873,4.758,4.315,5.207c0.557,2.325,2.613,4.063,5.075,4.063h10.133c2.425,0,4.45-1.688,5.043-3.96h25.2
			c2.887,0,5.236-2.382,5.236-5.31V28.194C74.834,25.266,72.485,22.884,69.598,22.884z M23.985,62.373
			c-1.255-0.456-2.16-1.677-2.16-3.095V28.194c0-1.414,0.905-2.637,2.16-3.094V62.373z M42.597,63.238
			c0,1.813-1.454,3.288-3.242,3.288H29.222c-1.788,0-3.242-1.475-3.242-3.288V21.622c0-1.813,1.454-3.288,3.242-3.288h10.133
			c1.788,0,3.242,1.475,3.242,3.288V63.238z M72.84,59.279c0,1.813-1.454,3.288-3.242,3.288H44.591v-37.66h25.007
			c1.788,0,3.242,1.475,3.242,3.288V59.279z"/>
	</g>
</g>
</svg>
