<?xml version="1.0" encoding="utf-8"?>
<!-- Generator: Adobe Illustrator 17.0.0, SVG Export Plug-In . SVG Version: 6.00 Build 0)  -->
<!DOCTYPE svg PUBLIC "-//W3C//DTD SVG 1.1//EN" "http://www.w3.org/Graphics/SVG/1.1/DTD/svg11.dtd">
<svg version="1.1" id="Layer_1" xmlns="http://www.w3.org/2000/svg" xmlns:xlink="http://www.w3.org/1999/xlink" x="0px" y="0px"
	 width="146px" height="133px" viewBox="0 0 146 133" enable-background="new 0 0 146 133" xml:space="preserve">
<path fill="#FFFFFF" d="M73,2.003C37.379,2.003,8.503,30.879,8.503,66.5c0,35.621,28.877,64.498,64.498,64.498
	c35.621,0,64.497-28.876,64.497-64.498C137.497,30.879,108.621,2.003,73,2.003z M101.735,76.459
	c-0.384,0.131-0.777,0.263-1.172,0.408c-0.558,0.205-1.393,0.787-2.359,1.463c-4.351,3.039-12.387,8.648-29.52,5.941
	c-0.772,1.239-2.423,3.673-4.844,6.139c-4.257,4.335-9.017,6.812-13.827,7.211l-1.668,6.461c-0.158,0.613-0.71,1.02-1.316,1.02
	c-0.112,0-0.226-0.014-0.341-0.043c-0.727-0.188-1.164-0.929-0.976-1.656l1.917-7.427c0.152-0.591,0.679-1.007,1.288-1.02
	c10.8-0.221,17.813-12.707,17.883-12.833c0.28-0.507,0.845-0.782,1.422-0.684c16.67,2.871,24.317-2.469,28.425-5.338
	c1.168-0.816,2.091-1.46,2.98-1.786c0.416-0.153,0.83-0.293,1.235-0.43c3.044-1.032,4.721-1.601,4.465-5.878
	c-0.353-5.888-4.44-18.39-9.74-26.915c-5.506-8.857-8.847-9.867-12.644-10.267c-3.548-0.373-12.139-0.143-15.406-0.038l-0.082,5.883
	c2.663,0.037,6.073,0.95,6.888,4.213c0.373,1.494,5.363,1.563,9.661,0.699l2.786-1.19c0.694-0.296,1.49,0.026,1.784,0.716
	c0.296,0.69-0.025,1.489-0.716,1.785l-1.458,0.623c4.515,7.845,3.042,17.588,2.564,20.064l1.425,2.178
	c0.411,0.628,0.235,1.471-0.394,1.882c-0.23,0.15-0.488,0.222-0.743,0.222c-0.443,0-0.878-0.216-1.139-0.616l-1.676-2.561
	c-9.199-10.647-19.366-3.405-19.795-3.091c-0.001,0.001-0.003,0.002-0.005,0.003c-0.002,0.001-0.004,0.004-0.006,0.005l-3.219,2.321
	c-0.241,0.173-0.519,0.257-0.794,0.257c-0.422,0-0.838-0.196-1.104-0.565c-0.439-0.609-0.301-1.459,0.307-1.898l2.265-1.633
	c-1.923-3.499-4.359-5.673-7.253-6.461c-4.97-1.353-9.723,1.748-9.771,1.779c-0.625,0.416-1.469,0.245-1.885-0.381
	c-0.415-0.626-0.244-1.469,0.382-1.884c0.236-0.156,5.841-3.81,11.988-2.138c3.57,0.972,6.524,3.507,8.799,7.545
	c4.497-2.609,12.797-4.476,20.258,2.401c0.433-3.773,0.637-10.927-2.839-16.55c-3.102,0.541-10.98,1.465-12.06-2.852
	c-0.649-2.598-5.42-2.101-5.467-2.094c-0.389,0.045-0.781-0.077-1.072-0.339c-0.291-0.262-0.455-0.638-0.45-1.03l0.12-8.625
	c0.01-0.723,0.585-1.312,1.307-1.34c0.508-0.02,12.491-0.477,17.084,0.006c5.204,0.548,9.083,2.549,14.669,11.536
	c5.597,9.004,9.765,21.844,10.145,28.188C108.421,74.192,104.869,75.396,101.735,76.459z"/>
</svg>
