<?xml version="1.0" encoding="utf-8"?>
<!-- Generator: Adobe Illustrator 17.0.0, SVG Export Plug-In . SVG Version: 6.00 Build 0)  -->
<!DOCTYPE svg PUBLIC "-//W3C//DTD SVG 1.1//EN" "http://www.w3.org/Graphics/SVG/1.1/DTD/svg11.dtd">
<svg version="1.1" id="Layer_1" xmlns="http://www.w3.org/2000/svg" xmlns:xlink="http://www.w3.org/1999/xlink" x="0px" y="0px"
	 width="146px" height="133px" viewBox="0 0 146 133" enable-background="new 0 0 146 133" xml:space="preserve">
<g>
	<g>
		<path fill="#FFFFFF" d="M66.415,33.321c-1.811,1.533-2.487,3.635-2.72,5.293c3.943-2.586,9.375-5.235,16.515-6.919
			C73.863,30.466,69.15,31.005,66.415,33.321z M64.365,41.703c1.23,1.148,2.623,1.72,4.23,1.72h0.007
			c4.962-0.005,11.032-5.401,14.724-9.416c-8.894,1.714-15.122,5.03-18.929,7.674C64.386,41.688,64.376,41.695,64.365,41.703z
			 M67.978,82.236c0.083-0.277,0.252-0.508,0.471-0.67c3.436-4.892,7.042-10.027,10.008-14.249
			c-0.032-0.117-0.056-0.238-0.058-0.365c-0.075-4.729-1.817-8.548-5.179-11.349c-3.359-2.799-10.825-1.852-14.972-0.912
			c-0.143,1.379-0.38,2.423-0.56,3.067c1.179-0.167,2.5-0.506,3.965-1.123c0.743-0.314,1.596,0.036,1.908,0.777
			c0.311,0.741-0.036,1.595-0.777,1.907c-2.631,1.108-4.935,1.482-6.847,1.482c-3.869,0-6.136-1.532-6.275-1.628
			c-0.661-0.459-0.823-1.367-0.364-2.027c0.456-0.657,1.357-0.823,2.017-0.371c0.096,0.064,1.266,0.808,3.335,1.045
			c0.013-0.12,0.036-0.241,0.081-0.359c0.045-0.12,0.35-0.978,0.554-2.435c-3.616-0.99-12.549-2.564-16.319,0.578
			c-5.179,4.316-9.118,13.271,1.518,31.428c2.677,4.57,5.486,6.985,8.347,7.18c3.499,0.236,6.092-2.983,6.117-3.016
			c0.552-0.702,1.738-0.703,2.29,0c0.009,0.011,1.125,1.377,2.855,2.27C62.208,90.451,65.012,86.459,67.978,82.236z M73,2.003
			C37.379,2.003,8.503,30.879,8.503,66.5c0,35.621,28.877,64.497,64.497,64.497c35.621,0,64.497-28.877,64.497-64.497
			C137.497,30.879,108.621,2.003,73,2.003z M122.749,59.277c-0.274,0-0.55-0.086-0.785-0.265c-3.915-2.977-7.992-4.109-12.118-3.365
			c-1.504,0.271-2.725,0.745-3.58,1.159c2.358,2.496,3.806,5.861,3.806,9.557c0,4.435-2.139,8.639-5.725,11.257l-0.002,0.001
			c-0.007,0.006-0.016,0.012-0.024,0.018c-0.012,0.009-0.024,0.018-0.036,0.027l-38.45,26.566c-0.973,0.728-2.128,1.112-3.346,1.112
			c-3.083,0-5.591-2.508-5.591-5.59c0-1.282,0.444-2.531,1.251-3.524c0.077-0.109,0.17-0.243,0.251-0.358
			c-0.948-0.533-1.732-1.151-2.31-1.679c-1.341,1.224-3.779,2.944-6.887,2.944c-0.189,0-0.38-0.007-0.575-0.02
			c-3.88-0.264-7.468-3.162-10.661-8.614c-5.272-9-12.396-25.532-0.87-35.138c5.013-4.178,15.101-2.117,18.367-1.301
			c-0.012-1.286-0.141-2.773-0.468-4.43c-0.055-0.141-0.082-0.291-0.091-0.441c-0.815-3.785-2.671-8.406-6.538-13.516
			c-0.486-0.641-0.359-1.555,0.282-2.04c0.642-0.487,1.555-0.358,2.04,0.282c3.331,4.401,5.283,8.503,6.387,12.109
			c0.877-0.91,2.071-2.032,3.601-3.241c-0.087-1.931,0.138-6.522,3.825-9.666c4.441-3.785,12.153-3.973,22.921-0.562
			c0.026,0.008,0.048,0.024,0.073,0.033c0.066,0.025,0.131,0.053,0.193,0.088c0.039,0.022,0.075,0.045,0.112,0.07
			c0.052,0.036,0.1,0.074,0.147,0.116c0.032,0.029,0.065,0.057,0.094,0.088c0.052,0.056,0.098,0.117,0.141,0.18
			c0.016,0.023,0.035,0.044,0.049,0.068c0.055,0.092,0.1,0.191,0.134,0.295c0.001,0.004,0.004,0.008,0.005,0.012
			c0.006,0.02,0.006,0.04,0.011,0.059c0.017,0.064,0.037,0.127,0.045,0.194c0.002,0.018,0,0.036,0.001,0.054
			c0.003,0.038,0.003,0.075,0.003,0.113c0.001,0.073-0.002,0.143-0.012,0.214c-0.005,0.038-0.012,0.074-0.02,0.111
			c-0.016,0.072-0.037,0.142-0.063,0.21c-0.012,0.032-0.023,0.064-0.037,0.095c-0.042,0.089-0.091,0.174-0.149,0.253
			c-0.005,0.006-0.007,0.014-0.012,0.02c-0.001,0.001-0.004,0.005-0.005,0.006c0,0,0,0,0,0
			c-0.464,0.605-10.449,13.488-19.533,13.497c0,0-0.006,0-0.01,0c-2.529,0-4.734-0.968-6.581-2.861
			c-2.158,1.762-3.491,3.258-4.091,3.989c0.282,1.545,0.41,2.96,0.439,4.226c4.227-0.879,12.379-1.943,16.722,1.675
			c2.324,1.936,5.029,5.216,5.922,10.324c2.242-3.191,3.758-5.347,3.949-5.617l0,0c0.007-0.009,0.016-0.022,0.023-0.031
			c1.322-1.772,3.042-3.182,4.983-4.146c0.093-0.062,0.195-0.111,0.303-0.147c1.824-0.851,3.831-1.312,5.882-1.312
			c2.754,0,5.325,0.804,7.489,2.189c1.072-2.515,2.584-8.347-3.497-13.182c-0.561-0.446-0.655-1.263-0.208-1.824
			c0.446-0.561,1.263-0.654,1.824-0.208c5.04,4.008,5.714,8.66,5.392,11.857c-0.006,0.062-0.014,0.123-0.021,0.185l9.36-9.968
			c0.49-0.523,1.312-0.549,1.834-0.058c0.522,0.491,0.548,1.312,0.058,1.835l-9.285,9.888c0.098-0.02,0.196-0.039,0.296-0.057
			c3.349-0.604,8.522-0.426,14.15,3.853c0.571,0.434,0.681,1.248,0.247,1.819C123.528,59.101,123.141,59.277,122.749,59.277z
			 M96.145,55.031c-1.408,0-2.77,0.254-4.036,0.734c0.338,1.619,1.451,5.04,4.989,6.922c0.633,0.337,0.873,1.123,0.536,1.756
			c-0.233,0.438-0.682,0.688-1.147,0.688c-0.206,0-0.414-0.049-0.609-0.152c-3.986-2.122-5.541-5.745-6.137-7.974
			c-1.01,0.695-1.915,1.56-2.677,2.58c-0.135,0.189-2.457,3.493-5.682,8.084c0.005,0.109-0.002,0.22-0.025,0.331
			c-0.008,0.039-0.261,1.349,0.173,2.865c0.564,1.973,2.017,3.412,4.319,4.276c0.671,0.252,1.011,1,0.759,1.671
			c-0.195,0.521-0.69,0.842-1.215,0.842c-0.151,0-0.306-0.027-0.456-0.083c-3.945-1.481-5.407-4.148-5.939-6.125
			c-0.026-0.095-0.048-0.188-0.07-0.281c-2.673,3.806-5.678,8.084-8.484,12.08c-0.027,0.318-0.033,0.804,0.091,1.3
			c0.242,0.965,0.862,1.527,1.954,1.769c0.7,0.155,1.141,0.849,0.985,1.548c-0.134,0.605-0.671,1.017-1.266,1.017
			c-0.093,0-0.188-0.01-0.283-0.031c-1.846-0.41-2.948-1.458-3.539-2.674c-4.489,6.391-8.04,11.449-8.137,11.587
			c-0.02,0.029-0.041,0.056-0.063,0.083c-0.45,0.543-0.688,1.203-0.688,1.91c0,1.651,1.343,2.994,2.994,2.994
			c0.659,0,1.283-0.21,1.807-0.607c0.022-0.017,0.045-0.033,0.068-0.048l3.463-2.393c-2.248-1.402-2.631-3.279-2.65-3.379
			l2.551-0.479c0,0-0.002-0.011-0.006-0.032c0.015,0.06,0.365,1.392,2.543,2.206l14.073-9.723c-2.408-0.394-4.297-1.71-5.494-3.848
			c-0.35-0.625-0.127-1.416,0.498-1.766c0.625-0.351,1.416-0.128,1.767,0.498c2.16,3.857,6.87,2.396,7.069,2.332
			c0.09-0.029,0.181-0.047,0.271-0.056L99.38,77.9c-2.126-0.428-4.931-1.7-6.763-5.263c-0.328-0.638-0.077-1.42,0.561-1.748
			c0.637-0.328,1.42-0.077,1.748,0.561c1.141,2.22,2.88,3.546,5.166,3.944c1.316,0.229,2.446,0.078,2.907-0.005
			c2.809-2.138,4.479-5.491,4.479-9.024C107.477,60.115,102.394,55.031,96.145,55.031z"/>
	</g>
</g>
</svg>
