<?xml version="1.0" encoding="utf-8"?>
<!-- Generator: Adobe Illustrator 17.0.0, SVG Export Plug-In . SVG Version: 6.00 Build 0)  -->
<!DOCTYPE svg PUBLIC "-//W3C//DTD SVG 1.1//EN" "http://www.w3.org/Graphics/SVG/1.1/DTD/svg11.dtd">
<svg version="1.1" id="Layer_1" xmlns="http://www.w3.org/2000/svg" xmlns:xlink="http://www.w3.org/1999/xlink" x="0px" y="0px"
	 width="146px" height="133px" viewBox="0 0 146 133" enable-background="new 0 0 146 133" xml:space="preserve">
<path fill-rule="evenodd" clip-rule="evenodd" fill="none" d="M-486.5-1170.006C67.722-1353.365,665.648-1052.721,849.006-498.5
	S731.721,653.648,177.5,837.006S-974.648,719.721-1158.006,165.5S-1040.721-986.648-486.5-1170.006z"/>
<g>
	<g>
		<path fill="#FFFFFF" d="M73.806,69.783h-0.212c-7.854,0-15.341-1.634-22.28-4.861l-1.738,3.683
			c6.072,3.377,19.706,11.368,24.127,17.328c4.424-5.963,18.056-13.952,24.126-17.328l-1.738-3.683
			C89.153,68.149,81.664,69.783,73.806,69.783z M73,2.003C37.379,2.003,8.503,30.879,8.503,66.5
			c0,35.621,28.876,64.497,64.497,64.497c35.621,0,64.497-28.877,64.497-64.497C137.497,30.879,108.621,2.003,73,2.003z
			 M37.323,63.812c-0.358,0-0.716-0.135-0.992-0.406c-0.557-0.548-0.564-1.443-0.016-2l3.568-3.626H27.983
			c-0.781,0-1.414-0.633-1.414-1.414s0.633-1.414,1.414-1.414h11.821l-3.473-3.415c-0.557-0.548-0.564-1.443-0.016-2
			c0.548-0.557,1.443-0.564,2-0.016l5.935,5.838c0.267,0.263,0.419,0.622,0.423,0.996c0.003,0.375-0.143,0.736-0.406,1.004
			l-5.935,6.033C38.055,63.671,37.689,63.812,37.323,63.812z M103.068,93.043c-1.685,7.681-5.02,12.346-5.162,12.54
			c-0.276,0.382-0.708,0.585-1.146,0.585c-0.287,0-0.577-0.087-0.829-0.269c-0.632-0.458-0.773-1.342-0.315-1.975
			c0.03-0.042,3.174-4.469,4.716-11.614c1.515-7.018,1.033-14.078-1.412-21.074c-11.709,6.551-23.8,15.047-23.804,18.014v15.503
			c0,0.781-0.633,1.414-1.414,1.414c-0.781,0-1.414-0.633-1.414-1.414V89.252c-0.004-3.051-12.767-11.935-24.766-18.549
			c-2.611,7.17-3.151,14.411-1.598,21.607c1.543,7.145,4.688,11.572,4.719,11.616c0.456,0.633,0.313,1.517-0.319,1.974
			c-0.251,0.181-0.541,0.268-0.827,0.268c-0.438,0-0.869-0.203-1.145-0.584c-0.137-0.188-13.51-19.138-0.09-43.242
			c6.522-11.718,7.157-20.136,6.54-25.134c-0.66-5.35-2.857-8.019-2.879-8.045c-0.5-0.596-0.429-1.486,0.164-1.991
			c0.594-0.503,1.478-0.438,1.985,0.151c0.409,0.475,9.638,11.648-2.396,34.633c6.794,3.314,14.166,4.998,21.924,4.998
			c0.066,0,0.133,0,0.201,0c7.416,0,14.478-1.533,21.017-4.56c-12.38-23.28-3.042-34.593-2.63-35.071
			c0.51-0.591,1.403-0.659,1.994-0.149c0.59,0.508,0.658,1.396,0.155,1.988c-0.099,0.118-8.756,10.874,3.66,33.179
			c1.177,2.114,2.141,4.183,2.93,6.2l0.028,0.058c0.026,0.055,0.042,0.112,0.06,0.169C104.825,78.651,104.348,87.21,103.068,93.043z
			 M118.017,57.974h-11.821l3.473,3.416c0.557,0.548,0.564,1.443,0.017,2c-0.277,0.281-0.642,0.423-1.008,0.423
			c-0.359,0-0.716-0.135-0.992-0.406l-5.935-5.838c-0.267-0.263-0.419-0.622-0.423-0.996c-0.003-0.375,0.143-0.736,0.406-1.004
			l5.935-6.032c0.549-0.557,1.445-0.564,2-0.016c0.557,0.548,0.564,1.443,0.017,2l-3.568,3.626h11.9
			c0.781,0,1.414,0.633,1.414,1.414C119.431,57.341,118.798,57.974,118.017,57.974z"/>
	</g>
</g>
</svg>
