<?xml version="1.0" encoding="utf-8"?>
<!-- Generator: Adobe Illustrator 17.0.0, SVG Export Plug-In . SVG Version: 6.00 Build 0)  -->
<!DOCTYPE svg PUBLIC "-//W3C//DTD SVG 1.1//EN" "http://www.w3.org/Graphics/SVG/1.1/DTD/svg11.dtd">
<svg version="1.1" id="Layer_1" xmlns="http://www.w3.org/2000/svg" xmlns:xlink="http://www.w3.org/1999/xlink" x="0px" y="0px"
	 width="146px" height="133px" viewBox="0 0 146 133" enable-background="new 0 0 146 133" xml:space="preserve">
<g>
	<g>
		<path fill="#FFFFFF" d="M67.178,75.245c0-6.847,5.571-12.418,12.418-12.418c4.447,0,8.476,2.408,10.672,6.081
			c2.196-3.673,6.225-6.081,10.672-6.081c1.716,0,3.351,0.351,4.839,0.983c0.689-2.642,1.058-5.294,1.058-7.903
			c0-9.29-7.558-16.848-16.849-16.848c-7.902,0-14.83,5.604-16.474,13.324c-0.148,0.694-0.761,1.19-1.471,1.19
			s-1.323-0.496-1.471-1.191c-1.643-7.72-8.571-13.324-16.474-13.324c-9.29,0-16.849,7.558-16.849,16.848
			c0,10.762,6.034,27.464,34.779,45.917l0.014,0.009l0.006-0.004c1.537-0.986,4.003-2.571,6.99-4.736
			C69.48,88.459,67.178,80.704,67.178,75.245z M100.94,65.834c-4.414,0-8.283,3.13-9.201,7.441
			c-0.148,0.695-0.761,1.191-1.471,1.191s-1.323-0.497-1.471-1.191c-0.918-4.312-4.788-7.441-9.201-7.441
			c-5.189,0-9.411,4.222-9.411,9.411c0,6.209,3.496,15.846,20.082,26.588c16.587-10.744,20.081-20.38,20.081-26.588
			C110.35,70.056,106.129,65.834,100.94,65.834z M73,2.003C37.379,2.003,8.503,30.879,8.503,66.5
			c0,35.621,28.876,64.497,64.497,64.497c35.621,0,64.497-28.877,64.497-64.497C137.497,30.879,108.621,2.003,73,2.003z
			 M91.573,104.569l-0.483,0.312c-0.25,0.163-0.537,0.245-0.822,0.245c-0.286,0-0.573-0.082-0.822-0.245l-0.481-0.31
			c-2.876-1.846-5.386-3.672-7.579-5.466c-3.326,2.438-6.158,4.258-7.71,5.255l-0.809,0.521c-0.25,0.163-0.536,0.245-0.822,0.245
			c-0.286,0-0.573-0.082-0.822-0.245l-0.817-0.527C40.519,85.168,34.245,67.418,34.245,55.906c0-10.948,8.907-19.856,19.856-19.856
			c7.755,0,14.715,4.581,17.944,11.368c3.23-6.787,10.189-11.368,17.944-11.368c10.949,0,19.856,8.907,19.856,19.856
			c0,3.138-0.477,6.325-1.379,9.484c2.966,2.271,4.891,5.838,4.891,9.854C113.357,82.242,109.578,93.009,91.573,104.569z"/>
	</g>
</g>
</svg>
