<?xml version="1.0" encoding="utf-8"?>
<!-- Generator: Adobe Illustrator 17.0.0, SVG Export Plug-In . SVG Version: 6.00 Build 0)  -->
<!DOCTYPE svg PUBLIC "-//W3C//DTD SVG 1.1//EN" "http://www.w3.org/Graphics/SVG/1.1/DTD/svg11.dtd">
<svg version="1.1" id="Layer_1" xmlns="http://www.w3.org/2000/svg" xmlns:xlink="http://www.w3.org/1999/xlink" x="0px" y="0px"
	 width="146px" height="133px" viewBox="0 0 146 133" enable-background="new 0 0 146 133" xml:space="preserve">
<g>
	<g>
		<path fill="#FFFFFF" d="M73.929,69.136c-0.071,0-0.145,0-0.217,0c-8.075,0-15.773-1.68-22.908-4.998l-1.787,3.787
			c6.242,3.472,20.26,11.687,24.806,17.815c4.547-6.129,18.564-14.344,24.806-17.815l-1.787-3.787
			C89.708,67.456,82.008,69.136,73.929,69.136z M73,2.003C37.379,2.003,8.503,30.879,8.503,66.5
			c0,35.621,28.876,64.497,64.497,64.497c35.621,0,64.497-28.876,64.497-64.497C137.497,30.879,108.621,2.003,73,2.003z
			 M80.112,50.236l-0.003-0.002c-0.513-0.485-0.537-1.294-0.052-1.807l0.604-0.639c0.004-0.004,0.009-0.007,0.013-0.011
			c0.045-0.046,0.095-0.086,0.146-0.125c0.016-0.012,0.03-0.027,0.046-0.038c0.206-0.142,0.455-0.226,0.725-0.226l0.008,0.001
			c0,0,0.005-0.001,0.008-0.001c0.033,0.001,0.065,0.009,0.098,0.012c0.053,0.005,0.106,0.007,0.156,0.018
			c0.029,0.006,0.055,0.018,0.083,0.026c0.055,0.016,0.11,0.031,0.162,0.054c0.029,0.013,0.055,0.03,0.082,0.045
			c0.047,0.025,0.094,0.05,0.138,0.081c0.028,0.02,0.053,0.044,0.08,0.066c0.039,0.033,0.078,0.065,0.113,0.102
			c0.008,0.008,0.017,0.014,0.024,0.022l0.578,0.644c0.472,0.526,0.428,1.334-0.097,1.806c-0.102,0.092-0.217,0.159-0.336,0.212
			c-0.721,3.539-3.513,6.333-7.052,7.055c-0.058,0.138-0.134,0.271-0.243,0.386c-0.252,0.266-0.59,0.401-0.93,0.401
			c-0.315,0-0.63-0.115-0.877-0.349l-0.64-0.604c-0.005-0.004-0.008-0.01-0.012-0.014c-0.043-0.041-0.079-0.087-0.115-0.134
			c-0.016-0.02-0.035-0.038-0.049-0.06c-0.096-0.14-0.165-0.299-0.199-0.471c-0.006-0.027-0.005-0.055-0.008-0.082
			c-0.008-0.056-0.017-0.111-0.017-0.169c0-0.003,0.001-0.005,0.001-0.008c0-0.003-0.001-0.006-0.001-0.008
			c0.001-0.035,0.009-0.068,0.012-0.102c0.005-0.051,0.007-0.102,0.018-0.151c0.007-0.032,0.02-0.061,0.029-0.092
			c0.015-0.052,0.03-0.104,0.051-0.152c0.013-0.03,0.032-0.058,0.048-0.087c0.024-0.046,0.048-0.092,0.078-0.134
			c0.02-0.028,0.044-0.053,0.066-0.08c0.033-0.039,0.066-0.078,0.103-0.113c0.008-0.007,0.013-0.016,0.021-0.024l0.644-0.578
			c0.51-0.458,1.282-0.426,1.759,0.056C77.699,54.386,79.531,52.559,80.112,50.236z M64.624,47.069
			c0.103-0.092,0.217-0.164,0.336-0.217c0.722-3.536,3.515-6.328,7.051-7.05c0.058-0.138,0.134-0.271,0.243-0.386
			c0.485-0.514,1.295-0.536,1.808-0.051l0.639,0.604c0.005,0.004,0.007,0.01,0.012,0.014c0.041,0.039,0.075,0.084,0.11,0.128
			c0.018,0.022,0.038,0.042,0.054,0.066c0.096,0.139,0.164,0.298,0.198,0.47c0.006,0.028,0.005,0.057,0.008,0.086
			c0.007,0.055,0.017,0.109,0.017,0.165c0,0.003-0.001,0.005-0.001,0.008c0,0.003,0.001,0.006,0.001,0.009
			c-0.001,0.033-0.009,0.065-0.012,0.097c-0.005,0.053-0.008,0.106-0.019,0.157c-0.006,0.028-0.018,0.055-0.026,0.082
			c-0.016,0.055-0.031,0.11-0.055,0.162c-0.013,0.028-0.03,0.054-0.044,0.082c-0.025,0.047-0.05,0.095-0.081,0.138
			c-0.02,0.028-0.043,0.053-0.065,0.079c-0.033,0.04-0.066,0.079-0.103,0.114c-0.008,0.007-0.013,0.016-0.021,0.024l-0.644,0.578
			c-0.244,0.219-0.549,0.327-0.853,0.327c-0.331,0-0.657-0.132-0.906-0.383c-2.326,0.573-4.158,2.4-4.739,4.723
			c0.001,0.001,0.002,0.001,0.002,0.002c0.513,0.485,0.537,1.294,0.052,1.807l-0.604,0.64c-0.004,0.004-0.009,0.007-0.013,0.011
			c-0.039,0.04-0.082,0.074-0.125,0.108c-0.023,0.018-0.043,0.039-0.067,0.055c-0.055,0.038-0.115,0.069-0.176,0.098
			c-0.015,0.007-0.029,0.017-0.044,0.024c-0.155,0.066-0.325,0.104-0.503,0.104H66.04c-0.033,0-0.065-0.009-0.098-0.011
			c-0.052-0.005-0.105-0.007-0.156-0.018c-0.029-0.006-0.055-0.018-0.083-0.026c-0.055-0.016-0.11-0.031-0.161-0.054
			c-0.029-0.013-0.055-0.03-0.083-0.045c-0.047-0.025-0.094-0.05-0.138-0.081c-0.028-0.02-0.053-0.044-0.08-0.066
			c-0.039-0.032-0.078-0.065-0.113-0.102c-0.007-0.008-0.017-0.013-0.024-0.022l-0.578-0.644
			C64.055,48.349,64.098,47.541,64.624,47.069z M104.016,93.05c-1.733,7.898-5.162,12.693-5.307,12.893
			c-0.284,0.393-0.728,0.601-1.179,0.601c-0.295,0-0.594-0.09-0.852-0.276c-0.65-0.471-0.795-1.38-0.324-2.031
			c0.031-0.043,3.264-4.595,4.849-11.94c1.558-7.215,1.062-14.474-1.451-21.666C87.713,77.366,75.282,86.1,75.278,89.151
			c0,0.002-0.001,0.005-0.001,0.007v15.932c0,0.803-0.651,1.454-1.454,1.454c-0.803,0-1.454-0.651-1.454-1.454V89.152
			c-0.004-3.134-13.11-12.258-25.44-19.058c-7.057,19.602,3.069,33.984,3.185,34.143c0.471,0.65,0.327,1.56-0.324,2.031
			c-0.258,0.187-0.557,0.276-0.852,0.276c-0.451,0-0.895-0.208-1.178-0.601c-0.141-0.194-13.889-19.676-0.093-44.459
			c6.706-12.047,7.358-20.702,6.724-25.841c-0.679-5.5-2.938-8.245-2.961-8.272c-0.514-0.612-0.441-1.528,0.168-2.047
			c0.611-0.517,1.519-0.45,2.041,0.156c0.421,0.489,9.909,11.976-2.463,35.608c6.985,3.408,14.566,5.139,22.541,5.139h0.206
			c7.625,0,14.885-1.576,21.609-4.689c-12.728-23.934-3.128-35.566-2.704-36.058c0.524-0.608,1.443-0.677,2.051-0.153
			c0.606,0.522,0.677,1.436,0.159,2.044c-0.102,0.121-9.002,11.18,3.763,34.112c1.21,2.174,2.201,4.302,3.013,6.376l0.027,0.058
			c0.026,0.055,0.042,0.112,0.061,0.169C105.823,78.251,105.332,87.052,104.016,93.05z"/>
	</g>
</g>
</svg>
