<?xml version="1.0" encoding="utf-8"?>
<!-- Generator: Adobe Illustrator 17.0.0, SVG Export Plug-In . SVG Version: 6.00 Build 0)  -->
<!DOCTYPE svg PUBLIC "-//W3C//DTD SVG 1.1//EN" "http://www.w3.org/Graphics/SVG/1.1/DTD/svg11.dtd">
<svg version="1.1" id="Layer_1" xmlns="http://www.w3.org/2000/svg" xmlns:xlink="http://www.w3.org/1999/xlink" x="0px" y="0px"
	 width="146px" height="133px" viewBox="0 0 146 133" enable-background="new 0 0 146 133" xml:space="preserve">
<g>
	<g>
		<path fill="#FFFFFF" d="M80.7,67.388c0-1.706-1.388-3.094-3.094-3.094c-1.451,0-2.724,1.029-3.025,2.446
			c-0.159,0.746-0.818,1.28-1.581,1.28c-0.763,0-1.422-0.534-1.581-1.28c-0.302-1.417-1.575-2.446-3.026-2.446
			c-1.706,0-3.094,1.388-3.094,3.094c0,2.376,1.357,6.064,7.701,10.317C79.343,73.451,80.7,69.763,80.7,67.388z M91.36,38.973
			c-8.049,0-15.105,5.708-16.779,13.572c-0.159,0.746-0.818,1.28-1.581,1.28c-0.763,0-1.422-0.533-1.581-1.28
			c-1.675-7.864-8.731-13.572-16.78-13.572c-9.463,0-17.161,7.698-17.161,17.161c0,10.935,6.114,27.879,35.097,46.619
			c1.215-1.987,2.994-6.146-0.58-9.599c-2.254-2.178-3.384-4.611-3.359-7.233c0.024-2.436,1.068-4.506,2.029-5.903
			c-7.06-4.915-8.598-9.544-8.598-12.631c0-3.488,2.838-6.327,6.327-6.327c1.785,0,3.439,0.762,4.607,2c1.168-1.239,2.82-2,4.606-2
			c3.489,0,6.327,2.838,6.327,6.327c0,3.256-1.705,8.229-9.809,13.445c-0.695,0.78-2.24,2.775-2.255,5.141
			c-0.01,1.692,0.788,3.326,2.372,4.856c3.122,3.016,3.509,6.504,2.818,9.498c25.862-17.773,31.462-33.732,31.462-44.193
			C108.522,46.671,100.823,38.973,91.36,38.973z M73,2.003C37.379,2.003,8.503,30.879,8.503,66.5
			c0,35.621,28.876,64.497,64.497,64.497s64.497-28.877,64.497-64.497C137.497,30.879,108.621,2.003,73,2.003z M74.718,105.771
			l-0.834,0.538c-0.021,0.014-0.046,0.018-0.068,0.031c-0.094,0.055-0.191,0.1-0.292,0.135c-0.039,0.013-0.075,0.028-0.114,0.038
			c-0.134,0.035-0.27,0.058-0.408,0.058l-0.002,0l0,0l0,0c-0.138,0-0.275-0.024-0.411-0.059c-0.024-0.006-0.048-0.011-0.073-0.019
			c-0.128-0.04-0.251-0.097-0.369-0.17c-0.01-0.006-0.021-0.008-0.031-0.014l-0.832-0.537
			C40.671,86.123,34.246,67.933,34.246,56.134c0-11.245,9.149-20.394,20.394-20.394c7.909,0,15.013,4.64,18.361,11.53
			c3.347-6.891,10.45-11.53,18.36-11.53c11.245,0,20.394,9.148,20.394,20.394C111.754,67.933,105.329,86.122,74.718,105.771z"/>
	</g>
</g>
</svg>
