<?xml version="1.0" encoding="utf-8"?>
<!-- Generator: Adobe Illustrator 17.0.0, SVG Export Plug-In . SVG Version: 6.00 Build 0)  -->
<!DOCTYPE svg PUBLIC "-//W3C//DTD SVG 1.1//EN" "http://www.w3.org/Graphics/SVG/1.1/DTD/svg11.dtd">
<svg version="1.1" id="Layer_1" xmlns="http://www.w3.org/2000/svg" xmlns:xlink="http://www.w3.org/1999/xlink" x="0px" y="0px"
	 width="80px" height="80px" viewBox="0 0 80 80" enable-background="new 0 0 80 80" xml:space="preserve">
<path fill="#FFFFFF" d="M52.845,56.131c-0.67,0.162-1.394,0.059-1.988-0.284c-0.432-0.249-0.787-0.617-1.025-1.064l-2.372-4.438
	l-2.192,3.79l-4.717,8.156c-1.143,1.977-3.691,2.654-5.679,1.508c-0.678-0.391-1.191-0.94-1.552-1.562l-1.856,3.21
	c-1.143,1.976-3.691,2.653-5.678,1.508c-2.042-1.177-2.727-3.718-1.584-5.694l1.851-3.201c-0.705-0.002-1.419-0.163-2.072-0.539
	c-2.042-1.177-2.728-3.717-1.585-5.694l4.717-8.156l2.192-3.79l-5.037,0.168c-0.506,0.018-1.002-0.104-1.434-0.353
	c-1.285-0.74-1.728-2.381-0.989-3.658l2.415-4.175c1.476-2.551,4.116-4.221,7.063-4.465l5.466-0.455l2.389-4.131
	c2.158-3.732,5.648-6.399,9.829-7.509l6.68-1.775c0.268-0.072,0.554-0.033,0.795,0.105l0.163,0.094
	c0.241,0.139,0.416,0.366,0.489,0.634l1.8,6.662c1.126,4.169,0.558,8.52-1.601,12.252l-2.389,4.131l2.338,4.953
	c1.262,2.669,1.134,5.787-0.342,8.338l-2.415,4.175C54.156,55.512,53.559,55.959,52.845,56.131z M35.516,29.145l-4.012,0.334
	c-2.265,0.188-4.294,1.471-5.428,3.432l-2.415,4.175c-0.251,0.432,0.11,0.89,0.531,0.879l6.346-0.213L35.516,29.145z M26.018,62.308
	c-0.567,0.981-0.227,2.242,0.759,2.81c1.04,0.6,2.305,0.264,2.872-0.717l3.641-6.295l4.194-7.252l-3.631-2.093l-4.195,7.252
	L26.018,62.308z M24.212,52.874c-0.567,0.981-0.228,2.241,0.759,2.81c1.04,0.6,2.305,0.264,2.872-0.717l4.194-7.252l-3.631-2.093
	L24.212,52.874z M52.856,36.832l2.662-4.603c1.879-3.249,2.373-7.037,1.394-10.668l-1.562-5.782l-5.799,1.54
	c-3.639,0.968-6.678,3.29-8.557,6.54l-2.662,4.602l-5.746,9.935l14.524,8.371L52.856,36.832z M46.065,48.573l-14.524-8.371
	l-2.089,3.613l14.524,8.371L46.065,48.573z M42.931,53.992L39.3,51.899l-4.195,7.252c-0.567,0.981-0.226,2.242,0.759,2.81
	c1.04,0.599,2.305,0.264,2.872-0.717L42.931,53.992z M55.125,49.652c1.134-1.961,1.232-4.357,0.263-6.409l-1.716-3.635l-4.978,8.607
	l2.987,5.592c0.055,0.102,0.129,0.18,0.222,0.234c0.131,0.075,0.294,0.097,0.445,0.061c0.107-0.026,0.258-0.095,0.362-0.275
	L55.125,49.652z M49.773,25.422c3.003,1.731,4.041,5.569,2.312,8.558c-1.729,2.989-5.578,4.011-8.581,2.28
	c-3.004-1.731-4.041-5.569-2.312-8.558C42.921,24.713,46.769,23.69,49.773,25.422z M44.549,34.453
	c2.002,1.154,4.568,0.472,5.72-1.52c1.152-1.992,0.46-4.552-1.542-5.705c-2.002-1.154-4.568-0.472-5.721,1.52
	C41.855,30.74,42.547,33.299,44.549,34.453z"/>
</svg>
