<?xml version="1.0" encoding="utf-8"?>
<!-- Generator: Adobe Illustrator 17.0.0, SVG Export Plug-In . SVG Version: 6.00 Build 0)  -->
<!DOCTYPE svg PUBLIC "-//W3C//DTD SVG 1.1//EN" "http://www.w3.org/Graphics/SVG/1.1/DTD/svg11.dtd">
<svg version="1.1" id="Layer_1" xmlns="http://www.w3.org/2000/svg" xmlns:xlink="http://www.w3.org/1999/xlink" x="0px" y="0px"
	 width="80px" height="80px" viewBox="0 0 80 80" enable-background="new 0 0 80 80" xml:space="preserve">
<g>
	<g>
		<path fill="#FFFFFF" d="M66.251,25.559c-2.647-0.884-5.521-0.857-8.083,0.08l-0.514,0.188l0.105-0.538
			c0.855-4.378-0.538-8.895-3.724-12.081c-1.114-1.114-2.363-1.99-3.71-2.603c-0.403-0.161-0.766-0.154-1.067,0.026
			c-0.335,0.186-0.583,0.515-0.69,0.907c-1.126,5.888,1.701,11.986,7.319,14.799l0.493,0.247l-0.467,0.291
			c-0.681,0.425-1.33,0.9-1.927,1.412l-0.182,0.156l-0.197-0.139c-2.906-2.053-6.913-1.827-9.525,0.536l-0.492,0.403
			c-2.836,1.831-6.16,2.683-9.387,2.418l-1.22-0.088c-5.071-0.388-10.042,1.453-13.639,5.05l-0.48,0.48
			c-5.147,5.147-5.14,13.531,0.016,18.687l0.481,0.481c1.365,1.365,3.108,2.459,5.042,3.163l0.135,0.049l0.049,0.135
			c0.704,1.933,1.798,3.676,3.163,5.042l0.48,0.481c5.156,5.156,13.54,5.163,18.687,0.016l0.523-0.523
			c3.598-3.598,5.439-8.568,5.051-13.638l-0.216-1.237c-0.268-3.254,0.584-6.578,2.394-9.387l0.413-0.508
			c2.315-2.647,2.57-6.569,0.627-9.546l-0.145-0.222l0.197-0.176c2.617-2.35,6.346-3.108,9.733-1.976
			c0.637,0.213,1.33-0.146,1.577-0.816C67.282,26.5,66.923,25.806,66.251,25.559z M55.03,22.837
			c-0.34-0.271-0.662-0.558-0.964-0.861c-2.047-2.047-3.221-4.781-3.264-7.675l-0.009-0.65l0.51,0.405
			c2.602,2.064,4.18,5.254,4.228,8.537l0.01,0.652L55.03,22.837z M53.286,38.253l-0.603,0.691
			c-2.149,3.281-3.145,7.169-2.805,10.952l0.088,1.228c0.358,4.346-1.214,8.619-4.315,11.719l-0.48,0.48
			c-4.185,4.185-11.002,4.18-15.194-0.013l-0.481-0.481c-1.192-1.192-2.08-2.641-2.568-4.189l-0.178-0.619
			c-0.077-0.23-0.147-0.354-0.271-0.478c-0.138-0.138-0.304-0.235-0.454-0.266l-0.692-0.228c-1.589-0.531-3.05-1.433-4.227-2.61
			l-0.481-0.481c-4.193-4.192-4.198-11.008-0.013-15.194l0.48-0.48c3.101-3.1,7.374-4.673,11.722-4.314l1.22,0.088
			c3.881,0.262,7.771-0.734,10.957-2.805l0.108-0.108l0.586-0.497c2.111-1.829,5.326-1.705,7.316,0.286
			C54.993,32.924,55.117,36.139,53.286,38.253z M31.969,43.49c-1.179,0.13-2.095,0.871-2.356,1.919
			c-0.392,1.353,0.439,2.707,1.793,3.102c1.048,0.263,2.139-0.129,2.793-1.046l2.834-4.233L31.969,43.49z M35.426,52.531
			c0.394,1.354,1.748,2.185,3.102,1.793c1.048-0.261,1.833-1.221,1.875-2.312l0.258-5.065l-4.233,2.834
			C35.511,50.348,35.076,51.482,35.426,52.531z"/>
	</g>
</g>
</svg>
