<?xml version="1.0" encoding="utf-8"?>
<!-- Generator: Adobe Illustrator 17.0.0, SVG Export Plug-In . SVG Version: 6.00 Build 0)  -->
<!DOCTYPE svg PUBLIC "-//W3C//DTD SVG 1.1//EN" "http://www.w3.org/Graphics/SVG/1.1/DTD/svg11.dtd">
<svg version="1.1" id="Layer_1" xmlns="http://www.w3.org/2000/svg" xmlns:xlink="http://www.w3.org/1999/xlink" x="0px" y="0px"
	 width="80px" height="80px" viewBox="0 0 80 80" enable-background="new 0 0 80 80" xml:space="preserve">
<path fill="#FFFFFF" d="M59.593,35.659l-1.625-0.95c-0.097-5.539-3.1-10.695-7.863-13.48c-4.724-2.763-10.742-2.802-15.375-0.111
	l-1.706-0.997c-5.608-3.28-12.778-1.373-15.984,4.251c-3.166,5.554-1.298,12.689,4.151,16.024l-4.747,8.328l26.984,15.781
	l4.747-8.329c5.576,3.112,12.61,1.184,15.775-4.37C67.156,46.183,65.201,38.939,59.593,35.659z M44.2,58.297l-1.661,2.914
	L19.707,47.857l1.661-2.914L44.2,58.297z M49.153,53.977c-1.03-0.602-2.347-0.252-2.936,0.781l-0.83,1.457L41.65,54.03l2.254-3.955
	c0.349-0.613,0.166-1.291-0.445-1.648c-0.611-0.357-1.282-0.179-1.631,0.434l-2.254,3.955l-4.566-2.671l3.203-5.62
	c0.349-0.613,0.166-1.29-0.445-1.648c-0.611-0.357-1.282-0.179-1.631,0.434l-3.203,5.62l-4.566-2.671l2.254-3.955
	c0.349-0.613,0.167-1.29-0.445-1.648c-0.611-0.357-1.282-0.179-1.631,0.434l-2.254,3.955l-3.736-2.185l0.831-1.457
	c0.589-1.033,0.23-2.364-0.8-2.966c-4.464-2.611-6.02-8.376-3.469-12.852c2.551-4.476,8.258-5.994,12.722-3.384l0.619,0.362
	c-1.45,1.262-2.645,2.708-3.555,4.304c-0.349,0.613-0.167,1.29,0.445,1.648c0.611,0.357,1.282,0.179,1.631-0.434
	c3.598-6.313,11.646-8.453,17.941-4.772c6.295,3.681,8.489,11.812,4.891,18.125c-0.349,0.613-0.166,1.29,0.445,1.648
	c0.611,0.357,1.282,0.179,1.631-0.434c0.948-1.662,1.563-3.447,1.833-5.311l0.688,0.402c4.464,2.61,6.02,8.376,3.468,12.853
	C59.323,55.07,53.616,56.587,49.153,53.977z"/>
</svg>
