<?xml version="1.0" encoding="utf-8"?>
<!-- Generator: Adobe Illustrator 17.0.0, SVG Export Plug-In . SVG Version: 6.00 Build 0)  -->
<!DOCTYPE svg PUBLIC "-//W3C//DTD SVG 1.1//EN" "http://www.w3.org/Graphics/SVG/1.1/DTD/svg11.dtd">
<svg version="1.1" id="Layer_1" xmlns="http://www.w3.org/2000/svg" xmlns:xlink="http://www.w3.org/1999/xlink" x="0px" y="0px"
	 width="166.212px" height="164.667px" viewBox="0 0 166.212 164.667" enable-background="new 0 0 166.212 164.667"
	 xml:space="preserve">
<g>
	<g>
		<path fill="#F1D1C7" d="M142.866,69.629c-7.295-5.575-14.002-5.807-18.343-5.02c-0.129,0.023-0.256,0.049-0.383,0.074
			l12.036-12.882c0.636-0.681,0.602-1.751-0.075-2.39c-0.677-0.639-1.742-0.605-2.378,0.075l-12.133,12.987
			c0.009-0.08,0.019-0.16,0.027-0.241c0.418-4.166-0.455-10.227-6.989-15.449c-0.727-0.581-1.786-0.459-2.364,0.271
			c-0.578,0.731-0.458,1.795,0.27,2.376c7.883,6.3,5.924,13.897,4.533,17.174c-2.805-1.805-6.137-2.852-9.707-2.852
			c-2.659,0-5.261,0.6-7.625,1.709c-0.141,0.047-0.273,0.111-0.394,0.191c-2.516,1.255-4.745,3.093-6.459,5.401
			c-0.009,0.012-0.021,0.028-0.029,0.041l0,0c-0.246,0.348-2.174,3.105-5.031,7.192c-1.181-6.625-4.686-10.886-7.697-13.407
			c-5.617-4.705-16.107-3.374-21.641-2.231c-0.043-1.608-0.209-3.397-0.559-5.344c0.778-0.948,2.467-2.838,5.189-5.075
			c2.399,2.435,5.257,3.684,8.531,3.684h0.013c11.827-0.012,24.799-16.827,25.407-17.625c0,0,0.001-0.001,0.001-0.001
			c0.001-0.002,0.005-0.006,0.006-0.008c0.006-0.008,0.009-0.018,0.016-0.026c0.08-0.109,0.148-0.226,0.205-0.35
			c0.02-0.043,0.034-0.088,0.051-0.132c0.036-0.094,0.065-0.189,0.086-0.288c0.011-0.051,0.02-0.102,0.027-0.153
			c0.013-0.097,0.017-0.195,0.016-0.294c-0.001-0.052,0.001-0.103-0.004-0.155c-0.002-0.025,0.001-0.049-0.002-0.074
			c-0.012-0.092-0.038-0.179-0.062-0.266c-0.007-0.028-0.007-0.056-0.016-0.083c-0.002-0.006-0.006-0.011-0.008-0.017
			c-0.046-0.143-0.107-0.278-0.182-0.403c-0.023-0.038-0.053-0.071-0.078-0.108c-0.056-0.081-0.114-0.16-0.181-0.231
			c-0.044-0.048-0.093-0.09-0.142-0.133c-0.059-0.052-0.119-0.101-0.184-0.146c-0.055-0.038-0.111-0.075-0.17-0.107
			c-0.077-0.043-0.158-0.077-0.241-0.11c-0.04-0.016-0.075-0.04-0.116-0.053C82.094,30.69,72.061,30.942,66.275,35.9
			c-4.781,4.096-5.106,10.061-4.999,12.626c-1.895,1.508-3.391,2.91-4.51,4.067c-1.444-4.667-3.97-9.961-8.242-15.636
			c-0.665-0.883-1.916-1.06-2.796-0.389c-0.879,0.668-1.052,1.926-0.387,2.81c6.83,9.071,8.701,16.987,9.067,22.031
			c0.044,0.598,0.065,1.167,0.073,1.713c-4.423-1.092-17.286-3.642-23.733,1.759C15.745,77.446,25,99.043,31.852,110.798
			c4.159,7.136,8.838,10.929,13.906,11.276c0.253,0.017,0.504,0.025,0.751,0.025c4.008,0,7.16-2.196,8.928-3.798
			c0.745,0.675,1.738,1.456,2.931,2.132c-0.088,0.125-0.179,0.256-0.263,0.376c-1.046,1.294-1.621,2.921-1.621,4.591
			c0,4.016,3.251,7.283,7.247,7.283c1.578,0,3.076-0.501,4.337-1.449l49.844-34.611c0.016-0.011,0.031-0.023,0.047-0.035
			c0.01-0.008,0.021-0.015,0.031-0.023l0.002-0.001c4.649-3.41,7.422-8.888,7.422-14.666c0-4.816-1.877-9.2-4.934-12.452
			c1.109-0.538,2.691-1.156,4.64-1.509c5.349-0.97,10.634,0.505,15.709,4.384c0.304,0.233,0.662,0.345,1.017,0.345
			c0.508,0,1.01-0.23,1.341-0.668C143.75,71.256,143.606,70.195,142.866,69.629z M71.654,51.902c-0.003,0-0.009,0-0.009,0
			c-2.007,0-3.755-0.703-5.303-2.113c5.328-3.704,13.214-7.725,24.099-9.875C85.649,45.102,77.951,51.895,71.654,51.902z
			 M68.864,38.953c3.449-2.956,9.364-3.693,17.338-2.212c-8.925,2.174-15.764,5.515-20.781,8.794
			C65.744,43.447,66.622,40.874,68.864,38.953z M57.006,114.183c-0.377-0.482-0.954-0.761-1.564-0.763h-0.007
			c-0.607,0-1.184,0.281-1.563,0.758c-0.034,0.042-3.399,4.235-7.868,3.891c-3.662-0.264-7.266-3.393-10.708-9.299
			c-13.751-23.59-8.673-35.213-1.992-40.809c4.81-4.026,16.195-2.049,20.941-0.762c-0.267,1.926-0.66,3.023-0.674,3.063
			c-0.048,0.126-0.081,0.254-0.102,0.383c-2.581-0.318-4.043-1.247-4.165-1.328c-0.904-0.622-2.138-0.394-2.764,0.51
			c-0.63,0.91-0.406,2.159,0.498,2.792c0.182,0.127,3.148,2.141,8.199,2.141c2.493,0,5.492-0.491,8.915-1.938
			c1.015-0.43,1.492-1.606,1.065-2.628c-0.429-1.021-1.597-1.499-2.614-1.07c-1.823,0.772-3.471,1.205-4.95,1.43
			c0.225-0.839,0.502-2.118,0.676-3.774c5.37-1.216,14.939-2.421,19.24,1.182c4.334,3.63,6.58,8.577,6.676,14.705
			c0.003,0.205,0.046,0.399,0.106,0.585c-3.83,5.479-8.473,12.123-12.897,18.454c-0.284,0.211-0.503,0.512-0.61,0.874
			c-3.815,5.459-7.424,10.625-10.16,14.54C58.456,115.967,57.017,114.198,57.006,114.183z M122.049,81.899
			c0,4.603-2.165,8.971-5.807,11.757c-0.597,0.109-2.061,0.305-3.768,0.007c-2.964-0.518-5.217-2.246-6.697-5.138
			c-0.425-0.831-1.44-1.157-2.266-0.73c-0.826,0.427-1.152,1.447-0.727,2.277c2.375,4.642,6.011,6.3,8.767,6.857l-14.169,9.839
			c-0.117,0.012-0.235,0.035-0.351,0.072c-0.258,0.084-6.364,1.987-9.164-3.038c-0.454-0.815-1.48-1.106-2.29-0.649
			c-0.811,0.456-1.1,1.487-0.646,2.302c1.552,2.786,4.001,4.501,7.122,5.014l-18.242,12.667c-2.823-1.06-3.278-2.795-3.297-2.873
			c0.007,0.027,0.009,0.042,0.009,0.042l-3.307,0.625c0.024,0.129,0.521,2.575,3.435,4.402l-4.489,3.117
			c-0.03,0.02-0.059,0.041-0.088,0.063c-0.679,0.517-1.488,0.791-2.342,0.791c-2.141,0-3.882-1.75-3.882-3.901
			c0-0.921,0.309-1.781,0.892-2.488c0.029-0.035,0.056-0.071,0.082-0.108c0.125-0.179,4.729-6.768,10.548-15.096
			c0.766,1.584,2.195,2.949,4.588,3.484c0.123,0.027,0.246,0.041,0.367,0.041c0.771,0,1.467-0.536,1.641-1.325
			c0.202-0.911-0.37-1.815-1.278-2.018c-1.415-0.316-2.219-1.048-2.533-2.305c-0.161-0.646-0.153-1.28-0.118-1.694
			c3.637-5.205,7.533-10.779,10.998-15.738c0.028,0.121,0.058,0.243,0.091,0.366c0.69,2.576,2.585,6.051,7.699,7.98
			c0.195,0.073,0.395,0.108,0.591,0.108c0.681,0,1.322-0.419,1.576-1.097c0.326-0.874-0.114-1.849-0.984-2.178
			c-2.984-1.126-4.867-3-5.598-5.571c-0.562-1.976-0.234-3.683-0.224-3.733c0.031-0.145,0.04-0.29,0.033-0.431
			c4.181-5.982,7.191-10.286,7.366-10.533c0.988-1.328,2.162-2.456,3.471-3.361c0.774,2.904,2.788,7.625,7.956,10.389
			c0.252,0.135,0.522,0.199,0.789,0.199c0.602,0,1.184-0.326,1.487-0.897c0.437-0.824,0.126-1.849-0.695-2.287
			c-4.585-2.453-6.029-6.91-6.467-9.019c1.642-0.625,3.407-0.956,5.232-0.956C115.459,67.135,122.049,73.758,122.049,81.899z"/>
	</g>
</g>
</svg>
