<?xml version="1.0" encoding="utf-8"?>
<!-- Generator: Adobe Illustrator 17.0.0, SVG Export Plug-In . SVG Version: 6.00 Build 0)  -->
<!DOCTYPE svg PUBLIC "-//W3C//DTD SVG 1.1//EN" "http://www.w3.org/Graphics/SVG/1.1/DTD/svg11.dtd">
<svg version="1.1" id="Layer_1" xmlns="http://www.w3.org/2000/svg" xmlns:xlink="http://www.w3.org/1999/xlink" x="0px" y="0px"
	 width="166.212px" height="164.667px" viewBox="0 0 166.212 164.667" enable-background="new 0 0 166.212 164.667"
	 xml:space="preserve">
<g>
	<g>
		<path fill="#F1D1C7" d="M99.245,70.462c1.967,1.413,4.394,2.156,7.114,2.156c0.968,0,1.972-0.092,3.004-0.28
			c4.345-0.79,8.712-3.198,12.296-6.779c3.584-3.581,5.994-7.945,6.785-12.286c0.84-4.61-0.219-8.671-2.983-11.431
			c-5.495-5.493-16.143-3.786-23.736,3.799c-3.584,3.581-5.994,7.945-6.785,12.286c-0.672,3.69-0.108,7.014,1.552,9.614
			L83.031,80.993L72.097,70.068c3.183-4.987,1.592-12.83-4.093-18.511L55.346,38.909c-0.784-0.783-2.054-0.783-2.838,0
			c-0.784,0.783-0.784,2.052,0,2.835l12.658,12.649c3.956,3.953,5.486,9.272,3.977,12.724L48.129,46.12
			c-0.784-0.783-2.054-0.783-2.838,0c-0.784,0.783-0.784,2.052,0,2.835l21.014,20.997c-3.455,1.508-8.779-0.02-12.735-3.973
			L40.912,53.331c-0.784-0.783-2.054-0.783-2.838,0c-0.784,0.783-0.784,2.052,0,2.835l12.658,12.648
			c3.747,3.744,8.439,5.718,12.632,5.718c2.17,0,4.206-0.529,5.909-1.615l10.92,10.911L62.116,101.89l-0.317,0.126
			c-2.018,0.802-19.752,8.067-21.398,16.046c-0.312,1.515-0.224,3.779,1.97,5.971c1.597,1.596,3.242,2.047,4.593,2.047
			c0.453,0,0.873-0.051,1.245-0.126c7.111-1.434,13.812-15.784,15.722-20.206l19.1-19.084l18.761,18.745
			c1.508,3.654,8.353,19.265,15.825,20.804c0.384,0.079,0.816,0.132,1.283,0.132c1.377,0,3.055-0.463,4.694-2.1
			c2.133-2.13,2.222-4.348,1.923-5.833c-1.563-7.737-18.449-14.988-21.152-16.103l-18.495-18.48L99.245,70.462z M104.563,48.477
			c3.785-3.781,8.527-5.857,12.467-5.857c2.227,0,4.198,0.664,5.594,2.058c3.865,3.861,2.123,12.126-3.802,18.046
			c-5.925,5.92-14.195,7.659-18.061,3.799C96.896,62.661,98.638,54.397,104.563,48.477z M47.414,122.023
			c-0.534,0.108-1.267,0.112-2.206-0.825c-0.997-0.996-0.992-1.766-0.877-2.325c0.723-3.505,7.876-7.974,14.222-11.039
			C55.431,114.174,50.901,121.321,47.414,122.023z M121.581,119.205c0.108,0.534,0.112,1.267-0.826,2.204
			c-0.999,0.995-1.765,0.995-2.328,0.875c-3.508-0.722-7.981-7.87-11.048-14.21C113.725,111.194,120.878,115.721,121.581,119.205z"
			/>
	</g>
</g>
</svg>
