<?xml version="1.0" encoding="utf-8"?>
<!-- Generator: Adobe Illustrator 17.0.0, SVG Export Plug-In . SVG Version: 6.00 Build 0)  -->
<!DOCTYPE svg PUBLIC "-//W3C//DTD SVG 1.1//EN" "http://www.w3.org/Graphics/SVG/1.1/DTD/svg11.dtd">
<svg version="1.1" id="Layer_1" xmlns="http://www.w3.org/2000/svg" xmlns:xlink="http://www.w3.org/1999/xlink" x="0px" y="0px"
	 width="166.212px" height="164.667px" viewBox="0 0 166.212 164.667" enable-background="new 0 0 166.212 164.667"
	 xml:space="preserve">
<g>
	<g>
		<path fill="#F1D1C7" d="M111.998,32.888c0.873-1.029,0.755-2.571-0.27-3.453c-1.027-0.885-2.58-0.769-3.464,0.259
			c-0.556,0.646-13.111,15.847,3.14,46.874c-8.492,3.837-17.63,5.802-27.23,5.802H83.9c-10.052,0-19.609-2.157-28.444-6.37
			c15.808-30.649,3.388-45.664,2.836-46.306c-0.878-1.022-2.412-1.14-3.443-0.264c-1.029,0.872-1.156,2.419-0.294,3.456
			c0.474,0.568,11.402,14.251-4.943,43.622c-18.072,32.475-0.596,57.265,0.157,58.305c0.48,0.662,1.229,1.015,1.991,1.015
			c0.499,0,1.004-0.152,1.439-0.468c1.099-0.795,1.344-2.333,0.547-3.432c-0.147-0.203-12.897-18.315-4.281-43.147
			c17.531,9.725,32.115,20.551,32.119,23.907v20.682c0,1.357,1.1,2.457,2.456,2.457c1.357,0,2.457-1.1,2.457-2.457V112.7
			c0-0.004,0.001-0.008,0.001-0.012c0.004-3.273,13.898-13.665,30.863-23.205c8.158,24.263-3.965,41.624-4.554,42.445
			c-0.796,1.099-0.552,2.636,0.547,3.432c0.437,0.317,0.94,0.468,1.439,0.468c0.762,0,1.511-0.353,1.991-1.015
			c0.753-1.04,18.229-25.829,0.157-58.305C100.616,47.169,111.501,33.485,111.998,32.888z M100.014,94.339
			c-8.888,5.865-13.559,9.927-15.971,12.876c-2.412-2.949-7.083-7.011-15.972-12.876c-6.156-4.062-12.37-7.668-15.469-9.425
			l1.856-3.931c9.186,4.183,19.075,6.302,29.435,6.302h0.293c10.367,0,20.259-2.119,29.443-6.302l1.856,3.931
			C112.384,86.67,106.17,90.277,100.014,94.339z M143.147,66.614h-14.511l3.804-3.868c0.951-0.967,0.939-2.523-0.029-3.475
			c-0.967-0.95-2.521-0.939-3.474,0.029l-7.915,8.049c-0.457,0.464-0.71,1.092-0.705,1.743c0.006,0.652,0.27,1.274,0.734,1.732
			l7.915,7.788c0.478,0.47,1.1,0.706,1.722,0.706c0.636,0,1.27-0.245,1.751-0.734c0.951-0.967,0.939-2.523-0.029-3.475l-3.637-3.579
			h14.373c1.357,0,2.456-1.1,2.456-2.457C145.603,67.715,144.503,66.614,143.147,66.614z M45.896,68.791
			c-0.006-0.652-0.27-1.274-0.734-1.731l-7.916-7.788c-0.967-0.95-2.521-0.939-3.474,0.029c-0.951,0.967-0.938,2.523,0.029,3.475
			l3.637,3.579H23.065c-1.357,0-2.456,1.1-2.456,2.457c0,1.357,1.1,2.457,2.456,2.457h14.511l-3.804,3.868
			c-0.951,0.967-0.939,2.523,0.029,3.475c0.477,0.47,1.1,0.706,1.723,0.706c0.636,0,1.27-0.245,1.751-0.734l7.916-8.049
			C45.647,70.07,45.9,69.443,45.896,68.791z"/>
	</g>
</g>
</svg>
