<?xml version="1.0" encoding="utf-8"?>
<!-- Generator: Adobe Illustrator 17.0.0, SVG Export Plug-In . SVG Version: 6.00 Build 0)  -->
<!DOCTYPE svg PUBLIC "-//W3C//DTD SVG 1.1//EN" "http://www.w3.org/Graphics/SVG/1.1/DTD/svg11.dtd">
<svg version="1.1" id="Layer_1" xmlns="http://www.w3.org/2000/svg" xmlns:xlink="http://www.w3.org/1999/xlink" x="0px" y="0px"
	 width="166.212px" height="164.667px" viewBox="0 0 166.212 164.667" enable-background="new 0 0 166.212 164.667"
	 xml:space="preserve">
<g>
	<g>
		<path fill="#F1D1C7" d="M129.662,84.309c-0.562-9.336-6.714-28.232-14.979-41.481c-8.247-13.226-13.975-16.169-21.659-16.977
			c-6.781-0.71-24.476-0.038-25.226-0.009c-1.067,0.041-1.915,0.907-1.93,1.97l-0.177,12.693c-0.008,0.577,0.234,1.129,0.665,1.516
			c0.43,0.386,1.01,0.57,1.582,0.498c0.069-0.007,7.113-0.74,8.072,3.083c1.594,6.352,13.225,4.993,17.807,4.197
			c5.133,8.274,4.831,18.802,4.192,24.355c-11.017-10.118-23.272-7.373-29.912-3.534c-3.358-5.943-7.72-9.673-12.992-11.103
			c-9.075-2.458-17.354,2.917-17.701,3.146c-0.922,0.611-1.173,1.848-0.564,2.769c0.61,0.921,1.859,1.175,2.779,0.568
			c0.071-0.047,7.165-4.614,14.461-2.613c4.262,1.166,7.847,4.363,10.68,9.5l-3.344,2.403c-0.899,0.646-1.103,1.896-0.454,2.793
			c0.392,0.542,1.007,0.83,1.63,0.83c0.407,0,0.817-0.123,1.172-0.378l4.753-3.415c0.002-0.001,0.004-0.003,0.006-0.005
			c0.003-0.002,0.007-0.003,0.01-0.006c0.633-0.463,15.648-11.117,29.229,4.548l2.473,3.77c0.385,0.587,1.027,0.906,1.682,0.906
			c0.376,0,0.758-0.105,1.097-0.326c0.927-0.605,1.188-1.844,0.581-2.77l-2.103-3.206c0.706-3.643,2.881-17.982-3.786-29.527
			l2.154-0.917c1.019-0.434,1.493-1.61,1.057-2.626c-0.435-1.015-1.614-1.487-2.635-1.053l-4.111,1.751
			c-7.863,1.593-13.822,0.745-14.267-1.028c-1.205-4.801-6.237-6.145-10.169-6.2l0.121-8.658c4.824-0.155,17.51-0.493,22.748,0.057
			c5.606,0.588,10.539,2.074,18.669,15.109c7.825,12.546,13.86,30.944,14.382,39.609c0.378,6.294-2.098,7.131-6.592,8.65
			c-0.598,0.202-1.209,0.408-1.823,0.633c-1.312,0.48-2.676,1.428-4.4,2.629c-6.067,4.222-17.359,12.082-41.97,7.856
			c-0.839-0.143-1.687,0.259-2.101,1.008c-0.102,0.186-10.416,18.557-26.404,18.883c-0.9,0.019-1.677,0.632-1.903,1.501
			l-2.831,10.93c-0.277,1.07,0.369,2.161,1.442,2.438c0.169,0.043,0.337,0.065,0.503,0.064c0.894,0,1.709-0.599,1.943-1.501
			l2.462-9.509c7.104-0.587,14.131-4.232,20.418-10.612c3.576-3.629,6.013-7.211,7.153-9.034
			c25.308,3.989,37.163-4.271,43.587-8.743c1.427-0.994,2.66-1.851,3.484-2.152c0.584-0.214,1.163-0.409,1.731-0.601
			C124.979,95.425,130.224,93.652,129.662,84.309z"/>
	</g>
</g>
</svg>
